<svg width="103" height="55" viewBox="0 0 103 55" fill="none" xmlns="http://www.w3.org/2000/svg">
<mask id="mask0_12_1505" style="mask-type:luminance" maskUnits="userSpaceOnUse" x="0" y="0" width="103" height="55">
<path d="M49.2523 54.1702C48.6852 47.8366 45.9027 41.9059 41.3944 37.4215C36.8861 32.937 30.9407 30.1861 24.6042 29.6526C25.1763 35.9843 27.9604 41.9121 32.4678 46.3956C36.9751 50.8791 42.9177 53.6317 49.2523 54.1702ZM53.8322 54.1702C60.1669 53.6317 66.1094 50.8791 70.6168 46.3956C75.1241 41.9121 77.9082 35.9843 78.4803 29.6526C72.1439 30.1861 66.1985 32.937 61.6901 37.4215C57.1818 41.9059 54.3993 47.8366 53.8322 54.1702ZM77.58 53.8701C83.9146 53.3316 89.8572 50.579 94.3646 46.0955C98.8719 41.612 101.656 35.6842 102.228 29.3525C95.8925 29.8885 89.9486 32.6402 85.4407 37.1242C80.9329 41.6082 78.1496 47.5375 77.58 53.8701ZM25.5045 53.8701C24.9324 47.5384 22.1483 41.6105 17.641 37.127C13.1337 32.6435 7.1911 29.891 0.856445 29.3525C1.42606 35.6851 4.20934 41.6144 8.71717 46.0983C13.225 50.5823 19.169 53.3341 25.5045 53.8701ZM45.0116 27.343C44.9971 33.8083 47.3133 40.0621 51.5357 44.9581C55.7568 40.06 58.0786 33.809 58.0786 27.343C58.0786 20.8771 55.7568 14.6261 51.5357 9.72794C47.3214 14.6236 45.0061 20.8703 45.0116 27.33M49.2523 0.541992C42.9167 1.07798 36.9728 3.82975 32.4649 8.31373C27.9571 12.7977 25.1738 18.727 24.6042 25.0596C30.9407 24.5261 36.8861 21.7752 41.3944 17.2907C45.9027 12.8062 48.6852 6.87554 49.2523 0.541992ZM53.8322 0.541992C54.3993 6.87554 57.1818 12.8062 61.6901 17.2907C66.1985 21.7752 72.1439 24.5261 78.4803 25.0596C77.9082 18.7279 75.1241 12.8 70.6168 8.31655C66.1094 3.83307 60.1669 1.08049 53.8322 0.541992Z" fill="white"/>
</mask>
<g mask="url(#mask0_12_1505)">
<path d="M102.228 0.541992H0.856445V54.1702H102.228V0.541992Z" fill="url(#paint0_linear_12_1505)"/>
</g>
<defs>
<linearGradient id="paint0_linear_12_1505" x1="52.3562" y1="54.3835" x2="52.3562" y2="28.0443" gradientUnits="userSpaceOnUse">
<stop stop-color="#064367"/>
<stop offset="1" stop-color="#188F7A"/>
</linearGradient>
</defs>
</svg>
