<svg width="21" height="21" viewBox="0 0 21 21" fill="none" xmlns="http://www.w3.org/2000/svg">
<path d="M19.5234 20.2578C19.4062 20.6875 19.0547 21 18.625 21C8.58594 21 0.5 12.875 0.5 2.875C0.5 2.40625 0.773438 2.05469 1.20312 1.9375L5.26562 1C5.69531 0.921875 6.16406 1.11719 6.35938 1.54688L8.23438 5.92188C8.39062 6.3125 8.27344 6.74219 7.96094 7.01562L5.57812 8.96875C7.02344 12.0156 9.52344 14.4766 12.4922 15.8828L14.4453 13.5C14.7188 13.1875 15.1484 13.0703 15.5391 13.2266L19.9141 15.1016C20.3438 15.2969 20.5781 15.7656 20.4609 16.1953L19.5234 20.2578Z" fill="white"/>
</svg>
