<svg width="17" height="19" viewBox="0 0 17 19" fill="none" xmlns="http://www.w3.org/2000/svg">
<path d="M13 11.5C14.8633 11.5 16.375 13.0117 16.375 14.875C16.375 16.7734 14.8633 18.25 13 18.25C11.1016 18.25 9.625 16.7734 9.625 14.875V14.9102C9.625 14.6289 9.625 14.3828 9.69531 14.1719L6.07422 11.9219C5.51172 12.3789 4.77344 12.625 4 12.625C2.10156 12.625 0.625 11.1484 0.625 9.25C0.625 7.38672 2.10156 5.875 4 5.875C4.77344 5.875 5.51172 6.15625 6.07422 6.61328L9.69531 4.36328C9.625 4.15234 9.625 3.90625 9.625 3.625C9.625 1.76172 11.1016 0.25 13 0.25C14.8633 0.25 16.375 1.76172 16.375 3.625C16.375 5.52344 14.8633 7 13 7C12.1914 7 11.4531 6.75391 10.8906 6.29688L7.26953 8.54688C7.33984 8.75781 7.33984 9.00391 7.33984 9.25C7.33984 9.53125 7.33984 9.77734 7.26953 9.98828L10.8906 12.2383C11.4531 11.7812 12.1914 11.5 13 11.5Z" fill="#212529"/>
</svg>
