<svg width="24" height="21" viewBox="0 0 24 21" fill="none" xmlns="http://www.w3.org/2000/svg">
<path d="M20.1875 12.5H8.74219L9.01562 13.75H19.4844C20.0703 13.75 20.5391 14.3359 20.3828 14.9219L20.1875 15.8594C20.9297 16.2109 21.4375 16.9531 21.4375 17.8125C21.4375 19.0625 20.4219 20.0391 19.2109 20C18.0391 20 17.0625 19.0625 17.0625 17.8906C17.0234 17.2656 17.2969 16.6797 17.6875 16.25H9.52344C9.91406 16.6797 10.1875 17.2266 10.1875 17.8125C10.1875 19.0625 9.13281 20.0781 7.88281 20C6.75 19.9609 5.85156 19.0625 5.8125 17.9688C5.73438 17.0703 6.20312 16.3281 6.90625 15.9375L4.13281 2.5H1.4375C0.890625 2.5 0.5 2.10938 0.5 1.5625V0.9375C0.5 0.429688 0.890625 0 1.4375 0H5.42188C5.85156 0 6.24219 0.351562 6.35938 0.78125L6.71094 2.5H22.0234C22.6484 2.5 23.0781 3.08594 22.9609 3.67188L21.125 11.7969C21.0078 12.2266 20.6172 12.5 20.1875 12.5ZM16.4375 6.5625H14.5625V5C14.5625 4.6875 14.25 4.375 13.9375 4.375H13.3125C12.9609 4.375 12.6875 4.6875 12.6875 5V6.5625H10.8125C10.4609 6.5625 10.1875 6.875 10.1875 7.1875V7.8125C10.1875 8.16406 10.4609 8.4375 10.8125 8.4375H12.6875V10C12.6875 10.3516 12.9609 10.625 13.3125 10.625H13.9375C14.25 10.625 14.5625 10.3516 14.5625 10V8.4375H16.4375C16.75 8.4375 17.0625 8.16406 17.0625 7.8125V7.1875C17.0625 6.875 16.75 6.5625 16.4375 6.5625Z" fill="white"/>
</svg>
