<svg width="29" height="29" viewBox="0 0 29 29" fill="none" xmlns="http://www.w3.org/2000/svg">
<g clip-path="url(#clip0_10_81)">
<g clip-path="url(#clip1_10_81)">
<g clip-path="url(#clip2_10_81)">
<path d="M8.5 22C8.00555 22 7.5222 22.1466 7.11107 22.4213C6.69995 22.696 6.37952 23.0865 6.1903 23.5433C6.00108 24.0001 5.95157 24.5028 6.04804 24.9877C6.1445 25.4727 6.3826 25.9181 6.73223 26.2678C7.08186 26.6174 7.52732 26.8555 8.01227 26.952C8.49723 27.0484 8.99989 26.9989 9.45671 26.8097C9.91352 26.6205 10.304 26.3001 10.5787 25.8889C10.8534 25.4778 11 24.9945 11 24.5C11 23.837 10.7366 23.2011 10.2678 22.7322C9.79893 22.2634 9.16304 22 8.5 22ZM1 3.25C1.00105 3.5812 1.13309 3.89853 1.36728 4.13272C1.60147 4.36691 1.9188 4.49895 2.25 4.5H3.5L8 13.987L6.313 17.037C6.10178 17.4176 5.99362 17.8469 5.99921 18.2821C6.00481 18.7174 6.12397 19.1437 6.3449 19.5188C6.56584 19.8939 6.88088 20.2048 7.25887 20.4207C7.63686 20.6367 8.06468 20.7502 8.5 20.75H22.248C22.5795 20.75 22.8975 20.6183 23.1319 20.3839C23.3663 20.1495 23.498 19.8315 23.498 19.5C23.498 19.1685 23.3663 18.8505 23.1319 18.6161C22.8975 18.3817 22.5795 18.25 22.248 18.25H8.5L9.875 15.75H19.187C19.6335 15.7514 20.0721 15.6327 20.4569 15.4063C20.8417 15.1798 21.1585 14.854 21.374 14.463L25.848 6.35C25.9533 6.16057 26.0074 5.94692 26.0048 5.7302C26.0022 5.51347 25.9431 5.30117 25.8333 5.11429C25.7235 4.92742 25.5668 4.77245 25.3787 4.66471C25.1907 4.55697 24.9777 4.5002 24.761 4.5H6.262L5.425 2.713C5.32464 2.49952 5.16551 2.31907 4.96626 2.19279C4.76701 2.06651 4.5359 1.99964 4.3 2H2.25C1.9188 2.00106 1.60147 2.13309 1.36728 2.36728C1.13309 2.60148 1.00105 2.91881 1 3.25ZM21 22C20.5055 22 20.0222 22.1466 19.6111 22.4213C19.2 22.696 18.8795 23.0865 18.6903 23.5433C18.5011 24.0001 18.4516 24.5028 18.548 24.9877C18.6445 25.4727 18.8826 25.9181 19.2322 26.2678C19.5819 26.6174 20.0273 26.8555 20.5123 26.952C20.9972 27.0484 21.4999 26.9989 21.9567 26.8097C22.4135 26.6205 22.804 26.3001 23.0787 25.8889C23.3534 25.4778 23.5 24.9945 23.5 24.5C23.5 23.837 23.2366 23.2011 22.7678 22.7322C22.2989 22.2634 21.663 22 21 22Z" fill="#0D8F75"/>
</g>
</g>
</g>
<defs>
<clipPath id="clip0_10_81">
<rect width="29" height="29" fill="white"/>
</clipPath>
<clipPath id="clip1_10_81">
<rect width="29" height="29" fill="white"/>
</clipPath>
<clipPath id="clip2_10_81">
<rect width="29" height="29" fill="white"/>
</clipPath>
</defs>
</svg>
