<svg width="107" height="65" viewBox="0 0 107 65" fill="none" xmlns="http://www.w3.org/2000/svg">
<g clip-path="url(#clip0_2_1650)">
<g clip-path="url(#clip1_2_1650)">
<g clip-path="url(#clip2_2_1650)">
<path d="M74.3633 51.5733C74.5448 51.495 74.7053 51.3752 74.8319 51.2234C74.9531 51.0732 75.0418 50.8994 75.0923 50.7131C75.1488 50.5161 75.1768 50.312 75.1756 50.107V43.1899H74.2342V49.855C74.2417 50.0188 74.2162 50.1824 74.1592 50.3361C74.118 50.4392 74.0513 50.5302 73.9655 50.6006C73.8891 50.6628 73.798 50.7044 73.701 50.7214C73.6116 50.7376 73.521 50.7459 73.4302 50.7464H72.5242C72.3165 50.7543 72.1112 50.6999 71.9347 50.5902C71.7779 50.4838 71.6492 50.3408 71.5598 50.1737C71.4595 49.977 71.3893 49.7663 71.3515 49.5488C71.2987 49.3005 71.2598 49.0495 71.2349 48.7969C71.2204 48.5506 71.1778 48.3067 71.1078 48.07C71.0386 47.8249 70.9234 47.5952 70.7683 47.3931C70.6062 47.1855 70.4008 47.0156 70.1664 46.8953C69.8832 46.7579 69.5708 46.6914 69.2562 46.7016C69.0959 46.7024 68.9358 46.7143 68.7772 46.737C68.6126 46.7599 68.4522 46.787 68.2981 46.8161C68.144 46.8453 67.994 46.8807 67.8545 46.9203C67.7149 46.9599 67.6004 46.9994 67.5108 47.0328L67.7462 47.9554C67.9569 47.8631 68.1768 47.7932 68.4022 47.7472C68.5923 47.7031 68.7863 47.6787 68.9813 47.6743C69.3018 47.6593 69.6157 47.7682 69.8581 47.9784C70.0768 48.1866 70.2143 48.5386 70.2747 49.0489C70.3156 49.4114 70.3852 49.7701 70.483 50.1216C70.5472 50.339 70.6427 50.546 70.7663 50.736H65.63C65.6092 50.0737 65.5529 49.0198 65.4592 48.7907C65.3555 48.5155 65.1886 48.2687 64.9718 48.07C64.7585 47.8831 64.5047 47.7483 64.2303 47.6763C63.9429 47.5951 60.1543 47.5555 59.8148 47.5555H59.5627L62.6057 45.4727L62.0892 44.7854L58.1964 47.5181V48.4678H62.1267C62.7267 48.4629 63.3265 48.497 63.9221 48.5699C64.1276 48.6229 64.3099 48.7422 64.4407 48.9094C64.5715 49.1026 64.6497 49.3266 64.6677 49.5592C64.6677 49.6384 64.6844 50.2715 64.6906 50.7443H56.5031V48.9989C56.5064 48.684 56.4542 48.371 56.3489 48.0742C56.2547 47.8087 56.1089 47.5645 55.9199 47.3556C55.7297 47.1527 55.4971 46.9941 55.2388 46.8911C54.9478 46.7765 54.6372 46.7199 54.3244 46.7245C53.9899 46.7194 53.6587 46.7906 53.3559 46.9328C53.064 47.074 52.8034 47.2723 52.5894 47.516C52.3699 47.7685 52.2003 48.0604 52.0896 48.3762C51.9694 48.7102 51.9088 49.0627 51.9104 49.4176C51.9101 49.701 51.9566 49.9825 52.0479 50.2507C52.1383 50.5234 52.2884 50.7725 52.4874 50.9797C52.7127 51.2082 52.9838 51.3864 53.283 51.5025C53.6634 51.6491 54.0689 51.7199 54.4765 51.7108H55.5845C55.5886 52.0276 55.5269 52.3417 55.4033 52.6335C55.3048 52.8539 55.1531 53.0464 54.9618 53.1938C54.7763 53.3303 54.5629 53.4242 54.3369 53.4687C54.0863 53.5156 53.8317 53.5386 53.5767 53.5374C53.4163 53.5374 53.2476 53.5374 53.0747 53.5228C52.9019 53.5083 52.7207 53.4978 52.5394 53.4812C52.5228 53.6291 52.5082 53.7749 52.4936 53.9207C52.479 54.0665 52.4686 54.2185 52.4561 54.3851C52.6334 54.4137 52.8121 54.4325 52.9914 54.4414C53.1643 54.4414 53.3351 54.4539 53.4996 54.4539C53.905 54.4585 54.3092 54.4088 54.7014 54.306C55.0471 54.2143 55.3694 54.0503 55.647 53.8249C55.9213 53.5949 56.1357 53.3019 56.2719 52.9709C56.4314 52.5698 56.514 52.1424 56.5156 51.7108H69.9581C70.1231 51.7084 70.2846 51.6632 70.4268 51.5796C70.637 51.429 70.8067 51.2286 70.9204 50.9964C71.0883 51.2332 71.3152 51.422 71.5786 51.5442C71.8552 51.6606 72.1533 51.7174 72.4533 51.7108H73.6531C73.9005 51.7188 74.1469 51.6741 74.3758 51.5796M55.5845 50.7464H54.439C54.2353 50.7473 54.0325 50.7185 53.837 50.661C53.6516 50.6052 53.4785 50.5147 53.3268 50.3944C53.1716 50.2654 53.0495 50.1011 52.9706 49.9154C52.8781 49.6881 52.8342 49.4441 52.8415 49.1989C52.8374 48.9801 52.877 48.7627 52.9581 48.5595C53.0324 48.3778 53.1381 48.2107 53.2705 48.0658C53.3965 47.9284 53.5517 47.821 53.7246 47.7513C53.8944 47.6816 54.0762 47.6455 54.2599 47.6451C54.446 47.6379 54.6312 47.6756 54.7998 47.755C54.9683 47.8344 55.1153 47.9532 55.2284 48.1012C55.4873 48.477 55.6127 48.9288 55.5845 49.3843V50.7464Z" fill="#373A75"/>
<path d="M33.4505 51.2276C33.5717 51.0773 33.6603 50.9036 33.7108 50.7173C33.7673 50.5202 33.7954 50.3161 33.7941 50.1112V43.1899H32.8527V49.855C32.8608 50.0186 32.836 50.1822 32.7798 50.3361C32.7386 50.4392 32.6719 50.5302 32.5861 50.6006C32.5097 50.6628 32.4186 50.7044 32.3216 50.7214C32.2322 50.7376 32.1416 50.7459 32.0508 50.7464H31.4551C31.2314 50.7539 31.0085 50.7171 30.799 50.6381C30.6383 50.5747 30.4953 50.4732 30.3825 50.3424C30.2748 50.2142 30.1979 50.0632 30.1575 49.9008C30.1102 49.7179 30.0871 49.5295 30.0888 49.3405V47.189H29.1536V51.6441C29.1807 52.0655 29.0959 52.4866 28.9078 52.8647C28.7454 53.134 28.4364 53.2687 27.981 53.2687H27.7373C27.655 53.2651 27.5729 53.2567 27.4915 53.2437L27.2124 53.1917L27.1104 54.1352L27.4728 54.1789C27.6416 54.1964 27.8112 54.2048 27.981 54.2039C28.2938 54.2097 28.6041 54.1457 28.8891 54.0165C29.1475 53.896 29.3743 53.717 29.5514 53.4937C29.7337 53.2604 29.8701 52.9946 29.9534 52.7105C30.0451 52.3995 30.0907 52.0767 30.0888 51.7524V50.8547C30.1401 51.024 30.2283 51.1798 30.3471 51.3109C30.4473 51.4177 30.5658 51.5059 30.697 51.5712C30.8197 51.6323 30.9523 51.6711 31.0885 51.6858C31.2052 51.6983 31.3218 51.7024 31.4385 51.7045H32.2716C32.5191 51.7124 32.7654 51.6676 32.9943 51.5733C33.1758 51.495 33.3364 51.3752 33.463 51.2234" fill="#373A75"/>
<path d="M3.75354 45.4707C3.89882 45.4707 4.03815 45.4129 4.14088 45.3102C4.24361 45.2075 4.30132 45.0682 4.30132 44.9229C4.30224 44.8502 4.28851 44.7781 4.26096 44.7108C4.23341 44.6435 4.19259 44.5825 4.14094 44.5313C4.09111 44.4789 4.03096 44.4374 3.96428 44.4094C3.89759 44.3815 3.82584 44.3677 3.75354 44.3688C3.68188 44.3679 3.61081 44.3818 3.54483 44.4098C3.47885 44.4377 3.41941 44.4791 3.3703 44.5313C3.31893 44.5826 3.27843 44.6437 3.25123 44.711C3.22404 44.7782 3.21069 44.8503 3.212 44.9229C3.21145 44.9944 3.22504 45.0654 3.25198 45.1317C3.27893 45.198 3.3187 45.2583 3.36901 45.3092C3.41932 45.3601 3.47919 45.4006 3.54518 45.4283C3.61116 45.456 3.68197 45.4704 3.75354 45.4707Z" fill="#373A75"/>
<path d="M2.16641 45.4706C2.23914 45.4718 2.31134 45.4581 2.37865 45.4306C2.44595 45.403 2.50696 45.3621 2.55798 45.3102C2.61058 45.2605 2.65221 45.2004 2.68019 45.1337C2.70817 45.067 2.72188 44.9951 2.72044 44.9228C2.72044 44.7759 2.66207 44.635 2.55817 44.5311C2.45427 44.4271 2.31335 44.3688 2.16641 44.3688C2.09577 44.3684 2.02581 44.3826 1.96093 44.4106C1.89606 44.4386 1.83766 44.4796 1.78942 44.5312C1.73643 44.5816 1.69445 44.6424 1.66613 44.7098C1.63781 44.7772 1.62376 44.8497 1.62488 44.9228C1.62331 44.9954 1.63716 45.0674 1.66553 45.1342C1.6939 45.201 1.73612 45.261 1.78942 45.3102C1.83807 45.3611 1.89659 45.4016 1.96141 45.4292C2.02622 45.4568 2.09597 45.4709 2.16641 45.4706Z" fill="#373A75"/>
<path d="M12.441 53.0729C12.3334 53.0735 12.2284 53.106 12.1391 53.1661C12.0499 53.2262 11.9805 53.3114 11.9395 53.4109C11.8986 53.5104 11.8879 53.6198 11.909 53.7253C11.93 53.8308 11.9818 53.9278 12.0577 54.0039C12.1077 54.0548 12.1673 54.095 12.2332 54.1222C12.2991 54.1494 12.3697 54.163 12.441 54.1622C12.5135 54.1631 12.5854 54.1495 12.6526 54.1223C12.7198 54.0952 12.781 54.0549 12.8325 54.0039C12.8841 53.9539 12.925 53.894 12.953 53.8278C12.981 53.7616 12.9954 53.6905 12.9954 53.6186C12.9954 53.5468 12.981 53.4757 12.953 53.4095C12.925 53.3433 12.8841 53.2834 12.8325 53.2333C12.7814 53.1817 12.7203 53.1408 12.6531 53.1133C12.5858 53.0857 12.5137 53.072 12.441 53.0729Z" fill="#373A75"/>
<path d="M10.8705 54.1622C10.9424 54.1632 11.0138 54.1497 11.0803 54.1225C11.1469 54.0953 11.2073 54.055 11.2579 54.0039C11.3481 53.9148 11.4045 53.7971 11.4176 53.671C11.4307 53.545 11.3997 53.4182 11.3298 53.3125C11.2599 53.2067 11.1555 53.1284 11.0344 53.091C10.9132 53.0536 10.7829 53.0594 10.6655 53.1073C10.5482 53.1553 10.4511 53.2425 10.3908 53.354C10.3306 53.4655 10.3108 53.5945 10.335 53.7189C10.3592 53.8434 10.4258 53.9556 10.5234 54.0364C10.6211 54.1172 10.7437 54.1617 10.8705 54.1622Z" fill="#373A75"/>
<path d="M18.9893 51.2276C19.1765 51.0499 19.3384 50.8474 19.4704 50.6256C19.5172 50.8184 19.6061 50.9983 19.7307 51.1526C19.8365 51.287 19.9673 51.3994 20.1161 51.4838C20.2599 51.5675 20.417 51.6259 20.5805 51.6566C20.746 51.6882 20.9141 51.7042 21.0825 51.7045H27.2289V48.9365C27.2328 48.6298 27.1842 48.3248 27.0852 48.0346C26.9958 47.7765 26.854 47.5396 26.6686 47.3389C26.4836 47.1425 26.2584 46.9883 26.0084 46.887C25.7344 46.777 25.4413 46.7225 25.1461 46.7266C24.7879 46.719 24.4324 46.7901 24.1047 46.9349C23.8042 47.0713 23.5305 47.2603 23.2965 47.4931C23.0703 47.7186 22.8924 47.9879 22.7738 48.2845C22.6552 48.5756 22.5936 48.8867 22.5925 49.201C22.5877 49.5092 22.6451 49.8152 22.7613 50.1008C22.8594 50.3371 23.0063 50.55 23.1924 50.7256H21.1096C20.8572 50.7376 20.6056 50.6883 20.3764 50.5819C20.2124 50.5036 20.0696 50.3872 19.9599 50.2424C19.8705 50.1185 19.81 49.9762 19.7828 49.8258C19.7602 49.7063 19.7477 49.5851 19.7453 49.4634C19.7453 48.6011 19.5468 47.9325 19.1496 47.4577C18.9447 47.2195 18.688 47.0313 18.3992 46.9075C18.1105 46.7837 17.7972 46.7275 17.4834 46.7432C17.1575 46.7399 16.8346 46.8052 16.5357 46.9349C16.2537 47.0609 16.0022 47.2464 15.7984 47.4785C15.5873 47.7158 15.4227 47.9906 15.3131 48.2887C15.192 48.6145 15.1313 48.9596 15.1339 49.3072C15.1412 49.5492 15.111 49.7909 15.0444 50.0237C14.9992 50.1838 14.9212 50.3328 14.8153 50.4611C14.729 50.5581 14.6182 50.63 14.4945 50.6694C14.3738 50.7069 14.2481 50.7258 14.1217 50.7256H13.4489C13.2315 50.7315 13.0149 50.6947 12.8116 50.6173C12.6515 50.5526 12.5089 50.4513 12.395 50.3215C12.2859 50.1941 12.2082 50.0429 12.168 49.88C12.1249 49.6964 12.1039 49.5083 12.1055 49.3197V47.189H11.1558V49.8383C11.1671 50.0675 11.1167 50.2955 11.01 50.4986C10.9436 50.5867 10.855 50.6557 10.7533 50.6985C10.6516 50.7413 10.5404 50.7564 10.4309 50.7423H5.16554V48.9989C5.16902 48.6838 5.11612 48.3707 5.00933 48.0742C4.91363 47.8085 4.7664 47.5643 4.5761 47.3556C4.38848 47.1525 4.15794 46.9939 3.90127 46.8911C3.61518 46.7771 3.30944 46.7205 3.00149 46.7245C2.66701 46.7194 2.33577 46.7906 2.03297 46.9328C1.73982 47.0739 1.47782 47.2722 1.26233 47.516C1.04085 47.7682 0.86912 48.0601 0.756202 48.3762C0.634407 48.7098 0.573045 49.0624 0.574996 49.4176C0.574689 49.701 0.621135 49.9825 0.712463 50.2507C0.802835 50.5234 0.952984 50.7725 1.15194 50.9797C1.37722 51.2083 1.6484 51.3864 1.94758 51.5025C2.328 51.6491 2.73344 51.7199 3.14104 51.7108H10.5059C10.6552 51.7108 10.8042 51.699 10.9516 51.6754C11.092 51.6541 11.2278 51.6098 11.3536 51.5442C11.484 51.4752 11.5988 51.3802 11.691 51.2651C11.807 51.1184 11.901 50.9556 11.9701 50.7818C12.0058 50.9303 12.0711 51.0701 12.162 51.1929C12.2529 51.3156 12.3675 51.4188 12.4992 51.4963C12.7794 51.6434 13.0931 51.7151 13.4094 51.7045H14.2113C14.4737 51.6974 14.7279 51.611 14.9402 51.4567C15.1961 51.2727 15.3825 51.0078 15.4693 50.7048C15.658 51.0384 15.9328 51.3153 16.2649 51.5067C16.6191 51.687 17.0133 51.7744 17.4105 51.7608C17.5943 51.7613 17.7779 51.7502 17.9603 51.7274C18.1406 51.7024 18.3162 51.6504 18.4811 51.5733C18.665 51.4863 18.8338 51.3702 18.9809 51.2297M23.6485 48.5553C23.7272 48.3726 23.8379 48.2054 23.9755 48.0617C24.1086 47.9239 24.2699 47.8166 24.4483 47.7472C24.6245 47.6766 24.8126 47.6405 25.0024 47.6409C25.2013 47.6359 25.3989 47.6743 25.5814 47.7534C25.7321 47.8201 25.8665 47.9189 25.9751 48.0429C26.0772 48.1602 26.1544 48.2969 26.2021 48.4449C26.2489 48.5839 26.2735 48.7294 26.275 48.8761V50.7506H24.9378C24.6911 50.7239 24.4527 50.6459 24.238 50.5215C24.0401 50.4099 23.8716 50.2529 23.7464 50.0633C23.5917 49.8042 23.5191 49.5043 23.5382 49.2031C23.5315 48.9812 23.572 48.7604 23.6569 48.5553H23.6485ZM4.22202 50.7423H3.0973C2.89356 50.7434 2.69075 50.7146 2.49536 50.6569C2.31026 50.6023 2.13713 50.5133 1.98507 50.3944C1.82993 50.2654 1.70783 50.1011 1.62891 49.9154C1.53574 49.6883 1.49105 49.4443 1.49769 49.1989C1.49173 48.979 1.52997 48.7601 1.61016 48.5553C1.68495 48.3725 1.793 48.2051 1.92883 48.0617C2.05324 47.9292 2.20366 47.8238 2.37067 47.7521C2.53768 47.6804 2.71769 47.644 2.89943 47.6451C3.08935 47.6338 3.27911 47.6698 3.45175 47.7497C3.62439 47.8297 3.77454 47.9512 3.88877 48.1033C4.13787 48.483 4.25768 48.933 4.23036 49.3864L4.22202 50.7423ZM17.4688 50.8131C17.2495 50.8185 17.0316 50.7774 16.8294 50.6923C16.6647 50.616 16.5178 50.506 16.3982 50.3694C16.2786 50.2355 16.1897 50.0769 16.1379 49.905C16.08 49.7161 16.0519 49.5193 16.0546 49.3218C16.051 49.0851 16.0891 48.8496 16.167 48.6261C16.2324 48.4333 16.3358 48.2555 16.4711 48.1033C16.5991 47.96 16.755 47.8445 16.9293 47.7638C17.1011 47.6845 17.288 47.6433 17.4771 47.643C17.6588 47.6447 17.8379 47.6859 18.002 47.7638C18.1754 47.8451 18.3305 47.9606 18.4581 48.1033C18.595 48.257 18.7017 48.435 18.7726 48.6282C18.8547 48.8508 18.895 49.0866 18.8914 49.3239C18.894 49.5214 18.8659 49.7182 18.8081 49.9071C18.7567 50.0779 18.6702 50.2362 18.5539 50.3715C18.4324 50.5114 18.2807 50.6218 18.1103 50.6944C17.9096 50.7766 17.694 50.8163 17.4771 50.811L17.4688 50.8131Z" fill="#373A75"/>
<path d="M24.2401 45.4706C24.3118 45.4712 24.3829 45.4573 24.4491 45.4297C24.5153 45.4022 24.5753 45.3615 24.6254 45.3103C24.678 45.2606 24.7196 45.2005 24.7476 45.1337C24.7756 45.067 24.7893 44.9952 24.7879 44.9228C24.7889 44.85 24.775 44.7776 24.747 44.7103C24.7191 44.643 24.6777 44.582 24.6254 44.5313C24.5748 44.4799 24.5145 44.4391 24.448 44.4112C24.3815 44.3834 24.3101 44.369 24.238 44.369C24.1659 44.369 24.0945 44.3834 24.028 44.4112C23.9615 44.4391 23.9012 44.4799 23.8506 44.5313C23.7992 44.5825 23.7587 44.6436 23.7315 44.7109C23.7043 44.7782 23.691 44.8503 23.6923 44.9228C23.6906 44.9948 23.7037 45.0664 23.731 45.1331C23.7582 45.1997 23.7989 45.2601 23.8506 45.3103C23.9011 45.3622 23.9617 45.4033 24.0287 45.4309C24.0957 45.4585 24.1676 45.472 24.2401 45.4706Z" fill="#373A75"/>
<path d="M25.8189 45.4706C25.9642 45.4706 26.1035 45.4129 26.2062 45.3101C26.309 45.2074 26.3667 45.0681 26.3667 44.9228C26.3676 44.8501 26.3539 44.778 26.3263 44.7107C26.2988 44.6434 26.2579 44.5824 26.2063 44.5312C26.1559 44.4799 26.0958 44.4391 26.0294 44.4113C25.9631 44.3835 25.8919 44.3691 25.8199 44.3691C25.748 44.3691 25.6768 44.3835 25.6104 44.4113C25.5441 44.4391 25.484 44.4799 25.4336 44.5312C25.3812 44.582 25.3398 44.6429 25.3119 44.7102C25.284 44.7776 25.2701 44.8499 25.2711 44.9228C25.2697 44.9951 25.2834 45.067 25.3113 45.1337C25.3393 45.2004 25.381 45.2605 25.4336 45.3102C25.4836 45.3616 25.5436 45.4023 25.6098 45.4298C25.676 45.4574 25.7472 45.4713 25.8189 45.4706Z" fill="#373A75"/>
<path d="M40.4154 45.4706C40.4881 45.4715 40.5602 45.4578 40.6275 45.4302C40.6947 45.4027 40.7558 45.3619 40.8069 45.3102C40.8595 45.2605 40.9012 45.2004 40.9291 45.1337C40.9571 45.067 40.9708 44.9951 40.9694 44.9228C40.9694 44.7759 40.911 44.635 40.8071 44.5311C40.7032 44.4272 40.5623 44.3688 40.4154 44.3688C40.3444 44.3684 40.2741 44.3826 40.2089 44.4105C40.1437 44.4385 40.0849 44.4796 40.0363 44.5312C39.984 44.582 39.9426 44.6429 39.9146 44.7103C39.8867 44.7776 39.8728 44.8499 39.8738 44.9228C39.8749 45.0667 39.9321 45.2045 40.0332 45.3068C40.1344 45.4091 40.2715 45.4679 40.4154 45.4706Z" fill="#373A75"/>
<path d="M42.0003 45.4706C42.0724 45.4712 42.1439 45.4574 42.2106 45.4301C42.2773 45.4027 42.3379 45.3624 42.3889 45.3114C42.4399 45.2605 42.4802 45.1998 42.5075 45.1331C42.5349 45.0664 42.5486 44.9949 42.5481 44.9229C42.5489 44.8504 42.5354 44.7784 42.5082 44.7112C42.481 44.644 42.4408 44.5828 42.3898 44.5313C42.3394 44.479 42.2789 44.4376 42.2119 44.4097C42.1449 44.3818 42.0729 44.3679 42.0003 44.3688C41.9287 44.3682 41.8577 44.3823 41.7918 44.4103C41.7259 44.4382 41.6664 44.4794 41.6171 44.5313C41.5661 44.5828 41.5258 44.644 41.4987 44.7112C41.4715 44.7784 41.4579 44.8504 41.4588 44.9229C41.4582 44.9944 41.4718 45.0654 41.4988 45.1317C41.5257 45.198 41.5655 45.2583 41.6158 45.3092C41.6661 45.3601 41.726 45.4006 41.792 45.4283C41.8579 45.456 41.9287 45.4704 42.0003 45.4706Z" fill="#373A75"/>
<path d="M50.5087 51.0068C50.6854 50.7817 50.8163 50.5241 50.894 50.2487C50.9738 49.9682 51.0144 49.678 51.0148 49.3864C51.0188 49.0262 50.9725 48.6673 50.8774 48.32C50.7962 48.0208 50.6544 47.7414 50.4608 47.4993C50.2696 47.269 50.029 47.0846 49.7568 46.9599C49.4505 46.8313 49.1216 46.765 48.7893 46.765C48.4571 46.765 48.1282 46.8313 47.8219 46.9599C47.5378 47.082 47.2823 47.2622 47.0721 47.4889C46.8577 47.7238 46.6902 47.9973 46.5784 48.295C46.4546 48.623 46.3931 48.9712 46.3972 49.3218C46.3972 50.273 46.0577 50.7485 45.3787 50.7485H43.4146V48.999C43.4181 48.6839 43.3652 48.3707 43.2584 48.0742C43.1619 47.8089 43.0148 47.5648 42.8252 47.3556C42.635 47.1527 42.4024 46.9941 42.1441 46.8911C41.8572 46.7773 41.5508 46.7207 41.2422 46.7245C40.9084 46.7192 40.5778 46.7904 40.2758 46.9328C39.9826 47.0739 39.7206 47.2722 39.5051 47.516C39.2837 47.7682 39.1119 48.0601 38.999 48.3762C38.8756 48.7094 38.8135 49.0623 38.8157 49.4176C38.8154 49.701 38.8619 49.9825 38.9532 50.2507C39.0436 50.5234 39.1937 50.7725 39.3927 50.9797C39.618 51.2083 39.8891 51.3865 40.1883 51.5025C40.5687 51.6492 40.9742 51.7199 41.3818 51.7108H45.3391C45.6403 51.7219 45.9376 51.6405 46.191 51.4775C46.4501 51.2837 46.6453 51.0168 46.7513 50.711C46.8765 50.9174 47.0341 51.1024 47.2179 51.2588C47.3728 51.388 47.5462 51.4933 47.7323 51.5713C47.9039 51.641 48.0838 51.6879 48.2676 51.7108C48.4342 51.7309 48.6018 51.7413 48.7696 51.742C49.1269 51.752 49.4822 51.6845 49.811 51.5442C50.0805 51.4247 50.3175 51.2426 50.5025 51.0131M42.4711 50.7485H41.338C41.1343 50.7494 40.9315 50.7206 40.7361 50.6631C40.5512 50.6077 40.3786 50.5172 40.2279 50.3965C40.0715 50.2686 39.9492 50.1041 39.8717 49.9175C39.7786 49.6904 39.7339 49.4464 39.7405 49.201C39.7374 48.9823 39.777 48.7651 39.8571 48.5616C39.9319 48.3787 40.04 48.2114 40.1758 48.0679C40.3006 47.9359 40.4511 47.8309 40.618 47.7593C40.7849 47.6876 40.9648 47.6509 41.1464 47.6514C41.3354 47.6409 41.5241 47.6771 41.6959 47.7566C41.8677 47.8361 42.0173 47.9566 42.1316 48.1075C42.38 48.4875 42.499 48.9375 42.4711 49.3905V50.7485ZM49.3632 50.6986C49.1655 50.7817 48.9527 50.8229 48.7383 50.8194C48.5149 50.8253 48.2928 50.7841 48.0864 50.6986C47.919 50.6247 47.7703 50.5144 47.6511 50.3757C47.5343 50.2401 47.4464 50.082 47.3928 49.9112C47.3325 49.7228 47.303 49.5259 47.3053 49.3281C47.3025 49.0912 47.3413 48.8558 47.4199 48.6324C47.4893 48.439 47.5954 48.2608 47.7323 48.1075C47.8607 47.9647 48.0165 47.8492 48.1905 47.768C48.3623 47.6889 48.5492 47.6477 48.7383 47.6472C48.9159 47.6495 49.0908 47.6907 49.2507 47.768C49.4297 47.8461 49.5906 47.9603 49.7235 48.1034C49.8611 48.2565 49.9679 48.4347 50.038 48.6282C50.1201 48.8508 50.1603 49.0867 50.1567 49.3239C50.1593 49.5214 50.1312 49.7182 50.0734 49.9071C50.0221 50.078 49.9355 50.2362 49.8193 50.3715C49.6955 50.5111 49.5417 50.6208 49.3694 50.6923L49.3632 50.6986Z" fill="#373A75"/>
<path d="M77.6022 43.1899H76.6858V51.7024H77.6022V43.1899Z" fill="#373A75"/>
<path d="M83.2384 45.4707C83.3837 45.4707 83.523 45.4129 83.6257 45.3102C83.7285 45.2075 83.7862 45.0682 83.7862 44.9229C83.7871 44.8502 83.7734 44.7781 83.7458 44.7108C83.7183 44.6435 83.6775 44.5825 83.6258 44.5313C83.576 44.4789 83.5158 44.4374 83.4491 44.4094C83.3825 44.3815 83.3107 44.3677 83.2384 44.3688C83.1667 44.3679 83.0957 44.3818 83.0297 44.4098C82.9637 44.4377 82.9043 44.4791 82.8552 44.5313C82.8038 44.5826 82.7633 44.6437 82.7361 44.711C82.7089 44.7782 82.6956 44.8503 82.6969 44.9229C82.6963 44.9944 82.7099 45.0654 82.7368 45.1317C82.7638 45.198 82.8036 45.2583 82.8539 45.3092C82.9042 45.3601 82.9641 45.4006 83.03 45.4283C83.096 45.456 83.1668 45.4704 83.2384 45.4707Z" fill="#373A75"/>
<path d="M81.6532 45.4706C81.7258 45.4715 81.798 45.4578 81.8653 45.4302C81.9325 45.4027 81.9936 45.3619 82.0447 45.3102C82.0973 45.2605 82.139 45.2004 82.1669 45.1337C82.1949 45.067 82.2086 44.9951 82.2072 44.9228C82.2072 44.7759 82.1488 44.635 82.0449 44.5311C81.941 44.4272 81.8001 44.3688 81.6532 44.3688C81.5822 44.3684 81.5119 44.3826 81.4467 44.4105C81.3815 44.4385 81.3227 44.4796 81.2741 44.5312C81.2218 44.582 81.1804 44.6429 81.1524 44.7103C81.1245 44.7776 81.1106 44.8499 81.1116 44.9228C81.1127 45.0667 81.1699 45.2045 81.271 45.3068C81.3722 45.4091 81.5093 45.4679 81.6532 45.4706Z" fill="#373A75"/>
<path d="M93.8503 45.0499H93.5504C93.3678 45.0536 93.1859 45.0254 93.013 44.9665C92.8731 44.9224 92.7429 44.8517 92.6298 44.7583C92.539 44.6749 92.4679 44.5725 92.4215 44.4583C92.3746 44.352 92.3505 44.2371 92.3507 44.1209C92.3433 44.0254 92.3618 43.9297 92.4044 43.8439C92.4469 43.7581 92.5118 43.6854 92.5923 43.6335C92.7823 43.5258 92.9989 43.4738 93.2171 43.4836C93.2775 43.4836 93.3504 43.4836 93.4379 43.4961C93.5254 43.5086 93.59 43.5127 93.6462 43.5211L93.7233 42.9295C93.6293 42.9081 93.534 42.8935 93.4379 42.8858C93.34 42.8858 93.2421 42.8733 93.1484 42.8733C92.9493 42.8698 92.7512 42.9016 92.5631 42.967C92.4052 43.0242 92.2601 43.112 92.1361 43.2253C92.0257 43.3285 91.9377 43.4534 91.8775 43.592C91.8173 43.7307 91.7863 43.8802 91.7862 44.0314C91.7921 44.1995 91.828 44.3653 91.8925 44.5208C91.9735 44.7251 92.1028 44.9066 92.2694 45.0499H91.3926V45.6497H93.8753V45.0499" fill="#373A75"/>
<path d="M96.7682 54.1622C96.8401 54.1632 96.9115 54.1497 96.978 54.1225C97.0446 54.0953 97.105 54.055 97.1556 54.0039C97.2458 53.9148 97.3022 53.7971 97.3153 53.671C97.3284 53.545 97.2974 53.4182 97.2275 53.3125C97.1576 53.2067 97.0532 53.1284 96.9321 53.091C96.8109 53.0536 96.6806 53.0594 96.5632 53.1073C96.4459 53.1553 96.3488 53.2425 96.2885 53.354C96.2283 53.4655 96.2085 53.5945 96.2327 53.7189C96.2569 53.8434 96.3235 53.9556 96.4211 54.0364C96.5188 54.1172 96.6415 54.1617 96.7682 54.1622Z" fill="#373A75"/>
<path d="M98.9013 53.6207C98.9024 53.5484 98.8886 53.4766 98.8606 53.41C98.8327 53.3433 98.7912 53.2831 98.7388 53.2333C98.6876 53.1817 98.6266 53.1408 98.5593 53.1133C98.492 53.0857 98.4199 53.072 98.3472 53.0729C98.2396 53.0735 98.1346 53.106 98.0454 53.1661C97.9562 53.2262 97.8867 53.3114 97.8458 53.4109C97.8048 53.5104 97.7942 53.6198 97.8152 53.7253C97.8363 53.8308 97.888 53.9278 97.964 54.0039C98.0139 54.0548 98.0736 54.095 98.1395 54.1222C98.2053 54.1494 98.276 54.163 98.3472 54.1622C98.4197 54.1631 98.4917 54.1495 98.5589 54.1223C98.6261 54.0952 98.6872 54.0549 98.7388 54.0039C98.7908 53.9547 98.832 53.8952 98.86 53.8293C98.8879 53.7633 98.902 53.6923 98.9013 53.6207Z" fill="#373A75"/>
<path d="M106.806 49.0093C106.668 47.6825 105.86 46.3704 103.681 46.3704C102.948 46.3635 102.22 46.5001 101.538 46.7724L101.667 47.6055C102.169 47.392 102.704 47.2693 103.248 47.2431C103.744 47.2035 104.741 47.2077 105.225 47.6596C106.11 48.4928 105.82 50.7297 105.82 50.7297H104.654V49.832C104.657 49.6248 104.622 49.4188 104.552 49.2238C104.489 49.0489 104.392 48.8881 104.267 48.751C104.142 48.6174 103.989 48.5129 103.819 48.4449C103.631 48.3701 103.43 48.3333 103.227 48.3366C103.011 48.3368 102.798 48.3852 102.602 48.4782C102.41 48.5711 102.238 48.7014 102.096 48.8614C101.951 49.0277 101.838 49.2199 101.763 49.428C101.683 49.6475 101.643 49.8796 101.644 50.1132C101.644 50.2974 101.675 50.4803 101.734 50.6547C101.744 50.6818 101.759 50.7047 101.769 50.7297H99.3532C99.1357 50.7362 98.9191 50.6994 98.7159 50.6214C98.5555 50.5572 98.4128 50.4559 98.2993 50.3257C98.1891 50.1989 98.1113 50.0474 98.0723 49.8841C98.0285 49.7006 98.0068 49.5125 98.0077 49.3238V47.1889H97.0663V49.8383C97.0776 50.0674 97.0272 50.2954 96.9205 50.4985C96.8541 50.5867 96.7655 50.6556 96.6638 50.6984C96.5621 50.7412 96.4509 50.7563 96.3415 50.7422H94.3586C94.1418 50.7485 93.9258 50.7117 93.7233 50.6339C93.5632 50.5695 93.4204 50.4681 93.3068 50.3381C93.1974 50.2112 93.1202 50.0597 93.0818 49.8966C93.037 49.7133 93.0153 49.525 93.0173 49.3363V47.1889H92.0758V49.8383C92.0861 50.0673 92.0358 50.2951 91.93 50.4985C91.8634 50.587 91.7746 50.6562 91.6724 50.699C91.5703 50.7418 91.4587 50.7567 91.3489 50.7422H84.6506V48.9989C84.6536 48.684 84.6015 48.371 84.4964 48.0741C84.3999 47.8088 84.2528 47.5647 84.0632 47.3555C83.873 47.1526 83.6405 46.994 83.3821 46.8911C83.0952 46.7772 82.7889 46.7206 82.4802 46.7244C82.1458 46.7193 81.8145 46.7906 81.5117 46.9327C81.2189 47.0744 80.957 47.2726 80.7411 47.5159C80.5196 47.7681 80.3479 48.06 80.235 48.3761C80.1132 48.7097 80.0518 49.0624 80.0538 49.4175C80.0534 49.7009 80.0999 49.9824 80.1912 50.2507C80.2816 50.5234 80.4317 50.7724 80.6307 50.9797C80.856 51.2082 81.1272 51.3864 81.4263 51.5024C81.8068 51.6491 82.2122 51.7198 82.6198 51.7107H91.4052C91.5544 51.7107 91.7035 51.6988 91.8509 51.6753C91.9911 51.6535 92.1268 51.6092 92.2529 51.5441C92.3832 51.4751 92.4981 51.3801 92.5903 51.265C92.7055 51.1178 92.7994 50.9551 92.8694 50.7818C92.9051 50.9303 92.9703 51.0701 93.0612 51.1928C93.1521 51.3156 93.2668 51.4187 93.3984 51.4962C93.6786 51.6435 93.9923 51.7153 94.3086 51.7045H96.4039C96.5532 51.7045 96.7023 51.6927 96.8497 51.6691C96.99 51.6478 97.1258 51.6035 97.2516 51.5379C97.382 51.4689 97.4969 51.3739 97.5891 51.2588C97.705 51.112 97.799 50.9493 97.8682 50.7755C97.9039 50.924 97.9691 51.0638 98.06 51.1866C98.1509 51.3093 98.2656 51.4125 98.3972 51.4899C98.6774 51.6372 98.9911 51.709 99.3074 51.6982H106.806C106.806 51.6982 106.887 49.7945 106.806 49.0031M83.7154 50.7422H82.5823C82.3786 50.7431 82.1758 50.7143 81.9804 50.6568C81.795 50.601 81.6218 50.5105 81.4701 50.3902C81.3149 50.2611 81.1928 50.0969 81.1139 49.9112C81.0224 49.6836 80.9785 49.4398 80.9848 49.1947C80.9807 48.9759 81.0204 48.7585 81.1014 48.5552C81.1762 48.3724 81.2843 48.205 81.4201 48.0616C81.5445 47.9291 81.6949 47.8237 81.8619 47.7521C82.0289 47.6804 82.2089 47.644 82.3907 47.6451C82.5797 47.6346 82.7684 47.6707 82.9402 47.7503C83.1119 47.8298 83.2616 47.9503 83.3759 48.1012C83.6242 48.4812 83.7433 48.9311 83.7154 49.3842V50.7422ZM102.963 50.7006C102.871 50.673 102.785 50.6278 102.711 50.5673C102.633 50.504 102.572 50.4224 102.534 50.3298C102.487 50.2169 102.465 50.0956 102.469 49.9737C102.467 49.8646 102.487 49.7562 102.527 49.655C102.564 49.5647 102.617 49.482 102.684 49.4113C102.747 49.3433 102.823 49.2894 102.909 49.253C102.99 49.2188 103.078 49.2011 103.167 49.2009C103.261 49.1956 103.354 49.2136 103.439 49.2532C103.524 49.2928 103.598 49.3528 103.654 49.428C103.778 49.6165 103.837 49.8402 103.823 50.0653V50.7422H103.252C103.154 50.7416 103.057 50.7276 102.963 50.7006Z" fill="#373A75"/>
<path d="M36.0644 43.1899H35.1479V51.7024H36.0644V43.1899Z" fill="#373A75"/>
<path d="M5.13232 58.4966C4.99113 58.2884 4.81906 58.103 4.62203 57.9467C4.43746 57.7987 4.23528 57.6742 4.02009 57.576C3.81996 57.4841 3.61045 57.4143 3.39524 57.3677C3.19734 57.3256 2.99564 57.3039 2.79331 57.3031H0.568848V63.0538H2.78914C2.99147 63.053 3.19318 63.0313 3.39108 62.9892C3.60629 62.9426 3.8158 62.8728 4.01592 62.7809C4.23111 62.6827 4.4333 62.5582 4.61786 62.4102C4.81489 62.2539 4.98696 62.0685 5.12815 61.8603C5.27899 61.6318 5.39614 61.3828 5.47599 61.1209C5.56733 60.8156 5.61157 60.4981 5.6072 60.1795C5.61185 59.8588 5.56761 59.5392 5.47599 59.2318C5.39703 58.9696 5.27982 58.7204 5.12815 58.4924M4.61161 61.1522C4.50833 61.4055 4.34879 61.632 4.14506 61.8145C3.94332 61.9918 3.70514 62.1226 3.44731 62.1977C3.16121 62.2815 2.86438 62.3229 2.56628 62.3206H1.34782V58.0363H2.57044C2.86855 58.034 3.16537 58.0754 3.45148 58.1591C3.71173 58.2332 3.95175 58.3655 4.15344 58.5459C4.35513 58.7263 4.51322 58.9501 4.61578 59.2006C4.84344 59.8297 4.84344 60.5188 4.61578 61.148L4.61161 61.1522Z" fill="#373A75"/>
<path d="M7.0255 57.3052C6.95755 57.3041 6.8901 57.3171 6.82738 57.3432C6.76466 57.3694 6.70802 57.4082 6.661 57.4573C6.61394 57.5043 6.57664 57.5601 6.55126 57.6216C6.52587 57.6831 6.51292 57.749 6.51312 57.8155C6.51128 57.8824 6.52328 57.9489 6.54837 58.0109C6.57346 58.0729 6.6111 58.1291 6.65892 58.1758C6.70804 58.2214 6.76578 58.2567 6.82873 58.2796C6.89169 58.3025 6.95859 58.3125 7.0255 58.3092C7.09204 58.3115 7.15836 58.3001 7.22031 58.2757C7.28226 58.2513 7.33853 58.2144 7.38562 58.1673C7.4327 58.1202 7.46959 58.064 7.49399 58.002C7.51839 57.9401 7.52979 57.8737 7.52746 57.8072C7.52775 57.6733 7.47539 57.5446 7.38166 57.4489C7.33607 57.4003 7.28086 57.3617 7.21955 57.3355C7.15824 57.3093 7.09216 57.2962 7.0255 57.2969" fill="#373A75"/>
<path d="M7.39439 59.2194H6.66748V63.058H7.39439V59.2194Z" fill="#373A75"/>
<path d="M11.6454 59.7338C11.5196 59.5491 11.3472 59.4011 11.1455 59.3047C10.9046 59.1855 10.6396 59.1228 10.3707 59.1214C10.0869 59.1175 9.80467 59.1648 9.5376 59.261C9.29973 59.3487 9.08269 59.4849 8.90025 59.6609C8.71692 59.8407 8.5748 60.0582 8.48369 60.2982C8.3831 60.5644 8.33295 60.8469 8.33581 61.1314C8.33376 61.3989 8.384 61.6642 8.48369 61.9124C8.5782 62.1471 8.71999 62.3598 8.90025 62.5373C9.08468 62.7179 9.30355 62.8596 9.54385 62.9538C9.80973 63.0553 10.0924 63.1055 10.377 63.1017C10.6401 63.1011 10.8997 63.042 11.1372 62.9288C11.3402 62.8343 11.5169 62.6912 11.6517 62.5123V62.8351C11.6524 63.0216 11.6314 63.2075 11.5892 63.3892C11.5528 63.5561 11.4818 63.7136 11.3809 63.8515C11.2716 63.9912 11.1282 64.1003 10.9643 64.1681C10.7516 64.2542 10.5231 64.2947 10.2937 64.2869C10.0397 64.2908 9.78824 64.2367 9.55843 64.1286C9.32762 64.0108 9.12069 63.8512 8.94816 63.6578L8.90859 63.6141L8.3858 64.2098L8.42329 64.2473C8.67014 64.4926 8.96517 64.6841 9.28974 64.8096C9.61275 64.9201 9.95231 64.9744 10.2937 64.97C10.9727 64.97 11.4955 64.7867 11.8516 64.4264C12.2078 64.0661 12.3848 63.5308 12.3848 62.8351V59.2193H11.6454V59.7338ZM11.5621 61.6083C11.5078 61.7632 11.422 61.9051 11.3102 62.0252C11.1983 62.1453 11.0629 62.2409 10.9123 62.3061C10.7418 62.3813 10.557 62.4182 10.3707 62.4144C10.2056 62.417 10.0417 62.3869 9.88832 62.3257C9.73496 62.2646 9.59522 62.1737 9.4772 62.0582C9.36066 61.9383 9.26868 61.7968 9.20643 61.6417C9.14066 61.4818 9.10738 61.3105 9.10854 61.1376C9.10706 60.9574 9.13737 60.7783 9.1981 60.6086C9.25646 60.4548 9.34338 60.3135 9.45429 60.192C9.56611 60.0708 9.70147 59.9737 9.85211 59.9067C10.0157 59.8357 10.1924 59.8002 10.3707 59.8025C10.5497 59.801 10.7272 59.8343 10.8935 59.9004C11.0451 59.9634 11.1825 60.0562 11.2976 60.1733C11.4113 60.2929 11.4992 60.4347 11.5559 60.5898C11.6176 60.7622 11.6479 60.9442 11.6454 61.1272C11.6461 61.2939 11.6179 61.4595 11.5621 61.6167V61.6083Z" fill="#373A75"/>
<path d="M13.899 57.3052C13.8311 57.3041 13.7636 57.3171 13.7009 57.3432C13.6382 57.3694 13.5816 57.4082 13.5345 57.4573C13.4875 57.5043 13.4502 57.5601 13.4248 57.6216C13.3994 57.6831 13.3865 57.749 13.3867 57.8155C13.3848 57.8824 13.3968 57.9489 13.4219 58.0109C13.447 58.0729 13.4846 58.1291 13.5325 58.1758C13.5816 58.2214 13.6393 58.2567 13.7023 58.2796C13.7652 58.3025 13.8321 58.3125 13.899 58.3092C13.9656 58.3115 14.0319 58.3001 14.0938 58.2757C14.1558 58.2513 14.2121 58.2144 14.2592 58.1673C14.3062 58.1202 14.3431 58.064 14.3675 58.002C14.3919 57.9401 14.4033 57.8737 14.401 57.8072C14.4013 57.6733 14.3489 57.5446 14.2552 57.4489C14.2096 57.4003 14.1544 57.3617 14.0931 57.3355C14.0318 57.3093 13.9657 57.2962 13.899 57.2969" fill="#373A75"/>
<path d="M14.2572 59.2194H13.5303V63.058H14.2572V59.2194Z" fill="#373A75"/>
<path d="M17.5272 62.3477C17.4462 62.3893 17.3601 62.4201 17.271 62.4394C17.1822 62.4596 17.0914 62.4701 17.0003 62.4706C16.8995 62.4762 16.7989 62.4554 16.7087 62.4102C16.6458 62.3723 16.5957 62.3165 16.565 62.2498C16.53 62.1702 16.5102 62.0847 16.5066 61.9978C16.5066 61.8957 16.5066 61.7895 16.5066 61.6645V59.8525H17.6043V59.2276H16.4983V58.1675H15.7735V59.2276H14.9612V59.8525H15.7735V61.8499C15.7722 62.029 15.7847 62.208 15.811 62.3852C15.8297 62.5347 15.884 62.6775 15.9693 62.8018C16.0542 62.9191 16.1694 63.0112 16.3025 63.0684C16.479 63.1366 16.6675 63.1678 16.8566 63.16C16.9824 63.1575 17.1079 63.1443 17.2315 63.1204C17.3564 63.0981 17.4786 63.0625 17.596 63.0142L17.6293 62.9996L17.6043 62.3102L17.5293 62.3477" fill="#373A75"/>
<path d="M21.5492 62.6831C21.5492 62.5706 21.5325 62.4623 21.5325 62.3603V60.7523C21.5325 60.215 21.4055 59.8046 21.1555 59.5339C20.9056 59.2631 20.4869 59.1173 19.9058 59.1173C19.6267 59.1177 19.3498 59.1663 19.0873 59.261C18.8233 59.3551 18.5836 59.5066 18.3854 59.7047L18.3479 59.7422L18.8082 60.2275L18.8478 60.192C18.9919 60.0607 19.1613 59.9601 19.3456 59.8963C19.5307 59.8302 19.7259 59.7963 19.9225 59.7963C20.1549 59.7818 20.3848 59.8512 20.5703 59.9921C20.6486 60.0648 20.7095 60.1543 20.7484 60.2538C20.7874 60.3533 20.8034 60.4604 20.7952 60.567V60.6253H20.6057C20.3766 60.6253 20.1224 60.6357 19.8496 60.6565C19.5838 60.6764 19.3218 60.7317 19.0706 60.8211C18.8392 60.9043 18.6318 61.043 18.4666 61.2251C18.2885 61.4371 18.1977 61.7089 18.2125 61.9854C18.209 62.1607 18.2498 62.3341 18.3312 62.4894C18.4078 62.632 18.5144 62.7564 18.6436 62.8539C18.7817 62.9552 18.937 63.0307 19.1019 63.0768C19.281 63.1259 19.466 63.1504 19.6517 63.1497C19.9199 63.1567 20.1849 63.0904 20.4182 62.958C20.5778 62.8582 20.7188 62.7314 20.8348 62.5831C20.8348 62.6248 20.8348 62.6685 20.8348 62.7164C20.836 62.8153 20.8479 62.9138 20.8702 63.0101V63.0518H21.6054V62.9914C21.5908 62.8956 21.5783 62.7831 21.5658 62.6769M20.8223 61.4417C20.8186 61.5838 20.7926 61.7243 20.7452 61.8583C20.6988 61.9834 20.628 62.0981 20.5369 62.1957C20.4468 62.2937 20.3376 62.3724 20.2162 62.4269C20.0731 62.4865 19.9192 62.5156 19.7642 62.5123C19.5692 62.5192 19.3761 62.4724 19.206 62.3769C19.1341 62.3276 19.0767 62.2598 19.0401 62.1806C19.0034 62.1014 18.9888 62.0138 18.9977 61.927C18.9942 61.8224 19.0226 61.7191 19.0792 61.6309C19.1357 61.5428 19.2177 61.4739 19.3143 61.4334C19.6075 61.3143 19.9229 61.2596 20.2391 61.273H20.8077L20.8223 61.4417Z" fill="#373A75"/>
<path d="M23.4008 56.9241H22.6697V63.0559H23.4008V56.9241Z" fill="#373A75"/>
<path d="M29.2306 60.5232H30.5282V62.1624C29.8162 62.5054 28.9978 62.5548 28.2496 62.2998C27.98 62.1906 27.7355 62.0276 27.531 61.8208C27.3294 61.6106 27.1709 61.3629 27.0645 61.0918C26.9521 60.8023 26.8956 60.4942 26.8979 60.1837C26.8947 59.8684 26.9512 59.5553 27.0645 59.261C27.1692 58.9902 27.3279 58.7436 27.531 58.5362C27.733 58.3341 27.972 58.1728 28.235 58.0613C28.5145 57.9464 28.814 57.8883 29.1161 57.8905C29.3982 57.8908 29.6777 57.946 29.9388 58.053C30.1962 58.1565 30.4274 58.3158 30.6157 58.5195L30.6553 58.5612L31.2301 57.9551L31.1926 57.9197C30.9308 57.6513 30.6088 57.4492 30.2533 57.3302C29.9014 57.2163 29.5338 57.1587 29.164 57.1594C28.7511 57.1523 28.3406 57.2229 27.9539 57.3677C27.5901 57.5118 27.2572 57.7238 26.9728 57.9926C26.6886 58.2606 26.463 58.5847 26.3105 58.9444C26.1479 59.3371 26.0671 59.7587 26.0731 60.1837C26.0687 60.6028 26.1458 61.0187 26.3001 61.4084C26.4451 61.7677 26.6628 62.0932 26.9395 62.3644C27.2167 62.6361 27.5462 62.8487 27.908 62.9893C28.301 63.1389 28.7186 63.2131 29.139 63.208C29.51 63.2075 29.8797 63.1642 30.2408 63.0788C30.6043 62.9909 30.9545 62.855 31.2822 62.6747L31.3093 62.6602V59.7921H29.2265V60.5232" fill="#373A75"/>
<path d="M35.8645 59.6859C35.6794 59.5051 35.4598 59.3635 35.2188 59.2694C34.6909 59.0722 34.1096 59.0722 33.5817 59.2694C33.3407 59.3635 33.1211 59.5051 32.936 59.6859C32.7543 59.8644 32.6092 60.0766 32.509 60.3108C32.3007 60.8366 32.3007 61.4221 32.509 61.9479C32.6092 62.182 32.7543 62.3943 32.936 62.5727C33.1211 62.7535 33.3407 62.8952 33.5817 62.9893C34.1096 63.1865 34.6909 63.1865 35.2188 62.9893C35.4585 62.897 35.6772 62.7571 35.8615 62.5782C36.0458 62.3992 36.1921 62.1848 36.2914 61.9479C36.4997 61.4221 36.4997 60.8366 36.2914 60.3108C36.1951 60.0771 36.0535 59.8647 35.8749 59.6859M35.5916 61.6667C35.5345 61.8211 35.4474 61.9626 35.3354 62.0833C35.2227 62.2039 35.0867 62.3003 34.9355 62.3665C34.7688 62.4364 34.5894 62.4712 34.4086 62.4686C34.2291 62.471 34.0511 62.4363 33.8858 62.3665C33.7346 62.3003 33.5985 62.2039 33.4859 62.0833C33.3746 61.9625 33.2883 61.8209 33.2318 61.6667C33.1704 61.4979 33.14 61.3194 33.1422 61.1397C33.1398 60.9588 33.1702 60.7788 33.2318 60.6086C33.2883 60.4544 33.3746 60.3129 33.4859 60.1921C33.5984 60.0708 33.7345 59.9737 33.8858 59.9067C34.2195 59.7701 34.5935 59.7701 34.9272 59.9067C35.0784 59.9737 35.2145 60.0708 35.3271 60.1921C35.4391 60.3127 35.5261 60.4543 35.5833 60.6086C35.6431 60.7792 35.6728 60.959 35.6707 61.1397C35.6719 61.3193 35.6416 61.4976 35.5812 61.6667H35.5916Z" fill="#373A75"/>
<path d="M38.7971 62.0624L37.6766 59.2527L37.662 59.2194H36.8247L38.3743 63.0226L38.3889 63.0559H39.1491L40.6654 59.2194H39.8781L38.7971 62.0624Z" fill="#373A75"/>
<path d="M44.3768 59.6546C44.2135 59.4813 44.0145 59.3456 43.7936 59.2568C43.5595 59.165 43.3099 59.1191 43.0584 59.1214C42.7895 59.1192 42.5228 59.1694 42.2732 59.2693C42.0363 59.3637 41.8215 59.5061 41.6423 59.6874C41.4631 59.8688 41.3233 60.0853 41.2317 60.3232C41.1311 60.5835 41.0809 60.8606 41.0839 61.1397C41.0829 61.406 41.1287 61.6703 41.2192 61.9207C41.3049 62.158 41.4366 62.376 41.6067 62.5623C41.7788 62.7467 41.9873 62.8935 42.219 62.9934C42.4741 63.103 42.7495 63.1576 43.0271 63.1538C43.3516 63.1604 43.6741 63.1009 43.9748 62.9788C44.2751 62.8387 44.5341 62.6235 44.7267 62.354L44.76 62.3123L44.2102 61.8833L44.1769 61.9249C44.0435 62.0918 43.8777 62.23 43.6895 62.3311C43.4828 62.4289 43.2557 62.4761 43.0271 62.4685C42.8731 62.4696 42.7206 62.4383 42.5793 62.3769C42.4454 62.3176 42.3238 62.2335 42.2211 62.129C42.1162 62.023 42.0315 61.8988 41.9711 61.7624C41.9153 61.6414 41.8801 61.5119 41.867 61.3792H44.8746V61.1293C44.8788 60.8422 44.8352 60.5564 44.7455 60.2836C44.6656 60.0514 44.5379 59.8385 44.3706 59.6588M41.8712 60.7523C41.9067 60.4944 42.0304 60.2567 42.2211 60.0795C42.4447 59.8881 42.7332 59.7897 43.0271 59.8046C43.1686 59.7956 43.3105 59.8151 43.4443 59.8619C43.5781 59.9088 43.7012 59.9821 43.8061 60.0774C43.9806 60.2601 44.0827 60.4999 44.0935 60.7523H41.8712Z" fill="#373A75"/>
<path d="M47.6406 59.1214C47.491 59.1201 47.3421 59.1419 47.1991 59.186C47.0685 59.2251 46.9432 59.2804 46.8262 59.3505C46.7215 59.4157 46.6256 59.4941 46.5409 59.5838C46.5026 59.6238 46.4677 59.667 46.4368 59.7129V59.5713C46.4368 59.4713 46.4368 59.363 46.4368 59.2734V59.2193H45.739V59.2734C45.739 59.3942 45.739 59.5317 45.7536 59.69C45.7682 59.8483 45.7682 59.9962 45.7682 60.1649V63.0642H46.5013V61.1896C46.482 60.8424 46.5685 60.4974 46.7492 60.2003C46.841 60.0803 46.9618 59.9856 47.1003 59.9252C47.2387 59.8647 47.3902 59.8404 47.5407 59.8545C47.6484 59.854 47.7557 59.8688 47.8593 59.8983L47.9239 59.917L47.9739 59.1818L47.9343 59.1693C47.8449 59.1371 47.7503 59.1215 47.6552 59.1235" fill="#373A75"/>
<path d="M51.8563 59.5588C51.7298 59.4153 51.5714 59.3033 51.3939 59.2318C51.1841 59.151 50.9605 59.1121 50.7357 59.1173C50.5854 59.1161 50.4358 59.1378 50.2921 59.1818C50.1654 59.2227 50.0443 59.2794 49.9317 59.3506C49.8264 59.4158 49.7298 59.4942 49.6443 59.5838C49.6073 59.6244 49.5732 59.6675 49.5423 59.713V59.5713C49.5423 59.4714 49.5318 59.3631 49.5318 59.2735V59.2193H48.8362V59.2735C48.8362 59.3943 48.8362 59.5318 48.8508 59.6901C48.8653 59.8484 48.8653 59.9962 48.8653 60.1649V63.0642H49.5964V61.1897C49.5948 60.9974 49.6172 60.8057 49.6631 60.619C49.7035 60.4617 49.7743 60.3139 49.8713 60.1837C49.9587 60.0639 50.0747 59.9679 50.2088 59.9046C50.3657 59.8338 50.5365 59.7989 50.7086 59.8025C50.8218 59.7924 50.9358 59.8096 51.0409 59.8527C51.146 59.8958 51.2393 59.9636 51.3127 60.0504C51.4528 60.2621 51.5208 60.5134 51.5064 60.7669V63.058H52.2229V60.7002C52.2247 60.4855 52.1959 60.2716 52.1375 60.065C52.0851 59.8798 51.9927 59.7084 51.8667 59.563" fill="#373A75"/>
<path d="M58.6798 59.5589C58.5572 59.4128 58.3995 59.3003 58.2215 59.2319C57.9995 59.151 57.7642 59.1128 57.5279 59.1194C57.2714 59.1092 57.0178 59.1775 56.801 59.3152C56.6256 59.4408 56.474 59.5967 56.3532 59.7755C56.3303 59.7338 56.3032 59.6859 56.272 59.6359C56.2137 59.5415 56.1389 59.4583 56.0512 59.3902C55.9432 59.3093 55.8239 59.2447 55.6971 59.1985C55.5273 59.1421 55.3491 59.1154 55.1702 59.1194C55.0199 59.1179 54.8702 59.1397 54.7265 59.184C54.5964 59.2227 54.4718 59.278 54.3558 59.3485C54.25 59.4131 54.1534 59.4916 54.0684 59.5818C54.0307 59.6223 53.9959 59.6655 53.9642 59.7109C53.9642 59.663 53.9642 59.6151 53.9642 59.5693C53.9642 59.4693 53.9642 59.361 53.9642 59.2714V59.2173H53.2644V59.2714C53.2644 59.3923 53.2644 59.5297 53.2811 59.688C53.2977 59.8463 53.2956 59.9942 53.2956 60.1629V63.0622H54.0267V61.1876C54.0251 60.9954 54.0475 60.8037 54.0934 60.617C54.1316 60.4608 54.1987 60.3131 54.2912 60.1816C54.3798 60.0622 54.4964 59.9664 54.6307 59.9025C54.7876 59.8315 54.9584 59.7966 55.1306 59.8005C55.2277 59.7915 55.3253 59.8086 55.4136 59.85C55.5018 59.8913 55.5774 59.9555 55.6326 60.0358C55.7584 60.3012 55.813 60.5948 55.7909 60.8877V63.0559H56.5219V60.8502C56.5207 60.7033 56.5454 60.5574 56.5948 60.4191C56.6427 60.2965 56.7134 60.1842 56.8031 60.0879C56.8836 59.9994 56.9814 59.9285 57.0906 59.8796C57.2012 59.8275 57.3223 59.8011 57.4446 59.8026C57.5878 59.7985 57.7301 59.8263 57.8612 59.8838C57.9632 59.9308 58.0519 60.0024 58.1195 60.0921C58.1841 60.1841 58.2295 60.2882 58.2528 60.3983C58.278 60.5195 58.2906 60.6431 58.2903 60.7669V63.058H59.0213V60.7378C59.0236 60.5147 58.9984 60.2923 58.9464 60.0754C58.8979 59.8852 58.8067 59.7086 58.6798 59.5589Z" fill="#373A75"/>
<path d="M63.1556 59.6546C62.9923 59.4813 62.7934 59.3456 62.5724 59.2568C62.3383 59.165 62.0887 59.1191 61.8372 59.1214C61.5683 59.1192 61.3016 59.1694 61.052 59.2693C60.8151 59.3637 60.6003 59.5061 60.4211 59.6874C60.2419 59.8688 60.1021 60.0853 60.0106 60.3232C59.9099 60.5835 59.8597 60.8606 59.8627 61.1397C59.8617 61.406 59.9075 61.6703 59.9981 61.9207C60.0837 62.158 60.2154 62.376 60.3855 62.5623C60.5577 62.7467 60.7661 62.8935 60.9978 62.9934C61.253 63.103 61.5283 63.1576 61.806 63.1538C62.1305 63.1604 62.4529 63.1009 62.7536 62.9788C63.0539 62.8387 63.3129 62.6235 63.5055 62.354L63.5389 62.3123L62.989 61.8833L62.9557 61.9249C62.8223 62.0918 62.6565 62.23 62.4683 62.3311C62.2615 62.4314 62.0336 62.4807 61.8039 62.4748C61.6505 62.476 61.4986 62.4448 61.3581 62.3831C61.2233 62.3244 61.1009 62.2402 60.9978 62.1353C60.893 62.0293 60.8083 61.905 60.7479 61.7687C60.692 61.6477 60.6568 61.5181 60.6437 61.3855H63.6513V61.1355C63.6556 60.8484 63.6119 60.5626 63.5222 60.2899C63.4424 60.0577 63.3146 59.8448 63.1473 59.665M60.6479 60.7585C60.6835 60.5006 60.8071 60.263 60.9978 60.0858C61.2214 59.8943 61.5099 59.7959 61.8039 59.8108C61.9454 59.8018 62.0872 59.8213 62.2211 59.8682C62.3549 59.9151 62.4779 59.9883 62.5828 60.0837C62.7573 60.2663 62.8595 60.5062 62.8703 60.7585H60.6479Z" fill="#373A75"/>
<path d="M67.5443 59.5589C67.4166 59.4157 67.2577 59.3038 67.0798 59.2319C66.8701 59.1509 66.6465 59.112 66.4217 59.1173C66.272 59.116 66.1231 59.1378 65.9801 59.1819C65.8495 59.221 65.7243 59.2763 65.6073 59.3464C65.5025 59.4116 65.4066 59.49 65.3219 59.5797C65.2836 59.6197 65.2488 59.6629 65.2178 59.7088V59.5672C65.2178 59.4672 65.2178 59.3589 65.2178 59.2693V59.2152H64.5117V59.2693C64.5117 59.3902 64.5117 59.5276 64.5263 59.6859C64.5409 59.8442 64.543 59.9921 64.543 60.1608V63.0601H65.274V61.1856C65.2713 60.9932 65.2938 60.8014 65.3407 60.6149C65.3789 60.4587 65.446 60.311 65.5386 60.1795C65.6272 60.0601 65.7437 59.9643 65.8781 59.9005C66.0349 59.8292 66.2057 59.7943 66.3779 59.7984C66.4908 59.7882 66.6045 59.8054 66.7093 59.8486C66.8141 59.8917 66.9069 59.9595 66.9799 60.0462C67.121 60.2575 67.189 60.5092 67.1736 60.7627V63.0538H67.9046V60.7003C67.9075 60.4855 67.8787 60.2714 67.8192 60.065C67.7676 59.88 67.6758 59.7086 67.5506 59.563" fill="#373A75"/>
<path d="M70.9538 62.3477C70.8727 62.3893 70.7866 62.4201 70.6976 62.4394C70.6087 62.4596 70.5179 62.4701 70.4268 62.4706C70.326 62.4762 70.2255 62.4554 70.1352 62.4102C70.0718 62.3724 70.021 62.3165 69.9894 62.2498C69.9552 62.17 69.9362 62.0846 69.9332 61.9978C69.9332 61.8957 69.9332 61.7895 69.9332 61.6645V59.8525H71.0308V59.2276H69.9269V58.1675H69.1958V59.2276H68.3835V59.8525H69.1958V61.8499C69.195 62.029 69.2068 62.2078 69.2313 62.3852C69.2516 62.5346 69.3065 62.6773 69.3916 62.8018C69.4766 62.9191 69.5918 63.0112 69.7249 63.0684C69.9013 63.1366 70.0899 63.1678 70.2789 63.16C70.406 63.1597 70.5328 63.1485 70.658 63.1267C70.7829 63.1044 70.9051 63.0687 71.0225 63.0205L71.0558 63.0059L71.0308 62.3165L70.9558 62.354" fill="#373A75"/>
<path d="M76.1024 57.3052H75.4005L72.8657 63.0559H73.7447L74.3216 61.6729H77.073L77.65 63.0559H78.5456L76.117 57.3385L76.1024 57.3052ZM74.632 60.9397L75.7317 58.3424L76.7731 60.9397H74.632Z" fill="#373A75"/>
<path d="M82.2928 62.1187V59.2194H81.5617V61.0939C81.5631 61.2855 81.5407 61.4765 81.495 61.6625C81.4541 61.8209 81.3834 61.97 81.2868 62.102C81.1982 62.2209 81.0815 62.3161 80.9473 62.379C80.7905 62.4478 80.6206 62.4812 80.4495 62.4769C80.3368 62.4872 80.2233 62.4702 80.1185 62.4274C80.0138 62.3846 79.9208 62.3173 79.8475 62.2311C79.706 62.0216 79.6372 61.7713 79.6517 61.5188V59.2277H78.9207V61.5834C78.9199 61.7946 78.9487 62.0049 79.0061 62.2082C79.0593 62.3936 79.1516 62.5655 79.2768 62.7123C79.4042 62.8534 79.5615 62.9644 79.7371 63.0372C79.9474 63.1191 80.1718 63.1587 80.3974 63.1538C80.6843 63.1578 80.9664 63.0789 81.2097 62.9268C81.3647 62.8329 81.4987 62.7081 81.6033 62.5602C81.6033 62.606 81.6033 62.6539 81.6033 62.6998C81.6033 62.7997 81.6033 62.908 81.6033 63.0018V63.0559H82.3032V63.0018C82.3032 62.8789 82.3032 62.7393 82.2886 62.5852C82.274 62.4311 82.274 62.277 82.274 62.1124" fill="#373A75"/>
<path d="M85.5024 62.3477C85.4214 62.3893 85.3353 62.4201 85.2462 62.4394C85.1574 62.4596 85.0666 62.4701 84.9755 62.4706C84.8754 62.476 84.7756 62.4551 84.686 62.4102C84.6226 62.3724 84.5718 62.3165 84.5402 62.2498C84.5052 62.1702 84.4855 62.0847 84.4819 61.9978C84.4819 61.8957 84.4819 61.7895 84.4819 61.6645V59.8525H85.5795V59.2276H84.4819V58.1675H83.7508V59.2276H82.9385V59.8525H83.7508V61.8499C83.7495 62.029 83.762 62.208 83.7883 62.3852C83.8079 62.5345 83.8621 62.6771 83.9466 62.8018C84.0315 62.9191 84.1467 63.0112 84.2798 63.0684C84.4563 63.1366 84.6448 63.1678 84.8338 63.16C84.9609 63.1598 85.0878 63.1487 85.2129 63.1267C85.3379 63.1044 85.46 63.0687 85.5774 63.0205L85.6107 63.0059L85.5857 62.3165L85.5108 62.354" fill="#373A75"/>
<path d="M89.4055 59.5588C89.279 59.4153 89.1207 59.3033 88.9431 59.2318C88.7349 59.1508 88.5126 59.1119 88.2891 59.1173C88.1482 59.1168 88.0079 59.1364 87.8726 59.1756C87.7489 59.213 87.6296 59.2633 87.5164 59.3256C87.4149 59.3829 87.3211 59.4529 87.2373 59.5339C87.2019 59.5693 87.1686 59.6047 87.1394 59.6401V56.9241H86.4021V63.0559H87.1332V61.1814C87.1315 60.9891 87.1539 60.7974 87.1998 60.6107C87.2382 60.4549 87.3046 60.3074 87.3956 60.1754C87.4829 60.0555 87.599 59.9596 87.733 59.8963C87.8899 59.8252 88.0607 59.7904 88.2329 59.7942C88.3457 59.7845 88.4592 59.802 88.5639 59.8451C88.6686 59.8882 88.7615 59.9558 88.8348 60.0421C88.982 60.2511 89.0553 60.5032 89.0431 60.7586V63.0497H89.7742V60.7002C89.7764 60.4853 89.7469 60.2713 89.6867 60.065C89.6324 59.8802 89.5394 59.7091 89.4139 59.563" fill="#373A75"/>
<path d="M94.1357 59.6859C93.9502 59.5055 93.7307 59.3639 93.49 59.2693C93.2281 59.169 92.9497 59.1189 92.6694 59.1214C92.3903 59.1188 92.1133 59.169 91.8529 59.2693C91.6115 59.3639 91.3913 59.5055 91.2051 59.6859C91.0264 59.8646 90.8848 60.077 90.7886 60.3107C90.5802 60.8365 90.5802 61.422 90.7886 61.9478C90.8871 62.1853 91.033 62.4001 91.2175 62.5792C91.4019 62.7582 91.621 62.8978 91.8612 62.9892C92.1216 63.0895 92.3986 63.1397 92.6777 63.1371C92.9581 63.1397 93.2365 63.0895 93.4983 62.9892C93.7381 62.8969 93.9567 62.7571 94.141 62.5781C94.3254 62.3991 94.4716 62.1848 94.571 61.9478C94.7764 61.4215 94.7764 60.8371 94.571 60.3107C94.4739 60.0774 94.3324 59.8652 94.1544 59.6859M93.8691 61.6666C93.8128 61.8214 93.7256 61.9632 93.6129 62.0832C93.5014 62.2042 93.3659 62.3007 93.2151 62.3665C93.0482 62.4362 92.8689 62.471 92.6881 62.4685C92.5087 62.471 92.3307 62.4362 92.1653 62.3665C92.0138 62.3007 91.8777 62.2043 91.7654 62.0832C91.6534 61.9626 91.5663 61.821 91.5092 61.6666C91.4495 61.4974 91.4199 61.3191 91.4217 61.1397C91.4197 60.9589 91.4493 60.7792 91.5092 60.6086C91.5663 60.4542 91.6534 60.3126 91.7654 60.192C91.8776 60.0703 92.0137 59.9732 92.1653 59.9067C92.3302 59.8353 92.5084 59.7998 92.6881 59.8025C92.8691 59.7997 93.0487 59.8352 93.2151 59.9067C93.3656 59.9744 93.501 60.0715 93.6133 60.1924C93.7257 60.3134 93.8126 60.4556 93.8691 60.6107C93.9884 60.9532 93.9884 61.3261 93.8691 61.6687V61.6666Z" fill="#373A75"/>
<path d="M97.5244 59.1214C97.374 59.1202 97.2244 59.1419 97.0807 59.186C96.9506 59.2247 96.826 59.28 96.71 59.3505C96.6046 59.4157 96.508 59.4941 96.4225 59.5838C96.3855 59.6248 96.3507 59.668 96.3184 59.7129C96.3184 59.665 96.3184 59.6171 96.3184 59.5713C96.3184 59.4713 96.308 59.363 96.308 59.2734V59.2193H95.6082V59.2734C95.6082 59.3942 95.6082 59.5317 95.6227 59.69C95.6373 59.8483 95.6373 59.9962 95.6373 60.1649V63.0642H96.3788V61.1896C96.3591 60.8421 96.4463 60.4968 96.6287 60.2003C96.7203 60.08 96.8411 59.9851 96.9796 59.9246C97.1181 59.8641 97.2698 59.84 97.4202 59.8545C97.5273 59.854 97.6339 59.8688 97.7368 59.8983L97.8014 59.917L97.8514 59.1818L97.8139 59.1693C97.7243 59.1374 97.6298 59.1219 97.5348 59.1235" fill="#373A75"/>
<path d="M99.2823 59.2194H98.5554V63.058H99.2823V59.2194Z" fill="#373A75"/>
<path d="M98.9219 57.3052C98.8543 57.3043 98.7872 57.3173 98.7249 57.3435C98.6625 57.3696 98.6062 57.4084 98.5595 57.4573C98.5125 57.5043 98.4752 57.5601 98.4498 57.6216C98.4244 57.6831 98.4114 57.749 98.4116 57.8155C98.4094 57.8823 98.421 57.9487 98.4458 58.0107C98.4705 58.0728 98.5078 58.129 98.5554 58.1758C98.6039 58.2228 98.6613 58.2595 98.7243 58.2839C98.7872 58.3082 98.8545 58.3196 98.9219 58.3175C98.9885 58.3198 99.0548 58.3084 99.1168 58.284C99.1787 58.2596 99.235 58.2227 99.2821 58.1756C99.3291 58.1286 99.366 58.0723 99.3904 58.0103C99.4148 57.9484 99.4262 57.8821 99.4239 57.8155C99.425 57.6819 99.3733 57.5531 99.2802 57.4573C99.2341 57.4087 99.1785 57.3701 99.1169 57.3439C99.0553 57.3178 98.9889 57.3046 98.9219 57.3052Z" fill="#373A75"/>
<path d="M102.436 62.3477C102.355 62.3897 102.269 62.4205 102.179 62.4394C102.091 62.4598 102 62.4703 101.909 62.4706C101.809 62.476 101.709 62.4551 101.619 62.4102C101.556 62.3724 101.505 62.3165 101.473 62.2498C101.438 62.1702 101.419 62.0847 101.415 61.9978C101.415 61.8957 101.415 61.7895 101.415 61.6645V59.8525H102.515V59.2276H101.415V58.1675H100.684V59.2276H99.8738V59.8525H100.684V61.8499C100.683 62.029 100.695 62.208 100.721 62.3852C100.741 62.5345 100.795 62.6771 100.88 62.8018C100.965 62.9196 101.081 63.0118 101.215 63.0684C101.391 63.1368 101.58 63.168 101.769 63.16C101.896 63.1598 102.022 63.1486 102.146 63.1267C102.271 63.1044 102.393 63.0687 102.511 63.0205L102.546 63.0059L102.519 62.3165L102.444 62.354" fill="#373A75"/>
<path d="M106.047 59.2194L104.968 62.0687L103.852 59.2527L103.839 59.2194H103.006L104.575 63.0247L104.327 63.7058C104.274 63.8644 104.192 64.012 104.085 64.1411C104.033 64.194 103.97 64.2349 103.9 64.2608C103.83 64.2867 103.755 64.297 103.681 64.291C103.592 64.291 103.512 64.291 103.446 64.2806C103.382 64.2735 103.32 64.2581 103.26 64.2348L103.198 64.2098L103.1 64.8534L103.135 64.8701C103.228 64.9166 103.328 64.9462 103.431 64.9575C103.527 64.968 103.623 64.9736 103.719 64.9742C103.887 64.9787 104.055 64.9526 104.214 64.8971C104.347 64.8463 104.468 64.7683 104.568 64.668C104.67 64.5661 104.754 64.4487 104.818 64.3202C104.883 64.189 104.95 64.0411 105.012 63.8807L106.845 59.2235H106.049" fill="#373A75"/>
<mask id="mask0_2_1650" style="mask-type:luminance" maskUnits="userSpaceOnUse" x="54" y="11" width="11" height="14">
<path d="M54.7224 17.4003C54.6292 17.4654 54.553 17.552 54.5005 17.6528C54.4479 17.7537 54.4204 17.8657 54.4204 17.9794V23.8009C54.4302 23.9818 54.509 24.152 54.6405 24.2766C54.7721 24.4012 54.9464 24.4706 55.1275 24.4706C55.3087 24.4706 55.483 24.4012 55.6145 24.2766C55.746 24.152 55.8248 23.9818 55.8347 23.8009V18.348L62.0123 14.0158C62.228 14.1297 62.4682 14.189 62.7121 14.1886C63.0129 14.189 63.3071 14.1002 63.5574 13.9334C63.8077 13.7666 64.003 13.5293 64.1184 13.2515C64.2338 12.9737 64.2642 12.6679 64.2057 12.3728C64.1473 12.0777 64.0027 11.8066 63.7901 11.5938C63.5775 11.3809 63.3066 11.2359 63.0116 11.1771C62.7166 11.1182 62.4108 11.1482 62.1329 11.2632C61.8549 11.3783 61.6173 11.5731 61.4502 11.8232C61.283 12.0733 61.1938 12.3674 61.1938 12.6682C61.1938 12.7309 61.198 12.7935 61.2063 12.8556L54.7224 17.4003Z" fill="white"/>
</mask>
<g mask="url(#mask0_2_1650)">
<path d="M64.2304 11.1477H54.4099V24.507H64.2304V11.1477Z" fill="url(#paint0_linear_2_1650)"/>
</g>
<mask id="mask1_2_1650" style="mask-type:luminance" maskUnits="userSpaceOnUse" x="49" y="4" width="13" height="21">
<path d="M50.3214 15.8528V21.6514C50.0205 21.8095 49.7812 22.0638 49.6418 22.3738C49.5024 22.6838 49.4709 23.0316 49.5523 23.3616C49.6337 23.6916 49.8234 23.9848 50.0909 24.1944C50.3585 24.404 50.6886 24.5179 51.0285 24.5179C51.3684 24.5179 51.6985 24.404 51.9661 24.1944C52.2337 23.9848 52.4233 23.6916 52.5047 23.3616C52.5861 23.0316 52.5546 22.6838 52.4152 22.3738C52.2758 22.0638 52.0365 21.8095 51.7356 21.6514V16.2194L60.8772 9.81887C60.9704 9.75381 61.0466 9.66719 61.0991 9.56638C61.1517 9.46556 61.1792 9.35355 61.1792 9.23985V4.92007C61.1792 4.82734 61.1609 4.73553 61.1254 4.64986C61.0899 4.5642 61.0379 4.48636 60.9724 4.42079C60.9068 4.35523 60.829 4.30322 60.7433 4.26774C60.6576 4.23225 60.5658 4.21399 60.4731 4.21399C60.3804 4.21399 60.2886 4.23225 60.2029 4.26774C60.1172 4.30322 60.0394 4.35523 59.9738 4.42079C59.9083 4.48636 59.8562 4.5642 59.8208 4.64986C59.7853 4.73553 59.767 4.82734 59.767 4.92007V8.87744L50.6234 15.2738C50.53 15.3387 50.4538 15.4253 50.4012 15.5262C50.3486 15.627 50.3212 15.7391 50.3214 15.8528Z" fill="white"/>
</mask>
<g mask="url(#mask1_2_1650)">
<path d="M61.1771 4.21191H49.5071V24.5132H61.1771V4.21191Z" fill="url(#paint1_linear_2_1650)"/>
</g>
<mask id="mask2_2_1650" style="mask-type:luminance" maskUnits="userSpaceOnUse" x="58" y="17" width="5" height="4">
<path d="M61.2852 17.7941L58.9483 19.4291C58.7947 19.5365 58.6901 19.7006 58.6575 19.8851C58.6249 20.0697 58.6669 20.2596 58.7744 20.4132C58.8818 20.5668 59.0459 20.6714 59.2304 20.704C59.415 20.7366 59.6049 20.6946 59.7585 20.5871L62.0954 18.9438C62.249 18.8363 62.3536 18.6723 62.3862 18.4877C62.4188 18.3032 62.3768 18.1132 62.2694 17.9596C62.1619 17.8061 61.9979 17.7015 61.8133 17.6689C61.6288 17.6363 61.4388 17.6783 61.2852 17.7857" fill="white"/>
</mask>
<g mask="url(#mask2_2_1650)">
<path d="M62.4912 17.5691H58.5505V20.7142H62.4912V17.5691Z" fill="url(#paint2_linear_2_1650)"/>
</g>
<mask id="mask3_2_1650" style="mask-type:luminance" maskUnits="userSpaceOnUse" x="41" y="21" width="25" height="15">
<path d="M65.7405 21.9034C65.6864 21.8256 65.6174 21.7593 65.5376 21.7082C65.4578 21.6572 65.3687 21.6225 65.2754 21.606C65.182 21.5896 65.0864 21.5917 64.9939 21.6124C64.9015 21.633 64.814 21.6717 64.7366 21.7263L53.6976 29.4515L42.6586 21.7263C42.5812 21.6716 42.4938 21.6327 42.4013 21.6118C42.3089 21.5909 42.2132 21.5884 42.1198 21.6044C42.0264 21.6205 41.937 21.6548 41.8569 21.7053C41.7767 21.7559 41.7073 21.8218 41.6526 21.8992C41.5979 21.9766 41.559 22.064 41.5381 22.1565C41.5171 22.2489 41.5146 22.3446 41.5307 22.438C41.5467 22.5314 41.581 22.6208 41.6316 22.7009C41.6822 22.7811 41.7481 22.8505 41.8255 22.9052L52.4291 30.3305L49.3216 32.505C49.0224 32.3496 48.6806 32.2963 48.3483 32.3532C48.016 32.4101 47.7115 32.5741 47.4811 32.8202C47.2507 33.0663 47.107 33.381 47.0721 33.7163C47.0372 34.0516 47.1128 34.3892 47.2876 34.6775C47.4623 34.9658 47.7265 35.1891 48.0399 35.3132C48.3534 35.4374 48.6988 35.4557 49.0236 35.3653C49.3484 35.275 49.6347 35.0809 49.8389 34.8126C50.0431 34.5444 50.154 34.2167 50.1547 33.8796C50.1548 33.8149 50.1507 33.7501 50.1422 33.6859L53.683 31.2094L57.2238 33.6859C57.2147 33.7501 57.2098 33.8148 57.2092 33.8796C57.2091 34.2184 57.3198 34.548 57.5246 34.8179C57.7293 35.0879 58.0168 35.2834 58.3431 35.3746C58.6694 35.4659 59.0166 35.4478 59.3317 35.3232C59.6467 35.1986 59.9123 34.9743 60.0879 34.6845C60.2636 34.3948 60.3395 34.0555 60.3042 33.7185C60.2689 33.3816 60.1242 33.0654 59.8924 32.8184C59.6605 32.5713 59.3542 32.4069 59.0201 32.3503C58.686 32.2938 58.3427 32.3481 58.0424 32.505L54.9369 30.3305L65.5634 22.901C65.6412 22.8471 65.7074 22.7784 65.7584 22.6987C65.8094 22.6191 65.8442 22.5301 65.8606 22.437C65.8771 22.3439 65.875 22.2484 65.8543 22.1561C65.8337 22.0638 65.795 21.9765 65.7405 21.8992" fill="white"/>
</mask>
<g mask="url(#mask3_2_1650)">
<path d="M65.9695 21.4972H41.4421V35.425H65.9695V21.4972Z" fill="url(#paint3_linear_2_1650)"/>
</g>
<mask id="mask4_2_1650" style="mask-type:luminance" maskUnits="userSpaceOnUse" x="45" y="2" width="4" height="4">
<path d="M46.1243 5.17208L48.4613 3.53082C48.5814 3.44352 48.6711 3.32067 48.7176 3.17963C48.764 3.0386 48.765 2.88652 48.7203 2.74489C48.6757 2.60327 48.5876 2.47928 48.4686 2.39045C48.3496 2.30162 48.2057 2.25244 48.0572 2.24988C47.9124 2.24981 47.7711 2.29495 47.6531 2.37901L45.3162 4.01403C45.1626 4.12147 45.058 4.28552 45.0254 4.47008C44.9928 4.65464 45.0349 4.8446 45.1423 4.99817C45.2497 5.15173 45.4138 5.25633 45.5983 5.28895C45.7829 5.32156 45.9729 5.27952 46.1264 5.17208" fill="white"/>
</mask>
<g mask="url(#mask4_2_1650)">
<path d="M48.857 2.24988H44.9163V5.39495H48.857V2.24988Z" fill="url(#paint4_linear_2_1650)"/>
</g>
<mask id="mask5_2_1650" style="mask-type:luminance" maskUnits="userSpaceOnUse" x="46" y="-1" width="12" height="20">
<path d="M55.6741 2.85599V6.74463L46.5326 13.1452C46.4401 13.2108 46.3646 13.2976 46.3125 13.3983C46.2603 13.499 46.2329 13.6108 46.2327 13.7242V18.046C46.2327 18.2333 46.3071 18.4129 46.4395 18.5453C46.5719 18.6777 46.7515 18.7521 46.9387 18.7521C47.126 18.7521 47.3056 18.6777 47.438 18.5453C47.5704 18.4129 47.6448 18.2333 47.6448 18.046V14.0887L56.7863 7.69648C56.8793 7.63116 56.9553 7.54449 57.0078 7.44374C57.0604 7.34298 57.088 7.23109 57.0884 7.11745V2.85599C57.3893 2.69792 57.6285 2.44357 57.7679 2.13358C57.9073 1.82358 57.9388 1.47581 57.8574 1.14581C57.776 0.815799 57.5864 0.522587 57.3188 0.31299C57.0512 0.103394 56.7211 -0.010498 56.3812 -0.010498C56.0413 -0.010498 55.7112 0.103394 55.4437 0.31299C55.1761 0.522587 54.9864 0.815799 54.905 1.14581C54.8236 1.47581 54.8551 1.82358 54.9945 2.13358C55.1339 2.44357 55.3732 2.69792 55.6741 2.85599Z" fill="white"/>
</mask>
<g mask="url(#mask5_2_1650)">
<path d="M57.9027 -0.0100098H46.2327V18.7521H57.9027V-0.0100098Z" fill="url(#paint5_linear_2_1650)"/>
</g>
<mask id="mask6_2_1650" style="mask-type:luminance" maskUnits="userSpaceOnUse" x="43" y="0" width="10" height="12">
<path d="M44.6998 11.8163C44.8994 11.8163 45.097 11.777 45.2813 11.7005C45.4657 11.6241 45.6332 11.5121 45.7742 11.3709C45.9152 11.2296 46.027 11.062 46.1032 10.8776C46.1794 10.6931 46.2185 10.4954 46.2182 10.2959C46.2182 10.2339 46.2141 10.1719 46.2057 10.1105L52.6979 5.56368C52.7907 5.49914 52.8665 5.41321 52.9191 5.31315C52.9717 5.21309 52.9994 5.10184 52.9999 4.98882V0.702362C52.99 0.521459 52.9113 0.3512 52.7797 0.226614C52.6482 0.102029 52.4739 0.0325928 52.2928 0.0325928C52.1116 0.0325928 51.9373 0.102029 51.8058 0.226614C51.6742 0.3512 51.5955 0.521459 51.5856 0.702362V4.61807L45.3996 8.94619C45.1952 8.83935 44.9691 8.78044 44.7385 8.77392C44.5079 8.76741 44.2788 8.81345 44.0686 8.90857C43.8584 9.00369 43.6727 9.14539 43.5254 9.32294C43.378 9.50049 43.2731 9.70923 43.2184 9.93335C43.1637 10.1575 43.1607 10.3911 43.2097 10.6165C43.2587 10.842 43.3583 11.0533 43.501 11.2346C43.6438 11.4158 43.8259 11.5622 44.0336 11.6626C44.2413 11.763 44.4691 11.8149 44.6998 11.8142" fill="white"/>
</mask>
<g mask="url(#mask6_2_1650)">
<path d="M53 -0.00366211H43.1794V11.8164H53V-0.00366211Z" fill="url(#paint6_linear_2_1650)"/>
</g>
</g>
</g>
</g>
<defs>
<linearGradient id="paint0_linear_2_1650" x1="59.1311" y1="4.53405" x2="59.1311" y2="32.1336" gradientUnits="userSpaceOnUse">
<stop stop-color="#00B6B5"/>
<stop offset="0.27" stop-color="#0099B9"/>
<stop offset="0.48" stop-color="#0086BC"/>
<stop offset="1" stop-color="#7251A1"/>
</linearGradient>
<linearGradient id="paint1_linear_2_1650" x1="55.1531" y1="4.53406" x2="55.1531" y2="32.1336" gradientUnits="userSpaceOnUse">
<stop stop-color="#00B6B5"/>
<stop offset="0.27" stop-color="#0099B9"/>
<stop offset="0.48" stop-color="#0086BC"/>
<stop offset="1" stop-color="#7251A1"/>
</linearGradient>
<linearGradient id="paint2_linear_2_1650" x1="60.3329" y1="4.53408" x2="60.3329" y2="32.1336" gradientUnits="userSpaceOnUse">
<stop stop-color="#00B6B5"/>
<stop offset="0.27" stop-color="#0099B9"/>
<stop offset="0.48" stop-color="#0086BC"/>
<stop offset="1" stop-color="#7251A1"/>
</linearGradient>
<linearGradient id="paint3_linear_2_1650" x1="53.5157" y1="4.53397" x2="53.5157" y2="32.1335" gradientUnits="userSpaceOnUse">
<stop stop-color="#00B6B5"/>
<stop offset="0.27" stop-color="#0099B9"/>
<stop offset="0.48" stop-color="#0086BC"/>
<stop offset="1" stop-color="#7251A1"/>
</linearGradient>
<linearGradient id="paint4_linear_2_1650" x1="46.6986" y1="4.53405" x2="46.6986" y2="32.1336" gradientUnits="userSpaceOnUse">
<stop stop-color="#00B6B5"/>
<stop offset="0.27" stop-color="#0099B9"/>
<stop offset="0.48" stop-color="#0086BC"/>
<stop offset="1" stop-color="#7251A1"/>
</linearGradient>
<linearGradient id="paint5_linear_2_1650" x1="51.8766" y1="4.53403" x2="51.8766" y2="32.1336" gradientUnits="userSpaceOnUse">
<stop stop-color="#00B6B5"/>
<stop offset="0.27" stop-color="#0099B9"/>
<stop offset="0.48" stop-color="#0086BC"/>
<stop offset="1" stop-color="#7251A1"/>
</linearGradient>
<linearGradient id="paint6_linear_2_1650" x1="47.8986" y1="4.53413" x2="47.8986" y2="32.1337" gradientUnits="userSpaceOnUse">
<stop stop-color="#00B6B5"/>
<stop offset="0.27" stop-color="#0099B9"/>
<stop offset="0.48" stop-color="#0086BC"/>
<stop offset="1" stop-color="#7251A1"/>
</linearGradient>
<clipPath id="clip0_2_1650">
<rect width="106.3" height="64.98" fill="white" transform="translate(0.555908 -0.0100098)"/>
</clipPath>
<clipPath id="clip1_2_1650">
<rect width="106.3" height="64.98" fill="white" transform="translate(0.555908 -0.0100098)"/>
</clipPath>
<clipPath id="clip2_2_1650">
<rect width="106.274" height="64.98" fill="white" transform="translate(0.568848 -0.0100098)"/>
</clipPath>
</defs>
</svg>
