<svg width="131" height="65" viewBox="0 0 131 65" fill="none" xmlns="http://www.w3.org/2000/svg">
<g clip-path="url(#clip0_2_333)">
<g clip-path="url(#clip1_2_333)">
<g clip-path="url(#clip2_2_333)">
<path d="M1.84002 35.1258H1.89798C2.04355 35.1409 2.18919 35.0977 2.30293 35.0056C2.41667 34.9135 2.48922 34.78 2.50464 34.6345V34.5765C2.50464 34.4156 2.44073 34.2613 2.32696 34.1475C2.21318 34.0338 2.05888 33.9698 1.89798 33.9698C1.73708 33.9698 1.58277 34.0338 1.469 34.1475C1.35523 34.2613 1.29131 34.4156 1.29131 34.5765C1.29617 34.7206 1.35552 34.8574 1.45737 34.9593C1.55923 35.0613 1.69599 35.1208 1.84002 35.1258ZM3.48669 35.1258H3.54464C3.69022 35.1409 3.83586 35.0977 3.9496 35.0056C4.06334 34.9135 4.13588 34.78 4.15131 34.6345V34.5765C4.15131 34.4156 4.08739 34.2613 3.97362 34.1475C3.85985 34.0338 3.70554 33.9698 3.54464 33.9698C3.38375 33.9698 3.22944 34.0338 3.11567 34.1475C3.00189 34.2613 2.93798 34.4156 2.93798 34.5765C2.93541 34.6493 2.94784 34.7218 2.9745 34.7896C3.00116 34.8573 3.04147 34.9189 3.09294 34.9704C3.14441 35.0219 3.20592 35.0623 3.27366 35.089C3.3414 35.1158 3.41391 35.1283 3.48669 35.1258ZM5.01744 41.1946H4.98873C4.83869 41.1805 4.68973 41.2282 4.57544 41.3262C4.5189 41.3748 4.47266 41.4341 4.43945 41.5008C4.40624 41.5675 4.38672 41.6402 4.38206 41.7146V41.7433C4.38206 41.9042 4.44598 42.0585 4.55975 42.1723C4.67352 42.2861 4.82783 42.35 4.98873 42.35C5.14963 42.35 5.30393 42.2861 5.41771 42.1723C5.53148 42.0585 5.59539 41.9042 5.59539 41.7433C5.59377 41.5933 5.53148 41.4503 5.4226 41.3468C5.31373 41.2433 5.16748 41.1886 5.01744 41.1946ZM6.63539 41.1946H6.60669C6.45664 41.1805 6.30769 41.2282 6.19339 41.3262C6.13686 41.3748 6.09062 41.4341 6.05741 41.5008C6.0242 41.5675 6.00468 41.6402 6.00002 41.7146V41.7433C6.00002 41.9042 6.06394 42.0585 6.17771 42.1723C6.29148 42.2861 6.44579 42.35 6.60669 42.35C6.76758 42.35 6.92189 42.2861 7.03566 42.1723C7.14944 42.0585 7.21335 41.9042 7.21335 41.7433C7.21173 41.5933 7.14944 41.4503 7.04056 41.3468C6.93169 41.2433 6.78544 41.1886 6.63539 41.1946ZM10.42 38.1591C10.3969 37.8573 10.4927 37.5584 10.687 37.3263C10.8814 37.0942 11.1588 36.9473 11.46 36.9171H11.6046C12.0177 36.9373 12.4216 37.0457 12.7893 37.235L13.1072 36.3396C12.6114 36.1002 12.0691 35.972 11.5185 35.9643C11.2432 35.9406 10.966 35.9774 10.7064 36.0721C10.4467 36.1668 10.2109 36.3172 10.0155 36.5126C9.82012 36.708 9.66978 36.9438 9.57507 37.2034C9.48036 37.463 9.44355 37.7402 9.46723 38.0156C9.48664 38.5122 9.59431 39.0013 9.78519 39.4602H7.70519V36.0222H6.72206V39.4602H4.09335V36.0222H2.53335C1.03131 36.0222 0.0200195 36.9468 0.0200195 38.2468C0.0200195 39.5468 0.973353 40.4422 2.38873 40.4422H13.28V39.4602H10.8534C10.5988 39.0713 10.4493 38.6233 10.42 38.1591ZM3.14002 39.4304H2.30206C2.13105 39.4433 1.95923 39.4207 1.79734 39.3641C1.63546 39.3075 1.487 39.2181 1.36126 39.1015C1.23553 38.9849 1.13522 38.8436 1.06663 38.6864C0.998036 38.5292 0.962631 38.3596 0.962631 38.1881C0.962631 38.0166 0.998036 37.8469 1.06663 37.6898C1.13522 37.5326 1.23553 37.3913 1.36126 37.2746C1.487 37.158 1.63546 37.0686 1.79734 37.012C1.95923 36.9554 2.13105 36.9329 2.30206 36.9458H3.14002V39.4304ZM21.9174 35.3278H21.9754C22.2782 35.3587 22.549 35.1393 22.5821 34.8365V34.7786C22.5821 34.6177 22.5181 34.4634 22.4044 34.3496C22.2906 34.2358 22.1363 34.1719 21.9754 34.1719C21.8145 34.1719 21.6602 34.2358 21.5464 34.3496C21.4326 34.4634 21.3687 34.6177 21.3687 34.7786C21.3736 34.9226 21.4329 35.0594 21.5348 35.1614C21.6366 35.2633 21.7734 35.3228 21.9174 35.3278ZM23.5646 35.3278H23.6226C23.7217 35.336 23.8212 35.3178 23.9109 35.2751C24.0007 35.2324 24.0776 35.1667 24.1338 35.0847C24.1899 35.0026 24.2234 34.9072 24.2307 34.8081C24.2381 34.7089 24.2191 34.6096 24.1756 34.5202C24.1329 34.4306 24.0672 34.354 23.9853 34.298C23.9035 34.2419 23.8082 34.2085 23.7093 34.2011H23.6226C23.4726 34.1871 23.3236 34.2347 23.2093 34.3328C23.1528 34.3813 23.1065 34.4407 23.0733 34.5074C23.0401 34.5741 23.0206 34.6468 23.0159 34.7211V34.7498C23.0105 34.8247 23.0208 34.8998 23.0459 34.9705C23.0711 35.0412 23.1107 35.1059 23.1622 35.1604C23.2138 35.215 23.2763 35.258 23.3456 35.2869C23.415 35.3157 23.4896 35.3296 23.5646 35.3278ZM28.0134 35.9058C27.4445 35.9259 26.8891 36.0845 26.3954 36.3678L26.7421 37.2632C27.1016 37.0232 27.5231 36.8928 27.9554 36.8878C29.14 36.8878 29.3708 38.2745 30.0354 39.4591H25.0667V36.0211H24.0846V39.4591H21.4559V38.2745C21.4559 36.8591 20.5893 35.9345 19.2893 35.9345C17.9893 35.9345 17.1226 36.8878 17.1226 38.2745V38.2458C17.1226 39.0837 16.718 39.4591 15.938 39.4591H15.2734V34.2304H14.2913V40.4417H15.938C16.66 40.4417 17.2667 40.2683 17.5559 39.7196C17.7633 39.9731 18.0299 40.1716 18.3323 40.2975C18.6346 40.4235 18.9633 40.473 19.2893 40.4417H31.3072V39.4596C30.4113 39.0258 30.3826 35.9058 28.0134 35.9058ZM19.2893 39.4304C19.1468 39.4451 19.0027 39.4312 18.8657 39.3896C18.7286 39.348 18.6011 39.2794 18.4908 39.188C18.3805 39.0966 18.2896 38.9841 18.2233 38.8571C18.157 38.7301 18.1166 38.5911 18.1046 38.4483V38.2463C18.0413 37.7843 18.252 37.3276 18.6447 37.0769C19.0374 36.8261 19.5401 36.8255 19.9328 37.0769C20.3255 37.3282 20.5362 37.7848 20.4728 38.2463V39.4596H19.2887L19.2893 39.4304Z" fill="#158285"/>
<path d="M28.6774 41.1952H28.6487C28.4994 41.1763 28.3487 41.2173 28.2296 41.3093C28.1105 41.4013 28.0327 41.5367 28.0133 41.6859C27.9944 41.8352 28.0354 41.9859 28.1274 42.105C28.2194 42.2241 28.3548 42.3019 28.504 42.3213H28.6487C28.7987 42.3354 28.9477 42.2877 29.062 42.1897C29.1185 42.1411 29.1647 42.0818 29.1979 42.0151C29.2312 41.9483 29.2507 41.8757 29.2553 41.8013V41.7433C29.2537 41.5933 29.1914 41.4503 29.0825 41.3468C28.9737 41.2434 28.8274 41.1892 28.6774 41.1952ZM35.9579 39.4304H32.52V40.4125H36.94V34.2017H35.9579V39.4304ZM33.56 34.8371H34.542V38.9391H33.56V34.8371ZM38.2113 34.2012H39.1933V40.4125H38.2113V34.2012Z" fill="#158285"/>
<path d="M43.2666 35.1838C43.6016 35.1838 43.8732 34.9122 43.8732 34.5771C43.8732 34.2421 43.6016 33.9705 43.2666 33.9705C42.9315 33.9705 42.6599 34.2421 42.6599 34.5771C42.6599 34.9122 42.9315 35.1838 43.2666 35.1838Z" fill="#158285"/>
<path d="M44.8847 35.1838C45.2198 35.1838 45.4914 34.9122 45.4914 34.5771C45.4914 34.2421 45.2198 33.9705 44.8847 33.9705C44.5497 33.9705 44.2781 34.2421 44.2781 34.5771C44.2781 34.9122 44.5497 35.1838 44.8847 35.1838Z" fill="#158285"/>
<path d="M46.3575 41.1946H46.3288C46.1787 41.1805 46.0298 41.2282 45.9155 41.3262C45.8589 41.3747 45.8127 41.4341 45.7795 41.5008C45.7463 41.5675 45.7268 41.6402 45.7221 41.7146V41.7433C45.7243 42.0775 45.9945 42.3478 46.3288 42.3499C46.6586 42.3375 46.923 42.0732 46.9354 41.7433C46.9238 41.5966 46.8584 41.4594 46.7517 41.3581C46.645 41.2568 46.5046 41.1985 46.3575 41.1946ZM47.9754 41.1946H47.9467C47.7967 41.1805 47.6477 41.2282 47.5334 41.3262C47.4769 41.3747 47.4307 41.4341 47.3974 41.5008C47.3642 41.5675 47.3447 41.6402 47.3401 41.7146V41.7433C47.3422 42.0775 47.6125 42.3478 47.9467 42.3499C48.2766 42.338 48.5415 42.0732 48.5534 41.7433C48.5518 41.5932 48.4895 41.4502 48.3806 41.3468C48.2717 41.2433 48.1255 41.1886 47.9754 41.1946ZM56.6134 35.3283H56.6713C56.9741 35.3592 57.245 35.1398 57.278 34.837V34.7791C57.2893 34.6145 57.2349 34.4521 57.1266 34.3276C57.0184 34.2031 56.8652 34.1266 56.7006 34.115C56.5359 34.1035 56.3734 34.1579 56.2488 34.2662C56.1242 34.3744 56.0476 34.5277 56.036 34.6924C56.0208 35.0272 56.2786 35.3115 56.6134 35.3283ZM59.9641 34.2033H59.9354C59.7854 34.1892 59.6364 34.2369 59.5221 34.3349C59.4656 34.3834 59.4194 34.4428 59.3862 34.5095C59.3529 34.5762 59.3334 34.6489 59.3288 34.7233V34.752C59.3288 34.9129 59.3927 35.0672 59.5064 35.181C59.6202 35.2947 59.7745 35.3587 59.9354 35.3587C60.0963 35.3587 60.2506 35.2947 60.3644 35.181C60.4782 35.0672 60.5421 34.9129 60.5421 34.752C60.5305 34.6053 60.4651 34.4681 60.3583 34.3668C60.2516 34.2655 60.1112 34.2072 59.9641 34.2033ZM61.6401 34.2033C61.49 34.1892 61.3411 34.2369 61.2268 34.3349C61.1702 34.3834 61.124 34.4428 61.0908 34.5095C61.0576 34.5762 61.038 34.6489 61.0334 34.7233V34.752C61.0014 35.0867 61.2468 35.3847 61.5821 35.4166C61.9174 35.4486 62.2148 35.2032 62.2467 34.8679C62.2787 34.5326 62.0333 34.2352 61.698 34.2033H61.6401ZM65.2801 39.4298H63.2288V35.9919H62.2467V39.4298H59.3001V35.9919H58.318V39.4298H55.5447V38.2452C55.5447 36.8298 54.678 35.9052 53.378 35.9052C52.078 35.9052 51.2113 36.8585 51.2113 38.2452V38.2165C51.2113 39.0544 50.8067 39.4298 50.0267 39.4298H49.0447V35.9919H48.0334V39.4298H45.4047V35.9919H43.8154C42.3134 35.9919 41.3021 36.9165 41.3021 38.2165C41.3021 39.5165 42.2554 40.4119 43.6708 40.4119H49.9975C50.7195 40.4119 51.3262 40.2385 51.6154 39.6898C51.8228 39.9433 52.0894 40.1418 52.3917 40.2677C52.6941 40.3937 53.0228 40.4432 53.3488 40.4119H66.2041V34.2011H65.2221V39.4298H65.2801ZM44.4801 39.4298H43.6421C43.4711 39.4427 43.2993 39.4201 43.1374 39.3636C42.9755 39.307 42.827 39.2176 42.7013 39.1009C42.5756 38.9843 42.4753 38.843 42.4067 38.6858C42.3381 38.5286 42.3027 38.359 42.3027 38.1875C42.3027 38.016 42.3381 37.8464 42.4067 37.6892C42.4753 37.532 42.5756 37.3907 42.7013 37.2741C42.827 37.1575 42.9755 37.0681 43.1374 37.0115C43.2993 36.9549 43.4711 36.9323 43.6421 36.9452H44.4801V39.4298ZM53.378 39.4298C53.2355 39.4445 53.0915 39.4306 52.9544 39.389C52.8173 39.3474 52.6899 39.2789 52.5796 39.1874C52.4693 39.096 52.3783 38.9835 52.312 38.8565C52.2457 38.7295 52.2054 38.5905 52.1934 38.4478V38.2457C52.1549 37.905 52.2616 37.5643 52.487 37.3059C52.7123 37.0476 53.0357 36.8959 53.378 36.8878C53.7225 36.891 54.0491 37.0411 54.2756 37.3005C54.502 37.56 54.6065 37.9039 54.5626 38.2457V39.4591H53.378V39.4298ZM67.5047 34.2011H68.4867V40.4124H67.5047V34.2011ZM71.8088 35.9924C70.3067 35.9924 69.2954 36.917 69.2954 38.217C69.2954 39.517 70.2488 40.4124 71.6641 40.4124H72.4154C72.3867 40.9611 72.0108 41.1057 71.4908 41.1057C71.0597 41.0973 70.6319 41.0293 70.2195 40.9037L70.4216 41.9437C70.7877 42.0482 71.1674 42.097 71.5482 42.0883C72.7903 42.0883 73.4262 41.6263 73.4262 40.1529V35.9924H71.8088ZM72.4154 38.1878V39.4298H71.5775C71.4065 39.4427 71.2346 39.4201 71.0728 39.3636C70.9109 39.307 70.7624 39.2176 70.6367 39.1009C70.5109 38.9843 70.4106 38.843 70.342 38.6858C70.2734 38.5286 70.238 38.359 70.238 38.1875C70.238 38.016 70.2734 37.8464 70.342 37.6892C70.4106 37.532 70.5109 37.3907 70.6367 37.2741C70.7624 37.1575 70.9109 37.0681 71.0728 37.0115C71.2346 36.9549 71.4065 36.9323 71.5775 36.9452H72.4154V38.1878ZM51.038 28.2791C51.038 26.8924 50.4026 26.1704 48.958 26.1704H48.2647V27.1524H49.0734C49.738 27.1524 50.0847 27.4991 50.0847 28.2211V29.637H47.398V30.6191H51.0093L51.038 28.2791ZM53.5221 30.3878V26.1411H52.5401V30.5324C52.5401 31.1391 52.2513 31.3411 51.8467 31.3411C51.6447 31.3411 51.4713 31.3124 51.2401 31.3124L51.1534 32.1504C51.3516 32.198 51.5558 32.2175 51.76 32.2083C52.7713 32.2657 53.5221 31.8324 53.5221 30.3878ZM54.6488 24.3791H55.6308V30.5904H54.6488V24.3791ZM58.8088 30.5611H59.5601C59.5313 31.1098 59.1554 31.2544 58.6354 31.2544C58.194 31.2581 57.7549 31.1898 57.3354 31.0524L57.5375 32.0924C57.8337 32.1988 58.1475 32.2479 58.4621 32.237C59.6175 32.237 60.4554 31.8324 60.5134 30.5617H62.5934C62.8865 30.5963 63.1834 30.5468 63.4493 30.4189C63.7153 30.2911 63.9394 30.0901 64.0954 29.8396C64.3028 30.0931 64.5694 30.2916 64.8717 30.4175C65.1741 30.5434 65.5028 30.593 65.8288 30.5617H71V24.3791H70.018V29.6078H67.996V28.4232C67.996 27.0078 67.1293 26.0832 65.8293 26.0832C64.5293 26.0832 63.6626 27.0078 63.6626 28.4232V28.3944C63.6626 29.2324 63.258 29.6365 62.478 29.6365H60.4847V26.1698H58.9534C57.4513 26.1698 56.4401 27.0944 56.4401 28.3944C56.4401 29.6657 57.3934 30.5611 58.8088 30.5611ZM64.6441 28.3944C64.6068 28.0494 64.7173 27.7044 64.9485 27.4454C65.1798 27.1865 65.5103 27.0381 65.8575 27.0365C66.202 27.0397 66.5286 27.1898 66.755 27.4492C66.9814 27.7087 67.086 28.0527 67.0421 28.3944V29.6078H65.8575C65.715 29.6225 65.5709 29.6086 65.4339 29.567C65.2968 29.5254 65.1693 29.4568 65.059 29.3654C64.9487 29.274 64.8578 29.1614 64.7915 29.0344C64.7252 28.9074 64.6848 28.7685 64.6728 28.6257C64.6511 28.5507 64.641 28.4726 64.6441 28.3944ZM58.7221 27.1524H59.5601V29.637H58.7513C58.5789 29.6526 58.4051 29.6321 58.241 29.5767C58.0769 29.5214 57.9262 29.4324 57.7984 29.3156C57.6706 29.1987 57.5686 29.0565 57.4989 28.898C57.4291 28.7394 57.3932 28.5681 57.3934 28.395V28.3663C57.3882 28.1954 57.4199 28.0255 57.4865 27.8681C57.553 27.7107 57.6528 27.5695 57.779 27.4542C57.9052 27.3389 58.0548 27.2523 58.2175 27.2002C58.3803 27.1481 58.5524 27.1318 58.7221 27.1524ZM72.3001 24.3791H73.2821V30.5904H72.3001V24.3791ZM19.9534 25.2744H20.0113C20.1569 25.2896 20.3026 25.2464 20.4163 25.1543C20.53 25.0622 20.6026 24.9287 20.618 24.7832V24.7252C20.618 24.5643 20.5541 24.41 20.4403 24.2962C20.3265 24.1824 20.1722 24.1185 20.0113 24.1185C19.8504 24.1185 19.6961 24.1824 19.5824 24.2962C19.4686 24.41 19.4047 24.5643 19.4047 24.7252C19.4021 24.798 19.4145 24.8705 19.4412 24.9383C19.4679 25.006 19.5082 25.0676 19.5596 25.1191C19.6111 25.1706 19.6726 25.211 19.7404 25.2377C19.8081 25.2644 19.8806 25.2769 19.9534 25.2744ZM18.336 25.2744H18.3939C18.5395 25.2896 18.6851 25.2464 18.7989 25.1543C18.9126 25.0622 18.9852 24.9287 19.0006 24.7832V24.7252C18.9984 24.391 18.7281 24.1207 18.3939 24.1185C18.0641 24.131 17.7997 24.3953 17.7873 24.7252C17.7821 24.7986 17.7928 24.8722 17.8185 24.9412C17.8443 25.0101 17.8845 25.0727 17.9365 25.1248C17.9885 25.1768 18.0511 25.2171 18.12 25.2429C18.1889 25.2688 18.2626 25.2795 18.336 25.2744ZM18.856 30.5617H24.1713V26.1417H23.1893V29.5796H20.56V26.1417H18.9713C17.4693 26.1417 16.458 27.0663 16.458 28.3663C16.4592 28.6717 16.5237 28.9735 16.6474 29.2527C16.7712 29.532 16.9514 29.7825 17.1768 29.9886C17.4021 30.1946 17.6675 30.3519 17.9565 30.4506C18.2455 30.5492 18.5517 30.587 18.856 30.5617ZM18.7693 27.1237H19.6073V29.5791H18.7693C18.5968 29.5979 18.4223 29.5802 18.2571 29.5271C18.092 29.474 17.9398 29.3867 17.8106 29.2709C17.6815 29.1551 17.5781 29.0133 17.5074 28.8549C17.4367 28.6964 17.4001 28.5249 17.4001 28.3514C17.4001 28.1779 17.4367 28.0063 17.5074 27.8479C17.5781 27.6895 17.6815 27.5477 17.8106 27.4319C17.9398 27.3161 18.092 27.2287 18.2571 27.1756C18.4223 27.1225 18.5968 27.1048 18.7693 27.1237ZM32.8088 24.7832H32.8667C32.9351 24.791 33.0043 24.7853 33.0704 24.7662C33.1365 24.7472 33.1982 24.7152 33.2518 24.6721C33.3599 24.5852 33.4293 24.459 33.4447 24.3211V24.2632C33.4559 24.1492 33.433 24.0344 33.379 23.9334C33.325 23.8323 33.2423 23.7496 33.1413 23.6955C33.0403 23.6415 32.9256 23.6186 32.8116 23.6297C32.6976 23.6408 32.5894 23.6855 32.5008 23.758C32.4121 23.8306 32.347 23.9278 32.3135 24.0373C32.2801 24.1469 32.2799 24.2639 32.3129 24.3736C32.3459 24.4832 32.4107 24.5807 32.499 24.6536C32.5874 24.7265 32.6948 24.7716 32.8088 24.7832ZM32.0288 25.9965H32.0867C32.226 25.982 32.3542 25.9135 32.4437 25.8057C32.5331 25.6979 32.5769 25.5594 32.5656 25.4198C32.5543 25.2802 32.4888 25.1505 32.3831 25.0586C32.2774 24.9666 32.1399 24.9197 32.0001 24.9278C31.7173 24.9522 31.5017 25.1927 31.5088 25.4765C31.5033 25.6162 31.5564 25.7517 31.655 25.8502C31.7536 25.9488 31.889 26.0019 32.0288 25.9965ZM33.0709 25.4191V25.477C33.0597 25.591 33.0826 25.7058 33.1366 25.8068C33.1906 25.9078 33.2733 25.9906 33.3743 26.0447C33.4753 26.0987 33.59 26.1216 33.704 26.1105C33.818 26.0994 33.9262 26.0547 34.0148 25.9822C34.1035 25.9096 34.1686 25.8124 34.2021 25.7029C34.2355 25.5933 34.2357 25.4763 34.2027 25.3666C34.1697 25.2569 34.1049 25.1595 34.0166 25.0866C33.9282 25.0137 33.8203 24.9686 33.7063 24.957H33.6483C33.5793 24.944 33.5083 24.9461 33.4402 24.9631C33.372 24.9801 33.3084 25.0116 33.2535 25.0555C33.1987 25.0993 33.154 25.1546 33.1225 25.2173C33.091 25.2801 33.0734 25.3489 33.0709 25.4191ZM27.1754 30.5611H42.92V24.3791H41.938V29.6078H40.0313V26.1411H39.0493V29.5791H36.42V26.1411H35.438V29.5791H33.3867V26.7478H32.4047V29.5791H30.6426V26.7478H29.6601V29.5791H27.1754V26.0544H26.1934V30.5611C26.1934 31.1678 25.9047 31.3698 25.5001 31.3698C25.298 31.3698 25.1247 31.3411 24.8934 31.3411L24.8067 32.1791C25.0052 32.2269 25.2094 32.2465 25.4134 32.237C26.4247 32.2657 27.1467 31.8611 27.1754 30.5611ZM44.1913 24.3791H45.1734V30.5904H44.1913V24.3791Z" fill="#158285"/>
<path d="M21.3686 32.497C21.7037 32.497 21.9753 32.2254 21.9753 31.8904C21.9753 31.5553 21.7037 31.2837 21.3686 31.2837C21.0336 31.2837 20.762 31.5553 20.762 31.8904C20.762 32.2254 21.0336 32.497 21.3686 32.497Z" fill="#158285"/>
<path d="M22.9868 32.497C23.3218 32.497 23.5935 32.2254 23.5935 31.8904C23.5935 31.5553 23.3218 31.2837 22.9868 31.2837C22.6517 31.2837 22.3801 31.5553 22.3801 31.8904C22.3801 32.2254 22.6517 32.497 22.9868 32.497Z" fill="#158285"/>
<path d="M37.778 31.3433H37.7201C37.57 31.3292 37.4211 31.3769 37.3068 31.4749C37.2502 31.5235 37.204 31.5829 37.1708 31.6496C37.1376 31.7163 37.1181 31.789 37.1134 31.8633V31.892C37.0814 32.2268 37.3268 32.5247 37.6621 32.5567C37.9974 32.5886 38.2948 32.3432 38.3267 32.0079C38.3587 31.6727 38.1133 31.3753 37.778 31.3433ZM99.2534 22.7617L99.8601 22.8484C100.79 21.1362 101.872 19.5117 103.095 17.995C99.9943 15.5955 96.52 13.7216 92.8114 12.4484L99.2534 22.7617ZM115.893 35.8197L105.263 32.3817L117.714 52.315C118.459 46.7504 117.834 41.088 115.894 35.8197H115.893Z" fill="#158285"/>
<path d="M98.502 28.135C103.095 20.7971 109.075 15.4237 117.742 12.4484L92.84 52.315C91.7133 43.215 93.907 35.5017 98.502 28.135Z" fill="#F7941D"/>
<path d="M80.5334 24.3504L93.7934 28.655C95.2088 27.875 96.6534 27.1817 98.1268 26.5463L98.7335 25.1309C99.0801 24.3509 99.4847 23.5996 99.8888 22.8489C93.4116 21.7525 86.7642 22.2682 80.5334 24.3504ZM116.76 28.655L105.262 32.3817L130.02 40.4124C126.538 35.5482 122.006 31.5303 116.76 28.655Z" fill="#2BB574"/>
<path d="M80.5334 40.4129L94.6888 35.8196C95.1991 34.4391 95.7874 33.0887 96.4509 31.775C96.8517 29.9853 97.4123 28.2352 98.1262 26.5462C91.084 29.4382 84.9903 34.2412 80.5334 40.4129ZM111.3 22.7616L105.262 32.3816L130.02 24.3503C123.998 22.3273 117.577 21.7824 111.3 22.7616Z" fill="#FCB614"/>
</g>
</g>
</g>
<defs>
<clipPath id="clip0_2_333">
<rect width="130" height="65" fill="white" transform="translate(0.0200195 -0.0100098)"/>
</clipPath>
<clipPath id="clip1_2_333">
<rect width="130" height="65" fill="white" transform="translate(0.0200195 -0.0100098)"/>
</clipPath>
<clipPath id="clip2_2_333">
<rect width="130" height="65" fill="white" transform="translate(0.0200195 -0.0100098)"/>
</clipPath>
</defs>
</svg>
