<svg width="63" height="65" viewBox="0 0 63 65" fill="none" xmlns="http://www.w3.org/2000/svg">
<g clip-path="url(#clip0_2_348)">
<g clip-path="url(#clip1_2_348)">
<g clip-path="url(#clip2_2_348)">
<path d="M13.7954 37.9665L13.432 38.0471L11.9656 39.5135C18.2183 38.3547 24.5697 37.8136 30.9284 37.8978C37.2869 37.8143 43.6383 38.3554 49.8911 39.5135L51.4661 37.9386C38.9977 35.8118 26.2585 35.8212 13.7934 37.9665H13.7954Z" fill="#086662"/>
<path d="M13.4419 38.0331L13.5225 37.6698C14.6715 31.4335 15.2126 25.1005 15.1382 18.7597C15.2087 12.4704 14.6814 6.18858 13.5633 -0.000976562L11.9705 1.59187C13.1293 7.84456 13.6704 14.1961 13.5862 20.5547C13.6697 26.9132 13.1285 33.2646 11.9705 39.5174L13.4419 38.0331Z" fill="#086662"/>
<path d="M51.3586 0.12146C39.0084 2.18479 26.4015 2.18479 14.0513 0.12146C15.1529 6.27679 15.6752 12.5218 15.6113 18.7746C15.6816 25.0277 15.1593 31.2733 14.0513 37.4278C26.4015 35.3644 39.0084 35.3644 51.3586 37.4278C50.2613 31.2717 49.7434 25.0264 49.8116 18.7736C49.743 12.5216 50.261 6.27682 51.3586 0.12146ZM38.9633 9.44955L38.9504 9.53018L39.032 9.54313C39.1098 9.55668 39.1841 9.58552 39.2507 9.62796C39.3172 9.67042 39.3747 9.72564 39.4198 9.79044C39.4649 9.85524 39.4966 9.92833 39.5133 10.0055C39.53 10.0827 39.5312 10.1624 39.5169 10.24V10.2938L39.5577 10.3216C39.5577 10.3216 40.0017 10.5775 40.0704 10.9C40.0952 10.99 40.0852 11.0859 40.0425 11.1688C39.9267 11.1886 39.8095 11.1979 39.6921 11.1967C39.4787 11.2239 39.2628 11.1715 39.0858 11.0494L39.0728 11.0364H39.045C38.69 10.9134 38.3582 10.7317 38.0634 10.4988L38.0226 10.458L37.9688 10.4859C37.8606 10.5417 37.7401 10.5694 37.6184 10.5665C37.3668 10.5609 37.1267 10.4602 36.9464 10.2848L36.8926 10.231L36.8389 10.2997C36.8068 10.3461 36.7591 10.3793 36.7045 10.3933C36.6766 10.4063 36.6507 10.4063 36.6238 10.4212C36.5983 10.4316 36.5707 10.436 36.5432 10.4341H36.5303C36.3137 10.4241 36.1062 10.3441 35.9389 10.2061L35.8583 10.1524L35.8175 10.246C35.8175 10.2589 35.696 10.5277 35.1306 10.5277C35.0361 10.5258 34.9418 10.5165 34.8488 10.4998C34.3766 10.3109 33.8907 10.1582 33.3953 10.0429C33.3147 10.0299 33.248 10.015 33.1793 10.0021H33.1903C33.3967 9.918 33.6078 9.84588 33.8224 9.78604C34.1729 9.69246 34.4695 9.62376 34.4695 9.62376H34.4825C35.035 9.35497 35.1425 9.04537 35.1694 8.89803C35.348 8.90331 35.5248 8.86141 35.6821 8.77657L35.71 8.76362C35.9347 8.68382 36.169 8.63427 36.4068 8.61629C36.4547 8.61096 36.5033 8.61535 36.5494 8.6292C36.5956 8.64306 36.6385 8.66609 36.6756 8.69692C36.6968 8.72025 36.7116 8.74858 36.7187 8.77924C36.7259 8.8099 36.7251 8.84188 36.7164 8.87215L36.7035 9.00654L36.8249 8.95278C37.0946 8.83782 37.3803 8.76497 37.6721 8.73675C37.7109 8.73211 37.7503 8.73584 37.7876 8.74769C37.8249 8.75954 37.8591 8.77923 37.8882 8.80544C37.9091 8.86197 37.9091 8.92413 37.8882 8.98065L37.8603 9.10211L37.9817 9.07424C38.0932 9.05553 38.2062 9.0462 38.3192 9.04637C38.4245 9.03479 38.531 9.04432 38.6325 9.07441C38.7341 9.10449 38.8286 9.15452 38.9106 9.22157C38.9343 9.25406 38.9511 9.291 38.9602 9.33017C38.9693 9.36934 38.9703 9.40996 38.9633 9.44955ZM38.1669 14.252C37.8551 13.9369 37.5962 13.5735 37.4004 13.1758L37.3725 13.122L37.3187 13.135H37.2779C37.1306 13.135 36.7652 13.0663 36.4566 12.4222L36.4158 12.3416L36.3471 12.3953C36.3099 12.4157 36.2679 12.4253 36.2256 12.4232C36.1584 12.4192 36.0927 12.4016 36.0324 12.3715C35.9722 12.3414 35.9187 12.2994 35.8752 12.248L35.8065 12.1793C35.7097 12.0713 35.624 11.954 35.5507 11.8289L35.4969 11.7223L35.4561 11.7761L35.4282 11.8169C35.3967 11.8532 35.3572 11.8817 35.3128 11.9002C35.2684 11.9187 35.2203 11.9266 35.1724 11.9234C34.929 11.8981 34.699 11.7999 34.5123 11.6417C34.1288 11.209 33.7196 10.7997 33.2868 10.4162C33.2062 10.3475 33.1246 10.2948 33.0589 10.241C33.0051 10.2131 32.9523 10.1723 32.9115 10.1474C32.9115 10.144 32.9129 10.1407 32.9153 10.1383C32.9177 10.1358 32.921 10.1345 32.9245 10.1345C32.9654 10.1325 33.0064 10.1369 33.0459 10.1474C33.6431 10.2603 34.2289 10.4269 34.7961 10.6452H34.809C34.9106 10.6676 35.0146 10.677 35.1186 10.673C35.2632 10.6888 35.4095 10.67 35.5454 10.6181C35.6813 10.5661 35.8028 10.4826 35.9001 10.3744C36.084 10.5088 36.3045 10.5841 36.5322 10.5904C36.5398 10.583 36.5496 10.5785 36.5601 10.5775C36.5472 10.6183 36.5472 10.6591 36.5322 10.6989L36.4914 10.8055H36.598C36.814 10.8055 37.4322 10.8592 37.5666 11.1041C37.5875 11.1463 37.5973 11.1931 37.595 11.2402C37.5927 11.2872 37.5785 11.3329 37.5537 11.3729L37.5129 11.4665L37.6064 11.4944C37.922 11.5847 38.1975 11.7795 38.3879 12.0469C38.4194 12.1043 38.4382 12.1677 38.443 12.233C38.4478 12.2983 38.4385 12.3638 38.4158 12.4252L38.4028 12.4939L38.4566 12.5347C38.6101 12.6594 38.7211 12.8285 38.7746 13.0189C38.8281 13.2093 38.8213 13.4115 38.7553 13.5979L38.7423 13.6387L38.7553 13.6795C38.7553 13.6925 39.2928 14.4859 38.9962 14.8901C38.7682 14.8095 38.2834 14.5805 38.1739 14.2838V14.2709L38.1669 14.252ZM36.4974 14.3326C36.5642 14.4489 36.5861 14.5856 36.559 14.717C36.5318 14.8483 36.4575 14.9652 36.3501 15.0454L36.3092 15.0733L36.3222 15.127C36.3635 15.3491 36.3397 15.5783 36.2535 15.7871C36.2357 15.8195 36.2106 15.8473 36.1802 15.8684C36.1498 15.8895 36.1149 15.9032 36.0783 15.9085C35.857 15.7137 35.7018 15.4548 35.6343 15.1678V15.144L35.6213 15.1161C35.4966 14.8027 35.4237 14.4712 35.4053 14.1345L35.3924 14.0807L35.3555 14.0489C35.2143 13.9655 35.0991 13.8444 35.0229 13.6991C34.9468 13.5538 34.9127 13.3902 34.9245 13.2266V13.1459H34.8558C34.8428 13.1459 34.5183 13.1181 34.4397 12.4491L34.4267 12.3555L34.3331 12.3834C34.3331 12.3834 34.0345 12.4769 33.6611 11.8458C33.5058 11.3585 33.3079 10.8858 33.0698 10.4331C33.544 10.8366 33.9891 11.2731 34.4018 11.7393L34.4148 11.7522C34.6315 11.9248 34.8929 12.0322 35.1684 12.0618C35.2752 12.0622 35.3795 12.0296 35.467 11.9682C35.5231 12.069 35.5899 12.1635 35.6661 12.25C35.6532 12.2629 35.6383 12.2629 35.6253 12.2778L35.5188 12.3585L35.6253 12.4272C35.907 12.5894 36.3122 12.912 36.2973 13.0743C36.2973 13.1151 36.2694 13.1549 36.2037 13.1808L36.0972 13.2345L36.1908 13.3152C36.3122 13.4366 36.6219 13.7871 36.6069 14.028C36.6057 14.102 36.5769 14.173 36.5263 14.2271L36.4576 14.2679L36.4974 14.3326ZM29.0947 15.0295C28.9833 14.9523 28.9058 14.8352 28.8784 14.7025C28.851 14.5698 28.8757 14.4317 28.9473 14.3167L28.9881 14.248L28.9195 14.2072C28.8879 14.1898 28.8616 14.1645 28.8429 14.1337C28.8242 14.103 28.8139 14.0679 28.8129 14.032C28.8 13.791 29.1116 13.4406 29.2291 13.3192L29.3226 13.2385L29.2161 13.1848C29.1624 13.1439 29.1226 13.1161 29.1226 13.0782C29.1096 12.916 29.5128 12.5934 29.7826 12.4311L29.8891 12.3625L29.7826 12.2818C29.7659 12.2781 29.7513 12.2681 29.7418 12.254C29.8141 12.1644 29.8806 12.0703 29.9409 11.9722C30.0269 12.0364 30.1323 12.0694 30.2395 12.0658C30.5163 12.0413 30.7791 11.9334 30.9931 11.7562L31.0061 11.7432C31.4261 11.2708 31.876 10.8259 32.353 10.4112C32.1254 10.8687 31.9279 11.3406 31.7617 11.8239C31.3834 12.456 31.0897 12.3615 31.0897 12.3615L31.0091 12.3336L30.9961 12.4401C30.9155 13.1121 30.5929 13.137 30.58 13.137H30.4984V13.2176C30.5103 13.3812 30.4763 13.5449 30.4001 13.6902C30.3239 13.8355 30.2087 13.9567 30.0673 14.0399L30.0265 14.0529V14.1066C30.0056 14.4442 29.9286 14.776 29.7985 15.0882V15.142C29.8114 15.3301 29.5427 15.6795 29.3545 15.8826C29.2903 15.8578 29.2342 15.8158 29.1922 15.7612C29.0958 15.5552 29.0716 15.3226 29.1236 15.1012L29.1365 15.0474L29.0947 15.0295ZM26.6716 13.576C26.6032 13.3899 26.5953 13.187 26.6489 12.9961C26.7025 12.8052 26.815 12.6361 26.9702 12.5128L27.024 12.472L27.011 12.4033C26.9716 12.2782 26.9816 12.1429 27.0389 12.025C27.2141 11.6626 27.8204 11.4725 27.8204 11.4725L27.901 11.4446L27.8602 11.351C27.8354 11.311 27.8211 11.2653 27.8189 11.2183C27.8166 11.1713 27.8264 11.1244 27.8473 11.0822C27.9817 10.8413 28.5879 10.7836 28.8159 10.7836H28.9225L28.8816 10.677C28.8816 10.6362 28.8687 10.5964 28.8687 10.5556C28.8816 10.5556 28.8966 10.5685 28.9095 10.5685C29.1288 10.5597 29.3403 10.4843 29.5158 10.3525C29.6134 10.4602 29.735 10.5434 29.8708 10.5953C30.0066 10.6472 30.1527 10.6664 30.2973 10.6512C30.401 10.6487 30.5044 10.6394 30.6069 10.6233H30.6198C31.1868 10.4043 31.7726 10.2377 32.37 10.1255C32.3949 10.1179 32.4214 10.1164 32.4471 10.1213C32.4727 10.1261 32.4968 10.1372 32.5173 10.1534H32.5302C32.4783 10.1799 32.429 10.2113 32.3829 10.247C32.3034 10.3006 32.2272 10.3591 32.1549 10.4222C31.7217 10.8051 31.3124 11.2144 30.9294 11.6477C30.7416 11.8039 30.5122 11.9018 30.2694 11.9294C30.2236 11.9328 30.1776 11.9248 30.1356 11.9063C30.0936 11.8877 30.0568 11.8591 30.0285 11.8229L30.0006 11.7691L29.9598 11.7004L29.8911 11.807C29.8178 11.932 29.732 12.0495 29.6352 12.1574C29.6074 12.1853 29.5944 12.2111 29.5665 12.2261C29.4817 12.3268 29.3603 12.3898 29.2291 12.4013C29.1868 12.4035 29.1447 12.3938 29.1076 12.3734L29.027 12.3197L28.9862 12.4003C28.6766 13.0474 28.3142 13.1131 28.1648 13.1131H28.124L28.0703 13.1001L28.0424 13.1539C27.8385 13.5505 27.5749 13.9135 27.2609 14.2301L27.233 14.2579C27.1265 14.5566 26.6417 14.7826 26.4117 14.8642C26.1131 14.461 26.6526 13.6696 26.6526 13.6537L26.6805 13.6128L26.6716 13.576ZM30.2256 22.5258H32.3391L31.8951 20.5745L32.2455 20.2241L31.8015 18.4611L32.1519 18.2858L31.695 16.3605L32.1111 16.0509L31.7477 14.4093L32.1639 14.1813L31.8951 12.7278L32.2455 12.4998L32.1918 10.9249V10.912C32.222 10.8021 32.2651 10.6962 32.3202 10.5964C32.4118 10.4188 32.5372 10.2609 32.6895 10.1315C32.9202 10.3505 33.0915 10.6246 33.1873 10.9279L33.1335 12.5028L33.4839 12.7308L33.2281 14.1843L33.6442 14.4123L33.2809 16.0539L33.697 16.3635L33.24 18.2888L33.5905 18.464L33.1465 20.2271L33.4969 20.5775L33.1066 22.5158H35.1793C35.1793 22.5158 35.4481 22.6223 35.3675 22.8384C35.0127 23.3145 34.5858 23.7323 34.1022 24.0768C34.0086 24.0231 34.0086 23.6199 33.9548 23.5392C33.9011 23.4855 33.4571 23.9703 33.242 24.0917C33.0852 23.915 32.9042 23.7612 32.7044 23.6348C32.3819 23.8339 32.0325 24.0917 32.0325 24.0917C31.8165 23.9852 31.5078 23.5004 31.467 23.5542C31.3983 23.6348 31.3983 24.039 31.3197 24.0917C30.8361 23.7473 30.4092 23.3294 30.0544 22.8533C29.9598 22.6512 30.2286 22.5298 30.2286 22.5298L30.2256 22.5258ZM37.0081 6.78153L37.036 6.86218L37.1176 6.82136C37.1768 6.79469 37.2409 6.78079 37.3058 6.78055C37.4 6.78441 37.4911 6.81579 37.5677 6.87081C37.6443 6.92583 37.7031 7.00208 37.7368 7.09014L37.7647 7.13096H37.8583C38.0574 7.12233 38.2531 7.1844 38.4108 7.30618C38.4575 7.35743 38.4822 7.42502 38.4795 7.49433C38.2855 7.67244 38.049 7.79759 37.7926 7.85771C37.7796 7.85771 37.7518 7.84476 37.7388 7.84476H37.698C37.4837 7.90785 37.2614 7.93937 37.038 7.93834C36.9525 7.9404 36.867 7.93607 36.7821 7.9254L36.7284 7.91245L36.7005 7.95327C36.6307 8.06424 36.533 8.15498 36.4172 8.21646C36.3014 8.27794 36.1715 8.30802 36.0405 8.3037C35.9861 8.30568 35.9316 8.30133 35.8782 8.29076L35.7966 8.27782L35.7836 8.35845C35.766 8.426 35.7289 8.48692 35.6771 8.53367C35.6572 8.55517 35.634 8.57333 35.6084 8.58743C35.5554 8.62475 35.496 8.65207 35.4332 8.66806C35.4053 8.66806 35.3924 8.681 35.3645 8.681C35.2754 8.69234 35.1855 8.69667 35.0957 8.69394H35.0021V8.72182L35.0151 8.80245V8.81539C35.0151 8.85621 34.9872 9.15289 34.4237 9.43462C34.3431 9.46249 33.7916 9.58195 33.2928 9.75716C33.1495 9.81092 33.0021 9.87463 32.8846 9.92839C32.8857 9.9255 32.8857 9.92233 32.8846 9.91944C32.8881 9.91944 32.8914 9.91807 32.8938 9.91564C32.8962 9.91322 32.8976 9.90993 32.8976 9.9065C32.9518 9.83652 33.0103 9.77003 33.0728 9.7074C33.4103 9.36991 33.8394 9.02048 33.8394 9.02048L33.8523 9.00754C33.9598 8.90111 34.0424 8.77213 34.094 8.62993C34.1457 8.48773 34.1651 8.33585 34.1509 8.18523C34.2757 8.13801 34.3841 8.05559 34.4629 7.94797C34.5417 7.84035 34.5876 7.71215 34.595 7.57896C34.7437 7.52637 34.8747 7.43326 34.9732 7.31016H35.0011C35.042 7.31016 35.0947 7.3231 35.1355 7.41668L35.1893 7.53814L35.2699 7.43161C35.4451 7.1907 35.7677 6.8124 35.9419 6.8124C35.9549 6.8124 36.0106 6.8124 36.0355 6.93385L36.0633 7.06825L36.1569 6.98761C36.3342 6.81065 36.559 6.68891 36.804 6.63718C36.849 6.63652 36.8929 6.65015 36.9296 6.6761C36.9663 6.70204 36.9938 6.73896 37.0081 6.78153ZM33.6313 7.02445L33.7249 7.11802L33.7527 6.98363C33.8214 6.6332 33.9807 6.24295 34.1032 6.24295C34.1256 6.25575 34.1441 6.27431 34.1569 6.29671L34.2376 6.40324L34.2784 6.28178C34.3321 6.14738 34.5472 5.7442 34.7353 5.7442C34.756 5.74428 34.7764 5.74917 34.7949 5.7585C34.8134 5.76783 34.8295 5.78135 34.8418 5.79796L34.9105 5.85172L34.9643 5.78303C34.9978 5.73955 35.0404 5.70385 35.089 5.67841C35.1376 5.65298 35.1912 5.63839 35.246 5.63568C35.3442 5.64381 35.4377 5.68089 35.5148 5.74221L35.5556 5.77009L35.5964 5.74221C35.7156 5.67247 35.849 5.63091 35.9867 5.62075C36.0336 5.61896 36.08 5.63068 36.1204 5.6545C36.1608 5.67833 36.1935 5.71327 36.2147 5.75516C36.1211 5.97118 35.933 6.27979 35.7836 6.30767H35.7557L35.7428 6.32061C35.5475 6.51209 35.3132 6.65913 35.0559 6.75167L35.0021 6.76461V6.81837C34.9948 6.92064 34.9577 7.01854 34.8956 7.10011C34.8027 7.23702 34.6645 7.33678 34.5053 7.38183L34.4775 7.39478L34.4237 7.40772L34.4367 7.43559L34.4496 7.48935V7.54311C34.4415 7.65049 34.3936 7.75097 34.3152 7.82485C34.2331 7.90652 34.1379 7.97382 34.0335 8.02395L33.9648 8.05183L33.9518 8.06477V8.07771L33.9927 8.1464C33.9927 8.15934 34.1141 8.38732 33.7517 8.8592C33.7109 8.90002 33.4421 9.11505 33.1733 9.3719C33.1155 9.42674 33.0613 9.48526 33.0111 9.54711C32.9573 9.60086 32.9045 9.66857 32.8488 9.72233C32.8617 9.69445 32.8617 9.66856 32.8767 9.62874C33.1471 8.75747 33.3714 7.87255 33.5486 6.97766C33.5813 6.98453 33.611 7.00161 33.6333 7.02644L33.6313 7.02445ZM32.0156 6.41818H32.0693L32.0564 6.32459C31.9681 5.92063 32.0006 5.49961 32.1499 5.11402C32.1629 5.08615 32.2037 5.08615 32.2037 5.08615C32.2225 5.0853 32.2411 5.08979 32.2575 5.09909L32.351 5.15285L32.364 5.04634C32.4133 4.74052 32.5333 4.45044 32.7144 4.19914C32.8929 4.45191 33.0126 4.74136 33.0648 5.04634L33.0927 5.15285L33.1863 5.09909C33.1992 5.09909 33.2271 5.08615 33.24 5.08615C33.253 5.08615 33.2679 5.08615 33.2938 5.11402C33.4287 5.50275 33.461 5.91974 33.3874 6.32459L33.3744 6.41818H33.4431C33.4504 6.56736 33.4367 6.71682 33.4023 6.86218C33.3894 6.903 33.3894 6.95575 33.3744 6.99657C33.3539 7.06711 33.3539 7.14205 33.3744 7.2126C33.253 7.76511 33.0519 8.53167 32.8368 9.29822C32.8368 9.31117 32.8239 9.33904 32.8239 9.35198C32.7952 9.4261 32.7722 9.50232 32.7552 9.57996C32.7478 9.58749 32.7432 9.59733 32.7423 9.60784V9.57996C32.7144 9.49933 32.7015 9.43262 32.6736 9.35198C32.6736 9.33904 32.6606 9.31117 32.6606 9.29822C32.4327 8.53167 32.2445 7.76312 32.1231 7.2126C32.1101 7.13196 32.0952 7.06526 32.0822 6.99657C32.0681 6.95292 32.0587 6.90786 32.0544 6.86218C32.022 6.71721 32.0096 6.56849 32.0175 6.42017L32.0156 6.41818ZM29.4182 5.62175C29.5559 5.63191 29.6894 5.67345 29.8085 5.7432L29.8493 5.77108L29.8901 5.7432C29.9667 5.68102 30.0605 5.64384 30.1589 5.63668C30.2137 5.63939 30.2673 5.65396 30.3159 5.6794C30.3646 5.70484 30.4071 5.74054 30.4406 5.78402L30.4944 5.85271L30.5631 5.79895C30.5748 5.78172 30.5908 5.76775 30.6094 5.75835C30.628 5.74894 30.6487 5.74442 30.6696 5.74519C30.8577 5.74519 31.0728 6.13545 31.1265 6.28278L31.1803 6.40423L31.261 6.29772C31.2687 6.28263 31.2802 6.26977 31.2943 6.26036C31.3084 6.25095 31.3247 6.24531 31.3416 6.24396C31.4352 6.24396 31.5825 6.63421 31.6641 6.98463L31.692 7.11902L31.7856 7.02545C31.8121 7.00291 31.8446 6.9887 31.8791 6.98463C32.0265 7.76612 32.364 8.97568 32.5263 9.66359C32.5392 9.69146 32.5392 9.73227 32.5541 9.75716C32.5004 9.7034 32.4476 9.63571 32.3919 9.58195C32.3324 9.51607 32.2696 9.45328 32.2037 9.3938C31.9349 9.13795 31.6791 8.92192 31.6253 8.88111C31.2629 8.40923 31.3844 8.18423 31.3844 8.18423L31.4381 8.1036V8.09065L31.4252 8.07771L31.3565 8.04984C31.2517 8.00037 31.1564 7.93299 31.0748 7.85073C30.999 7.77502 30.9515 7.67554 30.9404 7.569V7.51524L30.9533 7.46148L30.9663 7.4336L30.9125 7.42066L30.8846 7.40772C30.7281 7.34849 30.5924 7.24466 30.4944 7.10907C30.4354 7.0258 30.3987 6.9288 30.3879 6.82733L30.3749 6.77357L30.3341 6.76063C30.0793 6.66288 29.846 6.51647 29.6472 6.32957L29.6343 6.31663H29.6213C29.4869 6.28875 29.2988 5.97914 29.1902 5.7641C29.2071 5.71835 29.2391 5.67975 29.2809 5.65475C29.3228 5.62974 29.372 5.61985 29.4202 5.62672L29.4182 5.62175ZM26.9832 7.30419C27.1447 7.18017 27.3453 7.11802 27.5486 7.12897H27.6422L27.6701 7.07521C27.7054 6.9882 27.7646 6.91296 27.8409 6.85817C27.9172 6.80338 28.0074 6.7713 28.1011 6.76561C28.166 6.76585 28.2301 6.77976 28.2893 6.80643L28.3699 6.84725L28.3978 6.7666C28.4095 6.72316 28.4355 6.68496 28.4717 6.6582C28.5078 6.63145 28.552 6.61773 28.5969 6.61927C28.8657 6.61927 29.244 6.9697 29.256 6.9697L29.3495 7.05033L29.3903 6.91594C29.4182 6.79449 29.471 6.79448 29.4839 6.79448C29.6462 6.79448 29.9817 7.17179 30.1559 7.4137L30.2365 7.52022L30.2903 7.39877C30.3311 7.30519 30.3839 7.29224 30.4247 7.29224H30.4376C30.5389 7.41204 30.6686 7.50448 30.8149 7.56104C30.8149 7.69543 30.8687 7.95128 31.2589 8.1673C31.2452 8.3179 31.2648 8.46968 31.3165 8.61181C31.3681 8.75394 31.4504 8.88294 31.5576 8.98961L31.5705 9.00256C31.8429 9.21203 32.0991 9.44165 32.3371 9.68947C32.3909 9.75816 32.4586 9.82386 32.5123 9.88857C32.5123 9.90152 32.5123 9.90152 32.4844 9.91645V9.92939C32.3505 9.86014 32.2114 9.80155 32.0683 9.75418C31.7054 9.61749 31.3322 9.50963 30.9523 9.43163C30.3869 9.16284 30.361 8.85323 30.361 8.81242V8.79947L30.3739 8.71883V8.69095H30.2803C30.1906 8.70007 30.1 8.69571 30.0116 8.67801C29.9837 8.67801 29.9707 8.66507 29.9429 8.66507C29.8821 8.64361 29.8235 8.61662 29.7677 8.58444C29.746 8.56493 29.7231 8.54697 29.699 8.53068C29.6501 8.4815 29.6136 8.42146 29.5924 8.35547L29.5795 8.27482L29.5108 8.28777C29.4574 8.29852 29.4029 8.30286 29.3485 8.30071C29.22 8.30099 29.0934 8.26908 28.9804 8.20786C28.8674 8.14665 28.7714 8.05809 28.7014 7.95028L28.6736 7.90946L28.6198 7.9224C28.5392 7.9224 28.4575 7.93535 28.364 7.93535C28.1366 7.93697 27.9102 7.90545 27.692 7.84177H27.6512C27.6353 7.85213 27.6163 7.8567 27.5974 7.85471C27.3402 7.79692 27.103 7.67147 26.9105 7.49134C26.9162 7.4243 26.9419 7.36052 26.9841 7.30817L26.9832 7.30419ZM25.3286 10.897C25.4327 10.6541 25.6126 10.4512 25.8413 10.3186L25.8821 10.2908V10.237C25.8678 10.1594 25.869 10.0797 25.8856 10.0025C25.9023 9.92535 25.9341 9.85225 25.9792 9.78745C26.0243 9.72265 26.0817 9.66744 26.1483 9.62499C26.2148 9.58254 26.2892 9.55369 26.3669 9.54013L26.4476 9.52719V9.44656C26.4382 9.40699 26.4382 9.36579 26.4475 9.32622C26.4569 9.28665 26.4753 9.2498 26.5013 9.21858C26.668 9.08529 26.8802 9.02242 27.0927 9.04337C27.21 9.04383 27.3272 9.05314 27.4431 9.07125L27.5645 9.09912L27.5367 8.97767C27.5188 8.91972 27.5234 8.85714 27.5496 8.80245C27.5785 8.77607 27.6128 8.75628 27.6501 8.74442C27.6874 8.73256 27.7268 8.72892 27.7656 8.73376C28.0575 8.76164 28.3433 8.83453 28.6128 8.9498L28.7343 9.00356L28.7213 8.86915C28.7213 8.77557 28.7214 8.72182 28.7622 8.681C28.7986 8.64912 28.8415 8.62543 28.8878 8.61152C28.9342 8.59761 28.983 8.59379 29.031 8.60036C29.2659 8.61564 29.4973 8.66529 29.7179 8.7477L29.7458 8.76065C29.8967 8.84766 30.0694 8.88979 30.2435 8.8821C30.2714 9.04437 30.3779 9.33905 30.9304 9.60784H30.9583C30.9583 9.60784 31.24 9.67652 31.5905 9.7701C31.7896 9.83879 32.0215 9.90451 32.2226 9.98614H32.2355L32.0365 10.027C31.4043 10.1743 30.6636 10.458 30.5701 10.4839C30.4778 10.5056 30.383 10.515 30.2883 10.5118C29.7228 10.5118 29.6014 10.23 29.6014 10.23L29.5735 10.1365L29.4929 10.1902C29.3224 10.3225 29.1167 10.4017 28.9015 10.4182H28.8886C28.8607 10.4182 28.8348 10.4052 28.808 10.4052C28.7811 10.4052 28.7542 10.3923 28.7273 10.3774C28.6732 10.3549 28.6234 10.3232 28.58 10.2838L28.5262 10.2151L28.4725 10.2689C28.2966 10.4437 28.0604 10.5445 27.8124 10.5506C27.691 10.5508 27.5711 10.5232 27.462 10.47L27.4212 10.4421L27.3804 10.4829C27.0892 10.7211 26.7563 10.9034 26.3988 11.0205H26.3709L26.3301 11.0484C26.1579 11.1687 25.9473 11.2212 25.7388 11.1957C25.617 11.198 25.4953 11.1886 25.3754 11.1678C25.3474 11.13 25.3288 11.0861 25.321 11.0398C25.3133 10.9934 25.3165 10.9459 25.3306 10.901L25.3286 10.897ZM37.9041 25.4775C36.4616 26.4498 35.0787 27.5076 33.7627 28.6453C34.4456 29.2725 35.1415 29.9584 35.8314 30.6991L35.9001 30.6304C35.9085 30.6208 35.9188 30.6132 35.9304 30.608C35.942 30.6027 35.9546 30.6 35.9673 30.6C35.98 30.6 35.9926 30.6027 36.0042 30.608C36.0157 30.6132 36.0261 30.6208 36.0345 30.6304C36.0451 30.6434 36.053 30.6583 36.0578 30.6744C36.0625 30.6904 36.0641 30.7073 36.0624 30.7239C36.1106 30.6854 36.1474 30.6345 36.1689 30.5766C36.1377 30.4899 36.1339 30.3956 36.1579 30.3066C36.182 30.2176 36.2327 30.1381 36.3033 30.0788C36.3421 30.0373 36.3891 30.0043 36.4412 29.9816C36.4933 29.959 36.5496 29.9473 36.6064 29.9473C36.6632 29.9473 36.7195 29.959 36.7716 29.9816C36.8238 30.0043 36.8707 30.0373 36.9095 30.0788C36.9749 30.1689 37.0029 30.2807 36.9877 30.3909C36.9724 30.5012 36.9152 30.6012 36.8279 30.6702C36.7739 30.7185 36.7092 30.7533 36.6391 30.7718C36.569 30.7903 36.4956 30.792 36.4247 30.7767C36.3969 30.8207 36.3789 30.8701 36.3719 30.9216C36.3649 30.9731 36.369 31.0256 36.3839 31.0754C36.5717 31.3191 36.8148 31.5147 37.0932 31.6457C37.3716 31.7768 37.6772 31.8396 37.9847 31.829C38.234 31.8273 38.4797 31.7696 38.7037 31.6601C38.9277 31.5507 39.1243 31.3924 39.2789 31.1968C39.3432 31.1219 39.4231 31.062 39.5131 31.0213C39.6031 30.9806 39.7009 30.9602 39.7996 30.9614C39.8983 30.9627 39.9956 30.9855 40.0845 31.0284C40.1734 31.0714 40.2519 31.1333 40.3143 31.2098C41.0808 32.3258 39.5079 33.3233 38.4297 33.3511C37.3506 33.3456 36.3147 32.9262 35.5357 32.1794C35.4143 32.045 35.3366 31.9912 35.2261 32.045C35.1723 32.0729 35.1445 32.1665 35.1196 32.261C35.1264 32.3363 35.1153 32.4121 35.0871 32.4822C35.0589 32.5523 35.0144 32.6147 34.9573 32.6642C34.8758 32.7424 34.7672 32.7861 34.6542 32.7861C34.5412 32.7861 34.4326 32.7424 34.351 32.6642C34.3157 32.6199 34.2894 32.5691 34.2738 32.5146C34.2581 32.4602 34.2533 32.4032 34.2597 32.3468C34.2661 32.2905 34.2835 32.236 34.3109 32.1865C34.3384 32.1369 34.3754 32.0932 34.4197 32.0579C34.5152 31.9803 34.6342 31.9375 34.7572 31.9365C34.7702 31.9365 34.7851 31.9236 34.798 31.9236C34.7814 31.9198 34.7668 31.9099 34.7572 31.8957C34.7477 31.8873 34.74 31.8769 34.7348 31.8653C34.7296 31.8538 34.7269 31.8412 34.7269 31.8285C34.7269 31.8158 34.7296 31.8032 34.7348 31.7916C34.74 31.78 34.7477 31.7697 34.7572 31.7613L34.9046 31.6139C34.6248 31.3342 33.8224 30.5487 32.7144 29.5582C31.6084 30.5467 30.808 31.3342 30.5242 31.6139L30.6865 31.7613C30.696 31.7697 30.7037 31.78 30.7089 31.7916C30.7142 31.8032 30.7169 31.8158 30.7169 31.8285C30.7169 31.8412 30.7142 31.8538 30.7089 31.8653C30.7037 31.8769 30.696 31.8873 30.6865 31.8957C30.6736 31.9086 30.6586 31.9236 30.6457 31.9236C30.6586 31.9236 30.6736 31.9365 30.6865 31.9365C30.8099 31.9356 30.9295 31.9787 31.024 32.0579C31.0716 32.0907 31.1116 32.1333 31.1416 32.1827C31.1715 32.2322 31.1905 32.2874 31.1975 32.3448C31.2045 32.4021 31.1992 32.4603 31.182 32.5155C31.1648 32.5707 31.1361 32.6215 31.0977 32.6648C31.0594 32.708 31.0123 32.7426 30.9596 32.7663C30.9069 32.79 30.8497 32.8022 30.7919 32.8021C30.7341 32.8021 30.677 32.7898 30.6244 32.766C30.5717 32.7422 30.5247 32.7075 30.4864 32.6642C30.4294 32.6147 30.3849 32.5523 30.3567 32.4822C30.3285 32.4121 30.3173 32.3363 30.3242 32.261C30.3224 32.2196 30.312 32.179 30.2936 32.1418C30.2753 32.1046 30.2494 32.0716 30.2176 32.045C30.1111 31.9912 30.0295 32.045 29.919 32.1794C29.1438 32.9229 28.1139 33.342 27.0399 33.3511C25.909 33.3233 24.352 32.3287 25.1146 31.2098C25.1771 31.1334 25.2555 31.0716 25.3444 31.0288C25.4333 30.986 25.5305 30.9632 25.6292 30.962C25.7279 30.9607 25.8256 30.9811 25.9156 31.0217C26.0055 31.0623 26.0855 31.122 26.1499 31.1968C26.3037 31.3933 26.5001 31.5523 26.7243 31.6618C26.9484 31.7713 27.1946 31.8285 27.4441 31.829C27.7504 31.839 28.0546 31.7758 28.3316 31.6448C28.6086 31.5137 28.8504 31.3185 29.0369 31.0754C29.052 31.0256 29.0561 30.9731 29.0491 30.9216C29.042 30.8701 29.0239 30.8206 28.9961 30.7767C28.9253 30.792 28.8518 30.7903 28.7818 30.7718C28.7117 30.7533 28.647 30.7185 28.5929 30.6702C28.5541 30.6349 28.5226 30.5923 28.5002 30.5448C28.4779 30.4973 28.4651 30.4459 28.4626 30.3935C28.4601 30.3411 28.4679 30.2887 28.4857 30.2393C28.5034 30.19 28.5307 30.1446 28.566 30.1057C28.6013 30.0669 28.6439 30.0354 28.6914 30.013C28.7389 29.9907 28.7903 29.9779 28.8427 29.9754C28.8951 29.9729 28.9475 29.9807 28.9969 29.9985C29.0463 30.0162 29.0917 30.0436 29.1305 30.0788C29.2011 30.1381 29.2518 30.2176 29.2759 30.3066C29.2999 30.3956 29.2961 30.4899 29.2649 30.5766C29.2917 30.6315 29.3277 30.6813 29.3714 30.7239C29.3694 30.7073 29.3708 30.6904 29.3756 30.6743C29.3804 30.6582 29.3885 30.6432 29.3993 30.6304C29.4077 30.6208 29.4181 30.6132 29.4296 30.608C29.4412 30.6027 29.4538 30.6 29.4665 30.6C29.4792 30.6 29.4918 30.6027 29.5034 30.608C29.515 30.6132 29.5253 30.6208 29.5337 30.6304L29.6024 30.6991C30.2923 29.9584 30.9882 29.2735 31.6711 28.6453C30.3547 27.5081 28.9718 26.4503 27.5297 25.4775C22.9403 22.4232 19.4829 22.7179 19.4829 22.7179C22.0802 21.7493 25.3505 22.6901 26.8318 23.5243C28.9227 24.7301 30.8938 26.1325 32.7184 27.7125C34.542 26.133 36.5117 24.7306 38.601 23.5243C40.0823 22.6901 43.3526 21.7483 45.9499 22.7179C45.9479 22.7179 42.4895 22.4232 37.9041 25.4775Z" fill="#086662"/>
<path d="M3.28484 47.9744L4.43369 48.6663L4.93145 47.8509L3.72786 47.1312L3.3416 47.7673L2.22262 47.0625L1.72485 47.9186L2.9394 48.6255L3.28484 47.9744Z" fill="#086662"/>
<path d="M4.88756 50.5708C4.80394 50.5021 4.6098 50.3359 4.29024 50.1139C4.06888 49.9661 3.86803 49.7897 3.69292 49.5892L2.73921 50.8336C2.17215 51.4384 1.78499 52.1892 1.62123 53.0019C1.61629 53.1503 1.65935 53.2963 1.744 53.4182C1.82865 53.5402 1.95039 53.6316 2.09112 53.6789C2.36581 53.795 2.66721 53.8333 2.96221 53.7894C3.44155 53.7456 3.8978 53.5633 4.27531 53.2647C4.49874 53.0928 4.69448 52.8877 4.85569 52.6564C5.07298 52.2777 5.2137 51.86 5.26983 51.427C5.27271 51.265 5.23996 51.1043 5.1739 50.9564C5.10784 50.8084 5.0101 50.6768 4.88756 50.5708ZM4.22553 52.4792C3.86356 52.6363 3.4742 52.7205 3.07967 52.7271C2.68146 52.7271 2.48237 52.5609 2.48237 52.2293C2.48568 52.1185 2.51428 52.0099 2.56599 51.9118C2.86465 51.4698 3.13145 51.1094 3.35345 50.8336C4.08517 51.2906 4.47441 51.6898 4.48735 52.0482C4.49184 52.1379 4.46941 52.2268 4.42293 52.3036C4.37645 52.3804 4.30805 52.4416 4.22653 52.4792H4.22553Z" fill="#086662"/>
<path d="M8.48047 50.296C8.34209 50.9043 8.25847 51.3184 8.20471 51.5534C9.13155 52.2174 9.5855 52.742 9.5855 53.1283C9.46681 53.8819 9.06031 54.56 8.45161 55.0198C7.96399 55.6109 7.27507 56.001 6.51729 56.1149C6.18221 56.0932 5.85425 56.0084 5.55064 55.865C5.33919 55.7695 5.12247 55.686 4.90155 55.6151C4.89018 55.6134 4.87858 55.6144 4.86767 55.6181C4.85676 55.6217 4.84685 55.6278 4.83872 55.6359C4.83059 55.644 4.82448 55.6539 4.82087 55.6648C4.81726 55.6757 4.81625 55.6874 4.81792 55.6987C4.81792 55.8779 5.19092 56.1129 5.9369 56.4036C6.40665 56.6093 6.90589 56.7396 7.41625 56.7898C7.77155 56.7513 8.1117 56.6251 8.40608 56.4225C8.70046 56.2198 8.93985 55.9472 9.10267 55.6291C9.6345 54.9515 9.94334 54.1259 9.9867 53.2657C10.0139 52.6001 9.85575 51.9401 9.52975 51.3592C9.23526 50.9542 8.88154 50.5958 8.48047 50.296Z" fill="#086662"/>
<path d="M20.6687 55.9457L21.7996 56.6505L22.2974 55.8093L21.1665 55.1453L20.6687 55.9457Z" fill="#086662"/>
<path d="M27.1745 48.3757L28.3353 49.0676L28.8331 48.2522L27.6315 47.5324L27.2452 48.1686L26.1242 47.4637L25.6265 48.3199L26.8151 49.0118L27.1745 48.3757Z" fill="#086662"/>
<path d="M32.5234 47.2139C32.2327 47.0625 31.926 46.8953 31.6274 46.729C31.5925 46.7169 31.5621 46.6946 31.5401 46.6649C31.5181 46.6353 31.5055 46.5997 31.5039 46.5628C31.508 46.4995 31.5271 46.438 31.5597 46.3836C31.5911 46.3286 31.6101 46.2675 31.6154 46.2044C31.6154 46.1636 31.5876 46.1208 31.5159 46.1049C31.4751 46.064 31.3924 46.1327 31.2939 46.3119L30.7563 47.2507C30.7148 47.3277 30.6913 47.4132 30.6876 47.5006C30.6915 47.5635 30.712 47.6243 30.7469 47.6767C30.7819 47.7292 30.8301 47.7714 30.8867 47.7992L30.9554 47.8271C31.2525 49.365 31.4557 50.9196 31.5637 52.4822C31.5637 52.6484 31.5507 52.7321 31.5229 52.7321H28.9056C28.7822 52.7321 28.7065 52.6913 28.6985 52.6086C28.6985 52.5957 28.7115 52.4981 28.7394 52.31C28.8691 51.6674 28.9476 51.0157 28.9743 50.3607C28.9743 50.292 28.9743 50.2502 28.9614 50.2373C28.6295 50.5992 28.3162 50.9776 28.0226 51.3712L27.9947 52.739H22.8827L22.7722 52.6703C22.6891 52.6172 22.6212 52.5434 22.5751 52.4561C22.529 52.3689 22.5064 52.2712 22.5094 52.1726C23.0384 51.9541 23.6091 51.8548 24.1809 51.8819C24.3054 51.8788 24.4301 51.8831 24.5542 51.8948C24.7612 51.4249 24.9126 51.0665 24.9962 50.8167C24.9404 50.8167 24.8299 50.8167 24.6378 50.8296H24.2924C23.4451 50.7691 22.6089 50.6019 21.8035 50.3318C21.2669 50.1494 20.7099 50.0335 20.145 49.9864C19.5364 49.9864 19.0668 50.3733 18.7363 51.1472C18.6733 51.2919 18.6359 51.4466 18.6258 51.6041C18.6308 51.6096 18.6345 51.6161 18.6367 51.6232C18.6389 51.6302 18.6396 51.6376 18.6388 51.6449C18.9641 51.355 19.368 51.168 19.7995 51.1074L20.365 51.2308C21.1528 51.3974 21.7468 51.5218 22.147 51.6041C21.4589 52.2625 20.5654 52.6642 19.6164 52.742H13.3445C13.246 52.7533 13.1462 52.7443 13.0512 52.7158C12.9562 52.6872 12.868 52.6396 12.792 52.5758L12.6925 52.4762C12.5323 51.543 12.4219 50.6019 12.362 49.6569L12.0314 45.7465C11.7328 46.1606 11.4939 46.4662 11.3545 46.6574C11.5616 48.9093 11.7364 51.2856 11.8791 53.7863H19.5895C19.8113 53.7944 20.0324 53.7569 20.2391 53.6761C20.4457 53.5953 20.6336 53.4729 20.7911 53.3164C20.9899 53.1426 21.2026 52.9854 21.4272 52.8465C21.6586 52.7119 21.8722 52.5491 22.0634 52.3617C22.0886 52.6458 22.1349 52.9277 22.2017 53.2049C22.3013 53.5783 22.4646 53.7704 22.7144 53.7704H27.3815C27.4372 53.7704 27.5328 53.6599 27.6572 53.4528C27.7817 53.2458 27.8643 53.1353 27.8922 53.1353C27.92 53.1353 27.9609 53.2189 28.0305 53.3572C28.0702 53.457 28.1314 53.5467 28.2097 53.6201C28.3299 53.7084 28.4748 53.7568 28.6239 53.7585H31.6622C31.7618 53.7585 31.8693 53.4827 31.9609 52.9431C32.0405 52.5609 32.0868 52.1725 32.0993 51.7823L31.7538 48.298C31.8033 48.3151 31.8538 48.3287 31.9051 48.3388L32.5234 47.2139Z" fill="#086662"/>
<path d="M34.7882 45.7644C34.3819 46.2879 34.116 46.9064 34.0156 47.5613C34.2914 50.1587 34.5134 52.3707 34.6647 54.2085C34.9276 53.6468 35.0917 53.044 35.1495 52.4265L35.0112 49.1243C34.8987 46.9511 34.831 45.8331 34.7882 45.7644Z" fill="#086662"/>
<path d="M42.4747 47.9744L43.6206 48.6663L44.1184 47.8509L42.9297 47.1312L42.5315 47.7673L41.4255 47.0625L40.9158 47.9186L42.1303 48.6255L42.4747 47.9744Z" fill="#086662"/>
<path d="M44.0775 50.5708C43.9939 50.5021 43.7997 50.3359 43.4802 50.1139C43.2588 49.9661 43.058 49.7897 42.8829 49.5892L41.9291 50.8336C41.362 51.4383 40.9749 52.1892 40.8112 53.0019C40.8062 53.1503 40.8493 53.2963 40.9339 53.4182C41.0186 53.5402 41.1403 53.6316 41.281 53.6789C41.5557 53.795 41.8571 53.8333 42.1521 53.7894C42.6315 53.7456 43.0877 53.5633 43.4652 53.2647C43.6892 53.0934 43.885 52.8882 44.0456 52.6564C44.2629 52.2777 44.4036 51.86 44.4598 51.427C44.4627 51.265 44.4299 51.1043 44.3638 50.9564C44.2978 50.8084 44.2 50.6768 44.0775 50.5708ZM43.4284 52.4792C43.0665 52.6365 42.6771 52.7207 42.2826 52.7271C41.8843 52.7271 41.6852 52.5609 41.6852 52.2293C41.6885 52.1189 41.716 52.0104 41.7659 51.9118C42.0645 51.4698 42.3313 51.1094 42.5533 50.8336C43.288 51.2906 43.6743 51.6898 43.6873 52.0482C43.6863 52.1365 43.6617 52.223 43.6163 52.2988C43.5708 52.3746 43.5059 52.4368 43.4284 52.4792Z" fill="#086662"/>
<path d="M47.6704 50.296C47.532 50.9043 47.4484 51.3184 47.3946 51.5534C48.3215 52.2174 48.7754 52.742 48.7754 53.1283C48.657 53.8817 48.2508 54.5598 47.6425 55.0198C47.1549 55.6109 46.466 56.001 45.7082 56.1149C45.3731 56.0932 45.0452 56.0084 44.7415 55.865C44.5301 55.7695 44.3134 55.6861 44.0925 55.6151C44.0811 55.6134 44.0695 55.6144 44.0586 55.6181C44.0477 55.6217 44.0377 55.6278 44.0296 55.6359C44.0215 55.644 44.0154 55.6539 44.0118 55.6648C44.0082 55.6757 44.0072 55.6874 44.0088 55.6987C44.0088 55.8779 44.3818 56.1129 45.1278 56.4036C45.5976 56.6093 46.0968 56.7396 46.6072 56.7898C46.9639 56.7504 47.3054 56.6239 47.6017 56.4215C47.898 56.2191 48.1401 55.9469 48.3065 55.6291C48.8384 54.9515 49.1472 54.1259 49.1906 53.2657C49.2178 52.6001 49.0596 51.9401 48.7336 51.3592C48.4295 50.9578 48.0718 50.6001 47.6704 50.296Z" fill="#086662"/>
<path d="M51.4981 45.7644C51.0918 46.2878 50.8259 46.9063 50.7256 47.5613C51.0013 50.1587 51.2234 52.3707 51.3747 54.2085C51.6376 53.6468 51.8016 53.0439 51.8595 52.4265L51.7211 49.1243C51.6216 46.9511 51.5409 45.8331 51.4981 45.7644Z" fill="#086662"/>
<path d="M56.7614 51.3592C56.4802 50.9478 56.1299 50.5881 55.7261 50.296C55.5877 50.9043 55.504 51.3184 55.4503 51.5534C56.3771 52.2174 56.8311 52.742 56.8311 53.1283C56.7124 53.8819 56.3059 54.56 55.6972 55.0198C55.2096 55.611 54.5207 56.001 53.7629 56.1149C53.4278 56.0932 53.0998 56.0084 52.7962 55.865C52.5848 55.7695 52.368 55.6861 52.1471 55.6151C52.1358 55.6134 52.1242 55.6144 52.1133 55.6181C52.1024 55.6217 52.0924 55.6278 52.0843 55.6359C52.0762 55.644 52.0701 55.6539 52.0665 55.6648C52.0629 55.6757 52.0619 55.6874 52.0635 55.6987C52.0635 55.8779 52.4365 56.1129 53.1825 56.4036C53.6522 56.6093 54.1515 56.7396 54.6618 56.7898C55.0185 56.7504 55.36 56.6239 55.6564 56.4215C55.9527 56.2191 56.1947 55.9469 56.3612 55.6291C56.8929 54.9519 57.2017 54.1265 57.2452 53.2666C57.2471 52.6002 57.0807 51.9442 56.7614 51.3592Z" fill="#086662"/>
<path d="M55.9203 48.0998L54.7595 47.408L54.2468 48.2362L55.4225 48.941L55.9203 48.0998Z" fill="#086662"/>
<path d="M61.7361 50.6415C61.4603 50.1039 61.2264 49.8451 61.0193 49.8451C60.7207 49.8451 60.3682 50.1627 59.969 50.7968C59.665 51.2087 59.4791 51.6958 59.4315 52.2055C59.4284 52.4915 59.4896 52.7746 59.6106 53.0338C59.6616 53.1683 59.75 53.2854 59.8653 53.3713C59.9807 53.4572 60.1182 53.5083 60.2617 53.5186C60.5047 53.5581 60.754 53.5292 60.9815 53.4349C61.2996 53.1975 61.5398 52.8707 61.6714 52.4962C61.7329 52.7024 61.7612 52.9172 61.755 53.1323C61.7196 53.4801 61.6144 53.8172 61.4458 54.1234C61.2771 54.4295 61.0485 54.6986 60.7734 54.9143C60.2299 55.4585 59.5812 55.8864 58.867 56.1717C58.7192 56.2185 58.565 56.2417 58.41 56.2404C58.1771 56.2257 57.946 56.1887 57.7201 56.1298C57.5 56.0648 57.2726 56.0277 57.0432 56.0193C56.9436 56.0193 56.8918 56.0621 56.8918 56.1298C56.8918 56.2682 57.2781 56.4056 58.0656 56.5868C58.5437 56.6971 59.0286 56.7756 59.5171 56.8217C59.7515 56.8182 59.9825 56.7646 60.1946 56.6645C60.4066 56.5644 60.5948 56.4201 60.7465 56.2413C61.0924 55.9093 61.3733 55.5156 61.5748 55.0806C61.9796 54.2299 62.1875 53.2989 62.1831 52.3568C62.1821 51.7564 62.0283 51.1661 61.7361 50.6415ZM60.7824 52.4086C60.5839 52.4061 60.3875 52.3686 60.202 52.2981C59.9521 52.1985 59.8287 52.078 59.8137 51.9118C59.841 51.7005 59.9478 51.5075 60.1124 51.3722C60.2423 51.2089 60.4303 51.1019 60.637 51.0736C60.7577 51.0932 60.8715 51.1427 60.968 51.2177C61.0645 51.2926 61.1407 51.3906 61.1895 51.5027C61.3182 51.7213 61.3894 51.9689 61.3966 52.2224C61.32 52.3538 61.1 52.4086 60.7824 52.4086Z" fill="#086662"/>
<path d="M1.67595 58.996L2.98207 62.4515L4.31609 58.996H5.19514V63.5754H4.43057V60.4196L3.21403 63.5784H2.7103L1.56047 60.4196V63.5784H0.795898V58.999L1.67595 58.996Z" fill="#086662"/>
<path d="M5.79053 60.2603V63.5754H6.54215V60.2603H5.79053ZM5.79053 58.9919V59.6391H6.54215V58.9919H5.79053Z" fill="#086662"/>
<path d="M7.08461 60.2663H7.84918V60.5371C7.98924 60.4296 8.14641 60.3464 8.31408 60.2912C8.63403 60.1934 8.97526 60.1889 9.29767 60.2782C9.42679 60.3239 9.54579 60.3942 9.64809 60.4853C9.74324 60.577 9.81819 60.6875 9.86811 60.8098C9.92046 60.9416 9.9465 61.0823 9.94476 61.224V63.5804H9.19313V61.2907C9.20622 61.1389 9.16456 60.9874 9.07566 60.8636C9.03332 60.8209 8.98268 60.7873 8.92687 60.7648C8.87106 60.7424 8.81125 60.7316 8.75112 60.7332C8.62994 60.7312 8.50999 60.7575 8.4007 60.8098C8.29602 60.8605 8.2002 60.9277 8.11697 61.009C8.03639 61.0878 7.96915 61.1793 7.91787 61.2797C7.8709 61.3812 7.84905 61.4925 7.85416 61.6043V63.5854H7.07764V60.2703L7.08461 60.2663Z" fill="#086662"/>
<path d="M10.5291 60.2603V63.5754H11.2807V60.2603H10.5291ZM10.5291 58.9919V59.6391H11.2807V58.9919H10.5291Z" fill="#086662"/>
<path d="M12.5829 62.4803C12.5835 62.582 12.6007 62.6828 12.6337 62.779C12.6653 62.8524 12.7094 62.9198 12.7641 62.9781C12.8167 63.0281 12.8781 63.0679 12.9453 63.0955C13.0203 63.1209 13.099 63.134 13.1782 63.1344C13.2521 63.1313 13.3257 63.1226 13.3982 63.1085C13.4694 63.0949 13.5388 63.0735 13.6053 63.0448C13.672 63.0158 13.727 62.9654 13.7616 62.9014C13.8054 62.8366 13.8277 62.7596 13.8253 62.6814C13.8236 62.6078 13.8016 62.5361 13.7616 62.4743C13.7196 62.4166 13.6665 62.3678 13.6053 62.331C13.5396 62.2922 13.4619 62.2543 13.3723 62.2135C13.2828 62.1727 13.1912 62.1498 13.1016 62.109C12.9582 62.0582 12.8178 62.0045 12.6745 61.9527C12.5405 61.9047 12.4141 61.8376 12.2992 61.7536C12.1903 61.6841 12.0979 61.5917 12.0284 61.4828C11.9521 61.3682 11.9154 61.2319 11.9239 61.0945C11.9206 60.9578 11.9569 60.8229 12.0284 60.7063C12.0943 60.5946 12.1875 60.5014 12.2992 60.4355C12.4213 60.357 12.556 60.3001 12.6974 60.2673C12.854 60.2309 13.0145 60.2138 13.1752 60.2165C13.3495 60.2137 13.5235 60.2308 13.6939 60.2673C13.8411 60.3041 13.9811 60.3653 14.108 60.4484C14.2257 60.5287 14.3229 60.6354 14.3918 60.76C14.4593 60.8976 14.4992 61.0471 14.5092 61.2001H13.7576C13.7459 61.1243 13.7245 61.0503 13.6939 60.98C13.658 60.9259 13.614 60.8776 13.5635 60.8367C13.5141 60.7985 13.4565 60.7723 13.3952 60.76C13.3273 60.7443 13.2579 60.7357 13.1882 60.7342C13.0587 60.7266 12.9305 60.7635 12.8248 60.8387C12.7834 60.8675 12.7498 60.9061 12.7271 60.9511C12.7043 60.9961 12.6931 61.0461 12.6944 61.0965C12.6949 61.1678 12.7172 61.2373 12.7581 61.2956C12.8001 61.3534 12.8532 61.4022 12.9144 61.439C12.9898 61.4824 13.0676 61.5217 13.1474 61.5565C13.237 61.5953 13.3285 61.6202 13.4181 61.661L13.8452 61.8173C13.9792 61.8653 14.1056 61.9323 14.2205 62.0164C14.3287 62.0813 14.4212 62.1693 14.4913 62.2742C14.5585 62.3789 14.5947 62.5003 14.5958 62.6247C14.6009 62.7876 14.5603 62.9486 14.4784 63.0896C14.3992 63.219 14.2929 63.3297 14.1668 63.4141C14.026 63.4974 13.8732 63.5585 13.7138 63.5953C13.5347 63.6324 13.3521 63.6495 13.1693 63.6461C12.9934 63.6476 12.8184 63.6218 12.6506 63.5694C12.4939 63.5281 12.3481 63.453 12.2235 63.3494C12.0962 63.2541 11.9937 63.1294 11.9248 62.986C11.8456 62.8288 11.8011 62.6563 11.7944 62.4803H12.5709V62.4913L12.5829 62.4803Z" fill="#086662"/>
<path d="M16.121 59.3204V60.2662H16.6118V60.7849H16.121V62.8038C16.1128 62.8907 16.1354 62.9777 16.1848 63.0497C16.2051 63.0704 16.2295 63.0867 16.2563 63.0977C16.2832 63.1086 16.3121 63.114 16.3411 63.1134C16.3806 63.1141 16.4201 63.1098 16.4585 63.1005C16.5093 63.0875 16.6019 63.0746 16.7044 63.0617V63.5524C16.6113 63.577 16.5165 63.5943 16.4207 63.6042C16.3354 63.6185 16.2493 63.6272 16.1629 63.6301C16.062 63.631 15.9615 63.6179 15.8642 63.5913C15.7752 63.5688 15.6917 63.5289 15.6183 63.4738C15.5454 63.4204 15.4874 63.349 15.4501 63.2667C15.4078 63.1683 15.3862 63.0622 15.3864 62.9551V60.765H14.8547V60.2463H15.3455V59.3005H16.1221V59.3175L16.121 59.3204Z" fill="#086662"/>
<path d="M17.1187 60.2662H17.7906L17.8295 60.5648C17.9116 60.4504 18.024 60.3612 18.154 60.307C18.2741 60.2458 18.4075 60.2151 18.5423 60.2174C18.595 60.2219 18.6472 60.2305 18.6985 60.2433C18.7664 60.2539 18.833 60.2709 18.8977 60.2941V60.9153C18.7768 60.8637 18.651 60.8243 18.5223 60.7978C18.4283 60.7974 18.3355 60.8193 18.2515 60.8615C18.1686 60.9038 18.0974 60.9661 18.0445 61.0427C17.9861 61.1202 17.9419 61.2075 17.9141 61.3006C17.8878 61.4023 17.8747 61.507 17.8752 61.6121V63.5933H17.1236V60.2672L17.1187 60.2662Z" fill="#086662"/>
<path d="M20.561 62.5311L21.3375 60.2662H22.114L20.7203 64.2533C20.6773 64.3719 20.6208 64.4851 20.552 64.5908C20.4927 64.6769 20.4181 64.7515 20.332 64.8108C20.2573 64.8667 20.1744 64.9107 20.0862 64.9412C20.0067 64.9667 19.9237 64.9798 19.8403 64.9801C19.7667 64.9818 19.6931 64.9775 19.6202 64.9671C19.5278 64.9501 19.4371 64.9244 19.3494 64.8904V64.333L19.4669 64.3718C19.5115 64.3857 19.5551 64.4026 19.5974 64.4225C19.6362 64.4355 19.674 64.4484 19.7019 64.4614C19.7262 64.4709 19.7523 64.4754 19.7785 64.4743C19.7947 64.4732 19.8103 64.4678 19.8238 64.4587C19.8372 64.4496 19.8481 64.4371 19.8552 64.4225C19.887 64.3879 19.9129 64.3482 19.9318 64.3051C19.9577 64.2543 19.9707 64.2155 19.9956 64.1617C20.0184 64.1163 20.0355 64.0681 20.0463 64.0184L20.1897 63.5783L18.9731 60.2782H19.7755L20.561 62.5311Z" fill="#086662"/>
<path d="M26.8389 61.2637C26.7772 61.0611 26.6707 60.875 26.5273 60.7192C26.3847 60.5664 26.2136 60.443 26.0236 60.3558C25.8066 60.2636 25.5724 60.2191 25.3367 60.2254C25.1016 60.2181 24.8677 60.2626 24.6517 60.3558C24.4581 60.4334 24.2869 60.5584 24.154 60.7192C24.0113 60.8756 23.905 61.0615 23.8424 61.2637C23.7745 61.4772 23.7392 61.6998 23.7379 61.9238C23.7361 62.1487 23.7714 62.3723 23.8424 62.5858C23.9152 62.7834 24.0205 62.9674 24.154 63.1303C24.2907 63.2871 24.4608 63.4113 24.6517 63.4937C24.868 63.5859 25.1017 63.6303 25.3367 63.6241C25.5725 63.6316 25.807 63.5871 26.0236 63.4937C26.2146 63.4083 26.386 63.2846 26.5273 63.1303C26.6699 62.9739 26.7763 62.788 26.8389 62.5858C26.9783 62.1565 26.9783 61.694 26.8389 61.2647V61.2637ZM26.1132 62.3887C26.0813 62.5233 26.0242 62.6506 25.9449 62.764C25.8746 62.8687 25.7822 62.9567 25.6742 63.0218C25.5674 63.0804 25.4475 63.1111 25.3257 63.1111C25.2039 63.1111 25.0841 63.0804 24.9773 63.0218C24.8757 62.9531 24.7881 62.8656 24.7194 62.764C24.6402 62.6506 24.5831 62.5233 24.5512 62.3887C24.5129 62.2357 24.4948 62.0784 24.4974 61.9208C24.5016 61.7645 24.5196 61.609 24.5512 61.4559C24.5827 61.3212 24.6398 61.1937 24.7194 61.0806C24.7816 60.9737 24.8705 60.8849 24.9773 60.8227C25.0832 60.7602 25.2048 60.7291 25.3277 60.7331C25.4497 60.729 25.5703 60.7601 25.6752 60.8227C25.7808 60.8909 25.8726 60.9784 25.9459 61.0806C26.0255 61.1937 26.0826 61.3212 26.1142 61.4559C26.154 61.6077 26.1754 61.7638 26.1779 61.9208C26.1771 62.0789 26.1553 62.2362 26.1132 62.3887Z" fill="#086662"/>
<path d="M27.8234 60.2662V59.5405C27.8203 59.4476 27.8376 59.3552 27.8742 59.2697C27.9137 59.1851 27.9711 59.1101 28.0424 59.0497C28.1195 58.9875 28.2068 58.939 28.3003 58.9064C28.4131 58.8685 28.5317 58.851 28.6507 58.8546C28.8438 58.8582 29.032 58.9165 29.1933 59.0228V59.5286C29.0887 59.4897 28.9942 59.4519 28.9225 59.424C28.8849 59.4066 28.8455 59.3936 28.805 59.3852C28.777 59.3828 28.7489 59.3861 28.7222 59.3948C28.6955 59.4035 28.6708 59.4175 28.6497 59.436C28.606 59.486 28.5832 59.5508 28.586 59.6172V60.2642H29.1435V60.7958H28.586V63.5833H27.8214V60.7958H27.2769V60.2642L27.8234 60.2662Z" fill="#086662"/>
<path d="M31.7439 61.2229C31.7377 61.5163 31.7773 61.8088 31.8613 62.09C31.9247 62.311 32.0306 62.5176 32.1729 62.6982C32.2941 62.8471 32.4436 62.9703 32.6129 63.0606C32.7711 63.1358 32.9436 63.1758 33.1187 63.1781C33.2836 63.1781 33.4466 63.1424 33.5965 63.0736C33.8824 62.9276 34.1071 62.6848 34.2307 62.3886C34.2958 62.2425 34.3477 62.091 34.386 61.9357H35.1506C35.102 62.1729 35.0237 62.403 34.9176 62.6206C34.8168 62.8314 34.6762 63.0207 34.5035 63.1781C34.3276 63.3369 34.1255 63.4639 33.9061 63.5534C33.6584 63.6489 33.3951 63.6975 33.1296 63.6968C32.828 63.7041 32.5282 63.6467 32.2506 63.5285C31.9918 63.4188 31.7619 63.2508 31.5786 63.0377C31.3832 62.8118 31.2377 62.5472 31.1515 62.2612C31.0429 61.9226 30.9901 61.5685 30.9952 61.2129C30.9973 61.0122 31.0186 60.8122 31.0589 60.6156C31.1 60.4217 31.167 60.2342 31.258 60.0581C31.3362 59.8835 31.4414 59.7222 31.5696 59.5803C31.6934 59.4317 31.8371 59.3011 31.9967 59.192C32.1591 59.0813 32.3388 58.9982 32.5283 58.9461C32.7335 58.8824 32.9477 58.8521 33.1625 58.8565C33.426 58.853 33.6883 58.8927 33.939 58.974C34.3622 59.1154 34.7235 59.3989 34.9614 59.7764C35.0756 59.966 35.1624 60.1708 35.2192 60.3846H34.4427C34.3529 60.093 34.1828 59.8326 33.9519 59.633C33.7264 59.4597 33.4465 59.3725 33.1625 59.3871C32.9674 59.3864 32.7755 59.4357 32.605 59.5305C32.4347 59.6345 32.2854 59.7696 32.165 59.9287C32.0394 60.1061 31.9435 60.3028 31.8813 60.5111C31.7839 60.7336 31.7379 60.9752 31.7468 61.2179L31.7439 61.2229Z" fill="#086662"/>
<path d="M38.7354 61.2637C38.6737 61.0612 38.5672 60.8751 38.4238 60.7192C38.2819 60.5655 38.1106 60.442 37.9201 60.3558C37.7037 60.2638 37.4702 60.2193 37.2351 60.2254C36.9994 60.2179 36.7649 60.2625 36.5482 60.3558C36.3546 60.4335 36.1834 60.5584 36.0505 60.7192C35.9078 60.8756 35.8014 61.0615 35.7389 61.2637C35.671 61.4772 35.6357 61.6998 35.6343 61.9238C35.6326 62.1487 35.6679 62.3724 35.7389 62.5858C35.8117 62.7834 35.917 62.9675 36.0505 63.1304C36.1872 63.2871 36.3573 63.4113 36.5482 63.4937C36.7652 63.5859 36.9995 63.6303 37.2351 63.6241C37.4703 63.6314 37.7041 63.5869 37.9201 63.4937C38.111 63.4083 38.2825 63.2846 38.4238 63.1304C38.5664 62.9739 38.6728 62.788 38.7354 62.5858C38.8748 62.1565 38.8748 61.6941 38.7354 61.2648V61.2637ZM38.0246 62.3887C37.9927 62.5233 37.9356 62.6507 37.8563 62.764C37.7855 62.8683 37.6931 62.9562 37.5856 63.0219C37.4788 63.0804 37.3589 63.1111 37.2371 63.1111C37.1153 63.1111 36.9955 63.0804 36.8887 63.0219C36.7866 62.9528 36.6981 62.8654 36.6279 62.764C36.5495 62.6501 36.4925 62.523 36.4596 62.3887C36.422 62.2357 36.4046 62.0784 36.4079 61.9208C36.4061 61.7643 36.4235 61.6082 36.4596 61.4559C36.4921 61.3215 36.5491 61.1943 36.6279 61.0806C36.691 60.9735 36.7809 60.8847 36.8887 60.8227C36.9946 60.7602 37.1162 60.7291 37.2391 60.7331C37.3611 60.7291 37.4817 60.7602 37.5866 60.8227C37.6922 60.891 37.784 60.9784 37.8574 61.0806C37.9369 61.1938 37.9941 61.3212 38.0256 61.4559C38.0654 61.6078 38.0868 61.7638 38.0893 61.9208C38.0885 62.0789 38.0667 62.2363 38.0246 62.3887Z" fill="#086662"/>
<path d="M39.3567 60.2662H40.1083V60.5121C40.352 60.3123 40.6593 60.2063 40.9744 60.2135C41.1351 60.2149 41.2935 60.2505 41.4393 60.318C41.4324 60.3937 41.4531 60.4694 41.4976 60.5311C41.542 60.5928 41.6072 60.6363 41.6812 60.6538C41.7552 60.6712 41.833 60.6614 41.9003 60.626C41.9677 60.5907 42.0199 60.5322 42.0476 60.4614C42.1291 60.4061 42.2154 60.3581 42.3054 60.318C42.3919 60.2807 42.483 60.2549 42.5762 60.2414C42.6657 60.2264 42.7562 60.2178 42.847 60.2155C43.0052 60.2137 43.1626 60.2396 43.3119 60.2921C43.4457 60.3422 43.5689 60.4168 43.6753 60.5121C43.7789 60.5991 43.859 60.7107 43.9082 60.8367C43.9632 60.9625 43.9936 61.0976 43.9978 61.2349V63.5784H43.2492V61.3703C43.2543 61.264 43.237 61.1578 43.1984 61.0587C43.1764 60.9836 43.136 60.9152 43.081 60.8596C43.0349 60.8169 42.9825 60.7816 42.9256 60.755C42.8707 60.7402 42.8143 60.7315 42.7574 60.7292C42.6717 60.7321 42.5878 60.7538 42.5115 60.7929C42.43 60.8375 42.3559 60.8942 42.2915 60.9611C42.2253 61.04 42.1688 61.1266 42.1232 61.219C42.0824 61.3224 42.0609 61.4323 42.0595 61.5435V63.5624H41.3079V61.3494C41.31 61.2442 41.2969 61.1392 41.2691 61.0378C41.2471 60.9627 41.2067 60.8942 41.1516 60.8387C41.1127 60.793 41.0636 60.7572 41.0083 60.7341C40.9574 60.7193 40.9049 60.7106 40.852 60.7083C40.7474 60.7072 40.6444 60.7337 40.5533 60.7849C40.4642 60.8398 40.3853 60.9099 40.3203 60.992C40.2561 61.0747 40.2035 61.1658 40.164 61.2628C40.13 61.3535 40.1128 61.4496 40.1133 61.5465V63.5376H39.3666V60.2523H39.3607L39.3567 60.2662Z" fill="#086662"/>
<path d="M44.5731 60.2662H45.3247V60.5121C45.5685 60.3123 45.8757 60.2063 46.1908 60.2135C46.3515 60.2149 46.51 60.2505 46.6557 60.318C46.6489 60.3937 46.6695 60.4694 46.714 60.5311C46.7584 60.5928 46.8236 60.6363 46.8976 60.6538C46.9716 60.6712 47.0495 60.6614 47.1168 60.626C47.1841 60.5907 47.2364 60.5322 47.264 60.4614C47.3456 60.4061 47.4318 60.3581 47.5218 60.318C47.6084 60.2807 47.6994 60.2549 47.7926 60.2414C47.8822 60.2264 47.9727 60.2178 48.0634 60.2155C48.2217 60.2137 48.379 60.2396 48.5283 60.2921C48.6619 60.3427 48.785 60.4172 48.8917 60.5121C48.9954 60.599 49.0755 60.7107 49.1247 60.8367C49.1796 60.9625 49.21 61.0976 49.2143 61.2349V63.5784H48.4626V61.3703C48.4678 61.264 48.4505 61.1578 48.4119 61.0587C48.3899 60.9836 48.3495 60.9152 48.2944 60.8596C48.248 60.8168 48.1953 60.7815 48.1381 60.755C48.0831 60.7402 48.0267 60.7315 47.9698 60.7292C47.8842 60.7321 47.8002 60.7538 47.7239 60.7929C47.6425 60.8374 47.5683 60.8942 47.5039 60.9611C47.4377 61.04 47.3813 61.1266 47.3357 61.219C47.2949 61.3224 47.2733 61.4323 47.272 61.5435V63.5624H46.5204V61.3494C46.5225 61.2442 46.5094 61.1392 46.4815 61.0378C46.4595 60.9627 46.4192 60.8942 46.3641 60.8387C46.3251 60.793 46.276 60.7573 46.2207 60.7341C46.1698 60.7193 46.1174 60.7106 46.0644 60.7083C45.9599 60.7072 45.8569 60.7337 45.7658 60.7849C45.6766 60.8398 45.5978 60.9099 45.5328 60.992C45.4686 61.0747 45.4159 61.1658 45.3765 61.2628C45.3421 61.3534 45.3246 61.4496 45.3247 61.5465V63.5376H44.5731V60.2523H44.5671L44.5731 60.2662Z" fill="#086662"/>
<path d="M52.9238 61.8292C52.9308 61.6088 52.8953 61.3891 52.8192 61.1821C52.7467 60.9967 52.6411 60.826 52.5076 60.6784C52.369 60.5334 52.2019 60.4185 52.0168 60.3409C51.8107 60.2604 51.591 60.2205 51.3697 60.2234C51.1381 60.2226 50.9089 60.2714 50.6978 60.3668C50.5065 60.4526 50.3345 60.5762 50.1921 60.7302C50.0498 60.8841 49.9401 61.0653 49.8695 61.2627C49.7901 61.4646 49.7502 61.6799 49.752 61.8969C49.7485 62.3459 49.9045 62.7815 50.1921 63.1264C50.3307 63.2907 50.5032 63.4231 50.6978 63.5146C50.909 63.6099 51.1381 63.6588 51.3697 63.658C51.5405 63.6577 51.7104 63.6319 51.8735 63.5813C52.0356 63.5265 52.1883 63.4473 52.3264 63.3464C52.469 63.253 52.5888 63.1289 52.6769 62.983C52.7797 62.8358 52.8503 62.6686 52.8839 62.4922H52.1871C52.1484 62.6725 52.0488 62.834 51.905 62.9495C51.7612 63.065 51.5821 63.1275 51.3976 63.1264C51.2839 63.1224 51.1727 63.0917 51.0731 63.0368C50.9702 62.9793 50.882 62.8989 50.8152 62.8018C50.7309 62.7039 50.669 62.5887 50.6341 62.4644C50.5957 62.3379 50.5707 62.2077 50.5594 62.0761H52.9267L52.9238 61.8292ZM52.1721 61.5962C52.1721 61.5962 52.1721 61.5873 52.1721 61.5833H50.5793C50.5908 61.4727 50.6173 61.3642 50.6579 61.2607C50.6982 61.1616 50.7551 61.07 50.8262 60.99C50.8988 60.9178 50.9817 60.8568 51.0721 60.8088C51.1665 60.7681 51.268 60.7464 51.3707 60.7451C51.4813 60.7464 51.5906 60.768 51.6933 60.8088C51.7879 60.8498 51.8719 60.9118 51.9392 60.99C52.0144 61.0668 52.0718 61.1593 52.1074 61.2607C52.1422 61.3652 52.1636 61.4735 52.1711 61.5833V61.5962H52.1721Z" fill="#086662"/>
<path d="M53.4146 60.2662H54.0865L54.1253 60.5648C54.2075 60.4504 54.3199 60.3612 54.4499 60.307C54.5701 60.2458 54.7033 60.2151 54.8381 60.2174C54.8909 60.2219 54.9431 60.2305 54.9945 60.2433C55.0623 60.2539 55.1289 60.2709 55.1935 60.2941V60.9153C55.0727 60.8637 54.947 60.8243 54.8182 60.7978C54.7242 60.7974 54.6314 60.8193 54.5475 60.8615C54.4645 60.9038 54.3933 60.9661 54.3404 61.0427C54.2819 61.1202 54.2378 61.2075 54.21 61.3006C54.1837 61.4023 54.1707 61.507 54.1712 61.6121V63.5933H53.4195V60.2672L53.4146 60.2662Z" fill="#086662"/>
<path d="M57.7638 61.3653C57.7307 61.1827 57.6404 61.0153 57.506 60.8874C57.3898 60.7911 57.2427 60.7401 57.0918 60.7441C56.973 60.7401 56.8556 60.7713 56.7543 60.8337C56.6539 60.8943 56.5695 60.9783 56.5085 61.0786C56.4383 61.1911 56.3856 61.3136 56.3521 61.4419C56.3163 61.5814 56.2993 61.725 56.3014 61.869C56.2992 62.0255 56.3162 62.1816 56.3521 62.3339C56.3856 62.4732 56.4383 62.6072 56.5085 62.7321C56.5723 62.841 56.6557 62.9372 56.7543 63.0159C56.8465 63.0885 56.9617 63.1255 57.0789 63.1204C57.1648 63.119 57.2491 63.0972 57.3248 63.0567C57.4056 63.0203 57.4745 62.962 57.5239 62.8884C57.5819 62.8129 57.63 62.7303 57.6672 62.6425C57.7048 62.5455 57.7348 62.4456 57.7568 62.3439H58.5463C58.5265 62.533 58.4739 62.7173 58.391 62.8884C58.3143 63.045 58.2086 63.1855 58.0794 63.3026C57.9478 63.4188 57.7936 63.5066 57.6264 63.5604C57.4435 63.6242 57.2506 63.6546 57.057 63.65C56.8193 63.6554 56.5839 63.6017 56.372 63.4937C56.186 63.3951 56.0265 63.2531 55.9072 63.0796C55.7782 62.9104 55.6859 62.7161 55.6364 62.5091C55.5815 62.3021 55.5514 62.0892 55.5468 61.875C55.5439 61.6537 55.5838 61.434 55.6642 61.2279C55.7362 61.0338 55.8417 60.8539 55.9758 60.6963C56.1115 60.5445 56.2791 60.4248 56.4666 60.3459C56.6658 60.2561 56.8824 60.2115 57.1008 60.2154C57.2906 60.2096 57.4798 60.24 57.6583 60.305C57.8168 60.3551 57.9625 60.439 58.0854 60.5509C58.2058 60.6533 58.3069 60.7763 58.384 60.9143C58.4589 61.0576 58.5154 61.2098 58.5523 61.3673H57.7757V61.3583L57.7638 61.3653Z" fill="#086662"/>
<path d="M62.1781 61.8292C62.1852 61.6088 62.1497 61.3891 62.0736 61.1821C62.0011 60.9967 61.8955 60.8261 61.762 60.6784C61.6233 60.5334 61.4563 60.4185 61.2712 60.3409C61.0651 60.2604 60.8454 60.2205 60.6241 60.2234C60.3925 60.2226 60.1633 60.2714 59.9521 60.3668C59.7616 60.4529 59.5903 60.5765 59.4484 60.7301C59.3065 60.8837 59.1962 61.0636 59.1239 61.2597C59.0444 61.4616 59.0046 61.677 59.0064 61.8939C59.0048 62.1232 59.0446 62.3508 59.1239 62.5659C59.1989 62.7691 59.3088 62.9578 59.4484 63.1234C59.5858 63.2882 59.7578 63.4208 59.9521 63.5116C60.1634 63.6067 60.3925 63.6555 60.6241 63.655C60.7949 63.6548 60.9647 63.6289 61.1279 63.5783C61.2899 63.5235 61.4427 63.4443 61.5808 63.3434C61.7223 63.2494 61.8413 63.1253 61.9292 62.98C62.0321 62.8328 62.1026 62.6656 62.1363 62.4892H61.4395C61.401 62.6696 61.3014 62.8312 61.1576 62.9468C61.0137 63.0623 60.8345 63.1247 60.65 63.1234C60.5369 63.1197 60.4263 63.089 60.3275 63.0338C60.2232 62.9772 60.1338 62.8967 60.0666 62.7988C59.9822 62.7013 59.9209 62.5859 59.8874 62.4613C59.8484 62.335 59.8227 62.2048 59.8108 62.0731H62.1781V61.8292ZM61.4265 61.5962C61.4265 61.5962 61.4265 61.5873 61.4265 61.5833H59.8337C59.8452 61.4727 59.8716 61.3642 59.9123 61.2607C59.9526 61.1616 60.0095 61.07 60.0806 60.99C60.1537 60.9184 60.2364 60.8574 60.3265 60.8088C60.4208 60.7678 60.5223 60.7462 60.6251 60.7451C60.7356 60.7464 60.8449 60.768 60.9477 60.8088C61.0426 60.8493 61.1267 60.9113 61.1936 60.99C61.2688 61.0668 61.3262 61.1593 61.3618 61.2607C61.3975 61.3649 61.419 61.4734 61.4255 61.5833L61.4265 61.5962Z" fill="#086662"/>
</g>
</g>
</g>
<defs>
<clipPath id="clip0_2_348">
<rect width="61.41" height="64.98" fill="white" transform="translate(0.783447)"/>
</clipPath>
<clipPath id="clip1_2_348">
<rect width="61.41" height="64.98" fill="white" transform="translate(0.783447)"/>
</clipPath>
<clipPath id="clip2_2_348">
<rect width="61.3891" height="64.98" fill="white" transform="translate(0.793945)"/>
</clipPath>
</defs>
</svg>
