<svg width="110" height="65" viewBox="0 0 110 65" fill="none" xmlns="http://www.w3.org/2000/svg">
<g clip-path="url(#clip0_2_393)">
<g clip-path="url(#clip1_2_393)">
<path fill-rule="evenodd" clip-rule="evenodd" d="M55.6913 39.4384C55.7319 39.439 55.7644 39.4715 55.7649 39.5121V42.9966C55.7644 43.0372 55.7319 43.0697 55.6913 43.0703H50.847C50.8275 43.0708 50.8086 43.0627 50.7945 43.0492C50.7804 43.0356 50.7728 43.0161 50.7734 42.9966V41.4176C50.7636 39.9556 51.7237 39.4368 53.2339 39.4368L55.6913 39.4384ZM52.9107 40.1261H54.8368C54.8601 40.1261 54.8817 40.1353 54.898 40.1516C54.9142 40.1678 54.9234 40.19 54.9234 40.2128V42.2959C54.9234 42.3192 54.9142 42.3409 54.898 42.3571C54.8817 42.3734 54.8595 42.3826 54.8368 42.3826H51.7015C51.6782 42.3826 51.6566 42.3734 51.6403 42.3571C51.6241 42.3409 51.6149 42.3187 51.6149 42.2959V41.2032C51.6149 40.7104 51.9538 40.1251 52.9107 40.1251V40.1261ZM54.1642 37.4463C54.3386 37.4457 54.4962 37.5502 54.5633 37.7111C54.6305 37.8719 54.5937 38.0576 54.4702 38.1811C54.3467 38.3045 54.1615 38.3414 54.0002 38.2742C53.8388 38.2071 53.7343 38.0495 53.7354 37.8751C53.7352 37.8188 53.7462 37.7629 53.7677 37.7108C53.7892 37.6587 53.8208 37.6114 53.8607 37.5716C53.9005 37.5317 53.9479 37.5001 54 37.4786C54.052 37.4571 54.1079 37.4461 54.1642 37.4463ZM52.7368 37.4463C52.9112 37.4457 53.0688 37.5502 53.1359 37.7111C53.2031 37.8719 53.1663 38.0576 53.0428 38.1811C52.9193 38.3045 52.7341 38.3414 52.5728 38.2742C52.4114 38.2071 52.3069 38.0495 52.308 37.8751C52.3078 37.8187 52.3189 37.7628 52.3404 37.7106C52.362 37.6584 52.3937 37.611 52.4337 37.5712C52.4736 37.5313 52.5211 37.4997 52.5733 37.4783C52.6255 37.4569 52.6815 37.446 52.7379 37.4463H52.7368ZM68.3775 43.145V44.1018C68.3678 44.3352 68.0418 44.5242 67.8528 44.6904C67.6866 44.8377 67.6866 44.9498 68.0478 44.9179C68.5086 44.8794 69.2223 44.313 69.219 43.7948V39.5105C69.2196 39.491 69.2114 39.472 69.1979 39.4579C69.1844 39.4438 69.1649 39.4363 69.1454 39.4368H66.6881C65.1811 39.4368 64.2177 39.955 64.2275 41.4176V42.995C64.228 43.015 64.2361 43.034 64.2508 43.0475C64.2654 43.0611 64.2843 43.0687 64.3044 43.0687H68.3044C68.3245 43.0687 68.344 43.0768 68.358 43.0914C68.3721 43.106 68.3797 43.1255 68.3792 43.1455L68.3775 43.145ZM66.3648 40.1245H68.2909C68.3142 40.1245 68.3358 40.1337 68.3521 40.15C68.3683 40.1662 68.3775 40.1884 68.3775 40.2112V42.2943C68.3775 42.3176 68.3683 42.3393 68.3521 42.3555C68.3358 42.3717 68.3136 42.3809 68.2909 42.3809H65.1599C65.1367 42.3809 65.115 42.3717 65.0988 42.3555C65.0825 42.3393 65.0733 42.3171 65.0733 42.2943V41.2032C65.0733 40.7104 65.4128 40.1251 66.3664 40.1251L66.3648 40.1245ZM62.2483 39.4384H62.9365C62.9566 39.4379 62.9761 39.4455 62.9901 39.4596C63.0042 39.4736 63.0129 39.4926 63.0134 39.5121V42.9008C63.0134 44.587 62.0057 44.9742 61.4777 45.0478C61.1193 45.0993 61.0445 44.7533 61.3532 44.6444C61.5898 44.561 62.1725 44.5199 62.1725 43.262V39.5105C62.1725 39.491 62.1806 39.472 62.1952 39.4585C62.2099 39.4449 62.2288 39.4379 62.2483 39.4384ZM62.6133 37.4479C62.851 37.4479 63.0438 37.6407 63.0438 37.8784C63.0438 38.1161 62.851 38.3089 62.6133 38.3089C62.3755 38.3089 62.1828 38.1161 62.1828 37.8784C62.1828 37.6407 62.3755 37.4479 62.6133 37.4479ZM59.8744 37.4446H60.5648C60.607 37.4452 60.6411 37.4793 60.6417 37.5215V43.0015C60.6411 43.0437 60.607 43.0779 60.5648 43.0784H59.8738C59.8538 43.0779 59.8348 43.0697 59.8213 43.0551C59.8078 43.0405 59.8002 43.0215 59.8002 43.0015V37.5199C59.7996 37.4787 59.8327 37.4446 59.8738 37.4436L59.8744 37.4446ZM57.6049 39.4384H58.2959C58.3154 39.4379 58.3343 39.446 58.3484 39.4596C58.3625 39.4731 58.3701 39.4926 58.3695 39.5121V42.9008C58.3695 44.587 57.365 44.9742 56.8365 45.0478C56.4748 45.0993 56.4033 44.7533 56.712 44.6444C56.9486 44.561 57.528 44.5199 57.528 43.262V39.5105C57.5297 39.4693 57.5638 39.4374 57.6049 39.4384ZM12.9767 44.1024C12.9669 44.3358 12.6409 44.5247 12.452 44.691C12.2857 44.8383 12.2857 44.9504 12.6469 44.9184C13.111 44.88 13.8225 44.3119 13.8225 43.7948V43.0665H45.3178C45.3378 43.067 45.3573 43.0594 45.3714 43.0454C45.3854 43.0313 45.3941 43.0123 45.3946 42.9928V37.5199C45.3941 37.4777 45.36 37.4436 45.3178 37.443H44.6263C44.584 37.4436 44.5499 37.4777 44.5494 37.5199V42.1535C44.5499 42.173 44.5418 42.192 44.5282 42.206C44.5147 42.2201 44.4952 42.2277 44.4757 42.2272H42.3384C42.3184 42.2277 42.2989 42.2201 42.2848 42.206C42.2707 42.192 42.2621 42.173 42.2615 42.1535V39.4926C42.2621 39.4731 42.2539 39.4541 42.2404 39.4401C42.2269 39.426 42.2074 39.4184 42.1879 39.4189H41.4931C41.4525 39.4195 41.42 39.452 41.4195 39.4926V42.1551C41.42 42.1746 41.4119 42.1936 41.3984 42.2077C41.3848 42.2217 41.3653 42.2293 41.3459 42.2288H32.6125C32.5649 42.2277 32.527 42.1898 32.5259 42.1421V41.2032C32.5259 40.7104 32.8681 40.1251 33.8217 40.1251H37.361C37.4032 40.1245 37.4373 40.0904 37.4378 40.0482V39.5105C37.4373 39.4904 37.4292 39.4715 37.4146 39.4579C37.3999 39.4444 37.381 39.4368 37.361 39.4368H34.1439C32.6337 39.4368 31.6736 39.955 31.6833 41.4176V42.1535C31.6839 42.173 31.6757 42.192 31.6622 42.206C31.6487 42.2201 31.6292 42.2277 31.6097 42.2272H24.5187C24.4992 42.2277 24.4803 42.2196 24.4662 42.206C24.4521 42.1925 24.4446 42.173 24.4451 42.1535V37.4966C24.4429 37.4555 24.4094 37.423 24.3682 37.423H23.6778C23.6372 37.4235 23.6047 37.456 23.6041 37.4966V42.1535C23.6036 42.1736 23.5955 42.1925 23.5809 42.206C23.5662 42.2196 23.5473 42.2272 23.5273 42.2272H21.1392C21.1197 42.2277 21.1008 42.2196 21.0867 42.206C21.0726 42.1925 21.0651 42.173 21.0656 42.1535V39.5359C21.0651 39.5159 21.0569 39.4969 21.0423 39.4834C21.0277 39.4698 21.0087 39.4623 20.9887 39.4623H20.2977C20.2783 39.4617 20.2593 39.4698 20.2452 39.4834C20.2311 39.4969 20.2236 39.5164 20.2241 39.5359V42.1535C20.2236 42.1736 20.2154 42.1925 20.2008 42.206C20.1862 42.2196 20.1672 42.2272 20.1472 42.2272H18.6148C18.5953 42.2277 18.5763 42.2196 18.5622 42.206C18.5482 42.1925 18.5406 42.173 18.5411 42.1535V41.4176C18.5509 39.9556 17.5875 39.4368 16.0805 39.4368H13.0536C13.0335 39.4363 13.014 39.4438 13 39.4579C12.9859 39.472 12.9772 39.491 12.9767 39.5105V44.1024ZM16.4038 40.1251H13.9075C13.8842 40.1251 13.8626 40.1343 13.8463 40.1505C13.8301 40.1668 13.8209 40.189 13.8209 40.2117V42.1405C13.8209 42.1638 13.8301 42.1855 13.8463 42.2017C13.8626 42.218 13.8848 42.2272 13.9075 42.2272H17.6097C17.6579 42.2277 17.698 42.1887 17.6991 42.1405V41.2032C17.6996 40.7104 17.3574 40.1251 16.4038 40.1251ZM21.3575 44.1278C21.4712 44.1278 21.5803 44.173 21.6607 44.2534C21.7411 44.3339 21.7863 44.4429 21.7863 44.5567C21.7863 44.6704 21.7411 44.7795 21.6607 44.86C21.5803 44.9404 21.4712 44.9856 21.3575 44.9856C21.3011 44.9857 21.2453 44.9747 21.1932 44.9532C21.1411 44.9317 21.0937 44.9001 21.0539 44.8603C21.014 44.8204 20.9825 44.7731 20.961 44.721C20.9394 44.6689 20.9285 44.6131 20.9286 44.5567C20.9297 44.4434 20.9752 44.335 21.0553 44.2549C21.1353 44.1747 21.2442 44.1291 21.3575 44.1278ZM19.9301 44.1278C20.0438 44.1278 20.1529 44.173 20.2333 44.2534C20.3138 44.3339 20.3589 44.4429 20.3589 44.5567C20.3589 44.6704 20.3138 44.7795 20.2333 44.86C20.1529 44.9404 20.0438 44.9856 19.9301 44.9856C19.845 44.9861 19.7617 44.9612 19.6909 44.9142C19.62 44.8672 19.5648 44.8001 19.5322 44.7215C19.4997 44.6429 19.4913 44.5564 19.5082 44.473C19.525 44.3897 19.5663 44.3132 19.6268 44.2535C19.6666 44.2136 19.7139 44.182 19.7659 44.1604C19.818 44.1388 19.8737 44.1278 19.9301 44.1278ZM42.5561 37.4463C42.7305 37.4457 42.888 37.5502 42.9552 37.7111C43.0223 37.8719 42.9855 38.0576 42.8621 38.1811C42.7386 38.3045 42.5534 38.3414 42.392 38.2742C42.2307 38.2071 42.1262 38.0495 42.1272 37.8751C42.1271 37.8188 42.1381 37.7629 42.1596 37.7108C42.1811 37.6587 42.2127 37.6114 42.2525 37.5716C42.2924 37.5317 42.3397 37.5001 42.3918 37.4786C42.4439 37.4571 42.4997 37.4461 42.5561 37.4463ZM41.1287 37.4463C41.3664 37.4479 41.5576 37.6417 41.5565 37.8789C41.5554 38.1161 41.3616 38.3083 41.1238 38.3072C40.8861 38.3062 40.6944 38.1128 40.6955 37.8751C40.6954 37.8184 40.7065 37.7622 40.7283 37.7098C40.75 37.6574 40.782 37.6099 40.8223 37.57C40.8626 37.5301 40.9105 37.4986 40.9631 37.4774C41.0157 37.4561 41.072 37.4455 41.1287 37.4463ZM46.8724 37.443H47.5666C47.5866 37.4436 47.6056 37.4517 47.6191 37.4663C47.6327 37.4809 47.6402 37.4999 47.6402 37.5199V43.0015C47.6408 43.0215 47.6332 43.041 47.6191 43.0551C47.605 43.0692 47.5861 43.0779 47.5666 43.0784H46.8729C46.8529 43.0779 46.834 43.0697 46.8204 43.0551C46.8069 43.0405 46.7993 43.0215 46.7993 43.0015V37.5199C46.7988 37.4999 46.8063 37.4804 46.8204 37.4663C46.8345 37.4522 46.8529 37.4436 46.8724 37.443Z" fill="#0C9C8C"/>
<path fill-rule="evenodd" clip-rule="evenodd" d="M14.3634 51.8426C14.4148 51.9097 14.45 51.9097 14.4852 51.8393L16.114 48.7528C16.1303 48.7127 16.1698 48.6873 16.2131 48.6889H16.5077C16.537 48.6878 16.5651 48.6986 16.5857 48.7192C16.6063 48.7398 16.6171 48.768 16.616 48.7972V52.3397C16.616 52.3684 16.6046 52.396 16.5843 52.4163C16.564 52.4366 16.5364 52.448 16.5077 52.448H16.2148C16.186 52.448 16.1585 52.4366 16.1382 52.4163C16.1179 52.396 16.1065 52.3684 16.1065 52.3397V49.5737L14.6791 52.2271C14.6249 52.3603 14.495 52.4475 14.3509 52.4475C14.2069 52.4475 14.0775 52.3603 14.0233 52.2271L12.8515 49.9224V52.3381C12.8515 52.3523 12.8487 52.3664 12.8433 52.3795C12.8378 52.3927 12.8298 52.4046 12.8198 52.4146C12.8097 52.4247 12.7978 52.4327 12.7846 52.4381C12.7715 52.4436 12.7574 52.4464 12.7432 52.4464H12.4519C12.4377 52.4464 12.4236 52.4436 12.4104 52.4381C12.3973 52.4327 12.3854 52.4247 12.3753 52.4146C12.3652 52.4046 12.3573 52.3927 12.3518 52.3795C12.3464 52.3664 12.3436 52.3523 12.3436 52.3381V48.7961C12.3425 48.7669 12.3539 48.7393 12.3744 48.7187C12.395 48.6981 12.4232 48.6873 12.4519 48.6878H12.7465C12.7871 48.6867 12.8239 48.7089 12.8423 48.7452V48.7485L14.3634 51.8426ZM17.9107 49.6479H18.2053C18.2336 49.6479 18.2607 49.6589 18.281 49.6787C18.3012 49.6984 18.3129 49.7252 18.3136 49.7535V52.3392C18.3136 52.3679 18.3022 52.3954 18.2819 52.4157C18.2616 52.436 18.234 52.4475 18.2053 52.4475H17.9107C17.882 52.4475 17.8545 52.436 17.8342 52.4157C17.8138 52.3954 17.8024 52.3679 17.8024 52.3392V49.7529C17.8033 49.7248 17.8151 49.6981 17.8353 49.6785C17.8555 49.6588 17.8826 49.6479 17.9107 49.6479ZM18.058 48.6911C18.1298 48.6911 18.1987 48.7196 18.2495 48.7704C18.3003 48.8211 18.3288 48.89 18.3288 48.9618C18.3288 49.0336 18.3003 49.1025 18.2495 49.1533C18.1987 49.204 18.1298 49.2326 18.058 49.2326C17.9862 49.2326 17.9174 49.204 17.8666 49.1533C17.8158 49.1025 17.7873 49.0336 17.7873 48.9618C17.7873 48.89 17.8158 48.8211 17.8666 48.7704C17.9174 48.7196 17.9862 48.6911 18.058 48.6911ZM23.3057 49.6479H23.6035C23.6318 49.6479 23.6589 49.6589 23.6792 49.6787C23.6994 49.6984 23.7111 49.7252 23.7118 49.7535V52.3392C23.7118 52.3679 23.7004 52.3954 23.6801 52.4157C23.6598 52.436 23.6323 52.4475 23.6035 52.4475H23.3057C23.277 52.4475 23.2494 52.436 23.2291 52.4157C23.2088 52.3954 23.1974 52.3679 23.1974 52.3392V49.7529C23.1982 49.7248 23.21 49.6981 23.2303 49.6785C23.2505 49.6588 23.2775 49.6479 23.3057 49.6479ZM23.453 48.6911C23.5248 48.6911 23.5937 48.7196 23.6444 48.7704C23.6952 48.8211 23.7237 48.89 23.7237 48.9618C23.7237 49.0336 23.6952 49.1025 23.6444 49.1533C23.5937 49.204 23.5248 49.2326 23.453 49.2326C23.3994 49.2327 23.3469 49.2168 23.3023 49.1871C23.2577 49.1573 23.2229 49.115 23.2024 49.0655C23.1819 49.016 23.1765 48.9614 23.187 48.9089C23.1975 48.8563 23.2233 48.808 23.2613 48.7701C23.2864 48.7449 23.3163 48.7249 23.3492 48.7112C23.3821 48.6976 23.4174 48.6911 23.453 48.6911ZM61.8226 49.6479H62.1204C62.1487 49.6479 62.1758 49.6589 62.1961 49.6787C62.2163 49.6984 62.228 49.7252 62.2287 49.7535V52.3392C62.2287 52.3679 62.2173 52.3954 62.197 52.4157C62.1767 52.436 62.1492 52.4475 62.1204 52.4475H61.8226C61.7939 52.4475 61.7663 52.436 61.746 52.4157C61.7257 52.3954 61.7143 52.3679 61.7143 52.3392V49.7529C61.7151 49.7248 61.7269 49.6981 61.7471 49.6785C61.7674 49.6588 61.7944 49.6479 61.8226 49.6479ZM61.9699 48.6911C62.0417 48.6911 62.1106 48.7196 62.1613 48.7704C62.2121 48.8211 62.2406 48.89 62.2406 48.9618C62.2406 49.0336 62.2121 49.1025 62.1613 49.1533C62.1106 49.204 62.0417 49.2326 61.9699 49.2326C61.8981 49.2326 61.8292 49.204 61.7784 49.1533C61.7277 49.1025 61.6991 49.0336 61.6991 48.9618C61.6991 48.89 61.7277 48.8211 61.7784 48.7704C61.8292 48.7196 61.8981 48.6911 61.9699 48.6911ZM21.574 50.771C21.5707 50.112 21.0173 49.8943 19.8845 49.9046V52.3364C19.8845 52.3652 19.8731 52.3927 19.8528 52.413C19.8325 52.4333 19.8049 52.4447 19.7762 52.4447H19.4816C19.4529 52.4447 19.4254 52.4333 19.4051 52.413C19.3847 52.3927 19.3733 52.3652 19.3733 52.3364V49.7529C19.374 49.7247 19.3858 49.6978 19.406 49.6781C19.4262 49.6584 19.4534 49.6473 19.4816 49.6474H20.8126C21.1603 49.6311 21.4987 49.7649 21.7419 50.0145C21.985 50.2641 22.109 50.6058 22.083 50.9529V52.3386C22.083 52.3673 22.0716 52.3949 22.0513 52.4152C22.031 52.4355 22.0034 52.4469 21.9747 52.4469H21.6769C21.6626 52.4469 21.6486 52.4441 21.6354 52.4387C21.6223 52.4332 21.6103 52.4252 21.6003 52.4152C21.5902 52.4051 21.5823 52.3932 21.5768 52.3801C21.5714 52.3669 21.5686 52.3528 21.5686 52.3386L21.574 50.771ZM68.711 50.771C68.7078 50.112 68.1544 49.8943 67.0215 49.9046V52.3364C67.0215 52.3652 67.0101 52.3927 66.9898 52.413C66.9695 52.4333 66.942 52.4447 66.9132 52.4447H66.6154C66.5872 52.444 66.5603 52.4323 66.5406 52.4121C66.5209 52.3918 66.5098 52.3647 66.5098 52.3364V49.7529C66.5105 49.7252 66.5219 49.6987 66.5415 49.679C66.5612 49.6594 66.5876 49.648 66.6154 49.6474H67.9497C68.1216 49.6392 68.2932 49.6676 68.4533 49.7309C68.6133 49.7941 68.758 49.8907 68.8779 50.0142C68.9977 50.1376 69.0899 50.2852 69.1484 50.4471C69.2068 50.6089 69.2301 50.7814 69.2168 50.9529V52.3386C69.2168 52.3673 69.2054 52.3949 69.1851 52.4152C69.1648 52.4355 69.1372 52.4469 69.1085 52.4469H68.8139C68.7852 52.4469 68.7576 52.4355 68.7373 52.4152C68.717 52.3949 68.7056 52.3673 68.7056 52.3386L68.711 50.771ZM49.947 51.3125C49.9502 51.9747 50.5036 52.1924 51.6364 52.1789V49.7464C51.6371 49.7187 51.6485 49.6922 51.6681 49.6725C51.6878 49.6529 51.7142 49.6415 51.742 49.6409H52.0399C52.0681 49.6408 52.0953 49.6519 52.1155 49.6716C52.1357 49.6913 52.1475 49.7182 52.1482 49.7464V52.3321C52.1475 52.3604 52.1357 52.3872 52.1155 52.4069C52.0953 52.4267 52.0681 52.4377 52.0399 52.4377C51.5985 52.4377 51.1437 52.4539 50.7056 52.4345C50.534 52.4426 50.3627 52.4142 50.2029 52.3512C50.0431 52.2881 49.8985 52.1918 49.7787 52.0687C49.6589 51.9456 49.5666 51.7984 49.508 51.637C49.4493 51.4755 49.4256 51.3034 49.4385 51.1321V49.7464C49.4392 49.7182 49.4509 49.6913 49.4712 49.6716C49.4914 49.6519 49.5185 49.6408 49.5468 49.6409H49.8414C49.8696 49.6408 49.8968 49.6519 49.917 49.6716C49.9372 49.6913 49.949 49.7182 49.9497 49.7464L49.947 51.3125ZM27.3215 51.1419V48.7961C27.3204 48.7669 27.3312 48.7387 27.3518 48.7181C27.3724 48.6976 27.4005 48.6867 27.4298 48.6878H27.7243C27.7531 48.6878 27.7806 48.6992 27.8009 48.7195C27.8212 48.7398 27.8326 48.7674 27.8326 48.7961V49.6024C27.8326 49.6163 27.838 49.6297 27.8475 49.6398C27.8571 49.6499 27.8702 49.6559 27.8841 49.6566H28.6265C28.6404 49.6565 28.6538 49.6619 28.6638 49.6715C28.6739 49.681 28.6799 49.6941 28.6806 49.708V49.8553C28.6807 49.8692 28.6753 49.8826 28.6657 49.8927C28.6562 49.9027 28.6431 49.9087 28.6292 49.9094H27.8814C27.8675 49.9101 27.8544 49.9161 27.8448 49.9262C27.8353 49.9363 27.8299 49.9497 27.8299 49.9636V51.3915C27.8332 51.8204 28.0731 52.0635 28.5658 52.1724C28.8637 52.2363 28.9449 52.4539 28.588 52.4431C28.2409 52.4604 27.903 52.3272 27.661 52.0787C27.4189 51.8301 27.2949 51.4885 27.3215 51.1419ZM59.5023 51.1419V48.7961C59.5012 48.7669 59.512 48.7387 59.5326 48.7181C59.5532 48.6976 59.5813 48.6867 59.6106 48.6878H59.9084C59.9371 48.6878 59.9647 48.6992 59.985 48.7195C60.0053 48.7398 60.0167 48.7674 60.0167 48.7961V49.6024C60.0167 49.6163 60.022 49.6297 60.0316 49.6398C60.0412 49.6499 60.0543 49.6559 60.0681 49.6566H60.8078C60.8214 49.656 60.8349 49.6614 60.8447 49.6712C60.8544 49.6809 60.8598 49.6939 60.8593 49.708V49.8553C60.8593 49.8692 60.854 49.8826 60.8444 49.8927C60.8348 49.9027 60.8217 49.9087 60.8078 49.9094H60.0622C60.0483 49.9101 60.0352 49.9161 60.0256 49.9262C60.0161 49.9363 60.0107 49.9497 60.0107 49.9636V51.3915C60.014 51.8204 60.2539 52.0635 60.7466 52.1724C61.0445 52.2363 61.1306 52.4539 60.7688 52.4431C60.4217 52.4604 60.0838 52.3272 59.8418 52.0787C59.5997 51.8301 59.4757 51.4885 59.5023 51.1419ZM39.3585 49.9934V52.3386C39.3585 52.3528 39.3613 52.3669 39.3667 52.3801C39.3722 52.3932 39.3801 52.4051 39.3902 52.4152C39.4002 52.4252 39.4122 52.4332 39.4253 52.4387C39.4385 52.4441 39.4525 52.4469 39.4668 52.4469H39.7597C39.7884 52.4469 39.816 52.4355 39.8363 52.4152C39.8566 52.3949 39.868 52.3673 39.868 52.3386V50.7228C39.868 50.7089 39.8733 50.6955 39.8829 50.6854C39.8925 50.6753 39.9056 50.6693 39.9195 50.6686H40.6619C40.6758 50.6686 40.6891 50.6633 40.6992 50.6537C40.7093 50.6442 40.7153 50.6311 40.716 50.6172V50.4666C40.7154 50.4532 40.7097 50.4405 40.7002 50.431C40.6907 50.4215 40.678 50.4159 40.6646 50.4152H39.9195C39.9056 50.4145 39.8925 50.4085 39.8829 50.3984C39.8733 50.3883 39.868 50.375 39.868 50.3611V49.7437C39.8713 49.3149 40.1112 49.0685 40.6039 48.9629C40.9017 48.899 40.983 48.6813 40.6261 48.6921C40.4545 48.6832 40.283 48.711 40.1229 48.7737C39.9629 48.8364 39.8181 48.9325 39.6982 49.0556C39.5784 49.1787 39.4861 49.326 39.4277 49.4877C39.3693 49.6493 39.3461 49.8215 39.3596 49.9928L39.3585 49.9934ZM29.4848 50.9475V52.3364C29.4848 52.3652 29.4962 52.3927 29.5165 52.413C29.5368 52.4333 29.5643 52.4447 29.5931 52.4447H29.8909C29.9196 52.4447 29.9472 52.4333 29.9675 52.413C29.9878 52.3927 29.9992 52.3652 29.9992 52.3364V50.7C30.0024 50.2712 30.2456 50.028 30.7351 49.9192C31.0329 49.8553 31.119 49.6376 30.7605 49.6484C30.4123 49.6289 30.0728 49.76 29.8281 50.0091C29.5833 50.2582 29.4588 50.5999 29.4848 50.9475ZM33.5931 52.4962C33.5931 52.4818 33.5874 52.4681 33.5773 52.4579C33.5671 52.4477 33.5533 52.442 33.539 52.442C33.3343 52.4453 33.2141 52.4453 32.9309 52.4323C32.7593 52.4404 32.5879 52.412 32.4281 52.349C32.2683 52.2859 32.1238 52.1897 32.004 52.0666C31.8842 51.9434 31.7919 51.7963 31.7332 51.6348C31.6746 51.4734 31.6509 51.3013 31.6638 51.13V49.7464C31.6645 49.7182 31.6762 49.6913 31.6964 49.6716C31.7167 49.6519 31.7438 49.6408 31.7721 49.6409H32.0699C32.0981 49.6408 32.1253 49.6519 32.1455 49.6716C32.1658 49.6913 32.1775 49.7182 32.1782 49.7464V51.3114C32.1354 51.7554 32.4527 52.1529 32.8951 52.2103C33.291 52.2027 33.6056 51.8767 33.5991 51.4809V49.7481C33.5998 49.7198 33.6115 49.693 33.6317 49.6732C33.652 49.6535 33.6791 49.6425 33.7074 49.6425H34.0052C34.0335 49.6425 34.0606 49.6535 34.0808 49.6732C34.1011 49.693 34.1128 49.7198 34.1135 49.7481V52.8487C34.14 53.1958 34.016 53.538 33.7729 53.7871C33.5298 54.0362 33.1908 54.1689 32.8431 54.151C32.4847 54.1608 32.5724 53.9431 32.8686 53.8759C33.0709 53.8606 33.2598 53.7687 33.3965 53.6188C33.5333 53.4689 33.6077 53.2725 33.6045 53.0696L33.5931 52.4962ZM42.7705 48.6905H45.2072C45.2267 48.69 45.2457 48.6981 45.2597 48.7116C45.2738 48.7252 45.2814 48.7447 45.2809 48.7642V48.9754C45.2814 48.9948 45.2733 49.0138 45.2597 49.0279C45.2462 49.042 45.2267 49.0495 45.2072 49.049H43.1712V50.2977H44.611C44.6533 50.2982 44.6874 50.3324 44.6879 50.3746V50.5858C44.6874 50.6058 44.6793 50.6248 44.6646 50.6383C44.65 50.6518 44.6311 50.6594 44.611 50.6594H43.1712V52.0846H45.2029C45.2229 52.0852 45.2419 52.0933 45.2554 52.1079C45.2689 52.1225 45.2765 52.1415 45.2765 52.1615V52.3695C45.2771 52.3895 45.2695 52.409 45.2554 52.4231C45.2413 52.4372 45.2224 52.4458 45.2029 52.4464H42.7661C42.7379 52.4457 42.711 52.4339 42.6913 52.4137C42.6716 52.3935 42.6605 52.3663 42.6605 52.3381V48.7961C42.66 48.7674 42.6719 48.7393 42.6925 48.7198C42.7131 48.7003 42.7412 48.6894 42.7705 48.6905ZM37.03 49.6479H37.6668C37.9484 49.6486 38.2183 49.7606 38.4177 49.9596C38.617 50.1585 38.7296 50.4282 38.7309 50.7098V51.3807C38.7297 51.6621 38.6174 51.9317 38.4184 52.1307C38.2194 52.3297 37.9499 52.442 37.6684 52.4431H37.03C36.4441 52.442 35.9698 51.9666 35.9692 51.3807V50.7098C35.9698 50.1239 36.4441 49.649 37.03 49.6479ZM37.1578 49.9295H37.5396C37.7097 49.9312 37.8723 49.9995 37.9926 50.1198C38.1129 50.24 38.1812 50.4027 38.1829 50.5728V51.5161C38.182 51.6867 38.1141 51.8502 37.9937 51.9712C37.8733 52.0921 37.7102 52.1609 37.5396 52.1626H37.1556C36.9847 52.1613 36.8212 52.0928 36.7005 51.9717C36.5797 51.8507 36.5116 51.687 36.5107 51.5161V50.5722C36.5124 50.4015 36.5813 50.2383 36.7024 50.1179C36.8235 49.9975 36.9871 49.9302 37.1578 49.9295ZM64.1424 49.6479H64.777C65.0584 49.649 65.328 49.7613 65.527 49.9603C65.726 50.1593 65.8383 50.4289 65.8394 50.7103V51.3807C65.8386 51.6623 65.7264 51.9322 65.5274 52.1314C65.3284 52.3306 65.0586 52.4431 64.777 52.4442H64.1435C63.5565 52.4437 63.0805 51.9677 63.08 51.3807V50.7098C63.081 50.1233 63.5559 49.649 64.1424 49.6479ZM64.2642 49.9295H64.6514C64.8219 49.9298 64.9854 49.9976 65.106 50.1182C65.2265 50.2388 65.2944 50.4023 65.2947 50.5728V51.5161C65.2952 51.8718 65.0072 52.161 64.6514 52.1626H64.2642C64.0936 52.1609 63.9305 52.0921 63.8101 51.9712C63.6897 51.8502 63.6218 51.6867 63.6209 51.5161V50.5722C63.6226 50.4022 63.6909 50.2397 63.811 50.1194C63.9312 49.9992 64.0937 49.9308 64.2637 49.9289L64.2642 49.9295ZM47.9732 52.1431C47.9737 52.1567 47.9683 52.1702 47.9586 52.18C47.9488 52.1897 47.9358 52.1951 47.9218 52.1946H46.9617C46.7556 52.194 46.5582 52.1119 46.4125 51.9662C46.2668 51.8205 46.1847 51.623 46.1841 51.417V50.6767C46.183 50.2463 46.5312 49.8959 46.9617 49.8937H47.9218C47.9356 49.8944 47.9487 49.9004 47.9583 49.9105C47.9679 49.9206 47.9732 49.934 47.9732 49.9479V52.1431ZM47.9732 49.5927C47.9732 49.6066 47.9679 49.6199 47.9583 49.63C47.9487 49.6401 47.9356 49.6461 47.9218 49.6468H46.738C46.1516 49.6479 45.6767 50.1228 45.6756 50.7092V51.3807C45.6767 51.9671 46.1516 52.442 46.738 52.4431H48.3766C48.3908 52.4431 48.4049 52.4403 48.4181 52.4349C48.4312 52.4294 48.4431 52.4215 48.4532 52.4114C48.4633 52.4013 48.4712 52.3894 48.4767 52.3763C48.4821 52.3631 48.4849 52.349 48.4849 52.3348V48.7961C48.486 48.7669 48.4752 48.7387 48.4546 48.7181C48.434 48.6976 48.4059 48.6867 48.3766 48.6878H48.0788C48.0505 48.6885 48.0237 48.7002 48.004 48.7205C47.9842 48.7407 47.9732 48.7679 47.9732 48.7961V49.5927ZM58.1133 51.5421C58.1133 51.8014 57.9438 52.2493 57.1023 52.1919C56.8974 52.1867 56.7023 52.1032 56.5571 51.9586C56.4118 51.8139 56.3275 51.6191 56.3215 51.4143V50.6767C56.3226 50.47 56.4053 50.2721 56.5515 50.1259C56.6977 49.9797 56.8956 49.897 57.1023 49.8959H58.0624C58.0763 49.8966 58.0894 49.9026 58.099 49.9127C58.1086 49.9228 58.1139 49.9362 58.1139 49.9501L58.1133 51.5421ZM56.8749 49.6468C56.5935 49.648 56.3239 49.7603 56.1249 49.9593C55.9259 50.1582 55.8136 50.4278 55.8125 50.7092V51.3807C55.8136 51.6621 55.9259 51.9317 56.1249 52.1307C56.3239 52.3297 56.5935 52.442 56.8749 52.4431C57.3996 52.4431 58.0299 52.3662 58.1101 52.3792C58.1642 52.3922 58.1837 52.4431 58.2725 52.4431H58.5189C58.5472 52.4424 58.574 52.4307 58.5937 52.4105C58.6135 52.3902 58.6245 52.3631 58.6245 52.3348V49.7529C58.6238 49.7252 58.6125 49.6987 58.5928 49.679C58.5732 49.6594 58.5467 49.648 58.5189 49.6474L56.8749 49.6468ZM53.8766 52.4437C53.5952 52.4424 53.3257 52.3299 53.1268 52.1308C52.9279 51.9317 52.8157 51.6621 52.8147 51.3807V50.7098C52.816 50.4285 52.9284 50.159 53.1274 49.9601C53.3264 49.7613 53.5958 49.649 53.8772 49.6479H55.2721C55.275 49.6478 55.2779 49.6483 55.2807 49.6494C55.2834 49.6505 55.2859 49.6522 55.2879 49.6542C55.29 49.6563 55.2916 49.6588 55.2927 49.6615C55.2938 49.6642 55.2943 49.6672 55.2943 49.6701V49.8715C55.2943 49.8745 55.2938 49.8774 55.2927 49.8801C55.2916 49.8828 55.29 49.8853 55.2879 49.8874C55.2859 49.8895 55.2834 49.8911 55.2807 49.8922C55.2779 49.8933 55.275 49.8938 55.2721 49.8937H54.1041C53.897 49.895 53.6989 49.978 53.5528 50.1247C53.4066 50.2713 53.3243 50.4697 53.3238 50.6767V51.4191C53.3281 51.8475 53.6757 52.1924 54.1041 52.1929H55.2721C55.284 52.1935 55.2937 52.2032 55.2943 52.2151V52.4198C55.2943 52.4228 55.2938 52.4257 55.2927 52.4284C55.2916 52.4311 55.29 52.4336 55.2879 52.4357C55.2859 52.4378 55.2834 52.4394 55.2807 52.4405C55.2779 52.4416 55.275 52.4421 55.2721 52.442L53.8766 52.4437ZM26.1377 49.8645C26.1866 49.8658 26.2339 49.8476 26.2694 49.814C26.3048 49.7804 26.3254 49.7341 26.3267 49.6853C26.328 49.6364 26.3099 49.5891 26.2763 49.5536C26.2426 49.5182 26.1963 49.4976 26.1475 49.4963C25.4403 49.4259 24.7748 49.5764 24.6086 50.1461C24.484 50.5717 24.7363 50.9583 25.3509 51.0666C26.1632 51.2172 26.4675 51.6081 26.1253 51.9655C25.9493 52.148 25.4051 52.0776 25.012 52.0998C24.5864 52.1253 24.647 52.4388 25.012 52.442C25.6553 52.4485 26.3657 52.5346 26.6213 52.1123C26.7507 51.9016 26.774 51.6417 26.683 51.4116C26.5921 51.1814 26.3988 51.0071 26.1605 50.941C25.4885 50.8035 25.0726 50.6594 25.1587 50.269C25.2421 49.8981 25.5648 49.8688 26.1377 49.8629" fill="#939598"/>
<path fill-rule="evenodd" clip-rule="evenodd" d="M69.3132 28.0962C69.4885 28.097 69.6581 28.1585 69.7932 28.2702C69.9283 28.382 70.0204 28.5371 70.054 28.7092C70.0875 28.8813 70.0604 29.0597 69.9772 29.214C69.894 29.3683 69.7599 29.4891 69.5978 29.5556C69.4356 29.6222 69.2553 29.6305 69.0877 29.5791C68.9201 29.5277 68.7755 29.4199 68.6784 29.2738C68.5814 29.1278 68.538 28.9527 68.5556 28.7782C68.5732 28.6038 68.6507 28.4409 68.7749 28.3171C68.8457 28.2467 68.9297 28.1909 69.022 28.153C69.1144 28.1151 69.2133 28.0958 69.3132 28.0962ZM69.3132 21.5143C69.7713 21.5154 70.1417 21.8868 70.1417 22.3449C70.1417 22.8031 69.7702 23.174 69.3126 23.1745C68.8551 23.1751 68.4831 22.8047 68.4814 22.3466C68.4814 22.1262 68.5692 21.9145 68.7251 21.7585C68.8811 21.6025 69.0928 21.5143 69.3132 21.5143Z" fill="#088B79"/>
<path fill-rule="evenodd" clip-rule="evenodd" d="M73.1144 24.6409C73.5731 24.6398 73.9451 25.0107 73.9462 25.4694C73.9473 25.928 73.5763 26.3 73.1177 26.3011C72.659 26.3022 72.287 25.9313 72.2859 25.4726C72.2849 25.014 72.6563 24.6425 73.1144 24.6409ZM65.6721 24.7784C66.0078 24.7779 66.311 24.9804 66.4399 25.2907C66.5688 25.601 66.4978 25.9583 66.2601 26.1961C66.0224 26.4338 65.665 26.5042 65.3547 26.3753C65.0445 26.2464 64.8425 25.9432 64.843 25.6069C64.843 25.4981 64.8645 25.3903 64.9061 25.2897C64.9478 25.1892 65.0089 25.0978 65.0859 25.0209C65.1629 24.9439 65.2543 24.8829 65.3548 24.8413C65.4554 24.7997 65.5632 24.7783 65.6721 24.7784Z" fill="#038A7D"/>
<path fill-rule="evenodd" clip-rule="evenodd" d="M58.0082 25.9367C58.3163 25.9367 58.5935 26.1224 58.7116 26.4067C58.8296 26.691 58.7641 27.0186 58.5464 27.2363C58.3287 27.454 58.0011 27.519 57.7168 27.4015C57.4326 27.2839 57.2468 27.0062 57.2468 26.698C57.2474 26.4963 57.3278 26.303 57.4705 26.1603C57.6131 26.0177 57.8064 25.9373 58.0082 25.9367ZM80.6635 25.8436C80.8387 25.8443 81.0083 25.9058 81.1433 26.0175C81.2784 26.1292 81.3705 26.2842 81.4042 26.4562C81.4378 26.6282 81.4108 26.8065 81.3278 26.9608C81.2447 27.1152 81.1108 27.236 80.9487 27.3027C80.7867 27.3694 80.6065 27.3779 80.4389 27.3267C80.2713 27.2756 80.1265 27.1679 80.0293 27.0221C79.9321 26.8763 79.8885 26.7013 79.9057 26.5269C79.923 26.3525 80.0002 26.1895 80.1241 26.0656C80.1949 25.9948 80.279 25.9387 80.3716 25.9006C80.4641 25.8625 80.5633 25.8431 80.6635 25.8436ZM73.3007 18.5447C73.5379 18.5451 73.7653 18.6398 73.9327 18.8078C74.1002 18.9759 74.194 19.2036 74.1936 19.4409C74.1932 19.6781 74.0985 19.9055 73.9304 20.0729C73.7624 20.2404 73.5347 20.3342 73.2974 20.3338C73.0602 20.3334 72.8328 20.2387 72.6654 20.0706C72.4979 19.9026 72.4041 19.6749 72.4045 19.4376C72.4049 19.2004 72.4996 18.973 72.6677 18.8055C72.8357 18.6381 73.0634 18.5442 73.3007 18.5447ZM65.4668 18.6405C65.704 18.6407 65.9315 18.7352 66.0991 18.9031C66.2667 19.071 66.3608 19.2986 66.3605 19.5359C66.3603 19.7731 66.2659 20.0006 66.098 20.1682C65.93 20.3358 65.7024 20.4299 65.4652 20.4296C65.3477 20.4297 65.2314 20.4066 65.1228 20.3617C65.0143 20.3167 64.9157 20.2508 64.8327 20.1678C64.7496 20.0847 64.6838 19.986 64.6389 19.8775C64.594 19.7689 64.571 19.6526 64.5712 19.5351C64.5728 19.0412 64.9735 18.6416 65.4673 18.6421" fill="#038981"/>
<path fill-rule="evenodd" clip-rule="evenodd" d="M61.5729 21.9784C61.6904 21.9786 61.8067 22.0019 61.9152 22.0471C62.0236 22.0922 62.1221 22.1583 62.205 22.2415C62.2879 22.3247 62.3536 22.4235 62.3984 22.5321C62.4432 22.6407 62.4661 22.7571 62.4659 22.8745C62.4657 22.992 62.4423 23.1083 62.3972 23.2167C62.352 23.3252 62.2859 23.4237 62.2027 23.5066C62.1195 23.5895 62.0208 23.6552 61.9121 23.7C61.8035 23.7448 61.6872 23.7677 61.5697 23.7675C61.4522 23.7673 61.3359 23.7439 61.2275 23.6988C61.119 23.6536 61.0205 23.5875 60.9376 23.5043C60.8547 23.4211 60.789 23.3224 60.7442 23.2137C60.6995 23.1051 60.6765 22.9888 60.6768 22.8713C60.677 22.7538 60.7003 22.6375 60.7455 22.5291C60.7906 22.4206 60.8567 22.3221 60.9399 22.2392C61.0231 22.1563 61.1219 22.0906 61.2305 22.0458C61.3391 22.0011 61.4555 21.9781 61.5729 21.9784ZM77.2039 21.8246C77.7313 21.8257 78.158 22.2534 78.1575 22.7809C78.1569 23.3083 77.7291 23.7355 77.2022 23.735C76.6754 23.7344 76.2476 23.3077 76.247 22.7803C76.2475 22.5267 76.3484 22.2836 76.5278 22.1042C76.7071 21.9249 76.9502 21.8239 77.2039 21.8235" fill="#038981"/>
<path d="M77.4855 15.9238C78.0671 15.9238 78.5382 16.3949 78.5382 16.9765C78.5382 17.5581 78.0671 18.0292 77.4855 18.0292C76.904 18.0292 76.4329 17.5581 76.4329 16.9765C76.4329 16.3949 76.9045 15.9244 77.4855 15.9238Z" fill="#049A8C"/>
<path fill-rule="evenodd" clip-rule="evenodd" d="M81.9237 13.8987C82.2707 13.8983 82.6037 14.0355 82.8497 14.2802C83.0956 14.5249 83.2345 14.8573 83.2358 15.2042C83.2362 15.5512 83.099 15.8842 82.8543 16.1302C82.6095 16.3761 82.2772 16.515 81.9302 16.5163C81.5832 16.5167 81.2502 16.3795 81.0043 16.1348C80.7583 15.89 80.6195 15.5577 80.6182 15.2107C80.6177 14.8638 80.7549 14.5308 80.9997 14.2848C81.2444 14.0388 81.5767 13.9 81.9237 13.8987Z" fill="#069C8D"/>
<path fill-rule="evenodd" clip-rule="evenodd" d="M86.5287 12.4578C86.8285 12.4577 87.1217 12.5467 87.3711 12.7133C87.6204 12.8799 87.8148 13.1167 87.9295 13.3937C88.0443 13.6708 88.0743 13.9757 88.0158 14.2698C87.9573 14.5639 87.8129 14.8341 87.6008 15.0461C87.3888 15.2582 87.1186 15.4026 86.8245 15.4611C86.5304 15.5196 86.2255 15.4896 85.9484 15.3749C85.6713 15.2601 85.4345 15.0657 85.2679 14.8164C85.1013 14.567 85.0124 14.2739 85.0125 13.974C85.0125 13.5718 85.1722 13.1862 85.4565 12.9018C85.7409 12.6175 86.1265 12.4578 86.5287 12.4578Z" fill="#04A18C"/>
<path fill-rule="evenodd" clip-rule="evenodd" d="M91.2483 11.4824C91.5624 11.4821 91.8695 11.5749 92.1308 11.7493C92.392 11.9236 92.5957 12.1716 92.7159 12.4618C92.8361 12.752 92.8675 13.0713 92.806 13.3793C92.7446 13.6874 92.5931 13.9702 92.3708 14.1921C92.1489 14.4144 91.8661 14.5659 91.558 14.6273C91.25 14.6888 90.9307 14.6574 90.6405 14.5372C90.3503 14.417 90.1023 14.2133 89.928 13.9521C89.7536 13.6908 89.6608 13.3837 89.6611 13.0696C89.6611 12.8611 89.7021 12.6547 89.7818 12.4621C89.8615 12.2695 89.9784 12.0945 90.1258 11.9471C90.2732 11.7997 90.4482 11.6828 90.6408 11.6031C90.8334 11.5234 91.0398 11.4824 91.2483 11.4824Z" fill="#0FB6A8"/>
<path fill-rule="evenodd" clip-rule="evenodd" d="M96.0383 10.83C96.5087 10.83 96.96 11.0166 97.293 11.349C97.626 11.6814 97.8135 12.1323 97.8144 12.6028C97.8144 13.0733 97.6277 13.5246 97.2953 13.8576C96.9629 14.1906 96.512 14.3781 96.0415 14.3789C95.571 14.3789 95.1197 14.1923 94.7867 13.8599C94.4538 13.5275 94.2662 13.0766 94.2654 12.6061C94.2654 12.1356 94.4521 11.6843 94.7844 11.3513C95.1168 11.0183 95.5678 10.8308 96.0383 10.83Z" fill="#0EB7A8"/>
<path d="M81.622 19.6423C82.2036 19.6423 82.6747 20.1134 82.6747 20.695C82.6747 21.2766 82.2036 21.7477 81.622 21.7477C81.0404 21.7477 80.5693 21.2766 80.5693 20.695C80.5693 20.1134 81.041 19.6429 81.622 19.6423Z" fill="#049A8C"/>
<path d="M86.2502 17.9458C86.5972 17.9462 86.9298 18.0843 87.1752 18.3296C87.4206 18.575 87.5586 18.9076 87.559 19.2546C87.5586 19.6016 87.4206 19.9342 87.1752 20.1796C86.9298 20.425 86.5972 20.563 86.2502 20.5634C85.9032 20.563 85.5706 20.425 85.3252 20.1796C85.0799 19.9342 84.9418 19.6016 84.9414 19.2546C84.9414 18.9075 85.0789 18.5745 85.3248 18.3292C85.5706 18.0839 85.9031 17.9458 86.2502 17.9458Z" fill="#069C8D"/>
<path fill-rule="evenodd" clip-rule="evenodd" d="M91.108 16.8519C91.5101 16.8516 91.8959 17.011 92.1805 17.2951C92.4651 17.5791 92.6252 17.9647 92.6256 18.3668C92.6259 18.7689 92.4665 19.1547 92.1824 19.4393C91.8983 19.7239 91.5128 19.884 91.1107 19.8843C90.7088 19.885 90.323 19.7261 90.0382 19.4425C89.7534 19.1589 89.5928 18.7739 89.5918 18.3719C89.5913 17.5337 90.2698 16.8536 91.108 16.8519Z" fill="#04A18C"/>
<path fill-rule="evenodd" clip-rule="evenodd" d="M96.2241 16.6889C96.8669 16.6884 97.4468 17.075 97.6932 17.6685C97.9396 18.262 97.8042 18.9459 97.3499 19.4002C96.8956 19.8545 96.2122 19.991 95.6182 19.7452C95.0241 19.4993 94.637 18.9199 94.637 18.2772C94.6364 17.3999 95.3469 16.6884 96.2241 16.6868" fill="#0FB6A8"/>
<path d="M85.6232 23.5498C86.2048 23.5498 86.6759 24.0209 86.6759 24.6025C86.6759 25.1841 86.2048 25.6552 85.6232 25.6552C85.0417 25.6552 84.5706 25.1841 84.5706 24.6025C84.5706 24.0209 85.0422 23.5503 85.6232 23.5498Z" fill="#049A8C"/>
<path fill-rule="evenodd" clip-rule="evenodd" d="M91.1076 22.247C91.6371 22.2459 92.1153 22.5637 92.3189 23.0527C92.5225 23.5417 92.4115 24.1054 92.0373 24.4801C91.6631 24.8548 91.1 24.9674 90.6105 24.7655C90.1209 24.5635 89.802 24.0859 89.802 23.5558C89.8015 22.8339 90.3857 22.2486 91.1076 22.247Z" fill="#069C8D"/>
<path d="M96.3616 22.1062C97.149 22.1051 97.788 22.743 97.789 23.5303C97.7901 24.3177 97.1522 24.9567 96.3649 24.9577C95.5775 24.9588 94.9386 24.3209 94.9375 23.5336C94.9381 23.1558 95.0882 22.7935 95.3551 22.5261C95.6219 22.2586 95.9838 22.1076 96.3616 22.1062Z" fill="#04A18C"/>
<path d="M61.2563 16.063C61.8379 16.063 62.309 16.5341 62.309 17.1157C62.309 17.6972 61.8379 18.1683 61.2563 18.1683C60.6747 18.1683 60.2036 17.6972 60.2036 17.1157C60.2033 16.9773 60.2304 16.8403 60.2832 16.7125C60.336 16.5846 60.4135 16.4685 60.5113 16.3707C60.6091 16.2729 60.7253 16.1953 60.8531 16.1425C60.981 16.0897 61.118 16.0627 61.2563 16.063Z" fill="#049A8C"/>
<path d="M56.8786 14.0876C57.2256 14.0881 57.5583 14.2261 57.8036 14.4715C58.049 14.7168 58.187 15.0495 58.1874 15.3965C58.187 15.7434 58.049 16.0761 57.8036 16.3214C57.5583 16.5668 57.2256 16.7048 56.8786 16.7053C56.5316 16.7048 56.199 16.5668 55.9536 16.3214C55.7083 16.0761 55.5703 15.7434 55.5698 15.3965C55.5698 15.0494 55.7074 14.7163 55.9532 14.471C56.199 14.2257 56.5315 14.0876 56.8786 14.0876Z" fill="#039E8B"/>
<path fill-rule="evenodd" clip-rule="evenodd" d="M52.2418 12.6472C52.5417 12.6472 52.8348 12.7361 53.0842 12.9027C53.3336 13.0693 53.5279 13.3061 53.6427 13.5832C53.7574 13.8602 53.7875 14.1651 53.729 14.4592C53.6704 14.7534 53.526 15.0235 53.314 15.2356C53.1019 15.4477 52.8317 15.5921 52.5376 15.6506C52.2435 15.7091 51.9386 15.6791 51.6615 15.5643C51.3845 15.4495 51.1477 15.2552 50.9811 15.0058C50.8145 14.7565 50.7256 14.4633 50.7256 14.1634C50.7256 13.7613 50.8853 13.3756 51.1697 13.0913C51.454 12.807 51.8397 12.6472 52.2418 12.6472Z" fill="#04A18C"/>
<path fill-rule="evenodd" clip-rule="evenodd" d="M47.5351 11.7191C48.1779 11.7186 48.7578 12.1052 49.0042 12.6992C49.2506 13.2933 49.1147 13.9766 48.6604 14.4315C48.2061 14.8863 47.5221 15.0217 46.9281 14.7753C46.3341 14.529 45.9475 13.949 45.948 13.3063C45.9479 13.0978 45.9889 12.8914 46.0687 12.6988C46.1484 12.5062 46.2653 12.3312 46.4127 12.1838C46.5601 12.0364 46.7351 11.9195 46.9277 11.8398C47.1203 11.76 47.3267 11.719 47.5351 11.7191Z" fill="#0FB6A8"/>
<path fill-rule="evenodd" clip-rule="evenodd" d="M42.7575 10.83C43.228 10.83 43.6793 11.0166 44.0123 11.349C44.3452 11.6814 44.5327 12.1323 44.5336 12.6028C44.5336 13.0733 44.3469 13.5246 44.0145 13.8576C43.6822 14.1906 43.2312 14.3781 42.7607 14.3789C42.2902 14.3789 41.839 14.1923 41.506 13.8599C41.173 13.5275 40.9855 13.0766 40.9846 12.6061C40.9846 12.1356 41.1713 11.6843 41.5037 11.3513C41.8361 11.0183 42.287 10.8308 42.7575 10.83Z" fill="#0EB7A8"/>
<path fill-rule="evenodd" clip-rule="evenodd" d="M57.1408 19.7831C57.7224 19.7831 58.1935 20.2542 58.1935 20.8358C58.1935 21.4173 57.7224 21.8884 57.1408 21.8884C56.5592 21.8884 56.0881 21.4173 56.0881 20.8358C56.089 20.5568 56.2002 20.2896 56.3974 20.0923C56.5946 19.8951 56.8619 19.7839 57.1408 19.7831Z" fill="#049A8C"/>
<path fill-rule="evenodd" clip-rule="evenodd" d="M52.4821 18.0876C52.8291 18.0881 53.1618 18.2261 53.4071 18.4715C53.6525 18.7168 53.7905 19.0495 53.791 19.3965C53.7905 19.7434 53.6525 20.0761 53.4071 20.3214C53.1618 20.5668 52.8291 20.7048 52.4821 20.7053C52.1352 20.7048 51.8025 20.5668 51.5572 20.3214C51.3118 20.0761 51.1738 19.7434 51.1733 19.3965C51.1738 19.0495 51.3118 18.7168 51.5572 18.4715C51.8025 18.2261 52.1352 18.0881 52.4821 18.0876Z" fill="#039E8B"/>
<path fill-rule="evenodd" clip-rule="evenodd" d="M47.5384 16.9933C47.9405 16.9937 48.326 17.1537 48.6101 17.4383C48.8942 17.7229 49.0536 18.1087 49.0533 18.5108C49.0529 18.913 48.8928 19.2985 48.6082 19.5826C48.3236 19.8667 47.9378 20.026 47.5357 20.0257C47.2357 20.0259 46.9424 19.9372 46.6929 19.7707C46.4434 19.6041 46.2488 19.3673 46.1339 19.0902C46.019 18.8131 45.9889 18.5082 46.0474 18.2139C46.1059 17.9197 46.2503 17.6494 46.4625 17.4373C46.6037 17.2961 46.7715 17.1841 46.9561 17.1079C47.1408 17.0317 47.3387 16.9928 47.5384 16.9933Z" fill="#04A18C"/>
<path fill-rule="evenodd" clip-rule="evenodd" d="M42.5691 16.8292C43.4463 16.8281 44.1584 17.5391 44.1595 18.4164C44.1605 19.2936 43.4496 20.0057 42.5723 20.0067C41.6951 20.0078 40.983 19.2968 40.9819 18.4196C40.9814 18.2109 41.0221 18.0041 41.1017 17.8112C41.1812 17.6182 41.2981 17.4428 41.4455 17.2951C41.5929 17.1473 41.7681 17.0301 41.9609 16.9502C42.1537 16.8703 42.3604 16.8292 42.5691 16.8292Z" fill="#0FB6A8"/>
<path d="M53.1672 23.6901C53.7488 23.6901 54.2199 24.1612 54.2199 24.7427C54.2199 25.3243 53.7488 25.7954 53.1672 25.7954C52.5856 25.7954 52.1145 25.3243 52.1145 24.7427C52.1142 24.6044 52.1413 24.4674 52.1941 24.3396C52.2469 24.2117 52.3244 24.0956 52.4222 23.9978C52.52 23.8999 52.6362 23.8224 52.764 23.7696C52.8918 23.7168 53.0289 23.6898 53.1672 23.6901Z" fill="#049A8C"/>
<path fill-rule="evenodd" clip-rule="evenodd" d="M47.8217 22.3883C48.1686 22.3892 48.5009 22.5275 48.746 22.7731C48.991 23.0186 49.1287 23.3513 49.1288 23.6982C49.1281 24.0451 48.9899 24.3775 48.7445 24.6227C48.499 24.8678 48.1664 25.0056 47.8195 25.0059C47.4726 25.0053 47.1401 24.8673 46.8949 24.6219C46.6496 24.3766 46.5117 24.044 46.5112 23.6971C46.5112 23.3495 46.6493 23.0164 46.8952 22.7711C47.141 22.5258 47.4746 22.3878 47.8217 22.3883Z" fill="#039E8B"/>
<path d="M42.3319 22.2469C43.1192 22.2459 43.7582 22.8838 43.7592 23.6711C43.7603 24.4584 43.1224 25.0974 42.3351 25.0985C41.5478 25.0996 40.9088 24.4617 40.9077 23.6743C40.9083 23.2965 41.0584 22.9343 41.3253 22.6668C41.5921 22.3993 41.954 22.2484 42.3319 22.2469Z" fill="#04A18C"/>
</g>
</g>
<defs>
<clipPath id="clip0_2_393">
<rect width="108.33" height="64.98" fill="white" transform="translate(0.956543)"/>
</clipPath>
<clipPath id="clip1_2_393">
<rect width="108.33" height="64.98" fill="white" transform="translate(0.956543)"/>
</clipPath>
</defs>
</svg>
