<svg width="146" height="57" viewBox="0 0 146 57" fill="none" xmlns="http://www.w3.org/2000/svg">
<g clip-path="url(#clip0_2_473)">
<g clip-path="url(#clip1_2_473)">
<g clip-path="url(#clip2_2_473)">
<path d="M0.922852 41.6588H2.63812L5.1059 45.3771L5.18336 45.5541L5.21656 45.3771L7.69541 41.6588H8.61391V48.7412H7.61794V43.1749L7.52941 43.4515L5.44895 46.4948H4.87351L2.80412 43.4515L2.71559 43.2302V48.7412H1.71962V42.3671L0.922852 42.1457V41.6588Z" fill="#045C50"/>
<path d="M11.5353 42.2564L10.7164 42.7655L10.2294 41.9355L11.0594 41.4375L11.5353 42.2564ZM11.3693 43.8167V48.7412H10.4286V44.4254L9.83105 44.2705V43.8278H11.3693V43.8167Z" fill="#045C50"/>
<path d="M17.5775 45.4102V48.7301H16.6368V45.6426C16.6368 44.9233 16.327 44.536 15.6851 44.536C15.36 44.5533 15.0417 44.6357 14.7489 44.7783C14.4562 44.9208 14.1951 45.1207 13.9809 45.3659V48.7411H13.0956V44.4253L12.498 44.2482V43.8167H13.9477L14.0141 44.6466C14.5496 44.0634 15.2928 43.7137 16.0835 43.6728C16.3044 43.6693 16.5233 43.7135 16.7256 43.8022C16.9279 43.891 17.1086 44.0222 17.2556 44.1871C17.4026 44.3519 17.5124 44.5465 17.5775 44.7575C17.6426 44.9686 17.6614 45.1912 17.6328 45.4102" fill="#045C50"/>
<path d="M20.2999 42.2564L19.481 42.7655L18.9941 41.9355L19.8241 41.4375L20.2999 42.2564ZM20.1339 43.8167V48.7412H19.1933V44.4254L18.6289 44.2705V43.8278H20.1671L20.1339 43.8167Z" fill="#045C50"/>
<path d="M23.5975 48.8297C22.791 48.9303 21.9721 48.8237 21.2183 48.5198L21.4064 47.8116C22.5794 48.221 24.007 48.3538 24.0512 47.4464C24.0522 47.3338 24.0173 47.2238 23.9517 47.1323C23.886 47.0408 23.793 46.9725 23.686 46.9374L23.3209 46.7603L22.7786 46.5611C21.7826 46.1959 21.2625 45.8307 21.2957 45.0893C21.2957 43.5732 23.509 43.4847 24.7484 43.9827L24.5713 44.6909C23.5975 44.2815 22.181 44.2925 22.2032 45.0229C22.2032 45.2774 22.347 45.4213 22.6126 45.543C22.7902 45.6413 22.9799 45.7158 23.177 45.7643L23.4868 45.8861C24.4607 46.2512 24.9919 46.6164 24.9476 47.4132C24.9204 47.7644 24.7701 48.0947 24.523 48.3458C24.276 48.5968 23.9482 48.7526 23.5975 48.7854" fill="#045C50"/>
<path d="M28.6436 48.6637C28.3667 48.8139 28.0567 48.8925 27.7417 48.8925C27.4267 48.8925 27.1167 48.8139 26.8398 48.6637C26.6351 48.5131 26.4712 48.3138 26.363 48.0839C26.2548 47.8539 26.2057 47.6006 26.2201 47.3468V44.5249H25.3901V44.0934L26.2201 43.7503V42.6437H27.1829V43.8278H28.212V44.5471H27.1829V47.214C27.1829 47.9555 27.5038 48.2653 28.4776 47.9555L28.6436 48.6637Z" fill="#045C50"/>
<path d="M30.6027 44.6246C31.3109 43.8831 31.7978 43.5179 32.5614 43.7282L32.4618 44.5582C31.7978 44.4254 31.3552 44.7574 30.6359 45.4988V48.7412H29.6952V44.4254L29.0977 44.2483V43.8167H30.5473L30.6027 44.6246Z" fill="#045C50"/>
<path d="M37.0429 43.8168H38.0278L35.2391 50.8992H34.2432L35.2945 48.3539H34.9071L32.9927 43.8168H33.9554L35.56 47.6568L37.0429 43.8168Z" fill="#045C50"/>
<path d="M43.4949 48.0882C43.7039 48.0938 43.9115 48.053 44.1028 47.9688C44.2941 47.8846 44.4644 47.7591 44.6015 47.6013C44.8863 47.2315 45.0313 46.7729 45.011 46.3066C45.0335 45.8297 44.8887 45.36 44.6015 44.9786C44.4644 44.8208 44.2941 44.6953 44.1028 44.6112C43.9115 44.527 43.7039 44.4862 43.4949 44.4917C43.2855 44.483 43.0769 44.5223 42.8851 44.6067C42.6933 44.6911 42.5233 44.8183 42.3883 44.9786C42.0883 45.3538 41.9384 45.8271 41.9678 46.3066C41.9504 46.7879 42.0989 47.2606 42.3883 47.6456C42.5254 47.8034 42.6957 47.9289 42.887 48.013C43.0784 48.0972 43.286 48.138 43.4949 48.1325M43.4949 48.8961C43.1617 48.9061 42.83 48.8463 42.5213 48.7205C42.2126 48.5947 41.9335 48.4057 41.7022 48.1657C41.2463 47.6515 40.9946 46.9882 40.9946 46.301C40.9946 45.6139 41.2463 44.9505 41.7022 44.4364C42.1844 43.9738 42.8267 43.7155 43.4949 43.7155C44.1631 43.7155 44.8055 43.9738 45.2876 44.4364C45.5233 44.6859 45.7072 44.9797 45.8287 45.3007C45.9503 45.6216 46.0071 45.9635 45.9959 46.3066C46.0081 46.6481 45.9517 46.9885 45.83 47.3079C45.7084 47.6272 45.524 47.9189 45.2876 48.1657C45.0584 48.4086 44.7798 48.5994 44.4705 48.7254C44.1613 48.8514 43.8286 48.9096 43.4949 48.8961Z" fill="#045C50"/>
<path d="M49.8687 41.8801C48.6736 41.5703 48.2973 41.8801 48.2973 42.6326V43.8721H49.5257V44.5914H48.2973V48.7744H47.4009V44.536H46.6484V43.8167H47.4009V42.5994C47.3793 42.3267 47.4267 42.0529 47.5389 41.8034C47.6511 41.5539 47.8244 41.3367 48.0428 41.1719C48.3634 41.0096 48.7154 40.9187 49.0745 40.9053C49.4337 40.8919 49.7914 40.9564 50.1232 41.0944L49.8687 41.8801Z" fill="#045C50"/>
<path d="M57.9806 42.4777H54.705V45.0672H57.3609V45.8751H54.705V48.7412H53.709V42.3781L52.8901 42.1457V41.6588H57.9806V42.4777Z" fill="#045C50"/>
<path d="M60.4483 42.2564L59.6294 42.7655L59.1425 41.9355L59.9725 41.4375L60.4483 42.2564ZM60.2824 43.8167V48.7412H59.3417V44.4254L58.7441 44.2705V43.8278H60.2824V43.8167Z" fill="#045C50"/>
<path d="M66.5125 45.4103V48.7302H65.5719V45.6427C65.5719 44.9234 65.262 44.5361 64.6091 44.5361C64.2842 44.5546 63.9663 44.6376 63.6737 44.7801C63.3812 44.9225 63.1198 45.1217 62.9049 45.366V48.7412H61.9643V44.4254L61.3667 44.2483V43.8167H62.8164L62.8828 44.6467C63.4211 44.0673 64.1626 43.7184 64.9522 43.6729C65.1739 43.6678 65.3942 43.7108 65.5978 43.7988C65.8014 43.8868 65.9835 44.0179 66.1317 44.1829C66.28 44.3479 66.3907 44.5431 66.4564 44.7549C66.5222 44.9668 66.5413 45.1903 66.5125 45.4103Z" fill="#045C50"/>
<path d="M70.7289 47.4132V46.4173C69.4342 46.3398 68.8919 46.4173 68.6042 46.7714C68.5119 46.8896 68.452 47.0298 68.4304 47.1782C68.4087 47.3265 68.4262 47.478 68.4809 47.6176C68.5356 47.7572 68.6258 47.8802 68.7425 47.9744C68.8592 48.0685 68.9984 48.1307 69.1464 48.1547C69.7497 48.1205 70.3166 47.8549 70.7289 47.4132ZM67.8295 48.3317C67.7044 48.1783 67.6114 48.0013 67.5563 47.8111C67.5011 47.621 67.4849 47.4217 67.5086 47.2251C67.5213 46.8934 67.6417 46.5748 67.8517 46.3177C68.1131 46.0241 68.4697 45.8321 68.8587 45.7754C69.4885 45.7268 70.1212 45.7268 70.751 45.7754V45.2C70.751 44.4253 69.9543 44.2593 68.3386 44.713L68.1615 44.0048C68.8954 43.7445 69.6769 43.6464 70.4522 43.7171C70.6219 43.7196 70.7892 43.7568 70.9438 43.8266C71.0984 43.8964 71.2371 43.9971 71.3512 44.1226C71.4653 44.2482 71.5525 44.3958 71.6072 44.5564C71.662 44.7169 71.6832 44.887 71.6695 45.0561V48.1325L72.2892 48.2985V48.7301H70.8174V47.9887C70.5972 48.2617 70.3193 48.4827 70.0036 48.6357C69.6879 48.7888 69.3423 48.8701 68.9915 48.874C68.7771 48.8788 68.5647 48.8321 68.3721 48.7377C68.1795 48.6433 68.0124 48.5041 67.8849 48.3317" fill="#045C50"/>
<path d="M77.9883 45.4103V48.7302H77.0476V45.6427C77.0476 44.9234 76.7378 44.5361 76.0849 44.5361C75.76 44.5546 75.442 44.6376 75.1495 44.7801C74.8569 44.9225 74.5956 45.1217 74.3807 45.366V48.7412H73.44V44.4254L72.8535 44.2483V43.8167H74.2921L74.3696 44.6467C74.9024 44.0661 75.6411 43.7166 76.4279 43.6729C76.6497 43.6678 76.8699 43.7108 77.0735 43.7988C77.2771 43.8868 77.4593 44.0179 77.6075 44.1829C77.7557 44.3479 77.8665 44.5431 77.9322 44.7549C77.9979 44.9668 78.017 45.1903 77.9883 45.4103Z" fill="#045C50"/>
<path d="M79.7481 48.1547C79.3076 47.6417 79.0747 46.9825 79.0952 46.3066C79.0701 45.6204 79.2941 44.9482 79.7259 44.4143C79.9408 44.1854 80.202 44.0049 80.492 43.8847C80.782 43.7645 81.0942 43.7074 81.408 43.7171C82.0059 43.7111 82.5919 43.8846 83.0901 44.2151L82.9352 44.8902C82.5103 44.6231 82.0204 44.4777 81.5187 44.4696C80.6112 44.4696 80.0579 45.2 80.0579 46.3066C80.0579 47.4133 80.6112 48.0994 81.5519 48.1547C82.078 48.1431 82.5939 48.0065 83.0569 47.7563L83.2229 48.4203C82.6834 48.7299 82.0742 48.8974 81.4523 48.9072C81.1327 48.9299 80.8122 48.8777 80.5164 48.7548C80.2205 48.6318 79.9574 48.4415 79.7481 48.199" fill="#045C50"/>
<path d="M87.4942 45.8087C87.5717 45.023 87.2618 44.4697 86.3876 44.4475C86.0226 44.4446 85.6712 44.586 85.4101 44.8409C85.1489 45.0959 84.9991 45.4437 84.9932 45.8087H87.4942ZM84.5948 48.1215C84.1611 47.6161 83.9218 46.9727 83.9198 46.3067C83.8914 45.6162 84.1246 44.9404 84.5727 44.4143C84.7864 44.1749 85.0522 43.9876 85.3495 43.8668C85.6468 43.7459 85.9678 43.6948 86.288 43.7172C88.1028 43.7172 88.5012 45.1668 88.2467 46.4837H84.9047C84.8837 46.7045 84.9121 46.9272 84.9878 47.1356C85.0636 47.3441 85.1848 47.533 85.3427 47.6888C85.5006 47.8446 85.6911 47.9632 85.9006 48.0361C86.11 48.1091 86.3331 48.1345 86.5536 48.1105C87.0835 48.1006 87.6033 47.964 88.0696 47.7121L88.2356 48.365C87.7028 48.7408 87.0613 48.9314 86.4097 48.9072C86.0714 48.9234 85.7338 48.8653 85.4203 48.7373C85.1068 48.6092 84.8251 48.4142 84.5948 48.1658" fill="#045C50"/>
<path d="M75.4764 22.5695V23.2113L74.6022 23.4437V33.6911H73.23V22.5695H75.4764Z" fill="#045C50"/>
<path d="M79.759 24.2737L78.5085 25.0372L77.7671 23.7536L79.0618 22.99L79.759 24.2737Z" fill="#045C50"/>
<path d="M77.9329 26.5533V34.4879C77.9329 35.4285 77.9329 36.1146 76.3725 35.8269L76.1069 36.8782C78.8624 37.5089 79.294 35.9929 79.3161 34.4547V27.4276L80.1572 27.1952V26.5533H77.9329Z" fill="#045C50"/>
<path d="M68.7371 26.5533V34.4879C68.7371 35.4285 68.6817 36.1146 67.1767 35.8269L66.9111 36.8782C69.6556 37.5089 70.0982 35.9929 70.1093 34.4547V27.4276L70.9614 27.1952V26.5533H68.7371Z" fill="#045C50"/>
<path d="M65.2069 24.2737L63.9564 25.0372L63.1929 23.7536L64.4766 22.99L65.2069 24.2737Z" fill="#045C50"/>
<path d="M62.927 24.2737L61.6765 25.0372L60.9351 23.7536L62.2187 22.99L62.927 24.2737Z" fill="#045C50"/>
<path d="M62.1856 32.5513C61.4331 32.5513 60.3707 32.1307 60.3707 30.2495C60.3707 27.7485 62.584 27.6821 63.3918 27.6821H64.1554V32.5513H62.1856ZM63.3918 26.5533C62.1082 26.5533 58.9653 26.7968 58.9653 30.2495C58.9653 33.4366 61.3224 33.6911 62.1745 33.6911H65.4944V27.494L66.3797 27.2395V26.5976L63.3918 26.5533Z" fill="#045C50"/>
<path d="M87.0071 32.5512H85.4357C84.8487 32.5512 84.2858 32.318 83.8707 31.903C83.4557 31.4879 83.2225 30.925 83.2225 30.338C83.1781 29.6442 83.3997 28.9596 83.8422 28.4235C84.0351 28.1904 84.2793 28.0051 84.5558 27.8823C84.8323 27.7594 85.1335 27.7022 85.4357 27.7153H87.0071V32.5512ZM88.3462 26.5533H85.4357C84.9551 26.5335 84.4757 26.6159 84.0292 26.7953C83.5828 26.9746 83.1796 27.2467 82.8462 27.5935C82.506 27.9514 82.2407 28.3736 82.0658 28.8354C81.891 29.2971 81.8102 29.7892 81.8281 30.2826C81.8319 30.7452 81.9295 31.2021 82.115 31.6258C82.3005 32.0496 82.57 32.4313 82.9072 32.7478C83.2445 33.0644 83.6425 33.3092 84.0771 33.4676C84.5117 33.6259 84.9739 33.6944 85.4357 33.6689H87.0293C87.0293 36.026 85.48 36.2474 82.968 35.5059L82.7024 36.6125C83.363 36.8892 84.0721 37.0317 84.7884 37.0317C85.5046 37.0317 86.2137 36.8892 86.8743 36.6125C87.3829 36.322 87.7941 35.8875 88.056 35.3636C88.3179 34.8398 88.4189 34.2501 88.3462 33.6689V26.5533Z" fill="#045C50"/>
<path d="M21.7495 35.7937L22.491 37.0552L23.7525 36.3027L23.0332 35.019L21.7495 35.7937Z" fill="#045C50"/>
<path d="M19.4697 35.7937L20.2222 37.0552L21.4727 36.3027L20.7534 35.019L19.4697 35.7937Z" fill="#045C50"/>
<path d="M8.11595 24.0413L7.40771 22.7687L6.12402 23.5322L6.86546 24.8049L8.11595 24.0413Z" fill="#045C50"/>
<path d="M5.84756 24.0413L5.12825 22.7687L3.8335 23.5322L4.586 24.8049L5.84756 24.0413Z" fill="#045C50"/>
<path d="M53.1113 22.5695V33.6911H54.4835V23.4437L55.3578 23.2113V22.5695H53.1113Z" fill="#045C50"/>
<path d="M44.4574 32.5512H42.4765C41.7351 32.5512 40.6727 32.1307 40.6727 30.2494C40.6727 27.7485 41.7793 27.6821 42.554 27.6821C43.3286 27.6821 44.4352 27.7485 44.4352 30.2494V32.5512H44.4574ZM49.2158 22.5916V32.5512H45.896V30.2494C45.896 26.7968 43.8819 26.5533 42.5761 26.5533C41.2703 26.5533 39.2562 26.7968 39.2562 30.2494V30.67C39.2562 32.5512 38.1496 32.5512 37.4413 32.5512H32.1074V22.5916H30.7241V33.6911H37.4413C37.9235 33.759 38.4148 33.7111 38.8748 33.5514C39.3347 33.3917 39.75 33.1247 40.0862 32.7726C40.4026 33.0749 40.7758 33.3118 41.1841 33.4694C41.5924 33.627 42.0279 33.7024 42.4654 33.6911H50.577V23.4437L51.4402 23.2113V22.5695L49.2158 22.5916Z" fill="#045C50"/>
<path d="M6.61102 31.7877H5.72571C4.98427 31.7877 3.13621 31.677 3.13621 29.7072C3.09701 29.3453 3.14216 28.9793 3.26812 28.6378C3.39407 28.2963 3.59741 27.9886 3.86219 27.7388C4.12697 27.489 4.446 27.3039 4.79427 27.1981C5.14254 27.0923 5.51059 27.0685 5.86958 27.1288H6.63315L6.61102 31.7877ZM26.8401 22.5695V32.5291H24.3502C23.6531 32.5291 22.6018 32.5291 22.5243 30.847V26.5312H21.1521V30.6478C21.1521 32.5291 20.0455 32.5291 19.3151 32.5291H8.14923C8.11107 32.5291 8.07448 32.5139 8.0475 32.487C8.02052 32.46 8.00537 32.4234 8.00537 32.3852V26.8521L8.89067 26.5976V25.9668H5.86958C4.58589 26 1.71973 26.2324 1.71973 29.7072C1.71973 32.8943 4.87361 32.9717 5.72571 32.9717H6.61102V33.1488C6.61102 33.2985 6.67048 33.442 6.77632 33.5479C6.88216 33.6537 7.02571 33.7132 7.1754 33.7132H19.2819C19.7332 33.7675 20.1909 33.7266 20.6255 33.5932C21.0601 33.4598 21.4619 33.2368 21.805 32.9385C22.1434 33.2407 22.5429 33.4664 22.9765 33.6001C23.41 33.7337 23.8672 33.7723 24.317 33.7132H28.1792V23.4437L29.0423 23.2113V22.5695H26.8401Z" fill="#045C50"/>
<path d="M112.283 47.6124C113.729 47.6341 115.12 48.1762 116.2 49.1396L119.188 52.1275C119.409 52.3479 119.671 52.5221 119.96 52.6399C120.249 52.7577 120.558 52.8168 120.87 52.8136C121.498 52.8093 122.1 52.5637 122.552 52.1275L125.54 49.1396C126.148 48.5956 126.862 48.1839 127.637 47.9305C128.413 47.6772 129.232 47.5877 130.044 47.6678L134.227 48.3428C134.536 48.3917 134.851 48.3792 135.155 48.3061C135.459 48.2329 135.746 48.1006 135.999 47.9166C136.251 47.7327 136.466 47.5007 136.629 47.2339C136.792 46.9671 136.901 46.6708 136.949 46.3619L137.613 42.1789C137.787 41.388 138.12 40.6408 138.592 39.9826C139.064 39.3244 139.665 38.7689 140.358 38.35L144.131 36.4244C144.409 36.2828 144.657 36.0875 144.859 35.8498C145.062 35.6121 145.215 35.3367 145.311 35.0395C145.407 34.7422 145.443 34.429 145.417 34.1178C145.391 33.8066 145.304 33.5037 145.16 33.2263L143.246 29.4527C142.912 28.7058 142.74 27.897 142.74 27.079C142.74 26.261 142.912 25.4522 143.246 24.7053L145.16 20.9427C145.303 20.6649 145.39 20.3613 145.415 20.0497C145.439 19.7382 145.402 19.4248 145.304 19.1279C145.104 18.531 144.685 18.0325 144.131 17.7335L140.358 15.8191C139.667 15.4003 139.067 14.8463 138.596 14.1903C138.124 13.5342 137.79 12.7896 137.613 12.0012L136.949 7.81814C136.904 7.50617 136.795 7.20682 136.629 6.93849C136.463 6.67017 136.245 6.43852 135.986 6.2578C135.476 5.88576 134.84 5.73061 134.216 5.82621L130.033 6.46806C129.219 6.54766 128.398 6.45799 127.621 6.20468C126.844 5.95138 126.128 5.53993 125.518 4.99624L122.53 2.04155C122.309 1.82111 122.047 1.64689 121.758 1.52908C121.469 1.41127 121.16 1.35224 120.848 1.35544C120.22 1.3597 119.618 1.60537 119.166 2.04155L116.178 5.02944C115.567 5.56751 114.852 5.97315 114.077 6.22077C113.301 6.46838 112.483 6.55258 111.674 6.46806L107.491 5.80408C107.182 5.75521 106.867 5.76769 106.563 5.84082C106.259 5.91394 105.972 6.04627 105.719 6.23024C105.466 6.41421 105.252 6.64621 105.089 6.91298C104.926 7.17975 104.817 7.47605 104.769 7.78494L104.105 12.0012C103.925 12.7958 103.585 13.5453 103.106 14.2038C102.626 14.8622 102.017 15.4157 101.316 15.8301L97.5423 17.7556C97.2647 17.8996 97.0182 18.0968 96.817 18.3361C96.6157 18.5753 96.4635 18.8519 96.3692 19.15C96.2714 19.445 96.2337 19.7566 96.2584 20.0665C96.2831 20.3763 96.3697 20.678 96.5131 20.9538L98.4276 24.7274C98.7611 25.4743 98.9335 26.2831 98.9335 27.1011C98.9335 27.9191 98.7611 28.7279 98.4276 29.4748L96.5131 33.2374C96.37 33.5152 96.2836 33.8188 96.2589 34.1303C96.2342 34.4419 96.2717 34.7553 96.3692 35.0522C96.5665 35.6478 96.9869 36.1436 97.5423 36.4355L101.316 38.361C102.019 38.7762 102.629 39.3312 103.109 39.9917C103.588 40.6523 103.927 41.4042 104.105 42.201L104.769 46.3841C104.816 46.6933 104.924 46.99 105.086 47.257C105.249 47.524 105.464 47.7559 105.717 47.9392C105.97 48.1225 106.258 48.2536 106.562 48.3248C106.867 48.396 107.182 48.4059 107.491 48.3539L111.674 47.6899C111.877 47.6789 112.08 47.6789 112.283 47.6899M120.87 53.223C120.138 53.2225 119.436 52.9367 118.911 52.4263L115.923 49.4384C115.358 48.9355 114.694 48.5558 113.974 48.3234C113.254 48.091 112.493 48.0109 111.74 48.0883L107.557 48.7523C106.834 48.8637 106.096 48.6841 105.505 48.2527C104.914 47.8213 104.518 47.1733 104.403 46.4505L103.739 42.2674C103.575 41.5278 103.26 40.8299 102.814 40.217C102.369 39.604 101.802 39.0891 101.15 38.7041L97.3873 36.7896C97.0619 36.6244 96.7723 36.3967 96.5349 36.1194C96.2976 35.8422 96.1172 35.5209 96.004 35.174C95.8905 34.8301 95.8466 34.467 95.8751 34.1059C95.9036 33.7449 96.0039 33.3932 96.17 33.0714L98.0845 29.3088C98.3945 28.6121 98.5546 27.8581 98.5546 27.0956C98.5546 26.333 98.3945 25.579 98.0845 24.8823L96.1922 21.0977C96.026 20.7759 95.9258 20.4241 95.8973 20.0631C95.8688 19.7021 95.9126 19.339 96.0262 18.9951C96.2535 18.2998 96.7469 17.7229 97.3984 17.3905L101.172 15.4649C101.829 15.0824 102.398 14.5668 102.844 13.9513C103.29 13.3358 103.603 12.6338 103.761 11.8905L104.425 7.70748C104.477 7.34563 104.6 6.99755 104.786 6.68336C104.973 6.36916 105.22 6.09508 105.513 5.87694C105.807 5.6588 106.14 5.50093 106.495 5.41245C106.849 5.32397 107.218 5.30663 107.579 5.36143L111.762 6.03647C112.516 6.11168 113.277 6.02952 113.997 5.79521C114.717 5.5609 115.381 5.17954 115.945 4.67532L118.933 1.68743C119.192 1.44 119.498 1.24616 119.832 1.11703C120.166 0.987894 120.523 0.92601 120.881 0.934925C121.614 0.930673 122.318 1.21722 122.84 1.7317L125.828 4.71959C126.393 5.22381 127.056 5.60516 127.776 5.83947C128.496 6.07378 129.257 6.15594 130.011 6.08074L134.194 5.36143C134.914 5.24654 135.651 5.422 136.242 5.84933C136.833 6.27667 137.231 6.92101 137.348 7.64108L138.012 11.8241C138.175 12.5657 138.489 13.2658 138.934 13.8807C139.38 14.4957 139.947 15.0123 140.601 15.3985L144.375 17.313C144.699 17.4784 144.987 17.7063 145.222 17.9836C145.458 18.2609 145.636 18.5821 145.747 18.9287C145.86 19.2726 145.904 19.6357 145.876 19.9967C145.847 20.3577 145.747 20.7095 145.581 21.0313L143.678 24.8381C143.368 25.5347 143.207 26.2888 143.207 27.0513C143.207 27.8138 143.368 28.5679 143.678 29.2646L145.592 33.0271C145.756 33.3497 145.856 33.7015 145.884 34.0624C145.912 34.4234 145.869 34.7864 145.757 35.1307C145.645 35.4749 145.466 35.7938 145.231 36.0689C144.996 36.3441 144.708 36.5702 144.386 36.7343L140.612 38.6598C139.957 39.0412 139.388 39.555 138.942 40.1685C138.496 40.7821 138.183 41.4818 138.023 42.2232L137.359 46.4062C137.244 47.129 136.848 47.777 136.257 48.2084C135.666 48.6398 134.928 48.8194 134.205 48.708L130.022 48.033C129.268 47.9577 128.507 48.0399 127.787 48.2742C127.067 48.5085 126.404 48.8899 125.839 49.3941L122.84 52.4152C122.315 52.9256 121.613 53.2115 120.881 53.212" fill="#045C50"/>
<path d="M113.478 46.6387C115.091 46.6526 116.652 47.2145 117.904 48.2322L119.797 49.9475C120.363 50.4632 121.11 50.734 121.875 50.7009C122.64 50.6677 123.361 50.3332 123.88 49.7704L125.606 47.8891C126.304 47.2081 127.135 46.6795 128.048 46.3366C128.96 45.9937 129.934 45.8441 130.907 45.8972L133.441 46.1849C133.819 46.2321 134.202 46.2015 134.568 46.0949C134.933 45.9883 135.273 45.8081 135.566 45.5652C135.872 45.3341 136.128 45.0433 136.318 44.7104C136.508 44.3775 136.629 44.0095 136.673 43.6286L136.96 41.0945C137.123 40.1299 137.484 39.2098 138.021 38.3924C138.558 37.5751 139.26 36.8785 140.081 36.347L142.294 35.0855C142.627 34.9021 142.92 34.6545 143.156 34.3571C143.392 34.0596 143.566 33.7182 143.669 33.3527C143.772 32.9871 143.801 32.6048 143.755 32.2279C143.709 31.8509 143.589 31.4869 143.401 31.1569L142.139 28.9437C141.702 28.0698 141.454 27.1139 141.41 26.1378C141.366 25.1617 141.528 24.1873 141.885 23.2778L142.936 20.9649C143.246 20.2601 143.266 19.4612 142.99 18.7421C142.715 18.023 142.166 17.4418 141.464 17.1249L139.14 16.0183C138.276 15.5668 137.516 14.9398 136.908 14.1776C136.3 13.4154 135.858 12.5347 135.61 11.5918L135.101 9.09082C134.931 8.34935 134.479 7.70331 133.841 7.29C133.202 6.8767 132.428 6.72874 131.682 6.87756L129.181 7.38661C128.222 7.51761 127.247 7.4517 126.314 7.19293C125.382 6.93416 124.512 6.48796 123.758 5.8816L121.877 4.15526C121.308 3.64026 120.558 3.37106 119.791 3.4063C119.024 3.44153 118.302 3.77835 117.782 4.34339L116.012 6.22465C115.312 6.90539 114.479 7.43382 113.564 7.77664C112.65 8.11946 111.675 8.26926 110.7 8.21658L108.265 7.92886C107.875 7.86526 107.474 7.88671 107.092 7.99175C106.711 8.09678 106.356 8.28293 106.052 8.5375C105.75 8.77168 105.496 9.06327 105.306 9.39558C105.116 9.72789 104.994 10.0944 104.946 10.4741L104.658 13.0083C104.505 13.9622 104.157 14.8743 103.635 15.6874C103.113 16.5006 102.429 17.1972 101.626 17.7336L99.4125 19.0062C99.0816 19.191 98.7909 19.4398 98.5572 19.738C98.3235 20.0363 98.1516 20.3782 98.0513 20.7436C97.9496 21.1126 97.9217 21.498 97.9692 21.8778C98.0167 22.2576 98.1386 22.6242 98.328 22.9568L99.6006 25.1701C100.025 26.0445 100.264 26.9975 100.302 27.9688C100.34 28.9402 100.177 29.9089 99.8219 30.8139L98.7817 33.1267C98.4685 33.8261 98.4426 34.6206 98.7096 35.3389C98.9766 36.0572 99.5152 36.6418 100.209 36.9667L102.544 38.0734C103.41 38.5232 104.171 39.1497 104.779 39.9121C105.387 40.6746 105.828 41.5562 106.074 42.4999L106.583 44.9898C106.657 45.3645 106.806 45.7203 107.021 46.036C107.236 46.3517 107.512 46.6207 107.834 46.8268C108.154 47.0451 108.516 47.1942 108.897 47.2647C109.278 47.3352 109.67 47.3255 110.047 47.2362L112.548 46.7383C112.87 46.6828 113.196 46.6568 113.522 46.6608M121.833 51.0873C121.015 51.0854 120.227 50.782 119.619 50.2352L117.694 48.5199C116.985 47.942 116.163 47.5185 115.28 47.2765C114.398 47.0345 113.475 46.9793 112.57 47.1145L110.08 47.6125C109.229 47.7866 108.343 47.6198 107.613 47.1477C106.888 46.6696 106.38 45.9268 106.196 45.0783L105.698 42.5773C105.462 41.6923 105.045 40.8657 104.473 40.1496C103.902 39.4335 103.189 38.8434 102.378 38.4164L100.065 37.3651C99.6737 37.1873 99.321 36.9338 99.0276 36.6192C98.7342 36.3046 98.5059 35.9351 98.3557 35.532C98.2056 35.1289 98.1366 34.7001 98.1527 34.2702C98.1688 33.8403 98.2698 33.4179 98.4497 33.0271L99.5563 30.7143C99.8873 29.8591 100.037 28.9446 99.9975 28.0285C99.9575 27.1124 99.7281 26.2145 99.3239 25.3914L98.0513 23.1782C97.8383 22.806 97.7013 22.3953 97.6481 21.9698C97.5949 21.5443 97.6266 21.1125 97.7415 20.6993C97.978 19.8674 98.5299 19.1607 99.2797 18.7295L101.493 17.4569C102.26 16.9606 102.916 16.3112 103.421 15.5496C103.926 14.7879 104.268 13.9303 104.425 13.0304L104.713 10.4962C104.814 9.64483 105.239 8.86525 105.901 8.32069C106.564 7.77614 107.411 7.50884 108.265 7.57474L110.8 7.86246C111.713 7.9123 112.627 7.77289 113.484 7.45297C114.341 7.13305 115.122 6.63952 115.779 6.00333L117.506 4.12206C117.795 3.80451 118.144 3.54731 118.533 3.36529C118.922 3.18326 119.343 3.08002 119.772 3.0615C120.201 3.04298 120.629 3.10956 121.032 3.2574C121.435 3.40524 121.805 3.63141 122.12 3.92287L124.002 5.63814C124.712 6.21446 125.534 6.63777 126.416 6.88152C127.297 7.12527 128.22 7.1842 129.125 7.05462L131.626 6.54558C132.476 6.38453 133.355 6.56157 134.077 7.03902C134.798 7.51647 135.305 8.25661 135.488 9.10188L135.986 11.5918C136.222 12.4789 136.638 13.3076 137.209 14.0257C137.781 14.7437 138.495 15.3355 139.306 15.7638L141.619 16.8151C142.401 17.1815 143.01 17.8384 143.316 18.6463C143.622 19.4541 143.601 20.3494 143.257 21.142L142.15 23.4548C141.812 24.3084 141.658 25.2238 141.698 26.1411C141.738 27.0584 141.971 27.9569 142.383 28.7777L143.644 30.991C143.863 31.3608 144.004 31.7717 144.057 32.1981C144.11 32.6246 144.075 33.0575 143.954 33.4698C143.843 33.8846 143.65 34.2728 143.385 34.6112C143.121 34.9496 142.791 35.2313 142.416 35.4396L140.203 36.7122C139.432 37.205 138.774 37.8533 138.269 38.6156C137.764 39.3779 137.424 40.2373 137.27 41.1387L136.982 43.684C136.884 44.5533 136.447 45.3487 135.765 45.8972C135.43 46.1677 135.043 46.3678 134.629 46.4857C134.214 46.6036 133.78 46.6368 133.353 46.5833L130.896 46.3067C129.982 46.2521 129.067 46.3893 128.209 46.7094C127.352 47.0296 126.571 47.5257 125.916 48.1658L124.201 50.0471C123.891 50.3755 123.517 50.6371 123.102 50.816C122.687 50.9948 122.24 51.0872 121.788 51.0873" fill="#026455"/>
<path d="M114.839 45.6759C116.607 45.6762 118.33 46.2338 119.763 47.2694L120.45 47.856C121.147 48.4306 122.045 48.7054 122.945 48.6204C123.845 48.5354 124.674 48.0974 125.252 47.4022L125.828 46.7161C126.596 45.8843 127.529 45.2215 128.567 44.7699C129.606 44.3184 130.727 44.088 131.859 44.0934H132.766C133.212 44.1197 133.658 44.0579 134.079 43.9117C134.501 43.7655 134.89 43.5377 135.223 43.2413C135.557 42.9483 135.828 42.59 136.018 42.1884C136.208 41.7868 136.314 41.3505 136.33 40.9063V39.9989C136.465 38.8774 136.83 37.7958 137.401 36.8211C137.972 35.8465 138.737 34.9996 139.649 34.333L140.413 33.8461C141.181 33.3666 141.728 32.6033 141.935 31.7223C142.142 30.8414 141.993 29.9143 141.52 29.1429L141.033 28.3793C140.482 27.3897 140.142 26.2969 140.033 25.1696C139.925 24.0422 140.05 22.9046 140.402 21.8281L140.723 20.9871C140.888 20.5707 140.97 20.1259 140.963 19.6781C140.956 19.2302 140.861 18.7881 140.683 18.377C140.505 17.9659 140.248 17.5939 139.927 17.2822C139.605 16.9705 139.225 16.7253 138.808 16.5606L137.967 16.2396C136.939 15.7659 136.02 15.0835 135.27 14.2357C134.519 13.388 133.953 12.3934 133.607 11.3151L133.386 10.4409C133.147 9.58897 132.587 8.86326 131.822 8.4172C131.058 7.97113 130.151 7.83967 129.291 8.0506L128.417 8.27192C127.304 8.49317 126.158 8.47949 125.051 8.23175C123.943 7.98401 122.9 7.50769 121.988 6.83331L121.302 6.25786C120.602 5.68204 119.703 5.40742 118.801 5.49429C117.906 5.58973 117.082 6.02555 116.499 6.71158L115.923 7.39769C115.157 8.23226 114.225 8.89689 113.186 9.34865C112.147 9.80041 111.025 10.0292 109.892 10.0204H108.985C108.087 9.9656 107.204 10.2679 106.528 10.8614C106.196 11.1582 105.926 11.5188 105.736 11.9219C105.546 12.325 105.439 12.7622 105.422 13.2075L105.366 14.1038C105.234 15.2264 104.871 16.3095 104.3 17.2847C103.729 18.2599 102.961 19.106 102.046 19.7698L101.283 20.2678C100.526 20.7576 99.9929 21.5267 99.8002 22.4075C99.6075 23.2883 99.7704 24.2096 100.254 24.9709L100.741 25.7345C101.292 26.7239 101.632 27.8167 101.741 28.9441C101.85 30.0716 101.724 31.2093 101.371 32.2857L101.05 33.1157C100.726 33.9572 100.745 34.8925 101.103 35.7204C101.461 36.5482 102.129 37.2024 102.965 37.5422L103.806 37.8631C104.835 38.3357 105.754 39.0177 106.505 39.8657C107.256 40.7136 107.822 41.7087 108.166 42.7876L108.376 43.6618C108.608 44.5329 109.173 45.2778 109.95 45.7355C110.726 46.1931 111.652 46.3268 112.526 46.1075L113.4 45.8862C113.888 45.781 114.385 45.7254 114.883 45.7202M122.63 49.04C121.75 49.0388 120.898 48.7339 120.217 48.1769L119.531 47.5904C118.665 46.956 117.677 46.5084 116.63 46.276C115.582 46.0436 114.497 46.0314 113.445 46.2403L112.581 46.4505C112.1 46.5772 111.598 46.6074 111.104 46.5396C110.611 46.4718 110.135 46.3072 109.706 46.0553C109.276 45.8034 108.9 45.4692 108.6 45.0718C108.3 44.6743 108.081 44.2215 107.956 43.7393L107.745 42.8651C107.418 41.8433 106.883 40.9005 106.172 40.0966C105.461 39.2927 104.592 38.6452 103.618 38.1951L102.732 37.841C102.266 37.6633 101.841 37.3933 101.481 37.0472C101.122 36.7012 100.836 36.2861 100.641 35.8269C100.264 34.8971 100.264 33.8573 100.641 32.9276L100.973 32.0976C101.309 31.0779 101.429 29.9994 101.327 28.9307C101.224 27.862 100.9 26.8263 100.375 25.8894L99.8884 25.1258C99.624 24.7052 99.4457 24.2362 99.364 23.746C99.2823 23.2559 99.2988 22.7544 99.4126 22.2708C99.629 21.2892 100.226 20.4335 101.072 19.8915L101.836 19.4046C102.697 18.7713 103.418 17.9665 103.954 17.0409C104.489 16.1153 104.827 15.0889 104.946 14.0264V13.1189C105.008 12.1185 105.465 11.1838 106.216 10.5199C106.967 9.856 107.951 9.51716 108.952 9.57774H109.859C110.933 9.58757 111.997 9.37204 112.983 8.94506C113.968 8.51808 114.853 7.88916 115.58 7.0989L116.156 6.41279C116.795 5.64001 117.714 5.15085 118.712 5.05164C119.207 5.00211 119.706 5.05197 120.181 5.1983C120.657 5.34464 121.098 5.58448 121.479 5.90374L122.176 6.49025C123.04 7.12313 124.026 7.56988 125.072 7.80226C126.118 8.03464 127.2 8.0476 128.251 7.84034L129.125 7.63008C129.607 7.5036 130.108 7.47347 130.601 7.54142C131.093 7.60938 131.568 7.77408 131.997 8.02604C132.425 8.27801 132.8 8.61228 133.1 9.00962C133.399 9.40696 133.616 9.85954 133.74 10.3413L133.961 11.2155C134.289 12.2506 134.831 13.2052 135.552 14.0173C136.272 14.8295 137.156 15.481 138.144 15.9298L138.974 16.2507C139.906 16.623 140.653 17.348 141.053 18.2681C141.453 19.1882 141.474 20.229 141.11 21.1641L140.789 21.9941C140.453 23.0138 140.333 24.0922 140.436 25.161C140.539 26.2297 140.862 27.2654 141.387 28.2023L141.874 28.9658C142.41 29.8152 142.588 30.8419 142.371 31.8223C142.153 32.8027 141.557 33.6574 140.712 34.2002L139.948 34.6871C139.077 35.3151 138.345 36.1175 137.8 37.0434C137.255 37.9693 136.909 38.9984 136.783 40.0653V40.9727C136.723 41.9731 136.269 42.9089 135.52 43.5748C134.771 44.2408 133.789 44.5825 132.788 44.525H131.881C130.808 44.5193 129.745 44.7367 128.76 45.1634C127.775 45.5901 126.89 46.2168 126.16 47.0039L125.573 47.69C125.217 48.1153 124.769 48.4546 124.263 48.6826C123.757 48.9106 123.206 49.0215 122.652 49.0068" fill="#006C5A"/>
<path d="M116.576 44.6799C118.254 44.662 119.899 45.1435 121.302 46.0632C122.065 46.6148 123.016 46.8416 123.947 46.694C124.408 46.6256 124.85 46.4649 125.247 46.2215C125.645 45.9781 125.989 45.657 126.259 45.2775C127.008 44.3665 127.937 43.6208 128.989 43.0874C130.04 42.5541 131.191 42.2447 132.368 42.1789C133.308 42.1789 134.21 41.8062 134.876 41.1424C135.542 40.4786 135.917 39.5779 135.92 38.6377C135.985 37.4581 136.297 36.3053 136.834 35.2532C137.372 34.2012 138.123 33.2733 139.041 32.5292C139.804 31.9771 140.316 31.1448 140.465 30.2152C140.615 29.2856 140.389 28.3347 139.838 27.5715C139.192 26.5818 138.76 25.4682 138.569 24.302C138.379 23.1358 138.434 21.9426 138.731 20.7989C139.024 19.9008 138.949 18.923 138.521 18.0805C138.094 17.238 137.349 16.5997 136.451 16.306C135.352 15.8806 134.353 15.2295 133.52 14.3947C132.687 13.5599 132.038 12.5598 131.615 11.459C131.329 10.5712 130.702 9.83303 129.873 9.40586C129.043 8.97869 128.078 8.89725 127.189 9.17934C126.049 9.47328 124.86 9.52668 123.697 9.33617C122.535 9.14565 121.425 8.71538 120.439 8.07271C119.675 7.52114 118.724 7.29435 117.794 7.44193C117.331 7.51012 116.887 7.67066 116.488 7.91401C116.089 8.15735 115.742 8.47853 115.47 8.85842C114.727 9.77619 113.801 10.5295 112.751 11.0705C111.702 11.6115 110.551 11.9285 109.372 12.0012C108.432 12.0012 107.53 12.374 106.864 13.0378C106.199 13.7015 105.823 14.6022 105.82 15.5424C105.752 16.7133 105.443 17.8576 104.912 18.9031C104.381 19.9487 103.639 20.873 102.733 21.6178C102.355 21.8919 102.036 22.2377 101.793 22.6355C101.55 23.0333 101.388 23.4752 101.316 23.9358C101.244 24.3964 101.263 24.8667 101.374 25.3197C101.484 25.7727 101.682 26.1994 101.958 26.5755C102.604 27.5652 103.036 28.6787 103.226 29.845C103.417 31.0112 103.362 32.2043 103.065 33.3481C102.78 34.2463 102.86 35.2202 103.286 36.0604C103.713 36.9005 104.451 37.5399 105.344 37.841C106.444 38.2664 107.443 38.9175 108.276 39.7523C109.108 40.5871 109.757 41.5872 110.18 42.688C110.467 43.5758 111.094 44.3139 111.923 44.7411C112.752 45.1683 113.717 45.2497 114.607 44.9676C115.258 44.7653 115.938 44.6681 116.621 44.6799M123.426 47.1145C122.598 47.1177 121.791 46.8538 121.125 46.362C120.183 45.759 119.127 45.3564 118.023 45.1793C116.918 45.0023 115.789 45.0545 114.706 45.3328C113.711 45.6538 112.63 45.5674 111.698 45.0924C110.767 44.6174 110.062 43.7925 109.737 42.7987C109.336 41.7529 108.72 40.8029 107.929 40.01C107.138 39.2171 106.19 38.5988 105.145 38.1951C104.653 38.0395 104.196 37.7871 103.803 37.4526C103.41 37.1181 103.087 36.7084 102.854 36.2474C102.387 35.3128 102.304 34.2327 102.622 33.2374C102.913 32.1555 102.975 31.0246 102.804 29.9173C102.632 28.81 102.231 27.7509 101.626 26.8079C101.318 26.3875 101.096 25.9102 100.974 25.4036C100.852 24.897 100.831 24.3711 100.913 23.8565C100.996 23.3418 101.179 22.8487 101.454 22.4055C101.728 21.9623 102.087 21.578 102.511 21.2748C103.378 20.5658 104.087 19.684 104.594 18.6856C105.101 17.6872 105.394 16.5941 105.455 15.476C105.466 14.4427 105.884 13.4553 106.616 12.7267C107.349 11.998 108.339 11.5865 109.372 11.5807C110.483 11.5224 111.57 11.2347 112.564 10.7357C113.558 10.2367 114.438 9.53726 115.149 8.68136C115.451 8.26366 115.833 7.91115 116.275 7.64494C116.716 7.37872 117.206 7.20429 117.716 7.13208C118.228 7.04921 118.75 7.06916 119.254 7.19077C119.757 7.31238 120.232 7.5332 120.649 7.84032C121.593 8.44363 122.65 8.84632 123.757 9.02337C124.863 9.20042 125.993 9.14804 127.078 8.86948C127.57 8.70919 128.089 8.64762 128.605 8.68832C129.12 8.72902 129.623 8.87118 130.084 9.10664C130.544 9.34211 130.954 9.66624 131.289 10.0604C131.624 10.4546 131.878 10.9111 132.036 11.4037C132.44 12.4484 133.058 13.3969 133.851 14.1879C134.644 14.979 135.594 15.595 136.64 15.9962C137.131 16.1565 137.587 16.4124 137.979 16.7492C138.372 17.086 138.694 17.497 138.928 17.9587C139.161 18.4204 139.301 18.9236 139.34 19.4395C139.378 19.9554 139.314 20.4738 139.152 20.9649C138.871 22.0491 138.817 23.1794 138.992 24.2855C139.168 25.3915 139.568 26.4498 140.17 27.3944C140.478 27.8148 140.699 28.2921 140.822 28.7987C140.944 29.3053 140.965 29.8312 140.882 30.3458C140.8 30.8605 140.616 31.3537 140.342 31.7968C140.068 32.24 139.708 32.6243 139.284 32.9275C138.416 33.6354 137.704 34.5168 137.195 35.5153C136.687 36.5137 136.392 37.6074 136.33 38.7263C136.327 39.7673 135.912 40.7648 135.176 41.5009C134.44 42.237 133.442 42.6519 132.401 42.6548C131.284 42.7157 130.191 43.0101 129.194 43.519C128.198 44.0279 127.318 44.74 126.614 45.6095C126.31 46.0254 125.927 46.3766 125.486 46.6427C125.045 46.9087 124.556 47.0841 124.046 47.1588C123.825 47.1588 123.604 47.1588 123.404 47.1588" fill="#04745F"/>
<path d="M118.624 43.54C119.98 43.5154 121.317 43.8556 122.497 44.5249C122.86 44.7543 123.266 44.9087 123.689 44.9791C124.113 45.0494 124.547 45.0342 124.965 44.9344C125.81 44.7375 126.545 44.2171 127.012 43.4847C127.636 42.5915 128.442 41.8401 129.376 41.2794C130.31 40.7188 131.352 40.3616 132.434 40.2312C133.297 40.1604 134.099 39.7552 134.667 39.1019C135.236 38.4485 135.527 37.5989 135.478 36.7343C135.467 35.6439 135.682 34.5632 136.109 33.5597C136.535 32.5562 137.164 31.6516 137.956 30.9024C138.614 30.3398 139.026 29.5425 139.105 28.6805C139.183 27.8185 138.922 26.9599 138.377 26.2877C137.719 25.4164 137.253 24.4158 137.009 23.3517C136.764 22.2875 136.748 21.1837 136.96 20.1127C137.16 19.2726 137.024 18.3878 136.582 17.6461C136.14 16.9044 135.426 16.3641 134.592 16.14C133.551 15.8213 132.588 15.2886 131.765 14.5758C130.941 13.8631 130.276 12.9861 129.812 12.0012C129.48 11.2039 128.851 10.5673 128.057 10.2265C127.264 9.88555 126.369 9.86718 125.562 10.1752C124.527 10.5242 123.431 10.6543 122.343 10.5571C121.256 10.4599 120.2 10.1377 119.243 9.61086C118.505 9.16049 117.62 9.01604 116.777 9.20825C115.934 9.40046 115.199 9.91416 114.728 10.64C114.104 11.5365 113.297 12.2909 112.361 12.8535C111.424 13.4161 110.379 13.7743 109.295 13.9046C108.432 13.9753 107.63 14.3806 107.062 15.0339C106.493 15.6872 106.202 16.5368 106.252 17.4015C106.266 18.4924 106.053 19.5744 105.626 20.5785C105.199 21.5825 104.568 22.4867 103.773 23.2334C103.117 23.7975 102.706 24.5956 102.63 25.4575C102.554 26.3195 102.817 27.1772 103.363 27.8481C104.019 28.7202 104.484 29.7212 104.726 30.7854C104.968 31.8495 104.983 32.9528 104.769 34.023C104.562 34.8653 104.693 35.755 105.134 36.5019C105.357 36.8679 105.651 37.1857 105.999 37.4365C106.347 37.6874 106.741 37.8662 107.159 37.9626C108.2 38.2882 109.162 38.8273 109.984 39.5457C110.805 40.264 111.467 41.1458 111.929 42.1346C112.258 42.9396 112.889 43.5833 113.688 43.9273C114.49 44.2534 115.387 44.2534 116.189 43.9273C116.971 43.6347 117.8 43.4921 118.635 43.5068M124.245 45.3549C123.565 45.3613 122.899 45.1648 122.331 44.7905C121.424 44.2981 120.425 43.9978 119.397 43.9083C118.369 43.8188 117.333 43.9421 116.355 44.2704C115.458 44.6365 114.453 44.6325 113.559 44.2592C112.665 43.8859 111.956 43.1737 111.585 42.2785C111.152 41.3404 110.525 40.505 109.745 39.8278C108.964 39.1505 108.049 38.6468 107.059 38.35C106.134 38.0982 105.342 37.4997 104.846 36.6789C104.596 36.2688 104.43 35.8129 104.358 35.338C104.285 34.863 104.309 34.3783 104.426 33.9124C104.622 32.8971 104.604 31.8521 104.373 30.8442C104.143 29.8362 103.705 28.8874 103.087 28.0583C102.47 27.3135 102.171 26.3555 102.256 25.3922C102.341 24.4289 102.803 23.5379 103.54 22.9125C104.299 22.2069 104.901 21.3497 105.307 20.3965C105.713 19.4433 105.914 18.4153 105.897 17.3794C105.864 16.9019 105.926 16.4226 106.078 15.9689C106.23 15.5151 106.471 15.0959 106.785 14.7351C107.1 14.3743 107.482 14.0791 107.911 13.8664C108.34 13.6536 108.806 13.5274 109.284 13.4951C110.309 13.3662 111.296 13.0251 112.182 12.4935C113.068 11.9619 113.833 11.2515 114.43 10.4076C114.954 9.59687 115.777 9.02578 116.719 8.81855C117.662 8.61132 118.649 8.78471 119.465 9.301C120.371 9.79405 121.37 10.0947 122.398 10.1842C123.427 10.2737 124.462 10.1501 125.44 9.82112C125.884 9.64288 126.359 9.55387 126.837 9.5592C127.316 9.56452 127.788 9.66406 128.228 9.85214C128.668 10.0402 129.067 10.3131 129.401 10.6553C129.735 10.9974 129.999 11.4021 130.177 11.8462C130.612 12.7831 131.24 13.6175 132.02 14.2945C132.8 14.9716 133.714 15.476 134.703 15.7748C135.641 16.0128 136.447 16.6111 136.946 17.4399C137.446 18.2686 137.598 19.2609 137.37 20.2013C137.174 21.2165 137.192 22.2615 137.422 23.2695C137.653 24.2774 138.091 25.2263 138.709 26.0553C139.326 26.8001 139.624 27.7581 139.539 28.7214C139.454 29.6848 138.993 30.5758 138.255 31.2011C137.498 31.908 136.897 32.7655 136.491 33.7184C136.085 34.6713 135.883 35.6986 135.898 36.7343C135.932 37.2117 135.872 37.6912 135.72 38.1451C135.568 38.599 135.327 39.0184 135.013 39.3791C134.701 39.7439 134.319 40.0417 133.889 40.2548C133.459 40.4678 132.991 40.5915 132.512 40.6185C131.488 40.7456 130.501 41.086 129.617 41.6178C128.733 42.1497 127.97 42.861 127.377 43.706C127.121 44.1121 126.786 44.4631 126.393 44.7386C126 45.0141 125.556 45.2085 125.086 45.3106C124.817 45.3901 124.537 45.4274 124.256 45.4213" fill="#077D64"/>
<path d="M120.726 42.3449C121.772 42.3286 122.809 42.548 123.758 42.9867C124.466 43.3521 125.29 43.4221 126.049 43.1815C126.808 42.9409 127.441 42.4093 127.809 41.703C128.326 40.8355 129.016 40.084 129.837 39.4956C130.657 38.9073 131.591 38.4946 132.578 38.2836C133.364 38.1608 134.069 37.7323 134.539 37.0917C135.01 36.4511 135.208 35.6503 135.09 34.8641C135.002 33.8644 135.121 32.8572 135.439 31.9053C135.757 30.9534 136.267 30.0771 136.938 29.3309C137.501 28.7649 137.817 27.999 137.817 27.2007C137.817 26.4024 137.501 25.6365 136.938 25.0704C136.267 24.3156 135.761 23.4281 135.454 22.4654C135.147 21.5027 135.046 20.4863 135.157 19.482C135.229 19.0829 135.22 18.6732 135.13 18.2776C135.041 17.882 134.872 17.5087 134.634 17.18C134.396 16.8513 134.095 16.574 133.747 16.3649C133.4 16.1557 133.013 16.019 132.611 15.9629C131.625 15.7456 130.695 15.3241 129.881 14.7256C129.067 14.1272 128.388 13.365 127.886 12.4881C127.527 11.7778 126.903 11.2373 126.149 10.9831C125.773 10.8561 125.376 10.8054 124.981 10.834C124.586 10.8625 124.2 10.9696 123.847 11.1491C122.923 11.557 121.924 11.7678 120.914 11.7678C119.905 11.7678 118.906 11.557 117.982 11.1491C117.291 10.7738 116.481 10.6824 115.724 10.8946C115.345 11.008 114.993 11.1981 114.691 11.4532C114.388 11.7083 114.141 12.0229 113.965 12.3774C113.452 13.2459 112.764 13.9983 111.945 14.587C111.126 15.1756 110.193 15.5876 109.206 15.7969C108.421 15.9197 107.716 16.3481 107.245 16.9888C106.775 17.6294 106.577 18.4302 106.694 19.2164C106.782 20.2161 106.663 21.223 106.345 22.1748C106.027 23.1266 105.517 24.003 104.846 24.7495C104.567 25.0281 104.345 25.3593 104.193 25.7239C104.042 26.0885 103.964 26.4794 103.964 26.8742C103.964 27.2691 104.042 27.66 104.193 28.0246C104.345 28.3892 104.567 28.7203 104.846 28.999C105.515 29.7579 106.017 30.6478 106.322 31.612C106.627 32.5762 106.727 33.5933 106.617 34.5985C106.5 35.3772 106.69 36.171 107.148 36.8117C107.376 37.1344 107.668 37.4076 108.004 37.6149C108.341 37.8222 108.716 37.9593 109.107 38.018C110.095 38.2497 111.023 38.6867 111.832 39.3006C112.64 39.9145 113.31 40.6915 113.799 41.5813C113.975 41.9341 114.219 42.2486 114.518 42.5069C114.816 42.7651 115.162 42.962 115.536 43.0863C116.294 43.34 117.121 43.2843 117.838 42.9314C118.742 42.5271 119.725 42.3269 120.715 42.3449M125.075 43.706C124.534 43.6986 124.001 43.5701 123.515 43.3298C122.643 42.9476 121.701 42.7503 120.748 42.7503C119.796 42.7503 118.854 42.9476 117.982 43.3298C117.587 43.5372 117.154 43.6628 116.709 43.6992C116.265 43.7355 115.817 43.6819 115.393 43.5414C114.97 43.4009 114.579 43.1765 114.244 42.8815C113.909 42.5866 113.638 42.2272 113.445 41.8248C112.977 40.9953 112.342 40.2719 111.58 39.7005C110.818 39.129 109.946 38.7219 109.018 38.5049C108.576 38.4371 108.152 38.2807 107.771 38.0448C107.391 37.809 107.062 37.4988 106.805 37.1327C106.283 36.4066 106.068 35.504 106.207 34.6206C106.309 33.6739 106.214 32.7164 105.928 31.8081C105.643 30.8998 105.173 30.0602 104.547 29.342C104.233 29.0285 103.983 28.6559 103.813 28.2457C103.643 27.8356 103.555 27.3958 103.555 26.9517C103.555 26.5076 103.643 26.0678 103.813 25.6577C103.983 25.2475 104.233 24.8749 104.547 24.5614C105.183 23.8566 105.666 23.0275 105.965 22.1265C106.264 21.2255 106.373 20.2723 106.285 19.327C106.152 18.4393 106.376 17.5349 106.91 16.8128C107.443 16.0906 108.241 15.6098 109.129 15.476C110.059 15.2782 110.939 14.8901 111.712 14.3359C112.485 13.7816 113.136 13.0734 113.622 12.2557C113.819 11.8492 114.097 11.4873 114.439 11.1921C114.781 10.8969 115.18 10.6746 115.611 10.5389C116.042 10.4032 116.496 10.3569 116.946 10.4028C117.395 10.4487 117.831 10.5859 118.225 10.806C119.098 11.1882 120.04 11.3855 120.992 11.3855C121.944 11.3855 122.886 11.1882 123.758 10.806C124.157 10.6077 124.591 10.4899 125.036 10.4595C125.48 10.4292 125.926 10.4867 126.348 10.629C126.77 10.7643 127.161 10.9829 127.498 11.2718C127.834 11.5607 128.109 11.9141 128.307 12.311C128.773 13.1422 129.407 13.8669 130.169 14.4386C130.931 15.0103 131.805 15.4164 132.733 15.6309C133.176 15.6987 133.6 15.8551 133.98 16.091C134.36 16.3268 134.689 16.637 134.946 17.0031C135.207 17.3635 135.395 17.772 135.497 18.205C135.6 18.638 135.616 19.087 135.544 19.5262C135.447 20.4719 135.545 21.4274 135.833 22.3335C136.12 23.2397 136.591 24.0771 137.215 24.7938C137.536 25.1035 137.792 25.4748 137.966 25.8855C138.141 26.2962 138.231 26.7378 138.231 27.1841C138.231 27.6304 138.141 28.072 137.966 28.4827C137.792 28.8934 137.536 29.2647 137.215 29.5744C136.58 30.2796 136.097 31.1088 135.798 32.0096C135.499 32.9105 135.39 33.8636 135.478 34.8088C135.543 35.2493 135.521 35.6985 135.413 36.1305C135.304 36.5625 135.111 36.9686 134.844 37.3256C134.578 37.6826 134.243 37.9833 133.86 38.2104C133.477 38.4374 133.053 38.5864 132.611 38.6487C131.691 38.8543 130.823 39.2473 130.062 39.8033C129.3 40.3592 128.661 41.0662 128.185 41.8801C127.897 42.4296 127.464 42.89 126.934 43.2118C126.404 43.5335 125.795 43.7044 125.175 43.706" fill="#05886A"/>
<path d="M115.813 12.466C115.258 12.464 114.716 12.63 114.258 12.9421C113.8 13.2542 113.447 13.6978 113.245 14.2145C112.848 15.0628 112.279 15.8195 111.574 16.4366C110.869 17.0538 110.044 17.518 109.151 17.8C108.451 17.9855 107.85 18.435 107.475 19.054C107.099 19.673 106.978 20.4134 107.137 21.1198C107.318 22.0403 107.305 22.9887 107.097 23.9037C106.889 24.8187 106.492 25.6799 105.931 26.4316C105.462 26.9968 105.235 27.724 105.299 28.4553C105.364 29.1866 105.714 29.8631 106.274 30.338C106.956 30.9785 107.499 31.7538 107.867 32.6148C108.234 33.4758 108.419 34.4038 108.409 35.34C108.361 36.0705 108.604 36.7905 109.085 37.3423C109.566 37.894 110.246 38.2325 110.977 38.2836C111.908 38.397 112.806 38.7036 113.612 39.1838C114.418 39.664 115.115 40.3072 115.658 41.0723C116.047 41.689 116.665 42.1269 117.376 42.2906C118.087 42.4543 118.833 42.3307 119.453 41.9465C120.272 41.4923 121.176 41.2144 122.108 41.1305C123.04 41.0466 123.979 41.1588 124.865 41.4596C125.548 41.721 126.307 41.7066 126.98 41.4196C127.653 41.1327 128.188 40.5955 128.472 39.9214C128.876 39.0706 129.452 38.3134 130.165 37.6979C130.878 37.0824 131.711 36.6224 132.611 36.347C133.312 36.164 133.914 35.7146 134.288 35.0944C134.662 34.4742 134.779 33.7324 134.614 33.0271C134.438 32.1057 134.455 31.1576 134.664 30.2432C134.874 29.3287 135.271 28.4678 135.832 27.7153C136.3 27.1501 136.527 26.423 136.463 25.6916C136.398 24.9603 136.048 24.2838 135.489 23.8089C134.806 23.1685 134.263 22.3932 133.896 21.5322C133.528 20.6712 133.343 19.7432 133.353 18.807C133.401 18.0765 133.158 17.3565 132.677 16.8047C132.196 16.253 131.516 15.9145 130.785 15.8634C129.849 15.7599 128.944 15.4612 128.131 14.9866C127.317 14.512 126.611 13.8719 126.06 13.1079C125.668 12.4873 125.047 12.0471 124.331 11.8833C123.616 11.7195 122.865 11.8454 122.242 12.2336C121.424 12.6878 120.52 12.9658 119.588 13.0497C118.656 13.1335 117.717 13.0214 116.831 12.7205C116.506 12.5951 116.161 12.5276 115.813 12.5213M118.026 42.7986C117.788 42.804 117.55 42.7817 117.318 42.7322C116.507 42.5432 115.803 42.0422 115.359 41.3379C114.846 40.6158 114.187 40.0099 113.424 39.5599C112.662 39.1099 111.812 38.8258 110.932 38.7263C110.104 38.6722 109.331 38.2927 108.782 37.6708C108.232 37.0488 107.951 36.2348 108 35.4064C108.03 34.519 107.872 33.6353 107.536 32.8133C107.201 31.9913 106.695 31.2496 106.052 30.6368C105.42 30.0977 105.024 29.3324 104.95 28.5049C104.875 27.6774 105.128 26.8536 105.654 26.2103C106.17 25.5026 106.534 24.6961 106.725 23.8412C106.915 22.9863 106.927 22.1014 106.76 21.2416C106.559 20.4331 106.686 19.5779 107.113 18.8625C107.54 18.1472 108.233 17.6299 109.04 17.4237C109.875 17.1653 110.647 16.7369 111.307 16.1655C111.968 15.5942 112.504 14.8922 112.88 14.1038C113.195 13.3319 113.801 12.7153 114.568 12.3879C115.335 12.0605 116.199 12.0488 116.975 12.3553C117.805 12.6318 118.684 12.7343 119.556 12.6562C120.428 12.5781 121.275 12.3213 122.043 11.9016C122.749 11.4608 123.601 11.3181 124.412 11.5048C125.224 11.6915 125.928 12.1924 126.37 12.8976C126.884 13.6177 127.543 14.2214 128.306 14.6695C129.069 15.1176 129.917 15.3999 130.796 15.4982C131.625 15.5523 132.398 15.9317 132.947 16.5536C133.496 17.1756 133.777 17.9896 133.729 18.818C133.719 19.6973 133.893 20.569 134.24 21.377C134.587 22.185 135.099 22.9116 135.743 23.5101C136.379 24.0461 136.779 24.811 136.856 25.6394C136.932 26.4678 136.68 27.2931 136.152 27.9366C135.637 28.6424 135.272 29.447 135.082 30.3001C134.892 31.1531 134.879 32.0363 135.046 32.8943C135.247 33.7028 135.12 34.558 134.693 35.2734C134.266 35.9887 133.573 36.506 132.766 36.7122C131.933 36.9724 131.161 37.4015 130.501 37.9726C129.84 38.5438 129.304 39.2448 128.926 40.0321C128.775 40.4159 128.548 40.7654 128.259 41.06C127.97 41.3546 127.625 41.5884 127.244 41.7474C126.862 41.9062 126.452 41.988 126.038 41.988C125.624 41.988 125.214 41.9062 124.832 41.7474C124.002 41.4655 123.122 41.3602 122.25 41.4384C121.377 41.5165 120.53 41.7763 119.763 42.2011C119.252 42.4993 118.673 42.6595 118.081 42.6658" fill="#088F6F"/>
<path d="M113.079 38.4385C113.92 38.479 114.743 38.6857 115.503 39.0466C116.263 39.4075 116.944 39.9155 117.506 40.5411C117.931 41.0689 118.548 41.407 119.222 41.4816C119.896 41.5562 120.572 41.3614 121.103 40.9395C121.814 40.4327 122.624 40.0803 123.479 39.905C124.335 39.7297 125.218 39.7352 126.071 39.9214C126.723 40.0958 127.416 40.0125 128.008 39.689C128.314 39.5317 128.585 39.3145 128.806 39.0503C129.026 38.786 129.192 38.4801 129.292 38.1508C129.575 37.3236 130.026 36.5637 130.617 35.9183C131.207 35.2729 131.924 34.7558 132.722 34.3993C133.04 34.2814 133.331 34.1016 133.578 33.8703C133.825 33.639 134.024 33.3608 134.163 33.0519C134.302 32.743 134.379 32.4095 134.388 32.0709C134.397 31.7323 134.338 31.3953 134.216 31.0794C133.96 30.2463 133.878 29.3694 133.975 28.5033C134.073 27.6371 134.347 26.8002 134.78 26.0443C135.155 25.4775 135.289 24.7854 135.155 24.1196C135.02 23.4537 134.627 22.8685 134.061 22.492C133.359 21.9686 132.775 21.3046 132.344 20.5424C131.913 19.7802 131.646 18.9367 131.56 18.0655C131.529 17.3883 131.23 16.7512 130.731 16.293C130.231 15.8348 129.571 15.5928 128.893 15.6199C128.021 15.6064 127.16 15.4127 126.366 15.0509C125.572 14.689 124.861 14.1669 124.279 13.5173C123.853 12.9895 123.236 12.6514 122.562 12.5768C121.889 12.5021 121.213 12.697 120.682 13.1189C119.968 13.6208 119.159 13.9702 118.304 14.1454C117.449 14.3206 116.567 14.3177 115.713 14.137C115.06 13.9563 114.362 14.041 113.772 14.3726C113.181 14.7043 112.745 15.256 112.559 15.9076C112.285 16.7557 111.835 17.5363 111.238 18.1982C110.641 18.86 109.911 19.388 109.096 19.7476C108.781 19.865 108.492 20.0438 108.247 20.2737C108.002 20.5036 107.805 20.7799 107.668 21.0866C107.524 21.395 107.443 21.7291 107.43 22.0692C107.416 22.4094 107.471 22.7488 107.591 23.0675C107.851 23.8995 107.936 24.7764 107.841 25.6429C107.745 26.5094 107.472 27.3469 107.037 28.1026C106.847 28.3791 106.717 28.692 106.654 29.0215C106.591 29.3511 106.597 29.6901 106.672 30.0171C106.741 30.3477 106.874 30.6615 107.063 30.9407C107.253 31.2198 107.496 31.4587 107.779 31.6438C108.478 32.1692 109.062 32.8336 109.492 33.5954C109.923 34.3572 110.191 35.1999 110.28 36.0703C110.311 36.7455 110.608 37.381 111.105 37.8389C111.602 38.2967 112.26 38.54 112.936 38.516H113.102M119.542 41.8801C119.428 41.8901 119.313 41.8901 119.199 41.8801C118.814 41.8345 118.442 41.7132 118.104 41.5233C117.766 41.3334 117.469 41.0786 117.229 40.7735C116.684 40.1668 116.019 39.6796 115.276 39.3425C114.534 39.0054 113.729 38.8257 112.913 38.8148C112.528 38.8341 112.144 38.7767 111.781 38.646C111.418 38.5153 111.085 38.3139 110.801 38.0534C110.517 37.7929 110.287 37.4786 110.126 37.1287C109.964 36.7788 109.873 36.4002 109.859 36.015C109.773 35.2085 109.521 34.4285 109.119 33.7239C108.718 33.0193 108.174 32.4053 107.524 31.9205C107.198 31.7089 106.919 31.4329 106.704 31.1093C106.489 30.7858 106.343 30.4216 106.274 30.0392C106.194 29.6608 106.191 29.2704 106.263 28.8906C106.335 28.5108 106.482 28.1489 106.694 27.826C107.104 27.1238 107.363 26.3434 107.452 25.5351C107.542 24.7269 107.461 23.9088 107.214 23.1339C106.941 22.4044 106.969 21.5966 107.29 20.8872C107.612 20.1779 108.201 19.6248 108.93 19.3492C109.678 19.0255 110.35 18.5463 110.899 17.9434C111.449 17.3406 111.864 16.6277 112.117 15.8523C112.219 15.4809 112.394 15.1334 112.63 14.8295C112.867 14.5256 113.161 14.2714 113.496 14.0813C113.831 13.8912 114.201 13.7689 114.583 13.7215C114.965 13.6741 115.353 13.7025 115.724 13.805C116.52 13.9768 117.343 13.9819 118.141 13.82C118.939 13.6581 119.695 13.3327 120.361 12.8644C120.973 12.3844 121.75 12.1651 122.523 12.2542C123.295 12.3433 124.002 12.7335 124.489 13.3402C125.037 13.9428 125.703 14.4272 126.445 14.764C127.187 15.1007 127.99 15.2828 128.805 15.2989C129.19 15.2796 129.575 15.337 129.937 15.4677C130.3 15.5984 130.633 15.7998 130.917 16.0603C131.201 16.3208 131.431 16.6351 131.593 16.985C131.754 17.3349 131.845 17.7135 131.859 18.0987C131.942 18.9091 132.193 19.6934 132.595 20.402C132.996 21.1106 133.541 21.7281 134.194 22.2154C134.516 22.4277 134.794 22.7017 135.01 23.0215C135.227 23.3413 135.378 23.7008 135.455 24.0791C135.532 24.4575 135.534 24.8474 135.46 25.2264C135.386 25.6054 135.238 25.9661 135.024 26.2877C134.614 26.9899 134.355 27.7703 134.266 28.5786C134.176 29.3868 134.257 30.2049 134.504 30.9798C134.773 31.7109 134.743 32.5187 134.419 33.2274C134.096 33.9362 133.506 34.4887 132.777 34.7645C132.032 35.0883 131.363 35.5663 130.816 36.1672C130.269 36.768 129.855 37.478 129.601 38.2504C129.384 39.0085 128.874 39.6492 128.185 40.0321C127.852 40.2202 127.485 40.3405 127.105 40.386C126.725 40.4316 126.34 40.4016 125.972 40.2976C125.176 40.1252 124.353 40.1198 123.555 40.2817C122.757 40.4436 122.001 40.7693 121.335 41.2383C120.821 41.6535 120.181 41.88 119.52 41.8801" fill="#1F9A74"/>
<path d="M115.547 38.4939C116.962 38.506 118.327 39.0197 119.398 39.9436C119.846 40.3686 120.441 40.6055 121.058 40.6055C121.676 40.6055 122.27 40.3686 122.718 39.9436C123.312 39.3989 124.011 38.9815 124.772 38.7169C125.534 38.4524 126.341 38.3464 127.145 38.4054C127.768 38.4916 128.4 38.3286 128.904 37.9516C129.405 37.5717 129.738 37.0123 129.834 36.3913C129.989 35.5891 130.314 34.8291 130.785 34.1614C131.256 33.4937 131.863 32.9336 132.567 32.5181C132.837 32.3678 133.074 32.165 133.264 31.9218C133.454 31.6785 133.593 31.3996 133.674 31.1016C133.863 30.5036 133.807 29.8548 133.519 29.2978C133.173 28.5564 132.987 27.7504 132.974 26.9324C132.961 26.1144 133.12 25.3027 133.441 24.5504C133.716 23.9808 133.754 23.3256 133.546 22.7283C133.339 22.131 132.903 21.6402 132.335 21.3633C131.654 20.939 131.067 20.3809 130.608 19.7227C130.15 19.0645 129.83 18.32 129.668 17.5344C129.554 16.915 129.205 16.3637 128.694 15.9962C128.176 15.6329 127.535 15.4896 126.912 15.5978C126.101 15.6923 125.278 15.6172 124.497 15.3772C123.716 15.1371 122.994 14.7374 122.375 14.2034C121.928 13.7759 121.334 13.5374 120.715 13.5374C120.097 13.5374 119.502 13.7759 119.055 14.2034C118.453 14.7561 117.743 15.178 116.97 15.4428C116.196 15.7075 115.377 15.8093 114.562 15.7417C113.942 15.6572 113.314 15.8202 112.814 16.1954C112.563 16.3811 112.352 16.6146 112.193 16.8824C112.033 17.1502 111.928 17.4471 111.884 17.7557C111.725 18.5595 111.399 19.3211 110.929 19.9919C110.458 20.6626 109.852 21.2277 109.151 21.651C108.613 21.9524 108.216 22.4533 108.044 23.0454C107.866 23.6456 107.925 24.2917 108.21 24.8492C108.553 25.5914 108.738 26.3971 108.751 27.2147C108.764 28.0323 108.606 28.8436 108.288 29.5966C108.15 29.8784 108.07 30.1846 108.051 30.4975C108.032 30.8105 108.076 31.124 108.178 31.4202C108.281 31.7164 108.442 31.9893 108.65 32.2233C108.859 32.4573 109.112 32.6477 109.394 32.7837C110.106 33.1874 110.726 33.7341 111.215 34.3892C111.705 35.0444 112.053 35.7939 112.238 36.5905C112.355 37.2086 112.703 37.7588 113.212 38.1287C113.706 38.4724 114.307 38.6257 114.905 38.5603C115.132 38.5185 115.361 38.5 115.591 38.505M121.125 40.9949C120.409 41.0006 119.72 40.7219 119.21 40.2202C118.634 39.7303 117.964 39.3636 117.241 39.1428C116.517 38.922 115.756 38.8518 115.005 38.9365C114.647 38.9997 114.281 38.99 113.927 38.9083C113.574 38.8265 113.24 38.6743 112.947 38.4607C112.361 38.0377 111.963 37.4022 111.84 36.6901C111.671 35.9536 111.349 35.2609 110.895 34.6566C110.442 34.0523 109.866 33.55 109.206 33.1821C108.55 32.858 108.048 32.2879 107.81 31.5958C107.571 30.9037 107.616 30.1454 107.934 29.486C108.228 28.7833 108.374 28.0275 108.362 27.2658C108.351 26.5041 108.182 25.753 107.867 25.0594C107.694 24.7405 107.587 24.3903 107.551 24.0293C107.515 23.6683 107.551 23.3037 107.657 22.9569C107.875 22.2579 108.36 21.6732 109.007 21.3301C109.654 20.9346 110.213 20.4102 110.649 19.7896C111.085 19.169 111.389 18.4654 111.541 17.7225C111.645 17.0012 112.031 16.3505 112.614 15.9129C113.197 15.4753 113.929 15.2864 114.651 15.3875C115.406 15.4549 116.166 15.3626 116.883 15.1166C117.6 14.8707 118.257 14.4766 118.812 13.96C119.328 13.4437 120.029 13.1537 120.759 13.1537C121.49 13.1537 122.19 13.4437 122.707 13.96C123.28 14.4546 123.95 14.8242 124.674 15.0452C125.398 15.2662 126.161 15.3338 126.912 15.2437C127.628 15.1263 128.362 15.2915 128.958 15.7043C129.555 16.1172 129.968 16.7455 130.11 17.4569C130.268 18.1806 130.571 18.8647 131.001 19.4677C131.431 20.0707 131.979 20.5801 132.611 20.9649C133.268 21.289 133.77 21.8591 134.008 22.5512C134.246 23.2434 134.202 24.0016 133.884 24.6611C133.586 25.3627 133.438 26.119 133.449 26.8813C133.46 27.6437 133.631 28.3952 133.95 29.0876C134.294 29.7297 134.37 30.4814 134.163 31.1796C133.956 31.8777 133.482 32.4661 132.844 32.8169C132.203 33.2027 131.647 33.7145 131.209 34.3212C130.772 34.928 130.462 35.6171 130.299 36.347C130.25 36.7054 130.13 37.0506 129.947 37.3625C129.764 37.6744 129.521 37.9468 129.231 38.164C128.942 38.3812 128.613 38.5388 128.262 38.6278C127.911 38.7167 127.547 38.7351 127.189 38.682C126.434 38.6174 125.674 38.7111 124.958 38.9569C124.241 39.2027 123.584 39.5953 123.028 40.1096C122.771 40.375 122.463 40.5855 122.123 40.7282C121.782 40.8708 121.416 40.9428 121.047 40.9395" fill="#2BA379"/>
<path d="M118.225 38.2172C119.3 38.2081 120.353 38.5118 121.258 39.0914C121.731 39.4239 122.315 39.558 122.886 39.4649C123.457 39.3719 123.969 39.059 124.312 38.5934C124.788 38.0146 125.377 37.5386 126.043 37.1943C126.709 36.85 127.437 36.6445 128.185 36.5904C128.771 36.588 129.332 36.3532 129.745 35.9375C129.952 35.7345 130.114 35.4912 130.223 35.2228C130.331 34.9544 130.383 34.6666 130.376 34.3772C130.416 33.6181 130.614 32.8757 130.957 32.1974C131.3 31.519 131.78 30.9197 132.368 30.4376C132.833 30.091 133.144 29.5755 133.233 29.0022C133.322 28.4289 133.182 27.8436 132.844 27.3722C132.44 26.7404 132.171 26.0316 132.055 25.2906C131.939 24.5497 131.978 23.7927 132.169 23.0675C132.342 22.5131 132.29 21.913 132.025 21.3964C131.894 21.1367 131.714 20.9053 131.493 20.7154C131.273 20.5255 131.017 20.3809 130.741 20.2898C130.029 20.0194 129.382 19.6017 128.842 19.0639C128.303 18.5261 127.882 17.8805 127.61 17.1691C127.421 16.6197 127.023 16.1665 126.503 15.9076C125.982 15.6429 125.377 15.5952 124.821 15.7748C124.087 15.9789 123.318 16.0233 122.566 15.905C121.814 15.7866 121.096 15.5082 120.461 15.0887C119.988 14.7557 119.405 14.6207 118.834 14.7124C118.546 14.7538 118.27 14.8537 118.023 15.006C117.776 15.1582 117.562 15.3596 117.395 15.5977C116.911 16.1726 116.313 16.6413 115.639 16.9745C114.965 17.3077 114.229 17.4983 113.478 17.5343C112.891 17.5343 112.328 17.7675 111.913 18.1826C111.498 18.5976 111.265 19.1606 111.265 19.7476C111.222 20.5077 111.024 21.2509 110.681 21.9307C110.338 22.6104 109.859 23.2122 109.273 23.6982C108.809 24.0465 108.501 24.5627 108.414 25.1359C108.327 25.7091 108.469 26.2936 108.808 26.7636C109.222 27.4014 109.498 28.1188 109.618 28.8698C109.738 29.6208 109.7 30.3885 109.505 31.1237C109.417 31.3983 109.385 31.6879 109.412 31.9751C109.438 32.2622 109.523 32.5411 109.66 32.7947C109.791 33.0544 109.972 33.2859 110.192 33.4758C110.412 33.6656 110.668 33.8103 110.944 33.9013C111.656 34.1693 112.303 34.5849 112.843 35.1209C113.382 35.6568 113.803 36.301 114.076 37.0109C114.258 37.5632 114.651 38.0214 115.168 38.2865C115.686 38.5516 116.287 38.6022 116.842 38.4274C117.27 38.2664 117.725 38.1912 118.181 38.2061M122.497 39.8771C121.955 39.8763 121.427 39.7018 120.992 39.3791C120.399 39.009 119.738 38.7623 119.048 38.654C118.357 38.5456 117.652 38.5777 116.975 38.7484C116.336 38.9414 115.648 38.8784 115.055 38.5727C114.462 38.267 114.012 37.7426 113.799 37.1105C113.538 36.4584 113.146 35.8668 112.647 35.3719C112.148 34.8771 111.554 34.4896 110.899 34.2333C110.241 34.0244 109.691 33.5628 109.372 32.9496C109.217 32.65 109.123 32.3229 109.094 31.9868C109.066 31.6507 109.104 31.3123 109.206 30.9909C109.385 30.313 109.419 29.605 109.307 28.913C109.194 28.2209 108.938 27.5603 108.553 26.9738C108.165 26.4161 107.999 25.7332 108.089 25.0594C108.136 24.7221 108.252 24.3981 108.429 24.1071C108.606 23.816 108.84 23.5639 109.118 23.3662C109.652 22.9185 110.089 22.3668 110.403 21.7447C110.717 21.1226 110.901 20.4431 110.944 19.7476C110.947 19.0655 111.217 18.4118 111.698 17.9275C112.178 17.4431 112.829 17.1668 113.511 17.1581C114.206 17.1162 114.886 16.9315 115.506 16.6154C116.127 16.2993 116.676 15.8587 117.119 15.3211C117.314 15.0436 117.564 14.8091 117.853 14.632C118.142 14.455 118.465 14.3392 118.801 14.2919C119.134 14.2373 119.475 14.2493 119.803 14.3272C120.132 14.4051 120.442 14.5473 120.715 14.7456C121.312 15.117 121.977 15.3642 122.671 15.4726C123.365 15.581 124.073 15.5483 124.754 15.3764C125.074 15.2676 125.412 15.2243 125.748 15.249C126.085 15.2737 126.413 15.366 126.713 15.5203C127.32 15.8252 127.782 16.3584 127.997 17.0031C128.256 17.6563 128.648 18.2488 129.147 18.7439C129.646 19.2389 130.241 19.6258 130.896 19.8804C131.543 20.1015 132.081 20.5605 132.401 21.1641C132.714 21.7477 132.79 22.4296 132.612 23.0675C132.433 23.7448 132.398 24.452 132.509 25.1437C132.619 25.8354 132.873 26.4964 133.253 27.0845C133.649 27.6432 133.819 28.3311 133.729 29.01C133.625 29.6832 133.259 30.2879 132.711 30.6921C132.171 31.1412 131.729 31.6958 131.411 32.3218C131.094 32.9479 130.907 33.6322 130.863 34.3329C130.863 35.0159 130.593 35.6712 130.112 36.1562C129.632 36.6412 128.979 36.9166 128.296 36.9224C127.597 36.9649 126.914 37.152 126.291 37.4721C125.668 37.7921 125.119 38.238 124.677 38.7816C124.434 39.1217 124.113 39.3994 123.742 39.5917C123.371 39.7841 122.959 39.8857 122.541 39.8882" fill="#37AB7E"/>
<path d="M120.87 37.5643C121.576 37.5503 122.277 37.6979 122.917 37.9959C123.152 38.1187 123.409 38.1936 123.673 38.2164C123.937 38.2392 124.203 38.2094 124.455 38.1286C124.961 37.9618 125.382 37.6046 125.629 37.1327C125.984 36.5222 126.463 35.9924 127.035 35.5771C127.606 35.1618 128.258 34.8699 128.948 34.7202C129.478 34.6359 129.952 34.345 130.267 33.9115C130.583 33.4779 130.713 32.937 130.63 32.4074C130.559 31.7018 130.635 30.989 130.854 30.3145C131.073 29.64 131.43 29.0186 131.903 28.4899C132.092 28.3035 132.243 28.0813 132.346 27.8362C132.448 27.5912 132.501 27.3281 132.501 27.0624C132.501 26.7967 132.448 26.5336 132.346 26.2885C132.243 26.0434 132.092 25.8212 131.903 25.6348C131.429 25.1073 131.07 24.486 130.851 23.8112C130.632 23.1364 130.557 22.4231 130.63 21.7174C130.673 21.4549 130.663 21.1867 130.601 20.9281C130.54 20.6694 130.428 20.4256 130.271 20.2106C130.115 19.9956 129.917 19.8136 129.69 19.6753C129.463 19.537 129.211 19.4449 128.948 19.4045C128.259 19.2517 127.609 18.9586 127.038 18.5436C126.466 18.1285 125.987 17.6004 125.629 16.9921C125.508 16.7565 125.342 16.5472 125.14 16.3761C124.939 16.2051 124.705 16.0757 124.453 15.9954C124.201 15.9152 123.935 15.8856 123.672 15.9086C123.408 15.9315 123.152 16.0064 122.917 16.1289C122.268 16.4136 121.568 16.5605 120.859 16.5605C120.15 16.5605 119.45 16.4136 118.801 16.1289C118.323 15.8923 117.774 15.8448 117.262 15.9961C116.755 16.1598 116.333 16.5179 116.089 16.9921C115.734 17.6026 115.255 18.1323 114.683 18.5477C114.112 18.963 113.46 19.2548 112.77 19.4045C112.505 19.447 112.252 19.5412 112.024 19.6817C111.796 19.8223 111.598 20.0063 111.442 20.2234C111.283 20.4345 111.169 20.6762 111.108 20.9333C111.047 21.1905 111.04 21.4574 111.087 21.7174C111.159 22.4229 111.083 23.1357 110.864 23.8103C110.645 24.4848 110.288 25.1062 109.815 25.6348C109.625 25.8212 109.475 26.0434 109.372 26.2885C109.27 26.5336 109.217 26.7967 109.217 27.0624C109.217 27.3281 109.27 27.5912 109.372 27.8362C109.475 28.0813 109.625 28.3035 109.815 28.4899C110.289 29.0175 110.648 29.6387 110.867 30.3135C111.086 30.9884 111.161 31.7017 111.087 32.4074C111.043 32.6692 111.052 32.9372 111.113 33.1957C111.173 33.4541 111.285 33.6978 111.442 33.9124C111.763 34.3431 112.239 34.6326 112.77 34.7202C113.459 34.8731 114.109 35.1662 114.68 35.5812C115.251 35.9962 115.731 36.5243 116.089 37.1327C116.209 37.3685 116.374 37.5782 116.575 37.7492C116.777 37.9203 117.01 38.0493 117.262 38.1286C117.514 38.2119 117.781 38.243 118.045 38.2202C118.31 38.1974 118.567 38.121 118.801 37.9959C119.45 37.7001 120.157 37.5527 120.87 37.5643ZM123.836 38.5934C123.454 38.5935 123.076 38.5105 122.729 38.35C122.137 38.087 121.496 37.9512 120.848 37.9512C120.2 37.9512 119.559 38.087 118.967 38.35C118.682 38.4914 118.372 38.5749 118.055 38.5957C117.738 38.6166 117.42 38.5743 117.12 38.4714C116.819 38.3684 116.542 38.2069 116.305 37.9961C116.067 37.7853 115.873 37.5294 115.735 37.2433C115.406 36.6861 114.966 36.2022 114.443 35.8215C113.919 35.4409 113.324 35.1715 112.692 35.0301C112.383 34.9812 112.086 34.8708 111.82 34.7054C111.554 34.5401 111.324 34.3231 111.143 34.0673C110.954 33.8125 110.818 33.5229 110.742 33.2152C110.666 32.9075 110.652 32.5878 110.7 32.2746C110.767 31.6332 110.703 30.9849 110.513 30.3687C110.323 29.7526 110.01 29.1812 109.593 28.6891C109.369 28.4679 109.191 28.2042 109.07 27.9136C108.948 27.6229 108.885 27.311 108.885 26.996C108.885 26.6792 108.948 26.3656 109.069 26.0731C109.191 25.7806 109.369 25.5151 109.593 25.2918C110.014 24.8017 110.329 24.2306 110.519 23.6139C110.709 22.9971 110.771 22.3479 110.7 21.7063C110.649 21.3931 110.663 21.0728 110.739 20.7648C110.815 20.4567 110.952 20.1672 111.143 19.9136C111.322 19.6565 111.552 19.4385 111.818 19.273C112.085 19.1075 112.382 18.9979 112.692 18.9508C113.324 18.8094 113.919 18.54 114.443 18.1594C114.966 17.7787 115.406 17.2948 115.735 16.7376C116.038 16.1984 116.531 15.7918 117.119 15.5977C117.419 15.4996 117.736 15.4618 118.051 15.4865C118.367 15.5111 118.674 15.5978 118.956 15.7416C119.548 16.0045 120.189 16.1404 120.837 16.1404C121.485 16.1404 122.126 16.0045 122.718 15.7416C122.998 15.5982 123.303 15.5116 123.617 15.4869C123.93 15.4622 124.245 15.4999 124.544 15.5977C124.851 15.6884 125.136 15.8413 125.382 16.0469C125.628 16.2525 125.828 16.5064 125.972 16.7929C126.303 17.3481 126.744 17.8304 127.267 18.2107C127.79 18.5911 128.384 18.8617 129.015 19.0061C129.327 19.0545 129.627 19.1645 129.897 19.3296C130.167 19.4947 130.401 19.7116 130.586 19.9679C130.771 20.2242 130.904 20.5147 130.976 20.8226C131.048 21.1305 131.059 21.4497 131.007 21.7616C130.943 22.4029 131.008 23.0504 131.198 23.6661C131.388 24.2818 131.699 24.8533 132.113 25.3471C132.338 25.5694 132.516 25.8339 132.638 26.1255C132.759 26.4171 132.822 26.7299 132.822 27.0458C132.822 27.3617 132.759 27.6745 132.638 27.9661C132.516 28.2576 132.338 28.5222 132.113 28.7445C131.694 29.2348 131.379 29.806 131.189 30.4226C130.999 31.0393 130.937 31.6884 131.007 32.3299C131.103 32.9587 130.948 33.6001 130.575 34.1156C130.202 34.6311 129.642 34.9794 129.015 35.0854C128.384 35.2299 127.79 35.5005 127.267 35.8808C126.744 36.2612 126.303 36.7435 125.972 37.2987C125.683 37.8653 125.181 38.2949 124.577 38.4938C124.336 38.5595 124.086 38.593 123.836 38.5934Z" fill="#43BA82"/>
<path d="M128.495 29.2203L128.163 29.1097C127.6 28.9415 127.013 28.8631 126.426 28.8773C124.675 28.9282 122.964 29.411 121.446 30.2827C121.154 28.1892 121.099 26.0697 121.28 23.9639C121.776 24.2749 122.2 24.6887 122.522 25.1774C122.845 25.6661 123.059 26.2183 123.15 26.7968L123.227 27.0292V26.7968C123.327 26.185 123.279 25.5582 123.086 24.9689C122.894 24.3797 122.563 23.8452 122.121 23.4105C122.449 23.4245 122.771 23.5114 123.061 23.6651C123.856 24.0482 124.524 24.6512 124.987 25.4025L125.131 25.6127V25.3471C125.015 24.6137 124.693 23.9282 124.204 23.37C123.714 22.8118 123.076 22.4038 122.364 22.1933C122.364 22.1933 123.061 21.6842 125.075 22.3371L125.252 22.3925L125.131 22.2486C124.715 21.8036 124.189 21.4754 123.607 21.2967C123.024 21.1181 122.405 21.0953 121.811 21.2305C122.065 20.8288 122.405 20.4887 122.807 20.2345L122.984 20.1128H122.752C122.106 20.1636 121.5 20.4466 121.047 20.9096C121.031 20.5875 120.964 20.27 120.848 19.9689C120.743 20.273 120.676 20.589 120.649 20.9096C120.192 20.4515 119.589 20.1693 118.945 20.1128H118.712L118.889 20.2345C119.295 20.4834 119.636 20.8247 119.885 21.2305C119.291 21.0975 118.673 21.1214 118.091 21.3C117.509 21.4785 116.983 21.8054 116.565 22.2486L116.433 22.3925L116.621 22.3371C118.624 21.6731 119.321 22.1601 119.332 22.1933C118.62 22.4038 117.982 22.8118 117.492 23.37C117.003 23.9282 116.681 24.6137 116.565 25.3471L116.51 25.6127L116.654 25.4025C117.116 24.6547 117.78 24.0525 118.568 23.6651C118.864 23.5125 119.188 23.4257 119.52 23.4105C119.078 23.8452 118.747 24.3797 118.554 24.9689C118.362 25.5582 118.314 26.185 118.414 26.7968V27.0292L118.491 26.7968C118.586 26.2211 118.801 25.6716 119.121 25.1837C119.441 24.6958 119.86 24.2803 120.35 23.9639C120.519 26.0698 120.467 28.1876 120.195 30.2827C118.676 29.411 116.966 28.9282 115.215 28.8773H115.138C114.575 28.861 114.014 28.9396 113.478 29.1097L113.146 29.2203H113.489C115.814 29.168 118.099 29.8368 120.029 31.1348C119.988 31.1802 119.94 31.2177 119.885 31.2455C119.066 31.832 117.163 33.2042 116.222 33.2042C116.07 33.2028 115.917 33.1843 115.769 33.1489L115.592 33.0935L115.735 33.2595C115.836 33.3975 115.968 33.5103 116.119 33.589C116.271 33.6677 116.439 33.7102 116.61 33.7132C117.716 33.7132 119.354 32.6066 120.317 31.9316L120.771 31.6328L121.247 31.9316C122.198 32.6066 123.792 33.7132 124.954 33.7132C125.125 33.7102 125.292 33.6677 125.444 33.589C125.596 33.5103 125.727 33.3975 125.828 33.2595L125.972 33.0935L125.784 33.1489C125.635 33.1864 125.483 33.2049 125.33 33.2042C124.389 33.2042 122.486 31.832 121.678 31.2455C121.624 31.2177 121.575 31.1802 121.534 31.1348C123.461 29.8383 125.742 29.1696 128.063 29.2203H128.495Z" fill="#045C50"/>
</g>
</g>
</g>
<defs>
<clipPath id="clip0_2_473">
<rect width="145" height="55.11" fill="white" transform="translate(0.906738 0.934937)"/>
</clipPath>
<clipPath id="clip1_2_473">
<rect width="145" height="55.11" fill="white" transform="translate(0.906738 0.934937)"/>
</clipPath>
<clipPath id="clip2_2_473">
<rect width="144.968" height="55.11" fill="white" transform="translate(0.922852 0.934937)"/>
</clipPath>
</defs>
</svg>
