<svg width="110" height="65" viewBox="0 0 110 65" fill="none" xmlns="http://www.w3.org/2000/svg">
<g clip-path="url(#clip0_2_462)">
<g clip-path="url(#clip1_2_462)">
<path d="M28.9933 56.0886H28.957L27.0997 52.4281H26.2793V57.1976H26.6307V53.3129H26.6849L28.6684 57.1993H28.8308L30.7873 53.2858H30.8144V57.1993H31.6169V52.4297H30.8144L28.9933 56.0886ZM32.6809 53.6519V57.1955H33.4114V53.4445H33.1948L32.6809 53.6519ZM33.3394 51.7404C33.3015 51.703 33.2549 51.6754 33.204 51.6592C33.0989 51.6229 32.9841 51.6229 32.8791 51.6592C32.8292 51.6774 32.7833 51.7049 32.7437 51.7404C32.7087 51.7754 32.6783 51.8147 32.6533 51.8574C32.6051 51.9478 32.6051 52.0555 32.6533 52.146C32.6782 52.1888 32.7085 52.2277 32.7437 52.2629C32.7816 52.3003 32.8282 52.3279 32.8791 52.3442C32.9841 52.3804 33.0989 52.3804 33.204 52.3442C33.2549 52.3279 33.3015 52.3003 33.3394 52.2629C33.3773 52.2304 33.4076 52.1904 33.4298 52.146C33.478 52.0555 33.478 51.9478 33.4298 51.8574C33.4048 51.8147 33.3744 51.7754 33.3394 51.7404ZM37.1082 53.7694C37.0283 53.6696 36.9266 53.5894 36.8109 53.5349C36.6988 53.4786 36.5759 53.4477 36.4503 53.4445C36.1947 53.4453 35.9435 53.5105 35.7198 53.634C35.4579 53.7788 35.223 53.9679 35.0256 54.1928V53.5295H34.2935V57.2085H35.024V54.4766C35.1047 54.397 35.1922 54.3245 35.2855 54.26L35.5563 54.0889C35.6408 54.0466 35.7285 54.0104 35.8178 53.9806C35.8969 53.9568 35.9792 53.9443 36.0615 53.9443C36.1419 53.9421 36.2217 53.958 36.2951 53.9908C36.3685 54.0236 36.4335 54.0725 36.4855 54.1338C36.6043 54.2916 36.662 54.487 36.6479 54.684V57.1998H37.38V54.5578C37.3795 54.4105 37.3551 54.2643 37.308 54.1246C37.2675 53.9948 37.2 53.875 37.1098 53.7732M38.913 51.7442C38.8751 51.7068 38.8286 51.6792 38.7777 51.663C38.6726 51.6267 38.5578 51.6267 38.4528 51.663C38.4029 51.6812 38.3569 51.7087 38.3174 51.7442C38.28 51.7767 38.2492 51.8167 38.2275 51.8611C38.1793 51.9516 38.1793 52.0593 38.2275 52.1498C38.2524 52.1925 38.2827 52.2315 38.3174 52.2667C38.3553 52.3041 38.4019 52.3317 38.4528 52.348C38.5578 52.3842 38.6726 52.3842 38.7777 52.348C38.8286 52.3317 38.8751 52.3041 38.913 52.2667C38.948 52.2318 38.9784 52.1925 39.0035 52.1498C39.0517 52.0593 39.0517 51.9516 39.0035 51.8611C38.9814 51.8165 38.9507 51.7768 38.913 51.7442ZM38.2632 53.6557V57.1993H38.9937V53.4483H38.7771L38.2632 53.6557ZM42.1225 55.4589C42.0171 55.3685 41.9022 55.2899 41.7797 55.2244L41.3828 55.0349L40.9859 54.8638C40.867 54.8129 40.7524 54.7526 40.6431 54.6834C40.5494 54.6228 40.4671 54.5464 40.3994 54.4582C40.3377 54.3748 40.3058 54.273 40.309 54.1696C40.31 54.1027 40.3287 54.0373 40.3632 53.98C40.3989 53.9186 40.4481 53.8662 40.5072 53.8268C40.5757 53.7783 40.6518 53.7417 40.7325 53.7185C40.8262 53.692 40.9236 53.6795 41.0211 53.6822C41.2177 53.6806 41.4099 53.7402 41.5713 53.8533C41.7646 53.9865 41.9249 54.1625 42.0402 54.3672L42.3109 54.1235C42.2167 53.9968 42.1111 53.8793 41.9953 53.7721C41.9043 53.6876 41.8009 53.6178 41.6888 53.5647C41.5882 53.5182 41.4821 53.4849 41.3731 53.4656C41.2597 53.4473 41.1451 53.4382 41.0303 53.4385C40.8595 53.4384 40.6896 53.4627 40.5256 53.5106C40.3816 53.5587 40.2473 53.6319 40.1287 53.7272C40.0199 53.8161 39.9308 53.9268 39.8672 54.0521C39.7502 54.3125 39.7469 54.6098 39.8579 54.8724C39.9112 54.989 39.9878 55.0933 40.0832 55.1789C40.1791 55.2693 40.2847 55.3479 40.3989 55.4134L40.7595 55.6029L41.1202 55.774C41.2305 55.8248 41.3361 55.8851 41.4359 55.9543C41.5241 56.0155 41.6 56.0913 41.6611 56.1796C41.7173 56.2684 41.7456 56.3719 41.7424 56.4769C41.7424 56.5467 41.724 56.615 41.6882 56.6751C41.653 56.7417 41.6037 56.8002 41.5442 56.8462C41.4804 56.8991 41.4068 56.9388 41.3276 56.9632C41.2372 56.9929 41.1429 57.0081 41.0482 57.0081C40.948 57.0097 40.8478 56.9978 40.7509 56.9718C40.6583 56.9426 40.57 56.9003 40.4893 56.8457C40.3984 56.7818 40.3139 56.7093 40.237 56.6291C40.1444 56.5278 40.0599 56.419 39.9847 56.3042L39.6874 56.5749C39.7846 56.7047 39.8966 56.8228 40.0209 56.9269C40.126 57.0103 40.2413 57.0801 40.3637 57.1343C40.4742 57.1798 40.589 57.2128 40.7065 57.2334C40.8169 57.2512 40.9285 57.2599 41.04 57.2604C41.251 57.2654 41.4614 57.2348 41.6622 57.17C41.8242 57.1234 41.9747 57.0436 42.1041 56.9355C42.2189 56.8413 42.3088 56.7206 42.3656 56.5836C42.4225 56.4466 42.4539 56.2993 42.4561 56.1504C42.4604 56.0096 42.429 55.8704 42.3656 55.7448C42.3004 55.6362 42.2181 55.5387 42.122 55.4562M44.7997 56.7558C44.7331 56.7996 44.654 56.8218 44.5744 56.8191C44.5219 56.8197 44.4699 56.8105 44.4212 56.792C44.3724 56.7736 44.3297 56.7482 44.295 56.7108C44.2598 56.6746 44.2322 56.6317 44.2138 56.5847C44.1954 56.5359 44.1862 56.4839 44.1867 56.4314V53.8322H45.0152V53.5295H44.1856V52.2673H43.9782L43.8521 52.799C43.8099 52.9559 43.743 53.1051 43.6539 53.2409C43.5732 53.3665 43.4612 53.4689 43.329 53.5382C43.1725 53.6156 42.9987 53.653 42.8243 53.6465V53.8268H43.4643V56.426C43.4649 56.5446 43.48 56.6626 43.5093 56.7774C43.5321 56.8772 43.5785 56.9701 43.6447 57.0482C43.7051 57.1223 43.7823 57.181 43.8699 57.2193C43.9719 57.2652 44.0831 57.2867 44.1948 57.2821C44.4056 57.2903 44.6147 57.2404 44.7991 57.1381C44.9583 57.039 45.0915 56.9025 45.1869 56.7411L45.0065 56.615L44.7991 56.759M47.7833 53.5761C47.7276 53.536 47.6669 53.5024 47.603 53.477C47.5308 53.4511 47.4544 53.4388 47.3778 53.4407C47.2781 53.4391 47.179 53.4607 47.0891 53.5041C46.9892 53.5491 46.8953 53.6066 46.8097 53.6752C46.7193 53.7494 46.6348 53.8306 46.5574 53.9188C46.4724 54.0098 46.3971 54.1095 46.3321 54.2161V53.5187H45.6016V57.1976H46.3321V54.6461C46.379 54.5682 46.4302 54.493 46.4854 54.4208C46.5319 54.357 46.5831 54.2967 46.6386 54.2405C46.6798 54.1934 46.7285 54.1539 46.7827 54.1235C46.826 54.0964 46.8756 54.081 46.9267 54.0786C46.9792 54.0764 47.0312 54.0856 47.0799 54.1057L47.2061 54.1598C47.2495 54.1844 47.2948 54.2055 47.3415 54.2232C47.4054 54.2437 47.4725 54.253 47.5397 54.2502C47.6495 54.2592 47.7588 54.2269 47.8462 54.1598C47.8831 54.1255 47.912 54.0834 47.9307 54.0366C47.9494 53.9898 47.9575 53.9394 47.9545 53.8891C47.9534 53.8292 47.938 53.7706 47.9095 53.718C47.8722 53.6654 47.8299 53.6172 47.7833 53.5734M50.2992 56.1791L48.8745 53.5257H48.0476L49.932 57.033L49.6883 57.5832L49.5892 57.7998C49.5546 57.876 49.5123 57.9486 49.4631 58.0164C49.4183 58.0792 49.3634 58.1341 49.3006 58.1788C49.2433 58.2211 49.1737 58.2434 49.1024 58.2422C49.0442 58.2442 48.9861 58.235 48.9313 58.2151C48.8864 58.1972 48.8501 58.1788 48.8144 58.161C48.777 58.1393 48.738 58.1209 48.6974 58.1068C48.6395 58.0868 48.5783 58.0776 48.5171 58.0797C48.4548 58.0776 48.3931 58.09 48.3368 58.116C48.2853 58.1353 48.239 58.1663 48.2014 58.2064C48.1662 58.2449 48.1359 58.2871 48.111 58.3326C48.0925 58.3816 48.0833 58.4335 48.0839 58.4859C48.0849 58.5457 48.1004 58.6044 48.1288 58.657C48.1586 58.7122 48.2019 58.7588 48.255 58.7923C48.3145 58.8296 48.3781 58.86 48.4445 58.8828C48.5182 58.9012 48.5939 58.9103 48.6698 58.9099C48.79 58.9109 48.9091 58.8898 49.0212 58.847C49.1464 58.8 49.2646 58.7362 49.3727 58.6575C49.4941 58.5632 49.6032 58.454 49.6975 58.3326C49.8075 58.1886 49.8984 58.031 49.9683 57.8637L51.8435 53.5447H51.4558L50.2992 56.1791ZM57.5482 53.9703C57.3688 53.8053 57.1612 53.674 56.9352 53.5826C56.6878 53.4873 56.4251 53.4385 56.1598 53.4385C55.8945 53.4385 55.6302 53.4894 55.3844 53.5918C55.1518 53.6871 54.9427 53.8318 54.7714 54.0158C54.5996 54.1969 54.4622 54.4077 54.3658 54.638C54.268 54.8814 54.219 55.1418 54.2218 55.4042C54.218 55.6549 54.2673 55.904 54.3658 56.1347C54.4627 56.3567 54.6003 56.5587 54.7714 56.7303C54.9456 56.9042 55.1545 57.0394 55.3844 57.1272C55.6308 57.2269 55.8945 57.2756 56.1598 57.2713C56.4268 57.274 56.6916 57.2187 56.9352 57.1088C57.1652 57.0047 57.3733 56.8577 57.5482 56.6756C57.9089 56.2895 58.106 55.7789 58.0984 55.2509C58.1022 55.0083 58.0529 54.7685 57.9543 54.547C57.8596 54.3293 57.7215 54.1327 57.5488 53.9697M57.206 56.1607C57.1647 56.3195 57.0944 56.4693 56.9986 56.6025C56.9168 56.7238 56.8091 56.8256 56.6829 56.9003C56.5632 56.9729 56.4257 57.0103 56.286 57.0086C56.0975 57.0103 55.9129 56.9572 55.7542 56.8554C55.5934 56.7471 55.458 56.6058 55.3573 56.4406C55.2424 56.2513 55.16 56.0441 55.1136 55.8276C55.0547 55.5792 55.0244 55.3249 55.0232 55.0695C55.0216 54.8919 55.049 54.7152 55.1044 54.5464C55.1552 54.394 55.2249 54.2484 55.3118 54.1132C55.393 53.9969 55.4973 53.8987 55.6183 53.8246C55.7257 53.7549 55.8509 53.7173 55.9789 53.7163C56.1912 53.7054 56.4018 53.7588 56.5833 53.8696C56.7476 53.9692 56.8841 54.1087 56.9802 54.2752C57.0874 54.4631 57.1635 54.6672 57.2054 54.8795C57.2535 55.126 57.2776 55.3766 57.2775 55.6278C57.2769 55.8076 57.2526 55.9863 57.2054 56.1596M61.3712 51.8135C61.2699 51.7528 61.1606 51.7074 61.0463 51.6781C60.9046 51.6434 60.7589 51.6283 60.6131 51.6332C60.4302 51.6316 60.2491 51.6685 60.0814 51.7415C59.9168 51.8116 59.7691 51.9161 59.6482 52.048C59.522 52.1806 59.424 52.3366 59.3595 52.5077C59.2873 52.6883 59.2506 52.8812 59.2512 53.0757V53.5089H58.485V53.8154H59.2512V57.1873H59.9817V53.8165H60.9645V53.51H59.9817V52.6355C59.9801 52.544 59.992 52.4525 60.018 52.3647C60.0413 52.2813 60.0778 52.2021 60.1263 52.1303C60.166 52.0634 60.2219 52.0076 60.2887 51.9678C60.3495 51.9254 60.4221 51.9032 60.4961 51.9045C60.575 51.8996 60.6534 51.9185 60.7214 51.9586C60.7694 51.9913 60.8094 52.0344 60.8384 52.0848C60.8649 52.1395 60.886 52.1969 60.9017 52.2559C60.9174 52.3148 60.9386 52.3721 60.9651 52.427C60.9884 52.4785 61.0263 52.5223 61.0734 52.5532C61.1347 52.5934 61.2076 52.6124 61.2808 52.6073C61.3301 52.6079 61.3791 52.5987 61.4248 52.5803C61.4696 52.5672 61.51 52.5423 61.5418 52.5082C61.5786 52.4806 61.6068 52.4427 61.623 52.3999C61.6415 52.354 61.6507 52.3049 61.6501 52.2554C61.6495 52.1687 61.6246 52.0842 61.5781 52.0117C61.5228 51.9326 61.453 51.8649 61.3712 51.8135ZM66.9882 54.5995H64.5904V52.4265H63.7879V57.196H64.5904V54.906H66.9887V57.196H67.7912V52.4265H66.9887L66.9882 54.5995ZM71.8119 56.1504C71.7258 56.2619 71.6223 56.3594 71.5054 56.439C71.3837 56.5245 71.2499 56.5913 71.1085 56.6372C70.9614 56.6918 70.8056 56.7193 70.6487 56.7184C70.4668 56.7184 70.2875 56.6751 70.1256 56.5922C69.9637 56.5023 69.8224 56.3794 69.7108 56.2316C69.587 56.0667 69.4952 55.8801 69.4401 55.6814C69.374 55.4594 69.3405 55.2282 69.341 54.9964H72.0821C72.0851 54.795 72.0452 54.5953 71.9651 54.4105C71.8872 54.2251 71.7739 54.0566 71.6316 53.9145C71.4825 53.77 71.3083 53.6539 71.1177 53.5717C70.6633 53.3941 70.157 53.4039 69.7098 53.5988C69.4905 53.6947 69.2961 53.8398 69.1417 54.0228C68.98 54.2152 68.8547 54.4353 68.7719 54.6726C68.6827 54.9367 68.64 55.2143 68.6457 55.493C68.6429 55.7321 68.6921 55.9689 68.7898 56.1872C68.8807 56.4 69.0123 56.5933 69.1775 56.7552C69.34 56.9178 69.533 57.0466 69.7455 57.1343C69.9682 57.2287 70.2076 57.2777 70.4495 57.2783C70.6438 57.2773 70.8364 57.2406 71.0175 57.17C71.2016 57.0991 71.3749 57.0021 71.5314 56.8814C71.6873 56.7552 71.827 56.6096 71.9462 56.4482C72.0604 56.2868 72.146 56.107 72.1985 55.9164L71.9911 55.8266C71.9487 55.9438 71.8878 56.0535 71.8108 56.1515M69.4482 54.3104C69.496 54.1975 69.5631 54.0937 69.6464 54.0039C69.7238 53.9194 69.8154 53.8495 69.9172 53.7965C70.0146 53.7462 70.1232 53.7214 70.2329 53.7244C70.3596 53.725 70.4852 53.7494 70.6027 53.7965C70.7151 53.8443 70.8163 53.9149 70.9 54.0039C70.9895 54.0924 71.0573 54.2005 71.0982 54.3196C71.1453 54.4436 71.1697 54.5746 71.1702 54.7073H69.3399C69.3586 54.5708 69.395 54.4374 69.4482 54.3104ZM75.2997 53.706C75.1802 53.6118 75.0419 53.5442 74.8941 53.5079C74.5063 53.4148 74.1023 53.4116 73.7131 53.4986C73.5494 53.5375 73.3917 53.5982 73.2441 53.679C73.1211 53.7499 73.0112 53.8414 72.9192 53.9497C72.8421 54.0472 72.8008 54.1682 72.8023 54.2925C72.8018 54.3506 72.8109 54.4085 72.8293 54.4636C72.8455 54.5145 72.8733 54.5608 72.9106 54.599C72.9447 54.6389 72.988 54.6699 73.0367 54.6894C73.0849 54.7111 73.1369 54.723 73.19 54.7257C73.2528 54.7268 73.3151 54.7116 73.3703 54.6807C73.4147 54.6542 73.4521 54.6168 73.4786 54.5724C73.5059 54.5251 73.5243 54.4732 73.5328 54.4192C73.5436 54.3564 73.5495 54.293 73.5506 54.2297C73.5507 54.1597 73.5598 54.09 73.5777 54.0223C73.5949 53.9565 73.6257 53.8951 73.6681 53.842C73.7164 53.7851 73.7785 53.7416 73.8484 53.7158C73.9464 53.6799 74.0508 53.6646 74.1549 53.6708C74.2559 53.6711 74.3562 53.6863 74.4528 53.7158C74.541 53.7441 74.6192 53.7973 74.678 53.869C74.7452 53.9508 74.7945 54.0461 74.8221 54.1484C74.8578 54.2868 74.873 54.4297 74.867 54.5724V54.7977L74.3623 54.9331C74.1912 54.9775 74.0228 55.0322 73.8577 55.0955C73.6925 55.1589 73.542 55.2309 73.3979 55.3029C73.2615 55.3782 73.1342 55.4692 73.0189 55.5737C72.9117 55.6711 72.8228 55.787 72.7573 55.9164C72.6472 56.1647 72.6375 56.4459 72.7303 56.7011C72.7741 56.8088 72.8386 56.9068 72.9198 56.9897C73.0063 57.0729 73.107 57.14 73.2171 57.1879C73.3405 57.2361 73.4721 57.2604 73.6048 57.2599C73.7419 57.2621 73.8786 57.2438 74.0104 57.2058C74.123 57.1716 74.2318 57.1262 74.3353 57.0704C74.4324 57.0177 74.5233 56.9541 74.606 56.8809L74.8584 56.6827V57.1873H75.5888V54.4105C75.5893 54.2749 75.5649 54.1404 75.5168 54.0136C75.4735 53.8939 75.3988 53.7878 75.3002 53.7071M74.8584 56.4303L74.6417 56.5836L74.4344 56.7097C74.364 56.7439 74.2914 56.7736 74.2178 56.8002C74.1414 56.8217 74.0626 56.8339 73.9833 56.8364C73.9049 56.8368 73.8277 56.8182 73.758 56.7823C73.6855 56.7476 73.621 56.6989 73.5685 56.6383C73.5111 56.5745 73.4653 56.5012 73.4331 56.4217C73.4 56.3418 73.3847 56.2557 73.3882 56.1693C73.3865 56.0811 73.4088 55.9939 73.4515 55.917C73.4981 55.832 73.5588 55.7556 73.6319 55.6917C73.7116 55.6164 73.7993 55.55 73.8934 55.4935C73.9925 55.4313 74.0948 55.3739 74.1999 55.3224C74.3087 55.269 74.42 55.2209 74.5334 55.1784L74.8584 55.0614V56.4303ZM76.5987 51.8411V57.1971H77.3292V51.6343H77.1218L76.5987 51.8411ZM79.8266 56.7552C79.7594 56.798 79.681 56.82 79.6013 56.8186C79.5488 56.8191 79.4968 56.8099 79.4481 56.7915C79.4007 56.7739 79.3576 56.7462 79.3218 56.7104C79.286 56.6746 79.2583 56.6316 79.2407 56.5841C79.2223 56.5351 79.2131 56.4832 79.2136 56.4309V53.8317H80.0432V53.5295H79.2136V52.2673H78.997L78.8709 52.799C78.8286 52.9561 78.762 53.105 78.6727 53.2409C78.592 53.3665 78.48 53.4689 78.3478 53.5382C78.1909 53.6148 78.0176 53.652 77.8431 53.6465V53.8268H78.4832V56.426C78.4837 56.5446 78.4989 56.6626 78.5281 56.7774C78.5509 56.8772 78.5973 56.9701 78.6635 57.0482C78.7239 57.1223 78.8011 57.181 78.8887 57.2193C78.9907 57.2652 79.1019 57.2867 79.2136 57.2821C79.4218 57.2915 79.6284 57.2416 79.8093 57.1381C79.9685 57.039 80.1017 56.9025 80.197 56.7411L80.0167 56.615C79.9582 56.6686 79.8943 56.7168 79.8272 56.759M83.6323 54.1262C83.5884 53.9979 83.5207 53.8788 83.4341 53.7748C83.3541 53.675 83.2525 53.5948 83.1368 53.5403C83.0247 53.484 82.9018 53.4532 82.7762 53.4499C82.5206 53.4507 82.2694 53.5159 82.0457 53.6394C81.7834 53.7831 81.548 53.9711 81.3498 54.195V51.6435H81.1425L80.6194 51.8509V57.2068H81.3498V54.475C81.4294 54.3975 81.5139 54.3255 81.6022 54.2584L81.8637 54.0873C81.9482 54.045 82.0359 54.0087 82.1253 53.979C82.2043 53.9551 82.2866 53.9427 82.369 53.9427C82.4493 53.9404 82.5291 53.9563 82.6025 53.9891C82.6759 54.0219 82.741 54.0708 82.7929 54.1322C82.9118 54.29 82.9695 54.4854 82.9554 54.6824V57.1982H83.6859V54.5562C83.7049 54.4095 83.6862 54.2605 83.6317 54.123" fill="#9E925E"/>
<path fill-rule="evenodd" clip-rule="evenodd" d="M65.7714 23.1237L64.6445 23.8542L62.4536 25.4413C59.249 27.8424 56.2783 30.5407 53.5811 33.5H47.7476C47.7476 33.5 62.021 21.1835 68.5666 20.2364C74.4002 19.3977 76.6723 23.6176 76.1855 28.1618C76.499 25.4971 74.9715 22.9575 72.4708 21.9855C71.6185 21.6584 70.7017 21.535 69.7931 21.6249C68.3582 21.8189 66.9845 22.3302 65.7719 23.1216" fill="#9E925E"/>
<path fill-rule="evenodd" clip-rule="evenodd" d="M44.186 23.1237L45.3129 23.8542L47.5038 25.4413C50.7084 27.8424 53.6791 30.5407 56.3763 33.5H62.2098C62.2098 33.5 47.937 21.1835 41.3908 20.2364C35.5572 19.3977 33.2851 23.6176 33.7719 28.1618C33.4584 25.4971 34.9859 22.9575 37.4866 21.9855C38.3389 21.6579 39.2557 21.5344 40.1643 21.6249C41.5987 21.8203 42.9725 22.3315 44.1855 23.1216" fill="#9E925E"/>
<path d="M54.6904 47.143H52.0912L52.1183 46.9805C52.1891 46.5845 52.2282 46.1834 52.2352 45.7811C52.2352 44.1945 51.5313 42.3366 49.5483 42.3366C48.8684 42.371 48.2148 42.61 47.6731 43.0221C47.0462 43.4536 46.5051 43.9978 46.0773 44.6272C45.6083 45.3484 45.2477 46.1509 44.8508 46.9085L44.7338 47.1338H44.6889V44.0683H43.8869V47.1338H41.5428V46.8273C41.5428 43.5815 39.1986 42.4362 37.188 42.4362H34.0966V43.1218C34.3219 43.1039 36.9546 43.0947 37.0808 43.0947C39.3259 43.0947 40.6693 44.5568 40.6785 46.9989V47.1343H30.7604V41.9678C30.4816 41.9408 30.2017 41.9258 29.9216 41.9229C28.4596 41.9229 26.2882 42.9777 26.2882 45.2412C26.2627 45.9446 26.554 46.6226 27.0815 47.0888C27.6062 47.5215 28.2684 47.7522 28.948 47.7386H29.2003L29.7142 47.1884L29.7592 47.1435H29.1733C28.9103 47.1636 28.646 47.1278 28.3978 47.0383C28.1496 46.9489 27.9232 46.808 27.7334 46.6247C27.3495 46.2544 27.1416 45.7378 27.1627 45.2049C27.1498 44.8149 27.2287 44.4273 27.3932 44.0733C27.5576 43.7194 27.8029 43.409 28.1092 43.1673C28.5562 42.8166 29.1017 42.6147 29.6693 42.59H29.9487V47.7386H55.475V38.5331H54.6725V47.143H54.6904ZM51.2914 47.0439L51.2643 47.143H45.5114L45.5477 46.9805C46.0524 44.7447 48.0635 43.0043 49.4611 43.0043C49.9122 43.0043 51.3818 43.2117 51.3818 45.9349C51.3894 46.3069 51.3591 46.6784 51.2914 47.0439ZM58.0358 47.7381H58.8383V38.5326H58.0358V47.7381ZM28.4255 40.6509C28.5464 40.6507 28.6645 40.6147 28.765 40.5473C28.8655 40.48 28.9437 40.3845 28.9899 40.2727C29.0361 40.1609 29.0481 40.038 29.0245 39.9194C29.0008 39.8008 28.9426 39.6919 28.8571 39.6063C28.7715 39.5208 28.6626 39.4626 28.544 39.4389C28.4254 39.4153 28.3025 39.4273 28.1907 39.4735C28.079 39.5197 27.9834 39.5979 27.9161 39.6984C27.8487 39.7989 27.8127 39.917 27.8125 40.0379C27.8114 40.2009 27.8753 40.3574 27.9906 40.4728C28.106 40.5881 28.2625 40.652 28.4255 40.6509ZM64.9691 40.6601C65.0901 40.6598 65.2083 40.6236 65.3087 40.5561C65.4092 40.4887 65.4874 40.3929 65.5334 40.281C65.5794 40.1691 65.5912 40.0461 65.5674 39.9275C65.5435 39.8088 65.485 39.7 65.3992 39.6146C65.3135 39.5292 65.2043 39.4712 65.0856 39.4478C64.9669 39.4245 64.8439 39.4369 64.7322 39.4834C64.6205 39.5299 64.5251 39.6085 64.4581 39.7092C64.3911 39.81 64.3554 39.9283 64.3556 40.0493C64.3545 40.2123 64.4184 40.3688 64.5338 40.4841C64.6491 40.5995 64.8056 40.6634 64.9686 40.6623M30.2552 40.6531C30.3761 40.6529 30.4943 40.6168 30.5947 40.5495C30.6952 40.4822 30.7735 40.3866 30.8196 40.2749C30.8658 40.1631 30.8778 40.0401 30.8542 39.9216C30.8305 39.803 30.7723 39.694 30.6868 39.6085C30.6013 39.523 30.4923 39.4648 30.3737 39.4411C30.2552 39.4175 30.1322 39.4295 30.0204 39.4757C29.9087 39.5218 29.8131 39.6001 29.7458 39.7006C29.6785 39.801 29.6424 39.9192 29.6422 40.0401C29.6428 40.3785 29.9168 40.6525 30.2552 40.6531ZM73.3001 47.7386H74.1026V38.5331H73.3001V47.7386ZM62.8394 45.3138C62.8482 45.6498 62.9248 45.9806 63.0646 46.2863C63.2044 46.592 63.4045 46.8664 63.6529 47.0928C63.9013 47.3193 64.1928 47.4933 64.5101 47.6044C64.8274 47.7155 65.1638 47.7613 65.4993 47.7392H67.3025V41.9776C67.042 41.9476 66.78 41.9326 66.5178 41.9327C64.4531 41.9327 62.8394 43.4202 62.8394 45.3138ZM66.4994 47.144H65.7332C65.4691 47.165 65.2036 47.13 64.9541 47.0411C64.7045 46.9523 64.4766 46.8117 64.2852 46.6285C63.898 46.2582 63.6869 45.7405 63.7047 45.2055C63.69 44.8681 63.7436 44.5311 63.8624 44.2149C63.9811 43.8988 64.1625 43.6098 64.3957 43.3655C64.8668 42.8716 65.5193 42.5922 66.2021 42.5906H66.4994V47.144ZM77.2471 39.4347C77.1666 39.4349 77.0869 39.4509 77.0126 39.4819C76.9383 39.5129 76.8708 39.5582 76.814 39.6152C76.7573 39.6723 76.7123 39.7399 76.6816 39.8144C76.651 39.8888 76.6353 39.9685 76.6355 40.049C76.6357 40.1295 76.6517 40.2092 76.6826 40.2835C76.7136 40.3578 76.7589 40.4253 76.816 40.4821C76.873 40.5389 76.9407 40.5839 77.0151 40.6145C77.0896 40.6452 77.1693 40.6608 77.2498 40.6607C77.3302 40.6608 77.4098 40.6451 77.4842 40.6145C77.5585 40.5838 77.6261 40.5388 77.683 40.482C77.7399 40.4252 77.7851 40.3578 77.8159 40.2836C77.8468 40.2093 77.8627 40.1297 77.8628 40.0493C77.8563 39.7136 77.5855 39.4428 77.2498 39.4363M83.1917 42.1141C81.0999 42.1141 79.4586 43.5387 79.4586 45.369C79.4586 47.1094 80.9824 47.7402 82.0101 47.7402C82.1124 47.7431 82.2147 47.74 82.3166 47.731L82.7135 47.3162L82.8847 47.1359H82.3529C81.3338 47.1359 80.3152 46.5587 80.3152 45.2694C80.3462 44.6221 80.6208 44.0104 81.0841 43.5573C81.5473 43.1041 82.1648 42.8429 82.8126 42.8261H82.948V47.8572C82.948 48.8222 82.7677 49.7145 81.4605 49.7145C81.3213 49.7106 81.1826 49.6956 81.0457 49.6696L80.9466 50.2826C81.1844 50.3274 81.426 50.3486 81.6679 50.3459C82.2901 50.3459 83.7505 50.1385 83.7505 48.2V42.1579C83.5652 42.1324 83.3787 42.1174 83.1917 42.113M76.8442 48.2444C76.8442 49.2992 76.4202 49.7319 75.3822 49.7319C75.2487 49.7293 75.1159 49.7143 74.9853 49.6869L74.8862 50.327C75.1247 50.3648 75.3659 50.3829 75.6074 50.3811C76.2204 50.3811 77.6543 50.1916 77.6543 48.4788V42.7888H76.8518V48.2438L76.8442 48.2444ZM66.7999 39.4353C66.6374 39.435 66.4814 39.4994 66.3663 39.6142C66.2511 39.729 66.1864 39.8848 66.1861 40.0474C66.1859 40.21 66.2503 40.366 66.3651 40.4811C66.4799 40.5962 66.6357 40.661 66.7983 40.6612C66.8789 40.6615 66.9586 40.6459 67.0331 40.6153C67.1076 40.5846 67.1753 40.5396 67.2324 40.4828C67.2894 40.4259 67.3347 40.3584 67.3656 40.284C67.3965 40.2096 67.4124 40.1299 67.4124 40.0493C67.4059 39.7136 67.1351 39.4428 66.7994 39.4363M70.0365 48.2455C70.0365 49.3003 69.6125 49.733 68.5744 49.733C68.441 49.7304 68.3081 49.7153 68.1775 49.688L68.0784 50.3281C68.3169 50.3659 68.5582 50.384 68.7997 50.3822C69.4127 50.3822 70.8374 50.1927 70.8374 48.4799V42.7888H70.0349V48.2438L70.0365 48.2455ZM42.9144 26.1896L40.9309 24.1969L39.1818 25.9459L37.4328 24.1969L35.4487 26.1896L37.4322 28.1823L39.1813 26.4333L40.9303 28.1823L42.9144 26.1896ZM64.1395 11.3845C63.9848 11.0243 63.8008 10.6775 63.5894 10.3475C62.7302 9.01725 61.4484 8.01472 59.9503 7.50122C58.4523 6.98773 56.825 6.99312 55.3304 7.51654L55.0147 6.49744C55.0147 6.49744 54.8707 6.87649 54.699 7.51654C51.6249 6.44491 48.2167 7.61401 46.4487 10.3475C46.2373 10.6775 46.0533 11.0244 45.8986 11.3845C47.143 10.0215 48.8709 9.19952 50.7136 9.09447C48.9732 10.4266 47.9525 12.4935 47.952 14.6849C47.953 15.0777 47.9861 15.4698 48.051 15.8573C48.3954 13.8358 49.5992 12.063 51.3509 10.9973C50.2246 13.2332 50.3654 15.8984 51.7208 18.0032C51.9336 18.3333 52.1749 18.644 52.4421 18.9319C51.8726 17.606 51.723 16.1375 52.0134 14.724C52.3039 13.3105 53.0204 12.0199 54.0666 11.026C54.016 11.5746 53.9889 12.1251 53.9853 12.676C53.9966 14.7794 54.3439 16.8676 55.0142 18.8615C55.6845 16.8676 56.0318 14.7794 56.043 12.676C56.0436 12.125 56.0165 11.5743 55.9618 11.026C57.008 12.0199 57.7245 13.3105 58.015 14.724C58.3054 16.1375 58.1558 17.606 57.5863 18.9319C57.8513 18.6422 58.0925 18.3317 58.3076 18.0032C59.6673 15.8995 59.8081 13.2326 58.6774 10.9973C59.5445 11.5225 60.2882 12.2285 60.8577 13.0672C61.4271 13.9059 61.809 14.8576 61.9773 15.8573C62.1915 14.5948 62.057 13.2977 61.5882 12.1061C61.1195 10.9144 60.3344 9.8733 59.3175 9.09501C61.1634 9.19639 62.8957 10.0188 64.1412 11.385" fill="#008556"/>
<path fill-rule="evenodd" clip-rule="evenodd" d="M47.8829 22.9882C47.8829 22.9882 52.9589 15.6666 61.8763 25.1613C70.2799 34.1058 73.4265 32.5999 75.8156 29.7597C75.725 29.9993 75.6101 30.229 75.4728 30.4452C75.3104 30.7068 75.2113 30.8508 75.1756 30.8963C74.6146 31.6947 73.8711 32.3477 73.007 32.8009C72.1429 33.2541 71.183 33.4945 70.2073 33.502C67.5296 33.5291 64.2113 31.9241 60.4966 27.8217C52.2284 18.6882 47.8823 22.9888 47.8823 22.9888" fill="#008556"/>
</g>
</g>
<defs>
<clipPath id="clip0_2_462">
<rect width="108.33" height="64.98" fill="white" transform="translate(0.813477)"/>
</clipPath>
<clipPath id="clip1_2_462">
<rect width="108.33" height="64.98" fill="white" transform="translate(0.813477)"/>
</clipPath>
</defs>
</svg>
