<svg width="109" height="65" viewBox="0 0 109 65" fill="none" xmlns="http://www.w3.org/2000/svg">
<g clip-path="url(#clip0_2_520)">
<g clip-path="url(#clip1_2_520)">
<path d="M52.4253 3.27606C62.1181 2.51796 69.3255 6.25973 74.3398 10.6784C77.1629 13.1198 79.4769 16.0939 81.1494 19.4305C82.8218 22.7672 83.82 26.4008 84.0868 30.1236C84.807 39.8219 81.1356 46.9643 76.6845 52.0381C74.2374 54.8705 71.2501 57.1866 67.8973 58.8509C64.5445 60.5152 60.8936 61.4943 57.158 61.731C53.2137 62.067 49.2424 61.5901 45.4898 60.3299C41.7372 59.0697 38.283 57.053 35.3409 54.4045C30.1263 49.818 26.2979 43.8615 25.5939 34.9592C25.2457 31.009 25.7045 27.0291 26.9426 23.2618C28.1807 19.4944 30.1722 16.0183 32.7959 13.0447C35.2598 10.1999 38.2633 7.87186 41.6326 6.19511C45.0019 4.51836 48.6701 3.52622 52.4253 3.27606ZM41.8389 8.12249C38.9427 9.69369 36.3336 11.7443 34.1226 14.1873C29.888 18.8713 26.6174 25.5588 27.3322 34.7643C27.9657 42.9626 31.5504 48.6863 36.4781 53.067C39.2376 55.5556 42.4785 57.4515 46.0002 58.6372C49.5219 59.8229 53.2495 60.2732 56.9522 59.9603C60.4689 59.7512 63.9085 58.8427 67.0698 57.2881C70.2311 55.7335 73.0506 53.5639 75.3632 50.9064C77.8721 48.1359 79.7868 44.8807 80.9891 41.3417C82.1914 37.8027 82.6559 34.0549 82.354 30.3294C81.78 22.012 77.7946 16.1421 73.2026 12.0159C70.44 9.49498 67.186 7.57263 63.6449 6.36958C60.1038 5.16653 56.3521 4.70879 52.6256 5.02511C48.855 5.30274 45.1825 6.35729 41.8389 8.12249Z" fill="#0B8D45"/>
<path d="M55.2033 6.87164C55.2629 7.08824 55.4578 7.16947 55.4091 7.49437C55.9506 7.35358 56.6437 6.91496 56.8495 7.70014C56.5975 7.83876 56.3139 7.90966 56.0264 7.90591C55.9235 8.65859 54.9434 8.55571 54.9975 9.44377C55.6852 9.29215 56.3404 7.72721 57.7754 8.31203C57.8783 8.79938 57.2935 8.5882 57.3639 9.03223C57.7754 9.2759 58.6039 9.09721 58.7014 9.64954C57.5642 9.95819 56.2051 10.0394 55.3062 10.5755C56.1942 10.6784 58.9234 9.90404 59.0967 11.2957C58.5931 11.3228 58.3169 11.117 57.7592 11.1928C57.8891 11.8534 58.7664 11.7343 58.788 12.5303C57.9595 12.1946 56.8386 12.1459 56.2159 11.6044C56.5083 12.4762 57.5967 12.5574 57.6563 13.6621C56.8765 13.6133 56.3729 12.422 55.4903 12.1188C55.8531 12.9581 56.5246 13.4834 56.622 14.588C56.048 14.6476 55.9018 14.2848 55.9018 13.7649C55.5769 13.44 55.0788 13.283 54.9759 12.7361C54.938 13.2776 55.4145 14.2144 55.2845 15.2053C55.0971 15.1 54.8787 15.0636 54.6672 15.1024C54.8676 17.1656 55.1221 19.1745 55.3874 21.1727C55.998 21.2838 56.6201 21.3184 57.2393 21.2755C57.2393 22.0066 56.7574 22.1798 56.1076 21.9957C55.8639 22.0282 56.0047 22.4452 55.7989 22.5372C55.4091 22.7647 55.3008 22.4398 54.9759 22.3315C54.6835 22.3315 54.8459 22.8242 54.4344 22.743C54.3406 22.6337 54.226 22.5442 54.0972 22.4797C53.9684 22.4152 53.828 22.377 53.6843 22.3675C53.5406 22.3579 53.3964 22.3771 53.2602 22.4239C53.124 22.4707 52.9985 22.5442 52.8911 22.6401C52.6877 22.5681 52.5085 22.4407 52.3736 22.2723C52.2387 22.104 52.1535 21.9013 52.1276 21.6871C52.6309 21.5519 53.1497 21.4828 53.6708 21.4813C54.3423 20.9398 53.6708 19.0716 54.2123 18.3948C53.6329 17.5284 55.0408 15.1458 53.2864 15.2053C52.9073 14.4851 53.2214 13.4996 53.2864 12.6332C52.7449 13.0935 52.9236 14.2577 52.1547 14.4851V13.4563C51.6673 13.3209 51.5698 14.1007 51.3316 13.8678V12.839C50.8821 12.7307 50.9958 13.1909 50.6114 13.1476C50.6114 12.0376 51.5536 11.8968 52.0518 11.2957C50.9688 11.6206 50.3785 12.4383 49.6854 13.1476C48.7703 12.4545 50.2811 11.913 50.3677 11.1928C50.0482 11.0683 49.0789 11.6585 48.6187 11.3986C49.1602 10.5538 50.5464 10.1802 51.911 10.4726C51.2612 9.93112 50.0645 9.93112 49.5446 9.238C50.6601 8.61527 51.9705 9.55207 52.7341 9.95819C52.4308 9.20009 50.8388 8.83729 50.4706 7.79219C52.0084 7.62433 52.42 8.59361 53.1456 9.23258C53.2322 8.45824 52.2196 7.89508 51.8081 7.27777C52.1601 6.94745 53.4705 6.73627 53.7629 7.27777C53.95 7.09515 54.1798 6.96231 54.4314 6.89137C54.683 6.82042 54.9484 6.81364 55.2033 6.87164Z" fill="#0B8D45"/>
<path d="M64.7715 20.864C60.6994 21.5246 57.5479 23.1112 55.409 25.6996C55.5512 26.0343 55.762 26.3354 56.0278 26.5835C56.2936 26.8316 56.6086 27.0212 56.9523 27.14C57.4938 27.2266 57.1905 26.4198 57.8782 26.6256C58.0082 27.1346 57.6291 27.1346 57.6725 27.5515C58.5334 28.5316 60.38 26.8801 60.6561 28.066C60.7969 28.7428 59.9034 29.2085 59.2157 29.3006C57.6237 29.5172 56.936 28.2826 55.8205 28.9919C55.6689 28.4504 56.0805 28.4504 56.2321 28.1688C55.7858 27.5627 55.2358 27.0402 54.6076 26.6256C53.9534 26.9298 53.4129 27.4343 53.0643 28.066C52.7881 28.4558 53.7737 28.5587 53.373 29.0948C52.7935 29.2302 52.891 28.6887 52.447 28.6833C51.5319 29.2897 49.707 29.9233 48.846 28.889V28.066C49.5445 27.2429 50.9524 28.6399 51.7268 27.7573C51.6943 27.3187 51.1095 27.3241 51.4181 26.8313C51.9001 26.7284 51.873 27.1346 52.1383 27.2429C52.7276 26.8916 53.2501 26.4387 53.6816 25.9054C51.651 23.5823 48.7702 22.1149 44.8335 21.6871C48.2937 19.9705 52.4145 23.1545 54.5047 24.8765C57.158 22.9271 59.9522 19.6673 64.7715 20.864ZM55.6148 26.8205C55.5634 26.6329 55.4579 26.4646 55.3116 26.3366C55.1652 26.2085 54.9844 26.1263 54.7917 26.1003C54.8892 26.5335 55.2682 26.6635 55.6148 26.8313V26.8205ZM58.7013 28.7753C59.1453 28.5695 59.9143 28.6887 60.0388 28.158C59.7085 27.7681 58.8692 28.3854 58.7013 28.7861V28.7753ZM49.2359 28.6995C49.5825 28.4017 50.4055 28.8565 50.4705 28.4937C50.0969 28.2555 48.9381 27.8873 49.2359 28.6995Z" fill="#0B8D45"/>
<path d="M44.4006 32.0785H49.0304C50.2921 33.703 51.987 35.3275 54.6891 35.3708C57.3911 35.4141 59.2864 33.8871 60.4506 32.0785H65.1833C63.8133 39.7949 52.3877 42.1829 46.8698 36.6054C45.7442 35.4168 44.9311 33.9674 44.5034 32.3871C44.434 32.2995 44.3976 32.1903 44.4006 32.0785ZM48.516 33.703H49.0575V33.1615C48.7596 33.1615 48.5701 33.0315 48.6459 32.6471C48.3535 32.7337 48.3806 32.5009 48.1044 32.5442C47.8932 33.3185 48.6622 33.064 48.516 33.7246V33.703ZM61.8748 32.7987C61.8514 32.9138 61.8518 33.0325 61.8757 33.1475C61.8997 33.2625 61.9468 33.3714 62.0141 33.4676C62.0815 33.5639 62.1677 33.6454 62.2676 33.7073C62.3674 33.7691 62.4788 33.8101 62.595 33.8275C62.9794 33.9358 62.9253 33.6109 63.1365 33.5189C63.4939 34.0008 62.9199 34.656 63.1365 34.9593C64.3548 34.2066 63.2989 32.3168 61.8748 32.7987ZM46.442 34.4232C46.859 34.4882 47.525 34.2878 47.7795 34.5261C47.7795 34.8618 47.4871 34.9214 47.5737 35.3491C48.5539 36.1831 49.2686 37.2931 50.8661 37.5151C51.1476 38.1649 52.1982 38.2245 53.0321 38.0566C53.5248 38.2137 53.9689 38.3599 54.0609 37.748C53.2216 37.748 52.2577 35.9935 51.6946 37.3365C51.8463 37.3198 51.9999 37.3391 52.1429 37.3927C52.2858 37.4463 52.4142 37.5328 52.5176 37.6451C50.8552 37.6451 51.4834 36.4646 51.9003 35.4791C51.0935 35.5657 51.3047 36.665 50.7686 37.0224C50.4816 36.6596 49.4907 36.6812 49.8426 35.9935C48.9708 36.2264 48.673 35.4195 48.2181 34.9647C48.2181 34.6452 48.543 34.6723 48.4239 34.2445C48.0286 33.8492 47.2164 34.3365 46.9835 33.9358C46.9835 33.4647 47.525 33.5189 47.6008 33.1128C46.9781 33.2969 46.2308 33.7409 46.4583 34.4448L46.442 34.4232ZM60.521 33.2915V33.8059H61.0625C60.9975 33.5947 61.225 33.0911 60.8567 33.1886C60.8459 33.3294 60.6997 33.3239 60.5535 33.3131L60.521 33.2915ZM61.7556 35.5549C61.5607 34.5802 60.6726 34.2878 60.0066 33.8059C60.1745 34.8564 61.1979 35.0026 61.7881 35.5766L61.7556 35.5549ZM61.2141 33.9304C61.1654 34.2553 61.4903 34.2012 61.5228 34.4719C61.761 34.4394 61.9073 34.3095 62.243 34.369C62.3192 34.6263 62.3403 34.8967 62.3049 35.1626C62.2694 35.4286 62.1782 35.684 62.0372 35.9123C63.6184 35.6795 62.6708 33.2481 61.2737 33.9304H61.2141ZM58.2305 35.7824C58.9236 35.9665 58.6691 35.1921 59.3622 35.3708V34.8564H58.8207C58.9777 35.4412 58.1276 35.1109 58.29 35.7824H58.2305ZM60.2882 35.6795C60.5806 35.6795 60.9921 35.5928 61.0084 35.8852C61.1167 36.5784 60.7484 36.795 60.5968 37.2227C60.9458 37.1369 61.2656 36.9593 61.5228 36.7083C61.5824 35.6253 61.1112 35.1271 60.1853 35.0838C60.0174 35.2788 60.3748 35.3654 60.3477 35.6795H60.2882ZM58.6637 37.8455C58.6568 37.0189 58.3662 36.2199 57.8406 35.582C57.7832 36.0004 57.832 36.4265 57.9825 36.8211C58.1329 37.2157 58.3802 37.5661 58.7016 37.84L58.6637 37.8455ZM59.281 37.2282C60.1257 37.304 60.2828 36.6867 60.1041 35.9935C59.8456 35.7772 59.5147 35.6669 59.1781 35.6849C59.094 35.937 59.063 36.2039 59.0873 36.4686C59.1115 36.7333 59.1904 36.9901 59.3189 37.2227L59.281 37.2282ZM57.5319 37.5368C57.0717 37.6289 56.6872 37.7913 56.1944 37.8455C55.9778 37.4772 55.9778 36.8924 55.6529 36.6108C55.3389 37.0332 55.5771 37.3256 55.6529 37.8455C55.4526 38.0133 54.7919 38.0242 54.727 37.7426C54.6525 37.8669 54.6132 38.0092 54.6132 38.1541C54.6132 38.2991 54.6525 38.4413 54.727 38.5657C56.0212 38.3491 56.7034 38.5223 57.9164 38.0512C58.0897 37.0982 57.3424 36.8329 57.6077 36.0964C57.2179 36.1397 57.1258 35.8961 56.8875 35.7878C56.5951 36.5838 57.5428 36.822 57.5698 37.5314L57.5319 37.5368ZM52.3877 36.0964C52.3335 36.6704 52.8317 36.6379 53.1079 36.4051C53.1404 35.9719 52.7451 35.9394 52.4256 36.091L52.3877 36.0964ZM54.2938 38.5602C54.6566 38.2191 54.8353 36.6325 54.3967 36.1939C54.0014 36.665 54.1367 37.7859 54.2938 38.5602ZM48.6188 37.3256C48.9275 36.8599 48.1369 36.7462 48.0773 36.2968H47.5629C47.7958 36.7787 48.0015 37.2552 48.6188 37.3256Z" fill="#0B8D45"/>
<path d="M59.3185 36.2805H59.7084C59.8492 36.6542 59.1669 36.7733 59.3185 36.2805Z" fill="#0B8D45"/>
<path d="M79.484 37.0169C78.6555 38.3869 76.7765 39.5728 74.957 40.3092C74.8271 40.6991 74.5076 40.8886 74.5455 41.441C75.9046 40.9861 77.4533 39.8165 79.1753 39.3833C77.9569 41.4951 74.3289 41.1919 73.3109 43.4987C74.892 43.4337 76.1646 42.172 78.0436 42.0583C76.9606 44.2243 72.7531 43.2875 71.7676 45.5564C73.4517 45.6159 75.2711 44.4084 77.1176 44.6304C75.8931 45.4173 74.5322 45.9683 73.1051 46.2549C71.4806 46.5148 70.2081 46.3578 69.7099 47.6953C71.2423 47.7819 73.0997 47.3217 75.0599 47.4895C73.3975 49.2115 68.3778 47.6141 67.2406 49.6555C68.8976 50.0183 71.0311 49.9154 72.6935 50.2728C70.2297 51.8161 65.8003 49.3198 64.257 51.4046C66.1468 51.9136 68.7677 51.6916 70.3272 52.5363C67.1432 53.5706 63.905 51.2205 61.4791 52.4334C62.9249 53.5922 65.3346 53.7872 66.4176 55.3142C65.8219 56.0182 64.6469 56.1535 63.8454 56.6517C61.8581 55.1951 59.5134 53.4569 56.2319 53.3594C52.3656 53.2403 49.4903 55.1247 47.3838 57.0632C46.3933 56.8696 45.4498 56.4852 44.6059 55.9315C45.8297 54.5778 47.5842 53.7655 49.3387 52.9478C47.8712 51.8973 45.4886 53.4244 42.8407 53.5652C42.0161 53.598 41.1903 53.5636 40.3714 53.4623C41.893 52.4443 44.6005 52.6121 46.5445 52.0219C44.5301 50.0292 40.588 52.4442 37.5935 51.1988C38.8606 50.2999 41.5086 50.7873 43.3551 50.4786C42.2721 48.4751 36.8571 50.3378 35.1243 48.5238C36.8679 48.0689 39.1909 48.67 40.9887 48.8324C39.9545 46.2982 34.9835 47.7061 33.2723 45.8488C35.1514 45.6051 36.8842 46.2441 38.5195 46.569C38.422 45.9138 37.8426 45.7405 37.4906 45.3344C35.5233 45.1411 33.6246 44.5082 31.9348 43.4824C33.8463 43.1846 35.3571 44.1755 36.8733 44.6142C35.7903 42.5023 32.3301 42.7081 30.9168 40.9103C32.7254 40.8182 34.0629 42.0854 35.5466 42.6593C35.0051 40.3796 31.2688 40.3526 30.1966 38.2353C32.0486 38.5764 33.0178 39.8056 34.5286 40.4988C33.8409 38.0674 30.7869 38.0024 29.693 35.9718C31.2742 36.0422 32.2597 37.5963 33.4835 38.3382C33.646 36.8382 31.9944 36.4375 31.1172 35.6632C30.4161 34.9967 29.8627 34.1905 29.4927 33.2968C31.0089 33.9087 31.6912 35.3545 32.9908 36.1776C32.8391 33.5784 29.9909 32.9286 29.4927 30.5189C30.8464 31.1904 31.4529 32.6091 32.4763 33.6055C32.8446 30.7734 30.0613 30.1886 29.8013 27.649C31.2255 28.1471 31.3771 29.9178 32.3735 30.8384C32.8067 28.1796 30.5486 27.3186 30.6244 24.6653C31.767 25.3801 31.8265 27.1724 32.5792 28.2663C33.451 25.8133 31.3392 24.6707 31.7561 21.9903C32.5359 22.8621 32.5901 24.4487 32.9908 25.6941C34.1658 24.0155 32.5251 22.0499 32.9908 19.521C33.5323 20.4145 33.6189 21.687 33.6081 23.122C35.2921 22.1852 33.4727 19.3315 34.3283 17.4633C34.8698 18.1131 34.6802 19.5156 34.8698 20.5499C36.1748 20.2088 35.1784 16.6782 35.8986 15.4056C36.4997 16.2125 36.0394 17.5716 36.0015 18.5951C37.7289 18.0915 36.5755 14.7125 37.8534 13.7595C37.9563 14.9237 37.561 15.5952 37.5448 16.6403C39.0014 16.2504 38.3733 12.8768 39.8083 12.1133C39.7162 13.1963 39.2668 13.9003 39.0881 14.8912C40.6692 14.7938 40.6259 12.1837 41.4544 10.9816C41.7685 11.6422 41.2324 12.3353 41.1458 12.9364C42.6944 12.8064 43.1006 10.6404 43.9237 9.43832C44.1727 10.1044 43.4688 10.7 43.3822 11.3931C44.6168 11.4256 45.3261 10.0448 46.8802 10.0556C45.8731 11.3498 43.5175 11.2902 42.5482 12.6278C43.2684 12.9039 44.5951 12.5682 44.9146 13.2451C43.4471 13.6728 41.0808 12.6169 40.6963 14.171C41.2378 14.3768 42.5103 13.9544 43.1655 14.2739C41.9472 15.1132 38.9473 14.171 38.7415 16.023C39.5808 16.2341 40.4635 15.6331 41.6223 15.8172C40.5393 16.9327 37.4852 16.0717 37.1982 17.9832C38.1946 18.281 39.0339 17.5662 40.079 17.5716C38.996 18.8442 35.9528 18.1131 35.747 20.2467C36.7704 20.2467 37.7018 19.3315 39.0393 19.3207C38.2162 20.8315 35.1893 20.1329 34.9239 22.2015C35.8445 22.1527 36.7325 21.2051 37.9076 21.0697C38.0863 21.6112 37.0087 21.882 36.3643 22.2015C35.7199 22.521 34.9456 22.9704 34.4095 23.2303C34.2709 23.6271 34.2014 24.0447 34.2037 24.4649C35.4059 24.1617 36.0015 23.2466 37.1874 22.9217C37.2957 24.1671 34.5665 24.427 33.7922 25.5967C33.5528 26.0365 33.4798 26.5478 33.5864 27.0371C34.8264 26.5985 35.2109 25.2989 36.673 25.0823C36.1315 27.0208 32.8825 26.8692 33.3806 29.5063C34.6044 28.9107 34.9618 27.454 36.4672 27.14C36.0394 29.1652 32.7525 29.3655 33.4835 31.8727C34.3662 30.8709 35.081 29.7067 36.3643 29.0948C35.7795 30.7193 34.5719 31.6886 33.4835 32.7986C33.4832 33.4314 33.5912 34.0597 33.803 34.656C34.7723 33.5297 35.2109 31.8781 36.478 31.055C36.2939 33.4376 33.5106 34.5368 34.4203 37.0115C35.5033 35.9285 35.6712 33.8708 36.9925 32.999C36.9221 35.4466 34.0413 37.0711 35.368 39.275C36.0394 37.8183 36.3806 36.026 37.3228 34.8509C37.8643 37.201 34.6153 39.4699 36.4997 41.2298C36.987 39.6594 37.1928 37.8075 38.043 36.6C38.6603 38.9176 35.877 41.7821 37.8372 43.1846C38.1783 41.5005 38.2217 39.5241 38.7632 38.0403C39.8462 40.5475 37.0953 44.1431 39.4834 45.1394C39.727 43.5149 39.0664 40.8507 40.1007 39.7894C40.9562 42.0691 39.0177 46.2874 41.2324 46.8885C41.3353 45.3127 40.9833 43.2983 41.1295 41.3327C41.9743 42.8597 42.0501 45.1232 42.0555 47.5058C42.5071 47.998 43.0618 48.3844 43.68 48.6375C43.5933 46.7964 42.4833 45.1015 42.6511 42.681C43.4296 44.3117 43.9764 46.0432 44.2756 47.8253C44.346 48.3668 44.124 48.6429 44.3785 49.0599C44.7088 49.6014 45.4236 49.6014 45.9218 49.883C45.6294 48.2585 44.2973 46.2982 44.4814 44.2243C45.6727 45.7405 46.2467 47.8794 46.7449 50.0887C47.0644 50.5598 47.7358 50.6735 48.3694 50.8089C47.9091 48.9028 46.7449 47.7224 46.7449 45.356C48.0011 46.8776 48.6564 48.9949 49.317 51.1176C52.8205 52.1085 58.4034 52.1356 61.3545 50.5761C61.6817 48.5457 62.3792 46.5928 63.4122 44.8145C63.5693 46.8885 62.5892 48.7241 61.9718 50.3703C62.6594 50.3809 63.324 50.1225 63.8238 49.6501C64.0416 47.4532 64.6408 45.3111 65.5945 43.32C65.7894 45.486 64.9339 47.5328 64.3599 49.2765C64.9014 49.5256 65.3941 48.892 65.9031 48.735C66.2822 46.4715 66.4446 43.9698 67.1378 42.0475C67.5547 44.2838 66.8183 46.2549 66.5205 48.1177C66.9093 48.0159 67.2736 47.8368 67.5918 47.5912C67.91 47.3456 68.1754 47.0385 68.3724 46.6881C68.0637 44.9499 67.8309 42.1449 68.681 40.7316C69.1251 42.4373 68.8327 44.5925 68.8868 46.2874C69.6016 46.1141 69.8615 45.4806 70.3272 45.0528C70.1214 43.0546 69.5041 40.9482 69.7857 38.7768C70.7496 39.9735 70.4247 42.4536 70.7117 44.3326C73.1809 43.0167 70.3272 40.0006 70.8145 37.2335C71.5923 38.8047 72.0506 40.5145 72.1629 42.264C72.8722 42.1503 72.9426 41.3977 73.2946 40.9265C72.6719 39.1829 71.7838 37.6775 71.4427 35.6794C72.6827 36.6704 72.7369 38.8418 73.7062 40.1035C75.0653 37.9375 72.1791 36.3455 72.1629 33.9304C73.3163 34.9376 73.6195 36.7949 74.5292 38.0458C75.9967 36.2372 72.5582 34.2228 72.5744 31.9755C73.8848 32.8203 74.1989 34.683 75.1465 35.8852C75.6556 35.544 75.7584 34.5747 75.688 34.1361C75.6176 33.6975 75.0816 33.4809 74.7621 33.1073C73.9596 32.2015 73.3317 31.155 72.9102 30.0207C74.1123 30.8059 74.8216 32.0893 75.688 33.2102C77.0364 30.8005 73.6845 30.2536 73.1159 28.4775C73.3325 28.3313 73.9552 28.759 74.2477 28.9919C74.8704 29.5009 75.3902 30.3781 75.9967 30.7409C76.7873 28.2338 73.9986 28.5099 73.7332 26.7284C74.6375 27.0208 75.0599 27.8114 75.7909 28.2717C76.4678 25.5642 73.2621 25.862 72.4986 24.2592C73.7874 24.4812 74.4155 25.3422 75.4823 25.8024C75.8559 23.3007 72.5636 23.5769 71.6918 22.0119C72.9751 22.2394 73.6628 23.057 74.7783 23.4523C75.0599 21.3188 72.0708 21.5896 70.9878 20.4687C72.1683 20.2196 73.0997 21.0968 74.0744 21.3946C74.1069 19.0987 71.0907 19.8514 70.0619 18.6167C71.264 18.6167 71.93 19.1582 72.9426 19.3369C73.1484 17.4471 70.2351 17.7666 68.9301 17.0735C69.4716 16.6349 70.755 17.2251 71.5023 17.2792C71.3723 15.319 68.6377 15.958 67.0782 15.4273C67.7009 14.8425 68.9193 15.3298 69.8561 15.3244C69.8236 13.949 67.4518 14.0248 65.7407 13.9869C66.0114 13.3696 67.3652 13.8191 68.107 13.6783C67.598 12.0104 65.4375 12.9147 63.775 12.6494C64.1324 12.1079 65.3291 12.4274 66.1414 12.3408C65.1667 10.83 62.692 10.83 61.2733 9.74697C63.0278 9.40041 63.8563 10.8679 65.2858 11.1874C65.0963 10.3155 64.3544 9.99606 64.257 9.02136C65.6649 9.74697 65.4862 12.0538 67.2406 12.4545C67.4193 11.691 66.5692 11.0736 66.6233 10.0881C67.7821 11.1711 67.6468 13.5916 69.4012 14.1006C69.2713 13.1313 68.8002 12.5032 68.7839 11.4256C70.0348 12.4382 69.477 15.2594 71.1503 15.8497C71.2207 14.68 70.7604 14.0465 70.8416 12.866C71.995 13.8732 71.1719 16.8569 72.5907 17.5987C72.5907 16.3587 72.5257 15.6277 72.5907 14.5122C73.6358 15.4219 72.4607 18.5518 73.7224 19.2449C74.096 18.4218 73.7224 16.846 74.4426 16.3641C74.9083 18.3297 73.4137 20.5445 74.957 21.6112C75.4227 20.7773 74.9137 18.9687 75.9859 18.7305C76.17 20.6961 74.6646 22.521 75.883 23.9776C76.549 23.1383 76.3541 21.4325 77.2205 20.7882C77.54 23.2412 75.4498 24.7519 76.6032 26.7447C77.3613 25.7591 77.6049 24.2483 78.3522 23.2466C78.7529 25.8458 76.0509 26.9721 76.9118 29.7446C77.8378 28.8565 78.2548 27.4594 79.1753 26.5551C79.1753 28.9215 76.6411 29.6525 76.9118 32.6253C77.9948 31.7156 78.5851 30.324 79.5868 29.333C79.5868 31.851 76.7927 32.4412 76.6032 35.0946C77.6862 34.4989 78.6771 32.9286 79.8955 32.1109C79.6627 34.3852 76.744 34.8617 76.1916 37.1523C77.3667 36.5783 78.5418 35.1162 79.9821 34.4773C78.8508 36.0899 77.37 37.4263 75.6501 38.3869C75.557 38.6896 75.4882 38.9992 75.4444 39.3129C76.7061 38.8364 78.0003 37.5584 79.484 37.0169Z" fill="#0B8D45"/>
<path d="M38.5358 32.0785H43.4634C44.7089 36.665 48.207 40.1631 53.4541 40.6125C60.2499 41.2136 64.674 37.3635 66.109 32.0785H71.1503C69.4175 39.8978 63.4989 46.2279 53.4541 45.5564C45.4183 45.0149 40.0791 39.5999 38.5358 32.3871C38.5575 32.2139 38.3625 32.1218 38.5358 32.0785ZM42.8678 34.1362C42.9923 33.5947 42.5429 33.5947 42.662 33.0045C42.3696 33.0911 42.3967 32.8582 42.1205 32.9016C42.2288 33.4647 42.1638 34.1795 42.857 34.1145L42.8678 34.1362ZM69.1035 33.7246C68.6215 33.1831 67.6739 33.1832 66.84 33.0045C67.0674 33.6922 68.3995 33.8329 69.0926 33.7246H69.1035ZM40.1928 34.2391C40.4202 34.5586 41.2325 34.2986 41.4274 34.6506C41.4274 35.0405 40.9942 35.0405 41.0159 35.4737C41.3191 35.9286 41.4761 36.5242 41.9418 36.8112C42.0703 36.832 42.2015 36.8272 42.3281 36.797C42.4546 36.7668 42.5739 36.7119 42.6791 36.6354C42.7844 36.5589 42.8734 36.4623 42.9411 36.3512C43.0088 36.2401 43.0538 36.1167 43.0736 35.9881C42.5321 35.8582 42.4184 36.156 42.2505 36.3997C42.1314 35.9069 41.7902 35.6253 41.6332 35.165C41.8606 35.0134 42.1151 34.8943 42.0447 34.4448C41.7306 34.1416 41.0105 34.2445 40.7072 33.9033C40.7939 33.4756 41.4003 33.5676 41.5303 33.1831C40.8859 33.3618 40.1765 33.4431 40.182 34.2391H40.1928ZM67.9717 34.342C67.3869 34.0712 67.0728 33.6272 66.4285 34.1362C66.6884 34.6777 67.7714 34.4394 68.1775 34.8564C68.0259 35.2192 67.636 35.3437 67.0458 35.2679C67.0041 35.6704 67.1142 36.074 67.3544 36.3997C67.1487 36.5025 67.192 36.8545 66.84 36.8112C66.201 36.6921 65.9195 36.221 65.2967 36.091C65.3671 36.9141 66.3797 36.795 66.7371 37.3256C66.4529 37.7218 66.1397 38.0965 65.8003 38.4465C64.544 37.7805 63.7968 39.8436 63.0224 39.9898C63.0982 39.4104 63.8401 38.9068 63.3311 38.3653C63.0629 38.6904 62.8743 39.0736 62.7803 39.4844C62.6863 39.8952 62.6894 40.3223 62.7896 40.7317C63.9917 40.4934 64.3762 38.8906 65.4646 38.8797C64.5765 39.6053 63.9159 40.5584 62.7896 41.0457C62.508 41.0078 62.351 40.5692 62.0694 40.84C61.7878 41.1107 61.8799 41.8201 61.6578 42.1775C61.1163 42.1775 61.2626 41.5385 60.8348 41.4573C60.8711 41.7514 60.9871 42.03 61.1704 42.2629C61.3536 42.4957 61.5971 42.6741 61.8744 42.7785C62.378 42.6648 62.0261 41.6955 62.286 41.3381C62.5946 41.4031 62.6434 41.7334 63.1091 41.6468C64.6924 40.5861 66.084 39.2641 67.2245 37.7372C67.2429 37.5919 67.2062 37.4451 67.1216 37.3256C67.5169 37.3256 67.6631 37.0224 67.8418 36.7841C67.9122 36.4701 67.7335 36.4105 67.7389 36.1668C68.6594 35.999 68.4158 34.8347 69.1793 34.3149C68.7894 33.86 68.4916 34.2066 67.9609 34.342H67.9717ZM41.005 37.017H41.4166C41.5086 36.4159 41.0105 36.3942 41.005 35.8852H40.5935C40.5069 36.4863 40.9996 36.508 41.005 37.017ZM42.857 38.2516C43.0411 37.8888 43.7396 37.6018 43.5772 37.2227C43.0357 37.1253 43.1331 37.5801 42.6512 37.7642C42.6079 37.5693 42.4292 37.5043 42.4454 37.2227H41.9039C41.9149 37.4794 42.0168 37.7238 42.1914 37.9123C42.366 38.1007 42.6019 38.221 42.857 38.2516ZM44.1945 38.8689C44.2946 38.778 44.374 38.6667 44.4272 38.5424C44.4805 38.4181 44.5064 38.2839 44.5031 38.1487C44.3894 38.1487 44.3461 38.035 44.2974 37.9429C43.3985 37.8671 43.0844 38.5115 43.2685 38.9718C42.727 38.9718 42.6025 38.544 42.2397 38.3545C42.3642 39.1072 42.7812 39.6757 43.68 39.3833C45.1475 40.6559 46.5987 41.9555 48.5156 42.7785C49.095 42.6323 49.0571 41.3436 49.5445 41.441C49.4633 41.9446 49.003 42.6107 49.2358 43.0655C49.7773 42.5728 49.8856 41.5872 50.1618 40.8021C49.8369 40.7533 49.8911 41.0782 49.6203 41.1107C49.5282 40.9266 49.3333 40.8508 49.4145 40.4934C49.16 40.4934 49.095 40.6559 48.873 40.6992C48.9196 41.2138 48.7729 41.7272 48.4615 42.1396C47.92 41.9555 48.559 41.6901 48.1528 41.5223C48.0947 41.6081 48.0116 41.674 47.9146 41.7108C47.8177 41.7476 47.7118 41.7536 47.6113 41.728C47.4056 41.5168 47.6547 41.5277 47.7142 41.3165C47.1727 41.4789 46.6908 41.3165 47.0969 40.9049C46.5175 40.9374 46.0139 40.9049 45.9652 40.3634C46.1926 40.3634 46.2955 40.2606 46.2738 40.0548C46.1114 39.5458 45.5536 39.1234 45.0392 39.5133C44.9038 39.7732 45.4453 39.8328 45.1421 39.9248C44.9417 39.562 44.4761 39.3075 44.1945 38.8689ZM60.4395 40.9266C60.7068 40.9427 60.9721 40.8709 61.195 40.7224C61.4178 40.5738 61.5861 40.3565 61.6741 40.1035C61.0405 40.1468 60.5261 40.3201 60.4503 40.9266H60.4395ZM59.6164 41.2353C59.3402 41.2028 59.2536 40.9808 58.9991 40.9266C58.88 41.8309 59.5406 41.9663 59.6164 42.6756C59.3833 42.7666 59.1422 42.8355 58.8962 42.8814C59.3186 42.145 57.8132 42.1125 57.7645 42.7785C57.602 43.1792 58.0298 42.9897 58.0731 43.1901C57.2392 43.4067 56.232 43.5258 55.8096 42.8814C55.6689 43.4229 55.8421 43.5637 56.1183 43.9103C55.9342 44.311 55.4739 44.4518 55.0895 44.6305C55.3717 44.7872 55.6934 44.8587 56.0154 44.8362C56.2645 44.6413 56.3078 44.2352 56.5569 44.0131C58.1814 44.0131 58.815 43.4717 60.055 43.1901C60.2554 42.3995 59.5135 42.0096 59.8492 41.441C60.0821 41.9825 60.2499 42.6161 60.7752 42.8814C60.7293 42.0525 60.3599 41.2747 59.7464 40.7154C59.6705 40.8725 59.8492 41.2515 59.6272 41.2353H59.6164ZM50.4596 41.441C50.7466 41.8038 51.5426 42.1991 51.9 41.6468C51.5859 41.2353 51.1852 41.5439 50.8712 41.1053C50.8549 41.3436 50.5029 41.2298 50.4705 41.441H50.4596ZM50.151 43.8074C50.8928 43.8615 50.8062 43.0926 51.4885 43.0872C51.4289 43.4229 51.5589 43.5637 51.5914 43.8074C52.9559 44.1973 53.7574 43.9644 55.1923 44.116C55.3819 43.5745 55.501 42.8489 54.8837 42.6756C54.6021 43.0818 54.8837 43.2171 54.7808 43.4987C54.3963 43.4987 53.9469 43.5745 54.0606 43.0872C53.6653 43.5583 52.696 43.3742 52.0029 43.293C51.8296 43.1576 51.9704 42.7081 51.7971 42.5728C50.9741 42.4374 51.0228 43.1684 50.3567 43.1901C49.9398 42.8922 50.7791 42.2208 50.2539 42.1612C50.1347 42.6161 49.7069 43.3958 50.1618 43.8074H50.151ZM52.826 44.6305C53.178 44.9824 53.557 44.6684 53.9577 44.9391C53.9577 44.8254 54.0714 44.7767 54.1635 44.7333C54.2393 44.4518 53.9577 44.5276 53.9577 44.3218C53.4704 44.6738 53.1509 44.0402 52.8368 44.6305H52.826ZM54.2934 44.5276C54.2894 44.5827 54.2973 44.638 54.3165 44.6897C54.3358 44.7415 54.366 44.7885 54.405 44.8275C54.4441 44.8666 54.4911 44.8968 54.5428 44.916C54.5946 44.9353 54.6499 44.9432 54.705 44.9391C54.8512 44.9391 54.8783 44.7712 55.0136 44.7333C54.9812 44.2406 54.5371 44.3056 54.2934 44.5276Z" fill="#0B8D45"/>
</g>
</g>
<defs>
<clipPath id="clip0_2_520">
<rect width="108.33" height="64.98" fill="white" transform="translate(0.669922)"/>
</clipPath>
<clipPath id="clip1_2_520">
<rect width="108.33" height="64.98" fill="white" transform="translate(0.669922)"/>
</clipPath>
</defs>
</svg>
