<svg width="109" height="65" viewBox="0 0 109 65" fill="none" xmlns="http://www.w3.org/2000/svg">
<g clip-path="url(#clip0_2_1821)">
<g clip-path="url(#clip1_2_1821)">
<path d="M54.3631 61.2509L54.0571 61.2168C53.1204 61.1991 52.1853 61.131 51.2559 61.0127C46.3638 60.3985 41.7256 58.4844 37.824 55.4698C33.9224 52.4551 30.9 48.4499 29.0712 43.871L28.9824 43.6327L29.1941 43.7562L33.9014 46.9483C34.2678 47.1967 34.6351 47.4436 35.0034 47.6891C35.0635 47.7291 35.1284 47.7627 35.2167 47.8147C35.2305 47.7551 35.2404 47.6947 35.2465 47.6338C35.2793 46.4021 35.3111 45.1704 35.3418 43.9387C35.3804 42.5004 35.4205 41.0624 35.462 39.6245C35.4615 39.592 35.4728 39.5601 35.495 39.5363L35.5763 39.7296C36.6683 42.5854 38.3659 45.1708 40.5523 47.308C42.7387 49.4453 45.362 51.0836 48.242 52.1104C49.6961 52.6246 51.2064 52.9638 52.7407 53.1209C56.3815 53.506 60.0562 52.8351 63.326 51.1883C67.7876 49.0269 71.3493 45.3684 73.3903 40.8505L73.8809 39.6657C73.8971 39.6153 73.9291 39.572 73.9719 39.5406L74.1928 47.8196L74.4294 47.688C75.2236 47.153 76.0178 46.6169 76.812 46.0797C77.9481 45.3101 79.0833 44.5395 80.2175 43.7681C80.2818 43.7205 80.3558 43.6876 80.4341 43.6717L80.3518 43.8883C78.6799 48.0443 76.0246 51.7326 72.6136 54.6366C69.2027 57.5406 65.138 59.5736 60.7685 60.5611C59.5745 60.8354 58.3618 61.0209 57.1404 61.1161L55.4618 61.213L55.1125 61.2509H54.3631ZM44.1173 56.8913L44.2668 56.8718L45.4695 56.6959C45.6788 56.6629 45.8753 56.5738 46.0379 56.4379C46.2006 56.3019 46.3232 56.1244 46.3927 55.9242C46.5915 55.4125 46.5297 54.8363 46.227 54.3782C46.0954 54.1427 45.8242 54.023 45.5615 54.0847C45.1511 54.1454 44.7991 54.4091 44.6247 54.7854C44.5733 54.8602 44.5538 54.9528 44.5711 55.0421C44.5885 55.1315 44.641 55.21 44.7173 55.2598C44.8614 55.3735 45.0168 55.4715 45.1814 55.5527C45.391 55.661 45.6146 55.7444 45.8263 55.8435C45.8771 55.8575 45.9224 55.8866 45.9562 55.927C45.99 55.9673 46.0108 56.0169 46.0158 56.0693C45.4755 56.2478 44.9094 56.3354 44.3404 56.3287L44.3583 56.1273C44.3042 56.1451 44.2603 56.1457 44.2381 56.1684C44.1491 56.2466 44.0417 56.301 43.9261 56.3267C43.8104 56.3523 43.6901 56.3484 43.5764 56.3152C42.8147 56.2237 42.064 56.0572 41.3351 55.8181L39.7648 55.2224C39.7106 55.2019 39.6565 55.1493 39.5677 55.2224C39.6442 55.2714 39.7226 55.3175 39.8027 55.3605L41.7656 56.3796C42.1522 56.5805 42.5681 56.7197 42.9981 56.7917L43.5396 56.8827L43.5152 57.0153C43.4546 57.2455 43.5569 57.4875 43.7643 57.6045C43.8433 57.6587 43.9269 57.7062 44.0139 57.7464C44.4747 57.9499 44.9776 58.0394 45.4803 58.0074C45.9671 57.9781 46.4458 57.872 46.899 57.6922C47.1113 57.626 47.3013 57.503 47.4487 57.3364C47.4633 57.318 47.4947 57.3132 47.5434 57.2899L47.5066 57.82C47.4633 58.1211 47.5981 58.42 47.8526 58.5862C48.2225 58.8516 48.712 58.8797 49.1094 58.6577C49.3103 58.5468 49.485 58.3939 49.6215 58.2095C49.758 58.025 49.8532 57.8133 49.9006 57.5888C49.997 57.126 50.0204 56.6509 49.9699 56.1809L49.9293 55.1861C49.9087 55.0378 49.952 54.8872 50.0479 54.7719C50.1312 54.6858 50.1589 54.5602 50.1193 54.447L49.9742 53.8454C49.9498 53.7757 49.9208 53.7077 49.8876 53.6418C49.7488 53.793 49.622 53.9549 49.5085 54.1259C49.4743 54.2378 49.462 54.3553 49.4722 54.4719C49.4722 54.5012 49.463 54.5304 49.463 54.5602V56.4625L49.4831 57.5011C49.4717 57.6559 49.45 57.8097 49.4181 57.9619C49.4124 58.0248 49.3849 58.0838 49.3403 58.1287C49.2957 58.1735 49.2368 58.2012 49.1739 58.2072C48.941 58.2559 48.6984 58.2278 48.4829 58.1265C48.3271 58.0743 48.1938 57.9704 48.1051 57.832C48.0164 57.6936 47.9778 57.5291 47.9956 57.3657L48.0676 56.5285C48.1239 56.1565 48.1309 55.7785 48.0893 55.4044C48.0649 55.1726 47.9912 54.949 47.8727 54.7486C47.5851 54.9197 47.4243 55.2441 47.4617 55.5766C47.4968 56.0098 47.5028 56.4451 47.479 56.8789C47.4882 57.0002 47.4129 57.1123 47.297 57.1496C46.7049 57.4031 46.0622 57.516 45.4191 57.4794C45.0801 57.4566 44.7488 57.3672 44.4444 57.2162C44.2978 57.1538 44.1808 57.0375 44.1173 56.8913ZM66.2057 54.4887L66.0806 54.7053L65.7015 55.3789C65.3393 55.9459 64.7631 56.3423 64.1047 56.4792C63.7738 56.5637 63.4235 56.4527 63.2014 56.1933C62.9859 55.9313 62.8088 55.6394 62.6762 55.3269C62.8486 55.1337 62.9544 54.8901 62.9778 54.6322L62.5202 55.0161C62.3302 54.812 62.2495 54.5439 62.0058 54.3696C61.9176 54.5246 61.8766 54.7019 61.8879 54.8799C61.8991 55.0579 61.9621 55.2287 62.0692 55.3713L61.8563 55.5479L61.0663 56.2231C60.9016 56.3774 60.7708 56.5643 60.6823 56.7719C60.5938 56.9796 60.5496 57.2034 60.5524 57.429C60.5458 57.4695 60.548 57.5108 60.5587 57.5503C60.5694 57.5898 60.5885 57.6266 60.6146 57.6582C60.6407 57.6897 60.6732 57.7153 60.7101 57.7332C60.7469 57.7511 60.7871 57.761 60.828 57.7621C60.945 57.7772 61.0636 57.7691 61.1773 57.7372C61.6733 57.585 62.1217 57.3072 62.4796 56.9314C62.5946 56.8146 62.6656 56.6615 62.6805 56.4982L62.7022 56.3233L63.0271 56.8069C63.1416 56.9723 63.3046 57.0982 63.4935 57.1673C63.6825 57.2364 63.8882 57.2454 64.0825 57.1929C64.318 57.1345 64.5465 57.0505 64.7642 56.9433C65.3062 56.6628 65.7443 56.2166 66.0145 55.6697L66.1992 55.3594C66.3185 55.5133 66.4936 55.614 66.6865 55.6399C67.3547 55.6784 67.9444 55.2083 68.056 54.5483C68.0641 54.486 68.0798 54.4243 68.0933 54.3539C68.4935 54.4589 68.9191 54.343 69.2105 54.0495C69.2715 54.0067 69.3225 53.9511 69.3599 53.8866C69.3973 53.822 69.4202 53.7502 69.4271 53.6759C69.4449 53.3797 69.3789 53.084 69.2365 52.8236C69.181 52.7237 69.0945 52.6445 68.99 52.5982C68.8856 52.5519 68.7689 52.5409 68.6576 52.5669L68.7069 53.018C68.7106 53.0701 68.7314 53.1196 68.7661 53.1587C68.8007 53.1978 68.8473 53.2245 68.8986 53.2346C68.9576 53.2503 69.0139 53.2747 69.08 53.2979C68.8964 53.5139 68.6372 53.6514 68.3554 53.6824C68.0993 53.7062 68.0739 53.6824 68.0067 53.4349C67.9867 53.3602 67.9997 53.2557 67.8638 53.2151L67.8491 53.4636L67.8638 53.9282C67.8665 54.0089 67.8573 54.0902 67.8367 54.1681C67.7376 54.412 67.5616 54.6168 67.3354 54.7514C67.1092 54.886 66.8452 54.943 66.5836 54.9138C66.4385 54.9029 66.3183 54.7979 66.2874 54.656C66.2658 54.5975 66.2376 54.5418 66.2046 54.4887H66.2057ZM36.7746 49.6531C36.6912 49.671 36.6095 49.6959 36.5299 49.7273C36.1627 49.9092 35.8741 50.2184 35.7181 50.5975C35.6532 50.7637 35.6407 50.9462 35.6824 51.12C35.7076 51.2673 35.7867 51.3999 35.9043 51.492C36.0219 51.5841 36.1697 51.6291 36.3187 51.6182C36.414 51.6155 36.5082 51.5922 36.604 51.5852L37.5067 51.5272C37.6685 51.5359 37.8283 51.5669 37.9816 51.6193C38.1289 51.6599 38.2329 51.7915 38.2383 51.9442C38.2448 52.0103 38.248 52.0763 38.2475 52.1429C38.249 52.4017 38.3028 52.6575 38.4056 52.8951C38.5875 53.3169 38.8616 53.6927 39.2081 53.9948C40.0788 54.7816 41.1575 55.3004 42.3158 55.4888C42.5032 55.5312 42.6979 55.5303 42.8849 55.4863C43.072 55.4423 43.2466 55.3563 43.3955 55.2349C43.6387 55.0529 43.8114 54.7914 43.8829 54.4963L44.1899 53.1826C44.2105 53.0505 44.2793 52.9303 44.3821 52.8447C44.4585 52.783 44.4991 52.6871 44.4904 52.5897L44.4986 52.014C44.4948 51.9593 44.4877 51.9052 44.4774 51.8516C44.3247 51.896 44.1834 51.9729 44.0632 52.0769C43.9722 52.131 43.9143 52.2263 43.9089 52.3319C43.9045 52.3758 43.8959 52.4191 43.8834 52.4613C43.6795 53.2537 43.4749 54.0459 43.2699 54.838C43.252 54.9067 43.225 54.9733 43.1984 55.0546L42.7679 55.0242C41.9681 54.9084 41.2041 54.617 40.5299 54.1714C40.2211 53.9703 39.9327 53.7394 39.6689 53.482C39.1881 53.064 38.9103 52.4597 38.9049 51.8224C38.9016 51.7709 38.8946 51.7195 38.8848 51.6691C38.8809 51.5907 38.8527 51.5155 38.8042 51.4538C38.7558 51.3921 38.6893 51.347 38.6141 51.3247C38.4186 51.2619 38.2177 51.2175 38.0136 51.1931C37.6305 51.1633 37.2451 51.1962 36.8726 51.2906C36.7791 51.3145 36.681 51.3134 36.5881 51.2876C36.4951 51.2617 36.4106 51.212 36.3428 51.1433C36.2751 51.0746 36.2265 50.9894 36.2019 50.8961C36.1774 50.8028 36.1777 50.7047 36.2028 50.6116C36.2483 50.3416 36.3816 50.0942 36.5818 49.9076C36.6769 49.8513 36.7461 49.7599 36.7746 49.6531ZM50.924 57.2753C50.7713 57.3294 50.7686 57.3256 50.7296 57.3836C50.5092 57.6798 50.3384 58.0099 50.2238 58.361C50.1513 58.5711 50.1323 58.7958 50.1697 59.0151C50.2433 59.3595 50.4626 59.6546 50.7713 59.8241C51.1991 60.0775 51.6826 60.2216 52.1792 60.2432C53.3342 60.3223 54.4871 60.0586 55.4932 59.4851C56.0347 59.184 56.0347 59.1824 56.2307 58.5906L56.3628 58.1184H56.8128C57.2866 58.094 57.7453 57.9445 58.1422 57.6852C58.288 57.5958 58.3948 57.4549 58.4416 57.2904C58.5272 57.053 58.542 56.7959 58.4844 56.5502C58.4391 56.3803 58.3659 56.2191 58.2678 56.0731C58.2359 56.0178 58.1902 55.9718 58.1351 55.9395C58.08 55.9072 58.0175 55.8898 57.9536 55.889C57.8898 55.8882 57.8268 55.904 57.7709 55.9348C57.715 55.9657 57.6681 56.0105 57.6348 56.065C57.5363 56.1927 57.4639 56.3386 57.422 56.4944C57.3584 56.7517 57.3094 57.0124 57.2753 57.2753C57.2596 57.3836 57.2211 57.4377 57.1128 57.4377C56.8995 57.4469 56.6858 57.4444 56.4728 57.4301C56.2031 57.4155 55.9529 57.2861 55.7856 57.0744C55.7417 57.0267 55.6935 56.9839 55.641 56.9466C55.5124 57.0891 55.4232 57.2627 55.3822 57.4502C55.3744 57.536 55.3962 57.622 55.4439 57.6938C55.4899 57.7599 55.5446 57.8195 55.6064 57.8714C55.7683 58.0339 55.8879 58.2343 55.9545 58.4541C56.0087 58.6393 56.006 58.6707 55.843 58.76L55.0779 59.1564C54.1746 59.5728 53.1691 59.7147 52.1857 59.5653C51.7817 59.5144 51.3957 59.3654 51.0621 59.1321C50.9075 59.0288 50.7838 58.8857 50.7041 58.7178C50.6244 58.5499 50.5917 58.3635 50.6094 58.1785C50.6322 57.9579 50.7008 57.7445 50.8108 57.552C50.852 57.4702 50.8801 57.3836 50.924 57.2753ZM69.8505 55.4109L69.9085 55.4574C69.974 55.4136 70.0368 55.3665 70.0974 55.3161L71.6949 53.8503C72.5006 53.0249 73.018 51.9612 73.1699 50.8179C73.2002 50.6687 73.1963 50.5145 73.1584 50.3671C73.1206 50.2196 73.0498 50.0826 72.9514 49.9665C72.853 49.8503 72.7296 49.7579 72.5903 49.6963C72.4511 49.6348 72.2997 49.6055 72.1476 49.6109C72.1254 49.6109 72.1032 49.6071 72.0815 49.6109C72.0338 49.6164 71.9855 49.6079 71.9424 49.5866C71.8994 49.5653 71.8634 49.5319 71.8389 49.4907C71.8102 49.4398 71.762 49.4024 71.7057 49.3872C71.5194 49.3753 71.3315 49.3823 71.1263 49.3823C71.1886 49.6103 71.2276 49.8275 71.4306 49.9461C71.723 50.1356 72.0625 50.2401 72.4113 50.2482C72.5435 50.2536 72.6753 50.2664 72.806 50.2867L72.7919 50.4204C72.6576 51.1471 72.401 51.8456 72.0338 52.4868C71.6602 53.1062 71.24 53.6959 70.7765 54.251L69.9642 55.2441C69.9209 55.2944 69.8868 55.3546 69.8505 55.4109ZM67.3315 49.7376L67.2838 49.7733C67.2638 50.0527 67.3813 50.3246 67.5984 50.5022C67.881 50.7151 68.1507 50.9447 68.4058 51.1899L69.4753 52.2474L70.1186 52.8544C70.2169 52.9566 70.3434 53.0272 70.4819 53.0573C70.6205 53.0874 70.7649 53.0756 70.8967 53.0234C71.118 52.9382 71.3153 52.8005 71.4715 52.6221C71.6277 52.4437 71.7382 52.23 71.7934 51.9994C71.8091 51.9499 71.8124 51.8973 71.8032 51.8462L71.6218 51.1666C71.5687 51.0079 71.4355 50.8888 71.272 50.8531C71.0846 50.819 70.8951 50.7995 70.705 50.7951C70.614 50.7897 70.5707 50.8493 70.5891 50.9402L70.6601 51.2413C70.7229 51.478 70.7239 51.4763 70.9768 51.4709C71.1439 51.4509 71.3131 51.4797 71.4642 51.5538C71.4018 51.7249 71.3051 51.8814 71.18 52.0138C71.055 52.1462 70.9042 52.2517 70.7369 52.3238C70.6536 52.3548 70.5645 52.3677 70.4758 52.3614C70.3871 52.3551 70.3007 52.3299 70.2225 52.2875C70.1137 52.2258 70.0124 52.1516 69.9209 52.066L68.6386 50.8471L67.5096 49.8551C67.4531 49.8118 67.3938 49.7723 67.332 49.737L67.3315 49.7376ZM59.79 58.9366L59.8398 58.9544C59.8848 58.8995 59.9223 58.8389 59.9514 58.7741C60.012 58.6019 60.0553 58.4238 60.0808 58.2429C60.1113 57.7258 60.0133 57.2091 59.7954 56.7392L59.1694 55.2771C59.0757 55.1071 59.0563 54.9062 59.1153 54.7215C59.1516 54.623 59.1342 54.512 59.0687 54.4297L58.6555 53.8026C58.6187 53.7588 58.5786 53.7187 58.5353 53.6819C58.3777 53.9055 58.3193 54.1844 58.3729 54.4524L58.9999 56.1971L59.5539 57.5206C59.7412 57.9397 59.8154 58.4005 59.7705 58.857C59.7722 58.8845 59.7788 58.9114 59.79 58.9366ZM51.3545 58.864C51.4073 58.8428 51.4582 58.817 51.5067 58.7871C51.6594 58.6577 51.7763 58.4909 51.8446 58.3025C52.0041 57.8876 52.0585 57.4396 52.0027 56.9985L51.8137 55.5078C51.7947 55.4213 51.7945 55.3316 51.8132 55.245C51.8319 55.1584 51.869 55.0768 51.922 55.0058C51.9664 54.9473 51.9843 54.8726 51.9713 54.8006L51.6848 53.9066C51.4953 54.1318 51.2863 54.2775 51.2938 54.5629C51.3247 55.5652 51.4092 56.5648 51.5456 57.5579C51.5983 57.925 51.5548 58.2994 51.4195 58.6447C51.3962 58.7037 51.3837 58.7649 51.3545 58.8662V58.864ZM63.5924 55.6941L63.7316 55.5717L65.153 54.1151C65.9512 53.2752 66.6719 52.3649 67.3065 51.3956C67.4156 51.2455 67.4708 51.0629 67.463 50.8774C67.449 50.82 67.4284 50.7643 67.4018 50.7112L67.2302 50.9554C66.8324 51.576 66.3984 52.1727 65.9306 52.7424C65.2418 53.5828 64.4642 54.3387 63.7012 55.1087C63.6212 55.1812 63.5673 55.278 63.5476 55.3841C63.5279 55.4902 63.5437 55.5999 63.5924 55.6962V55.6941ZM39.435 50.8271L39.174 50.0657C39.161 50.0316 39.0922 50.0116 39.0457 49.9997C38.9228 49.9765 38.7991 49.9584 38.6747 49.9455C38.6344 49.9445 38.5958 49.929 38.566 49.9019C38.5361 49.8747 38.5171 49.8377 38.5123 49.7977L38.3915 49.3044C38.3791 49.2589 38.3515 49.1923 38.3168 49.182C38.1033 49.1055 37.8775 49.0688 37.6508 49.0737L37.7591 49.7489C37.7634 49.8637 37.8527 49.9569 37.9675 49.9655L38.4587 50.0738L38.6357 50.6365C38.6531 50.6863 38.6931 50.7572 38.7338 50.7653C38.9639 50.8162 39.2 50.8379 39.4355 50.8292L39.435 50.8271ZM61.7908 53.8746L62.3448 53.9775C62.3919 53.9851 62.4677 53.9894 62.4883 53.9629C62.6404 53.7837 62.765 53.5828 62.8592 53.3672L62.2273 53.2476C62.1195 53.2097 62.0004 53.2595 61.9506 53.3624C61.8775 53.488 61.7838 53.6012 61.6939 53.7263L61.147 53.5985C61.0815 53.5866 60.9797 53.5844 60.9461 53.6228C60.8123 53.7745 60.6986 53.9439 60.553 54.1405L61.3695 54.4026L61.7908 53.8746ZM65.9961 57.579L66.0124 57.6196C66.032 57.6264 66.0528 57.6291 66.0736 57.6278C66.1288 57.6104 66.183 57.59 66.236 57.5666C66.7263 57.3406 67.1626 57.0123 67.5156 56.6038L68.1681 55.9128C68.3094 55.7488 68.5125 55.6508 68.7285 55.6421C68.8027 55.6383 68.8745 55.6145 68.9363 55.5733C68.9981 55.532 69.0475 55.4747 69.0794 55.4076L69.1791 55.2116L69.2711 55.197C69.3325 55.1958 69.3928 55.1803 69.4472 55.1517C69.5015 55.1232 69.5485 55.0823 69.5843 55.0324C69.6202 54.9826 69.6439 54.925 69.6536 54.8644C69.6634 54.8038 69.6588 54.7417 69.6404 54.6831C69.6204 54.5748 69.57 54.5282 69.4623 54.5791C69.4287 54.9782 69.3642 54.9165 69.1038 54.8076L69.0496 55.0427C69.028 55.2203 68.8758 55.3524 68.6971 55.3491C68.4889 55.3637 68.294 55.4568 68.1518 55.6096L67.6152 56.1966C67.2011 56.6776 66.7205 57.097 66.1878 57.442C66.1217 57.4854 66.0606 57.5352 65.9967 57.5828L65.9961 57.579ZM53.1084 55.4531L53.5903 55.4287C53.67 55.4287 53.7528 55.4228 53.7658 55.3361C53.7681 55.2731 53.7464 55.2116 53.7051 55.1639C53.6288 55.0807 53.5476 55.0021 53.462 54.9284C53.5562 54.7205 53.5476 54.4719 53.7328 54.2959L53.9185 54.434C54.0344 54.2905 54.0349 54.2374 53.9331 54.1508C53.8898 54.1021 53.8248 54.0793 53.7604 54.0907C53.6959 54.1021 53.6423 54.1448 53.618 54.205C53.5378 54.3398 53.4799 54.4882 53.4046 54.6452C53.2476 54.4345 53.1236 54.212 52.8631 54.1448C52.7467 54.3522 52.7656 54.4567 52.953 54.5136C53.0938 54.5564 53.1442 54.6598 53.2097 54.7659C53.2871 54.8916 53.3136 55.0091 53.1907 55.1195C53.1409 55.1645 53.2367 55.2408 53.1398 55.2847C53.0702 55.321 53.015 55.3799 52.9832 55.4517C52.9514 55.5236 52.945 55.604 52.9649 55.68C52.9844 55.8035 53.0142 55.9248 53.0543 56.0428L53.357 57.0809C53.3991 57.2919 53.4302 57.505 53.4501 57.7193C53.4875 57.6651 53.5189 57.6386 53.5221 57.611C53.5449 57.4741 53.5554 57.3355 53.5535 57.1967C53.4914 56.7667 53.3875 56.3438 53.2432 55.934L53.1106 55.4553L53.1084 55.4531ZM39.3126 51.5733C39.3679 51.5976 39.4242 51.6187 39.4821 51.6355L41.771 52.1191C42.2113 52.2025 42.6602 52.2415 43.1058 52.294C43.1814 52.3131 43.2612 52.3049 43.3313 52.2708C43.4013 52.2367 43.4571 52.1789 43.4887 52.1077L43.0555 52.0676C42.1414 51.9626 41.2355 51.7974 40.3431 51.5738L39.6765 51.4184C39.5336 51.3751 39.3808 51.4417 39.3148 51.5754L39.3126 51.5733ZM53.0066 58.6193L53.3905 58.8656C53.8541 59.1461 53.7246 59.1185 54.1216 58.8261C54.212 58.76 54.3257 58.7113 54.3772 58.5705C54.1443 58.4081 53.8963 58.2868 53.6553 58.153C53.6288 58.1417 53.5979 58.1438 53.573 58.1584C53.37 58.2933 53.181 58.4487 53.0093 58.6214L53.0066 58.6193ZM38.1007 53.4869C38.1007 53.4685 38.1062 53.4506 38.1089 53.4328L37.9318 53.3564C37.0717 53.0471 36.2283 52.693 35.4052 52.2956C35.3532 52.2679 35.2989 52.245 35.2427 52.2274C35.2037 52.2117 35.1599 52.2128 35.1219 52.2312C35.084 52.2496 35.0553 52.2832 35.0434 52.3232L35.2016 52.411L36.7399 53.0873L37.7737 53.4788C37.8766 53.5292 37.9957 53.5319 38.1007 53.4869ZM69.6404 47.5304L69.5863 47.6544L68.9143 49.5448C68.8368 49.7614 68.7372 49.965 68.6516 50.1762C68.5883 50.3332 68.5975 50.3641 68.7415 50.4648L68.8255 50.2867L69.3204 49.0358L69.6994 47.884C69.7272 47.8264 69.7364 47.7616 69.7257 47.6985C69.715 47.6355 69.685 47.5773 69.6399 47.532L69.6404 47.5304ZM57.4994 58.8283L57.7399 58.7357L57.9938 58.6631C58.0886 58.6323 58.1752 58.5846 58.1752 58.4698C58.1752 58.3713 58.0875 58.3431 58.0155 58.3074C57.9825 58.2917 57.9478 58.2787 57.9126 58.2684C57.8694 58.2533 57.8233 58.2483 57.7778 58.2536C57.7324 58.2589 57.6887 58.2744 57.6501 58.299C57.6115 58.3236 57.579 58.3566 57.5549 58.3956C57.5309 58.4345 57.516 58.4784 57.5114 58.524C57.5065 58.5554 57.5114 58.5992 57.4913 58.6149C57.4159 58.6814 57.3675 58.7732 57.3551 58.8729C57.3427 58.9727 57.3673 59.0735 57.4242 59.1564L57.7859 59.934C57.7929 59.9492 57.8216 59.9546 57.84 59.9638C57.9413 59.9032 57.9251 59.81 57.9029 59.7261C57.8766 59.6345 57.8423 59.5453 57.8005 59.4597L57.4994 58.8283ZM55.7255 56.3948C55.9237 56.1484 55.8143 55.8387 55.9762 55.5906L56.2388 55.7309C56.3471 55.5825 56.3471 55.5224 56.2323 55.4342C56.1722 55.3638 56.0769 55.3356 55.9881 55.3616C55.8993 55.3876 55.8343 55.4629 55.8219 55.5544C55.7818 55.667 55.7558 55.785 55.7179 55.9204C55.5289 55.7168 55.2934 55.562 55.0313 55.4694C54.8954 55.6816 54.8981 55.7455 55.1017 55.8105C55.3177 55.8874 55.4986 56.0401 55.6107 56.2399C55.6383 56.2832 55.6703 56.3217 55.7255 56.3959V56.3948ZM70.7099 49.3212C70.6725 49.0093 70.392 48.8593 70.3146 48.5858L70.6102 48.5067C70.5761 48.3167 70.5068 48.2685 70.3444 48.3075C70.1933 48.3438 70.1229 48.4434 70.1646 48.5809C70.1909 48.6496 70.2247 48.7151 70.2653 48.7764L70.4088 49.0158C70.1287 48.9748 69.8428 49.016 69.5857 49.1343C69.6523 49.3612 69.7151 49.397 69.903 49.3298C69.9306 49.3201 69.9577 49.3076 69.9826 49.2919C70.0844 49.2291 70.2084 49.2139 70.3227 49.2491C70.4418 49.2795 70.5642 49.2979 70.7104 49.3222L70.7099 49.3212ZM41.7331 50.7691L41.5766 50.1594C41.5561 50.0858 41.5171 50.0181 41.4191 50.0571C41.3362 50.0901 41.281 50.1469 41.3032 50.2428C41.3118 50.3013 41.3335 50.357 41.3676 50.4052C41.4689 50.5433 41.5024 50.7199 41.458 50.8856L41.4299 51.1563C41.6048 51.1309 41.6795 51.0144 41.7764 50.931C41.8734 50.8476 41.9513 50.7144 42.1051 50.669L42.1593 50.7935C42.1593 50.7935 42.188 50.8883 42.2021 50.9354C42.3548 50.8969 42.3748 50.8812 42.3905 50.8087C42.4095 50.7199 42.3553 50.5471 42.2757 50.5168C42.2102 50.493 42.1376 50.4957 42.0743 50.5244C41.9557 50.5996 41.842 50.6814 41.7337 50.7702L41.7331 50.7691ZM42.4966 52.8225C42.4701 52.7938 42.4333 52.777 42.3938 52.7759C42.3542 52.7748 42.3169 52.79 42.2892 52.8176C42.0873 52.9395 41.8929 53.0721 41.7055 53.2156C41.5911 53.3179 41.4967 53.4405 41.4272 53.5774C41.3546 53.7284 41.392 53.9093 41.5181 54.0192C41.5897 54.0494 41.6688 54.0568 41.7447 54.0405C41.8207 54.0243 41.8898 53.9851 41.9427 53.9282C42.0001 53.8741 42.0818 53.8134 42.0234 53.6997L41.9351 53.7301C41.7813 53.7875 41.7185 53.7468 41.7071 53.5866C41.6979 53.4891 41.7369 53.3938 41.8122 53.331L42.0217 53.1685L42.4966 52.8225ZM66.3627 51.0632L66.1911 51.028L65.7763 50.9738C65.6918 50.9668 65.6089 50.9809 65.6095 51.0973C65.6095 51.1964 65.6636 51.2478 65.7795 51.2597C65.8155 51.266 65.8523 51.2649 65.8878 51.2565C65.9731 51.233 66.0627 51.2294 66.1496 51.2459C66.2365 51.2625 66.3185 51.2987 66.3892 51.3518C66.4542 51.3875 66.5149 51.4568 66.614 51.4108C66.614 51.1487 66.4044 50.9451 66.4055 50.6771H66.6627C66.6887 50.4946 66.66 50.4491 66.5122 50.4329C66.3086 50.4107 66.2246 50.4989 66.2636 50.7036C66.2874 50.8189 66.3253 50.9278 66.3633 51.0642L66.3627 51.0632ZM48.2961 53.3445C48.2501 53.3423 48.2041 53.3423 48.158 53.3445L46.8443 53.5032L46.0321 53.5811C45.9205 53.5914 45.8112 53.6001 45.7825 53.7615H46.0278C46.1378 53.7541 46.2476 53.7432 46.357 53.729C46.9259 53.6568 47.4949 53.5846 48.0638 53.5124C48.1152 53.5126 48.1653 53.4966 48.207 53.4666C48.2487 53.4367 48.2799 53.3943 48.2961 53.3456V53.3445ZM57.298 54.8228L57.3559 54.865L57.9749 54.3777C58.0094 54.3524 58.0325 54.3144 58.0392 54.2721C58.0459 54.2299 58.0356 54.1866 58.0106 54.1519C57.8395 54.303 57.5985 54.3468 57.3852 54.2651C57.4859 54.1719 57.4859 54.1719 57.6743 54.1725C57.7052 54.0939 57.7946 54.0133 57.6819 53.9277C57.5861 53.8551 57.4984 53.906 57.4285 53.9819C57.3562 54.0551 57.2907 54.1349 57.233 54.2201C57.1052 54.4216 57.1182 54.4557 57.3327 54.5688C57.344 54.5748 57.3505 54.5894 57.3586 54.5981L57.298 54.8212V54.8228ZM69.9263 51.1065L69.9729 51.1103C70.0859 50.8596 70.1802 50.601 70.255 50.3365C70.2664 50.291 70.2279 50.2341 70.2009 50.1405C70.0422 50.3468 69.9799 50.6078 69.6967 50.6197C69.6875 50.4572 69.8391 50.4821 69.9133 50.4031L69.8224 50.1556C69.7319 50.2276 69.6534 50.2639 69.6166 50.3251C69.5471 50.4486 69.5262 50.5937 69.5581 50.7318C69.5938 50.9191 69.603 50.9256 69.8066 50.9013C69.8186 50.9013 69.8326 50.911 69.8413 50.9143L69.9263 51.1065ZM61.0484 55.1325C61.0701 54.9593 61.0354 54.8997 60.9125 54.8797C60.8874 54.8741 60.8614 54.8741 60.8363 54.8796C60.8112 54.885 60.7875 54.8958 60.767 54.9112C60.7464 54.9267 60.7294 54.9463 60.7172 54.9689C60.7049 54.9915 60.6977 55.0165 60.6959 55.0421C60.678 55.139 60.6775 55.2398 60.6672 55.3594C60.5455 55.2937 60.4202 55.2348 60.292 55.1829C60.2178 55.1656 60.1398 55.1656 60.0656 55.1829C60.0504 55.1829 60.0255 55.2836 60.0396 55.2955C60.0932 55.3502 60.162 55.3881 60.2367 55.4038C60.377 55.4141 60.5069 55.4807 60.5979 55.5879C60.6483 55.6326 60.7009 55.6747 60.7555 55.7141L60.8004 55.6887V55.093L61.0484 55.1325ZM49.6769 59.4499C49.5768 59.4922 49.5015 59.5913 49.4062 59.4857C49.3705 59.4429 49.351 59.3889 49.351 59.3332C49.351 59.2775 49.3705 59.2236 49.4062 59.1808C49.4338 59.1375 49.4641 59.0952 49.4966 59.0552L49.7132 58.7758C49.7342 58.7371 49.7509 58.6962 49.763 58.6539C49.4295 58.8288 49.1966 59.1488 49.1327 59.5203C49.1371 59.6725 49.2524 59.7986 49.4035 59.816C49.4461 59.8113 49.4874 59.798 49.5247 59.7769C49.562 59.7557 49.5945 59.7271 49.6203 59.6928C49.6462 59.6586 49.6647 59.6194 49.6748 59.5777C49.6849 59.536 49.6864 59.4927 49.6791 59.4505L49.6769 59.4499ZM59.9172 53.4176C59.8631 53.4458 59.8414 53.449 59.8371 53.4588C59.7061 53.741 59.665 54.0567 59.7196 54.3631C59.7483 54.4535 59.8051 54.532 59.882 54.5878C59.8982 54.6037 59.9177 54.6157 59.9391 54.6231C59.9605 54.6304 59.9833 54.6329 60.0057 54.6303C60.0282 54.6277 60.0499 54.6201 60.069 54.6081C60.0882 54.596 60.1044 54.5798 60.1165 54.5607C60.1622 54.5091 60.189 54.4433 60.1923 54.3744C60.1957 54.3055 60.1754 54.2375 60.1349 54.1817L60.0125 54.3344C59.9398 54.3092 59.8799 54.2564 59.8458 54.1874C59.8117 54.1183 59.8063 54.0386 59.8306 53.9656L59.9199 53.4182L59.9172 53.4176ZM40.3063 50.0603L40.1173 50.0435C40.0713 49.867 40.1752 49.7787 40.2873 49.7078C40.3994 49.6369 40.5223 49.5887 40.6393 49.5275C40.6864 49.5031 40.7297 49.4733 40.779 49.4403C40.7525 49.4165 40.74 49.3975 40.7324 49.3997C40.4287 49.4591 40.1493 49.607 39.9294 49.8248C39.8482 49.9038 39.8146 50.0197 39.8406 50.1296C39.8444 50.1708 39.8644 50.2087 39.8964 50.2347C39.9283 50.2607 39.9695 50.2731 40.0101 50.2688C40.0753 50.2704 40.1394 50.2513 40.1931 50.2142C40.2468 50.1772 40.2874 50.124 40.309 50.0625L40.3063 50.0603ZM63.8225 53.9737L63.8767 53.9846C64.0516 53.6889 64.1149 53.3396 64.0548 53.0012C64.0532 52.972 64.0413 52.9438 64.0218 52.9216C63.9606 52.875 63.894 52.8084 63.8269 52.8057C63.776 52.8057 63.7012 52.8767 63.6736 52.9341C63.6482 53.0086 63.6362 53.0871 63.6384 53.1658C63.6384 53.181 63.6628 53.1983 63.678 53.22L63.8052 53.1062C63.9525 53.2216 63.9677 53.2465 63.939 53.403L63.8252 53.9759L63.8225 53.9737ZM57.2097 55.1699C57.1534 55.2977 57.1058 55.4298 57.0673 55.5641C57.0332 55.7147 57.1041 55.7807 57.2612 55.7775C57.3955 55.7786 57.5211 55.7114 57.5953 55.5993C57.6993 55.452 57.6619 55.3372 57.4946 55.2744L57.2124 55.1721L57.2097 55.1699ZM47.8764 53.9217C47.7649 54.0019 47.799 54.088 47.7958 54.1627C47.7931 54.2261 47.7828 54.2878 47.7032 54.2829C47.6236 54.2781 47.5949 54.2201 47.61 54.1421C47.6228 54.1075 47.6291 54.0708 47.6284 54.0338C47.6147 53.9988 47.5951 53.9664 47.5705 53.938L47.5218 53.9439L47.4855 54.2537C47.4763 54.4134 47.5445 54.466 47.7021 54.4259C47.7372 54.4142 47.7714 54.4001 47.8044 54.3836C47.8312 54.3982 47.8572 54.4141 47.8824 54.4313C47.9076 54.4586 47.9414 54.4765 47.9781 54.4819C48.0149 54.4873 48.0524 54.48 48.0844 54.4611C48.1586 54.421 48.1976 54.3371 48.1802 54.2548C48.1624 54.1665 48.1337 54.0804 48.1066 53.984C47.9587 54.0571 48.0524 54.1827 47.9658 54.2672L47.8764 53.9217ZM45.7965 52.4651C45.7126 52.5236 45.6346 52.5897 45.5626 52.6628C45.516 52.7169 45.4657 52.8149 45.4841 52.8702C45.5035 52.904 45.5303 52.9329 45.5626 52.9546C45.5949 52.9764 45.6318 52.9905 45.6704 52.9958C45.7642 53.0028 45.858 52.9831 45.9411 52.9389C46.0494 52.8848 46.0554 52.7981 45.9844 52.6974C45.9352 52.6281 45.8767 52.5631 45.7987 52.4673L45.7965 52.4651ZM37.3914 52.5328C37.3345 52.4786 37.2576 52.438 37.2463 52.3844C37.2257 52.2897 37.3177 52.2518 37.393 52.2187C37.4683 52.1857 37.543 52.1581 37.6161 52.124C37.6643 52.1018 37.7092 52.0698 37.7558 52.046L37.7379 52.0054C37.5067 52.0195 37.2863 52.111 37.1125 52.2642C37.0885 52.2818 37.0683 52.3041 37.053 52.3297C37.0378 52.3553 37.0278 52.3836 37.0238 52.4131C37.0197 52.4427 37.0217 52.4727 37.0295 52.5014C37.0373 52.5302 37.0508 52.557 37.0692 52.5805C37.1401 52.6638 37.2625 52.6471 37.3935 52.5344L37.3914 52.5328ZM44.5998 53.8828L44.6166 53.9288C44.8083 53.8909 44.9848 53.7967 45.1229 53.658C45.1671 53.6245 45.1979 53.5763 45.2097 53.5221C45.2215 53.4679 45.2136 53.4113 45.1874 53.3624C45.1332 53.3012 45.0498 53.3153 44.9166 53.4106C44.9079 53.4165 44.9096 53.4366 44.9058 53.4501C45.0509 53.54 45.0612 53.5941 44.9361 53.6813C44.83 53.756 44.7141 53.8178 44.602 53.8849L44.5998 53.8828ZM56.117 54.7383C56.2789 54.6095 56.3937 54.4302 56.4419 54.2288C56.4755 54.0956 56.4321 53.9938 56.3444 53.9651C56.2567 53.9364 56.196 54.0041 56.1441 54.1817H56.2951C56.3493 54.4172 56.1441 54.5461 56.1192 54.7405L56.117 54.7383ZM68.4275 49.7387H68.4816C68.5125 49.5437 68.4881 49.3439 68.4112 49.162C68.369 49.0726 68.3148 48.9757 68.2011 49.0076C68.0766 49.0428 68.1091 49.1549 68.1269 49.2491C68.1269 49.26 68.1459 49.2676 68.1562 49.2768C68.2991 49.2107 68.3457 49.2302 68.3782 49.3748C68.3879 49.4175 68.3863 49.4625 68.3923 49.5064L68.4296 49.7408L68.4275 49.7387ZM70.4613 53.7458C70.2528 53.8443 70.2171 53.8264 70.1711 53.6093L70.1169 53.3895C70.0492 53.5481 70.0622 53.7295 70.1521 53.8768C70.2155 53.9981 70.3281 54.0468 70.4229 53.9943C70.5366 53.9331 70.4884 53.8389 70.4635 53.7474L70.4613 53.7458Z" fill="#E3171A"/>
<path d="M59.2407 17.3461L59.2911 16.9719L59.1113 16.9492L59.1876 16.6903C59.206 16.6499 59.213 16.6053 59.2078 16.5612C59.2027 16.5171 59.1856 16.4752 59.1584 16.4402C59.094 16.3681 59.1248 16.2896 59.1546 16.2116L59.3457 15.6896L59.1172 15.7118L59.2894 14.8926L59.055 15.0009L59.0972 14.4718L59.0588 14.4561L58.8936 14.637L58.8709 13.8204C58.7171 13.881 58.7506 14.0278 58.6602 14.1063C58.54 13.9493 58.6218 13.7516 58.5519 13.5648L58.3754 13.6769L58.3169 13.2101L58.1333 13.2875C58.0884 13.0428 57.8875 12.8571 57.64 12.8316L57.725 13.5426C57.8599 14.3511 57.8864 15.1741 57.8041 15.9896C57.7066 17.0077 57.3568 17.9851 56.7855 18.8336C56.6808 18.9754 56.5598 19.1045 56.4249 19.2181L56.4287 18.1892C56.4612 17.8811 56.4563 17.5708 56.4146 17.2638C56.4005 17.1479 56.4119 17.0299 56.4482 16.9188C56.4958 16.7445 56.5662 16.5755 56.6334 16.3855C56.4466 16.3855 56.4287 16.5625 56.2987 16.6448L56.2841 16.4412L56.2365 15.5147C56.2289 15.4427 56.2013 15.3739 56.1563 15.3171C56.0398 15.1633 55.9716 14.9784 55.9603 14.7859L55.9061 14.357C55.7616 14.4225 55.6565 14.5525 55.6219 14.7074C55.4901 15.0913 55.4171 15.4929 55.4053 15.8987L55.5314 19.6578L55.5894 21.9364L55.6321 25.3224C55.6292 25.8256 55.7375 26.3232 55.9495 26.7796C56.1162 27.1072 56.126 27.4927 55.976 27.8284C55.7794 28.2774 55.8238 28.7956 56.0946 29.2044L56.6615 30.0491C56.7297 30.1454 56.7886 30.2478 56.8375 30.3551C56.9025 30.4585 56.9106 30.5885 56.8592 30.6989C56.8077 30.8094 56.7032 30.8868 56.5819 30.9042C56.311 30.9735 56.0334 31.0134 55.754 31.0233C54.928 31.0417 54.1019 31.0451 53.2755 31.0336C53.0032 31.0244 52.733 30.9854 52.4687 30.9188C52.1248 30.8386 52.0203 30.6215 52.1801 30.3053C52.311 30.0661 52.4581 29.8361 52.6203 29.617C52.8177 29.3493 52.9623 29.0464 53.0465 28.7246C53.1474 28.358 53.1169 27.9676 52.9604 27.6211C52.8266 27.3703 52.8396 27.066 52.9945 26.8278C53.197 26.4314 53.3015 25.9928 53.2994 25.5476L53.412 21.3239L53.5517 17.2995L53.5241 15.1546C53.5127 14.8476 53.3735 14.559 53.1407 14.3581L53.0801 14.5677L52.9079 14.5427C52.9236 14.703 52.9301 14.8644 52.9263 15.0258C52.9052 15.1812 52.8743 15.335 52.8337 15.486H52.6663L52.7519 15.838C52.7719 15.9333 52.7833 16.0232 52.6772 16.0914C52.6425 16.1136 52.6311 16.1916 52.6311 16.2436C52.6385 16.3281 52.652 16.4119 52.6718 16.4943C52.5201 16.3806 52.4942 16.2176 52.3734 16.0941C52.3595 16.1334 52.3525 16.1748 52.3528 16.2165L52.4893 16.7039L52.5553 16.9151C52.6095 17.1035 52.6068 17.1067 52.447 17.228C52.5683 17.854 52.6198 18.4914 52.6014 19.1287C52.5381 19.1139 52.4786 19.086 52.4268 19.0469C52.3749 19.0077 52.3318 18.9581 52.3003 18.9013C51.8525 18.3213 51.5335 17.6526 51.364 16.94C51.1177 15.9339 51.0808 14.8877 51.2557 13.867L51.3521 13.0547C51.3776 12.9226 51.3651 12.7856 51.3175 12.6599C51.0467 12.6968 51.1642 12.9486 51.0603 13.0856L50.9341 12.9881C50.8962 13.0265 50.8518 13.058 50.8025 13.0807C50.763 13.0904 50.7126 13.0563 50.6401 13.032V13.6346L50.5902 13.6433L50.496 13.339C50.3655 13.4641 50.4142 13.6 50.4262 13.7262C50.4381 13.8523 50.4646 13.9845 50.4873 14.1328C50.2415 14.0787 50.3487 13.8009 50.1625 13.7132C50.0926 13.9438 50.1625 14.1816 50.1083 14.4198C49.9507 14.3538 50.0395 14.142 49.8728 14.0787C49.7493 14.377 49.9415 14.6424 49.9691 14.9413L49.746 14.833C49.7118 14.964 49.7237 15.1028 49.7796 15.2261L49.8879 15.6052L49.7255 15.6317C49.6952 15.7533 49.7125 15.8819 49.7737 15.9913C49.8176 16.0805 49.8405 16.1787 49.8405 16.2783C49.8405 16.3778 49.8176 16.476 49.7737 16.5652C49.7495 16.6446 49.7408 16.7279 49.7482 16.8105L49.5966 16.862L49.6643 17.241L49.6356 17.2524C49.6152 17.234 49.597 17.2133 49.5814 17.1907L48.8342 15.7351C48.389 14.8184 48.4524 13.7364 49.0015 12.8782C49.184 12.5674 49.4044 12.2787 49.6123 11.9836C49.7638 11.7897 49.8345 11.5446 49.8094 11.2997C49.801 11.2595 49.7905 11.2197 49.778 11.1806L49.6107 11.421L49.419 11.3165L49.3296 11.6804L49.132 11.6907L48.9154 12.2457L48.7946 11.9668C48.6425 12.1477 48.6549 12.3784 48.5325 12.5679L48.3977 12.3702L48.2266 12.8397L48.0279 12.7953L47.8789 13.5231L47.7268 13.2848C47.6988 13.3315 47.6768 13.3816 47.6613 13.4338C47.6483 13.5421 47.6488 13.6547 47.6396 13.7646C47.6368 13.8233 47.6256 13.8813 47.6066 13.9368L47.4263 14.3511L47.3239 14.3305C47.312 14.3429 47.2941 14.3532 47.2936 14.3646C47.2381 14.7136 47.22 15.0676 47.2394 15.4205C47.2549 15.4903 47.2528 15.5628 47.2335 15.6316C47.2141 15.7003 47.178 15.7633 47.1284 15.8147C47.1035 15.7801 47.0824 15.7427 47.0656 15.7032C46.8257 14.9732 46.705 14.2097 46.7077 13.4413C46.7162 12.6877 47.0153 11.9664 47.5427 11.428C48.2767 10.6304 49.2234 10.0593 50.2713 9.78188C50.428 9.73428 50.5822 9.67861 50.7332 9.61509C50.6601 9.4873 50.5594 9.50679 50.4679 9.51004L50.0314 9.52466C49.9805 9.53008 49.9318 9.54903 49.8906 9.57881C49.7168 9.70065 49.5468 9.75588 49.4168 9.59993L49.0188 9.65733L48.8249 9.87718L48.7708 9.63892C48.5688 9.66112 48.5363 9.86581 48.3977 9.97411L48.2163 9.90534L48.0582 10.0851L47.9114 9.96274L47.7057 10.4225L47.5329 10.3385L47.3932 10.54C47.3634 10.5903 47.3483 10.6483 47.3201 10.7024C47.2151 10.8936 46.9909 10.977 46.8918 11.1779C46.8772 11.2071 46.7835 11.1984 46.718 11.2093L46.5961 11.7464C46.5777 11.8228 46.5701 11.904 46.4662 11.93C46.3763 11.9527 46.3849 12.0416 46.3812 12.1147C46.3763 12.2132 46.3687 12.3085 46.2377 12.3426C46.199 12.299 46.1715 12.2467 46.1573 12.1901C46.1432 12.1336 46.1429 12.0744 46.1564 12.0177C46.1721 11.7898 46.2041 11.5634 46.2517 11.3403C46.5647 10.0023 47.5638 8.93064 48.8764 8.52451C49.4509 8.3339 50.0466 8.21694 50.6503 8.17524C50.8554 8.15001 51.0589 8.11386 51.2601 8.06694C51.3255 8.05846 51.3883 8.03548 51.4437 7.9997C51.4992 7.96392 51.5459 7.91623 51.5806 7.86009L51.3911 7.8341C51.3027 7.83235 51.2145 7.82366 51.1274 7.80811C50.8336 7.73134 50.5241 7.73904 50.2345 7.83031C50.1679 7.8498 50.0791 7.7924 49.9588 7.75829L49.6643 7.93319L49.5614 7.79674L49.1249 7.97435C49.0383 8.00467 48.9403 8.00251 48.8542 8.0285C48.754 8.06045 48.6592 8.10972 48.5233 8.16766C48.4351 8.12705 48.3306 8.16117 48.2109 8.2516C47.9851 8.42109 47.736 8.55917 47.4961 8.71025L47.4604 8.67884L47.6304 8.40809C48.0907 7.79132 48.6625 7.26607 49.3155 6.8594C49.9286 6.49284 50.645 6.33744 51.3548 6.41699L52.6089 6.53721C52.6788 6.53937 52.7481 6.53667 52.8174 6.52908L52.8353 6.47493C52.7898 6.43703 52.7416 6.40346 52.6913 6.37313C52.6081 6.34385 52.5269 6.3093 52.4481 6.26971C52.2618 6.13704 52.049 6.04444 51.8249 5.99896C51.7707 5.98921 51.7258 5.93831 51.6732 5.91611C51.5784 5.86351 51.4756 5.82692 51.3689 5.80781C51.2639 5.81376 51.1642 5.7607 51.1101 5.67027C50.9773 5.74993 50.828 5.79775 50.6736 5.80997C50.4928 5.82838 50.3195 5.91394 50.1289 5.9226C50.0238 5.94751 49.9226 5.98867 49.8294 6.04336C49.8462 5.99083 49.8679 5.93939 49.8939 5.89066C50.0027 5.74012 50.1495 5.62153 50.3189 5.54626C50.7549 5.3063 51.2478 5.18909 51.7451 5.20712C52.2423 5.22514 52.7254 5.37772 53.1429 5.64861L53.5999 5.91936C53.7217 5.98217 53.8549 6.02332 54.012 6.0856L54.0477 5.43904L54.1241 4.82607L54.3694 4.80441C54.3553 4.4551 54.3979 4.10583 54.4955 3.77014C54.5718 3.87132 54.6163 3.99289 54.6233 4.11941L54.6639 4.67066C54.6694 4.72481 54.6883 4.8109 54.7213 4.82228C54.8481 4.86451 54.8329 4.96198 54.8378 5.05512L54.8513 5.34266C54.85 5.40098 54.8658 5.45841 54.8968 5.50782C55.0045 5.63236 55.0506 5.7986 55.0235 5.96105C55.024 6.02294 55.0278 6.08476 55.0349 6.14624C55.1302 6.1235 55.2239 6.09318 55.3143 6.05527L56.0892 5.62911C56.7281 5.21757 57.5279 5.14447 58.2303 5.43417C58.4225 5.50944 58.6093 5.59716 58.7902 5.69734C58.9445 5.77315 59.0598 5.91069 59.1069 6.07639C59.0165 6.14679 58.9445 6.09913 58.8703 6.07639C58.579 5.96701 58.2671 5.92423 57.9573 5.95239C57.8861 5.95899 57.8181 5.98565 57.7613 6.02928C57.73 6.06072 57.6909 6.08341 57.6481 6.0951C57.6052 6.10678 57.5601 6.10705 57.5171 6.09588C57.4202 6.07317 57.3195 6.07177 57.222 6.09178C57.1245 6.11179 57.0325 6.15273 56.9523 6.21177C56.8798 6.25725 56.8018 6.29516 56.7038 6.34876C56.8779 6.47631 57.0934 6.53424 57.3081 6.51121C57.5144 6.50851 57.7207 6.49497 57.9259 6.47006C58.3186 6.41626 58.7183 6.45129 59.0956 6.57256C59.473 6.69384 59.8182 6.89826 60.106 7.17076L60.9183 7.92074C61.143 8.12384 61.323 8.37151 61.4468 8.64797L61.2729 8.55538C61.0471 8.40105 60.7943 8.29058 60.5278 8.23048C60.445 8.20124 60.3649 8.16604 60.2869 8.12543C60.1163 8.05882 59.9511 7.97868 59.793 7.88662C59.6882 7.84816 59.5791 7.8227 59.4681 7.81081L59.33 7.99059L58.997 7.77399L58.8958 7.90395C58.8438 7.88554 58.7934 7.8628 58.7452 7.83572C58.6342 7.761 58.5286 7.71659 58.4068 7.81948C58.3743 7.83897 58.3359 7.84547 58.2985 7.83843C58.21 7.82071 58.1188 7.82118 58.0304 7.83979C57.9421 7.85841 57.8585 7.89479 57.7846 7.94673C57.7608 7.96244 57.731 7.96623 57.7039 7.95756C57.5323 7.88392 57.4927 8.02471 57.4039 8.12813C57.5029 8.18464 57.6149 8.21415 57.7288 8.21369L59.1817 8.35448C59.9874 8.43354 60.7558 8.73299 61.4018 9.22088C62.3846 9.95949 62.9202 11.1502 62.8206 12.3757C62.8206 12.4049 62.8124 12.4336 62.8021 12.5089L62.6938 12.3226L62.044 11.1659C61.9991 11.0425 61.8773 10.9645 61.7462 10.9764C61.7248 10.8322 61.6721 10.6943 61.5916 10.5727C61.5111 10.4511 61.4049 10.3486 61.2805 10.2725C61.2188 10.2086 61.1332 10.1734 61.0444 10.1755C60.9935 10.1799 60.9296 10.1246 60.882 10.0824C60.8208 10.0153 60.7639 9.94487 60.712 9.87014L60.6318 10.0494L60.3324 9.68603L60.1829 9.91508L59.9371 9.61726C59.8423 9.80949 59.629 9.61726 59.5282 9.77971L59.2846 9.60047C59.265 9.66274 59.2644 9.72941 59.2827 9.79205C59.301 9.85469 59.3374 9.91051 59.3874 9.95245C59.4827 10.0335 59.5841 10.107 59.6907 10.1723L60.9242 10.9932C61.2891 11.2409 61.5951 11.5657 61.8206 11.9446C62.0461 12.3236 62.1856 12.7475 62.2292 13.1863C62.3045 13.8772 62.2498 14.5763 62.0668 15.2467L61.8502 15.9756C61.6087 15.805 61.6688 15.5998 61.7581 15.3902C61.773 15.3474 61.785 15.3036 61.7939 15.2591L61.613 15.1465L61.639 14.6169H61.4619C61.4755 14.4637 61.4462 14.3094 61.3775 14.1713C61.3379 14.0944 61.3683 13.9828 61.3601 13.8881L61.3136 13.45L61.097 13.5821L61.0379 12.9913L60.8083 13.0076L60.6616 12.3746L60.4791 12.661L60.2755 12.0259L60.0589 12.2565L59.8374 11.701C59.6073 11.7351 59.5716 11.5331 59.4855 11.3723C59.4459 11.3876 59.4037 11.3949 59.3613 11.3938C59.3189 11.3926 59.2772 11.3831 59.2385 11.3656C59.1999 11.3482 59.1651 11.3232 59.1362 11.2922C59.1072 11.2612 59.0848 11.2247 59.0701 11.1849C59.0328 11.1383 58.9884 11.0972 58.9391 11.0636C58.9051 11.1156 58.887 11.1764 58.887 11.2385C58.887 11.3006 58.9051 11.3614 58.9391 11.4134C58.9824 11.5069 59.037 11.5947 59.1015 11.675L59.812 12.608C60.2491 13.1743 60.4747 13.8755 60.4499 14.5904C60.4391 14.8553 60.3992 15.1183 60.3307 15.3745C60.1571 15.9938 59.8713 16.576 59.4876 17.0921C59.4338 17.1622 59.3761 17.2293 59.3149 17.293C59.2917 17.3128 59.2669 17.3306 59.2407 17.3461Z" fill="#0A6E41"/>
<path d="M54.4992 36.9576L54.2945 37.1488C53.1969 38.2036 52.2206 39.3689 51.2324 40.5234C51.1617 40.6083 51.1027 40.7023 51.0569 40.8028C50.9519 40.9907 50.9909 41.2263 51.1501 41.3714C51.2973 41.5274 51.528 41.5712 51.7219 41.4797C51.8508 41.4256 51.9704 41.3519 52.0944 41.2869C52.177 41.2387 52.2622 41.1949 52.3495 41.1559C52.4226 41.1189 52.5067 41.1094 52.5863 41.1293C52.6658 41.1492 52.7355 41.1971 52.7827 41.2642C53.1834 41.725 53.1634 42.416 52.7367 42.853C52.6116 42.9695 52.4576 43.0506 52.2907 43.0876C52.1238 43.1246 51.95 43.1163 51.7874 43.0636C51.3255 42.9461 50.9161 42.6786 50.6226 42.3028L50.3026 41.907L50.1304 41.7077L49.6869 41.9649L48.2124 42.9835C47.7998 43.2721 47.3206 43.4519 46.8197 43.5055C46.0237 43.6468 45.2553 43.1421 45.069 42.3553C44.8535 41.7066 45.0333 40.9918 45.5304 40.5229C45.6972 40.3415 45.9219 40.2245 46.1656 40.1909C46.3318 40.1717 46.5001 40.1978 46.6527 40.2665C46.8052 40.3353 46.9363 40.4441 47.032 40.5814C47.1646 40.7481 47.2756 40.9328 47.3931 41.111C47.5014 41.2767 47.5161 41.2831 47.692 41.1998C47.7318 41.1804 47.7704 41.1585 47.8074 41.1342C48.2239 40.8665 48.5981 40.538 48.9175 40.1595C48.9969 40.0764 49.0522 39.9732 49.0775 39.861C49.1028 39.7488 49.0971 39.6319 49.061 39.5227L48.8341 38.7603C48.8064 38.6562 48.7504 38.5618 48.6725 38.4874C48.5945 38.4131 48.4975 38.3617 48.3922 38.339C48.3705 38.3336 48.35 38.3249 48.3288 38.319C48.1745 38.3027 48.0359 38.2155 47.9547 38.0834C47.8734 37.9513 47.8577 37.7888 47.9124 37.6432C47.9465 37.4405 48.0533 37.2573 48.2128 37.1277C48.3723 36.9981 48.5735 36.9311 48.7788 36.9392C48.9058 36.9366 49.0302 36.9745 49.1341 37.0476C49.2379 37.1207 49.3157 37.225 49.3561 37.3454L49.7627 38.5145C49.7959 38.6765 49.8729 38.8263 49.9853 38.9477C50.064 38.8878 50.1385 38.8227 50.2084 38.7527L51.6336 37.1185L52.8693 35.5849C53.0648 35.3375 53.0605 35.3294 52.8693 35.0705C52.7742 34.9389 52.6696 34.8144 52.5563 34.698C51.5551 33.6636 50.4557 32.7289 49.2738 31.9071C49.0971 31.7866 48.9139 31.6758 48.7252 31.5751C47.1488 30.7223 45.4951 30.021 43.7862 29.4806C42.8087 29.1732 41.8075 28.947 40.7928 28.8043L38.7058 28.5655L37.3017 28.3922C37.2535 28.3862 37.2091 28.3624 37.1777 28.3256C37.3386 28.2926 37.5015 28.2677 37.6651 28.2509L41.3088 28.0435C44.4034 27.9448 47.464 28.7127 50.1456 30.2604C51.443 30.9823 52.634 31.881 53.6843 32.9305L54.438 33.674C54.4911 33.6415 54.5415 33.6052 54.5897 33.5657L55.5351 32.6993C57.6169 30.7153 60.1702 29.295 62.9537 28.5725C63.9389 28.3171 64.9467 28.1583 65.9628 28.0982C66.8833 28.0435 67.8061 28.0413 68.7272 28.0917L70.8487 28.1967L72.1673 28.3391C72.223 28.3537 72.2774 28.3731 72.3297 28.3971C72.2826 28.4122 72.2344 28.4247 72.1857 28.4344L68.9297 28.7593C67.0242 28.9824 65.1535 29.4394 63.3598 30.1201C61.9844 30.6551 60.6653 31.325 59.422 32.1204C58.561 32.7182 57.7542 33.3913 57.0123 34.1316L56.127 35.0299C55.9061 35.2627 55.8974 35.2822 56.0891 35.5313L57.452 37.2457L58.8199 38.7533C58.9005 38.8303 58.9855 38.9026 59.0744 38.9699L59.1626 38.7755L59.5872 37.5885C59.6389 37.4506 59.7065 37.3192 59.7886 37.197C59.937 36.9419 60.2538 36.8407 60.5229 36.9614C60.7165 37.0367 60.8805 37.1728 60.99 37.3492C61.0996 37.5257 61.1489 37.733 61.1304 37.9399C61.1218 38.0915 61.0205 38.2226 60.8759 38.2686C60.8351 38.2858 60.7929 38.2993 60.7498 38.3092C59.9868 38.4441 59.689 39.644 60.1606 40.1877C60.4744 40.5706 60.85 40.8984 61.2718 41.1575C61.5138 41.2983 61.5858 41.2756 61.7239 41.0243L61.8788 40.7308C62.071 40.387 62.4387 40.1785 62.8324 40.1893C63.0257 40.194 63.2123 40.2613 63.3641 40.381C63.6879 40.6211 63.909 40.9746 63.9831 41.3709C64.0919 41.8118 64.0472 42.2767 63.8564 42.6889C63.6457 43.1936 63.1578 43.5266 62.6109 43.539C62.0537 43.5721 61.5008 43.4226 61.0362 43.114L59.5032 42.1024L59.0744 41.8284C58.9 41.7201 58.8978 41.7201 58.7587 41.8626L58.0937 42.5438C58.0082 42.6347 57.9178 42.7209 57.823 42.8021C57.6583 42.9405 57.4609 43.0345 57.2497 43.0751C57.0384 43.1158 56.8203 43.1018 56.616 43.0344C56.4631 42.9852 56.3236 42.9014 56.2084 42.7896C56.0931 42.6778 56.0052 42.5409 55.9514 42.3896C55.8976 42.2382 55.8794 42.0766 55.8982 41.9171C55.917 41.7576 55.9723 41.6046 56.0598 41.47C56.1187 41.3853 56.1841 41.3053 56.2553 41.2306C56.3066 41.1655 56.3812 41.1229 56.4634 41.1118C56.5455 41.1007 56.6288 41.1219 56.6956 41.1711L57.1927 41.4602C57.3984 41.5783 57.6567 41.5512 57.8333 41.3931C58.0119 41.2691 58.0683 41.0303 57.9643 40.8397C57.8842 40.6821 57.784 40.5353 57.667 40.4032L55.9699 38.5361C55.5526 38.078 55.1353 37.6199 54.718 37.1618C54.6536 37.0919 54.5799 37.0335 54.4992 36.9576ZM59.6738 40.5759C59.4848 40.8272 59.4745 41.0091 59.6527 41.2035C60.1038 41.7234 60.6653 42.1349 61.2961 42.4095C61.6687 42.573 62.0748 42.6456 62.4809 42.6223C62.8243 42.6374 63.1394 42.4338 63.2672 42.1149C63.3842 41.7786 63.3019 41.4044 63.0544 41.1483C62.9721 41.0443 62.8438 40.988 62.7116 40.9983C62.5795 41.0086 62.4609 41.0833 62.3954 41.1987C62.3219 41.3332 62.2688 41.4779 62.2378 41.6281C62.2172 41.7369 62.2037 41.8463 62.1977 41.9568C62.1717 42.1566 62.1051 42.2118 61.908 42.1929C61.849 42.188 61.7911 42.1755 61.7358 42.1555C61.3496 42.0286 60.9948 41.8209 60.6951 41.5463L59.8384 40.7151L59.6716 40.5732L59.6738 40.5759ZM49.4162 40.6074C49.2418 40.6956 49.0832 40.8115 48.9462 40.9507L47.8734 41.9064C47.7096 42.0468 47.507 42.1342 47.2924 42.1571C46.9107 42.2026 46.8381 42.1371 46.8051 41.757C46.7865 41.5889 46.7578 41.4222 46.719 41.2577C46.7064 41.2029 46.6799 41.1523 46.6419 41.1108C46.6039 41.0693 46.5559 41.0384 46.5024 41.0211C46.3845 40.972 46.2522 40.9711 46.1337 41.0186C46.0152 41.0661 45.9201 41.1582 45.8688 41.275C45.7524 41.5247 45.7204 41.8057 45.7762 42.0754C45.8136 42.3407 46.0112 42.5546 46.2728 42.6125C46.4085 42.647 46.5489 42.6599 46.6886 42.651C47.3342 42.6149 47.9528 42.3798 48.4593 41.9779C48.7568 41.7359 49.0496 41.4882 49.3377 41.235C49.5478 41.0508 49.5673 40.8889 49.4146 40.6074H49.4162ZM57.1288 42.5118C57.3832 42.4975 57.6279 42.4091 57.8327 42.2573C58.1885 41.9674 58.4768 41.6033 58.6774 41.1905L59.794 38.6628C59.8343 38.5361 59.9023 38.4199 59.9929 38.3226C60.0836 38.2253 60.1947 38.1494 60.3182 38.1002C60.3976 38.0615 60.4651 38.0022 60.5137 37.9286C60.5852 37.8387 60.5884 37.712 60.5213 37.6188C60.479 37.5029 60.3718 37.4239 60.2489 37.4174C60.126 37.4109 60.0112 37.4786 59.957 37.589C59.8433 37.7694 59.7491 37.9616 59.6771 38.1619L58.8697 40.3139C58.6747 40.8175 58.3915 41.2821 58.0341 41.6866C57.9574 41.7822 57.8519 41.8508 57.7333 41.8822C57.6147 41.9135 57.4892 41.9061 57.3751 41.8609L57.0226 41.7304C56.9463 41.7028 56.8672 41.6849 56.7871 41.6763C56.6717 41.6622 56.5634 41.7342 56.5326 41.8463C56.4968 41.9483 56.499 42.0599 56.5387 42.1604C56.5785 42.261 56.6532 42.3438 56.7492 42.3938C56.8721 42.442 56.9988 42.4809 57.1271 42.5118H57.1288ZM51.9304 42.4782C52.0273 42.4555 52.1221 42.4252 52.2141 42.3873C52.3506 42.3217 52.4415 42.188 52.4529 42.0369C52.4903 41.7472 52.337 41.6216 52.0603 41.712L51.5773 41.8658C51.3369 41.94 51.0753 41.8577 50.921 41.6584C50.8087 41.5317 50.7142 41.3904 50.64 41.2382C50.3403 40.5823 50.0488 39.9225 49.7654 39.259L49.2916 38.0677C49.2072 37.8804 49.1026 37.7027 48.9803 37.5376C48.9072 37.4271 48.7637 37.3887 48.6451 37.4477C48.527 37.5008 48.4545 37.6215 48.4626 37.7504C48.4596 37.8286 48.4829 37.9056 48.5286 37.9691C48.5743 38.0327 48.6398 38.0792 48.7149 38.1013C48.9618 38.2068 49.1577 38.4046 49.2608 38.6525L49.3555 38.8762L50.2441 41.0173C50.4318 41.4769 50.7351 41.8801 51.1246 42.188C51.3538 42.3687 51.6353 42.4705 51.9271 42.4782H51.9304ZM58.437 40.0696L58.5724 39.8254C58.6129 39.7498 58.6269 39.6629 58.6123 39.5784C58.5977 39.494 58.5552 39.4168 58.4917 39.3592L58.417 39.278C57.8838 38.7177 57.3502 38.1582 56.8163 37.5993C56.7383 37.5212 56.6537 37.45 56.5634 37.3865C56.5374 37.3676 56.4893 37.3789 56.4075 37.373L56.5483 37.6069C56.8183 37.9932 57.089 38.3787 57.3605 38.7635C57.6161 39.1245 57.8735 39.4837 58.1327 39.8411C58.1955 39.957 58.3049 40.0404 58.4338 40.0696H58.437ZM52.4713 37.3784C52.3079 37.4294 52.1649 37.531 52.063 37.6686C51.719 38.0415 51.376 38.415 51.0342 38.789L50.5003 39.3765C50.2907 39.631 50.3622 39.8807 50.6697 40.0263C51.3602 39.2081 51.9639 38.3211 52.4713 37.3784Z" fill="#A67A1A"/>
<path d="M45.922 55.1309C45.6062 55.0695 45.3144 54.9192 45.0811 54.6977C45.1631 54.6541 45.2545 54.6311 45.3474 54.6306C45.4403 54.6302 45.5319 54.6523 45.6144 54.695C45.7818 54.7816 45.8971 54.9441 45.922 55.1309ZM60.7943 56.9823C60.8288 56.9234 60.8681 56.8674 60.9118 56.815C61.3326 56.4051 61.7787 56.0217 62.2477 55.6675C62.368 55.7898 62.4548 55.9411 62.4995 56.1067C62.5041 56.1377 62.5023 56.1694 62.4941 56.1997C62.4859 56.23 62.4715 56.2582 62.4518 56.2827C62.3776 56.3741 62.2904 56.4541 62.193 56.5204L61.456 56.9639C61.3747 57.0152 61.2835 57.0488 61.1883 57.0625C61.0931 57.0761 60.9961 57.0694 60.9037 57.0429C60.8655 57.0259 60.8289 57.0056 60.7943 56.9823ZM58.3088 56.9893C58.0619 57.1724 57.7776 57.2996 57.476 57.3613C57.433 57.1407 57.4775 56.912 57.6 56.7235C57.6644 56.6249 57.7754 56.567 57.8935 56.5708C58.0115 56.5745 58.1187 56.639 58.1767 56.7413C58.2267 56.8207 58.2708 56.9036 58.3088 56.9893ZM57.1798 55.4455L57.4912 55.4845C57.3119 55.621 57.2854 55.6188 57.1798 55.4455ZM45.8348 52.8561C45.7157 52.8783 45.6599 52.8312 45.629 52.7158C45.7623 52.7359 45.7623 52.7359 45.8348 52.8561Z" fill="#E3171A"/>
</g>
</g>
<defs>
<clipPath id="clip0_2_1821">
<rect width="108.33" height="64.98" fill="white" transform="translate(0.448242 -0.0100098)"/>
</clipPath>
<clipPath id="clip1_2_1821">
<rect width="108.33" height="64.98" fill="white" transform="translate(0.448242 -0.0100098)"/>
</clipPath>
</defs>
</svg>
