<svg width="121" height="65" viewBox="0 0 121 65" fill="none" xmlns="http://www.w3.org/2000/svg">
<g clip-path="url(#clip0_2_431)">
<g clip-path="url(#clip1_2_431)">
<g clip-path="url(#clip2_2_431)">
<path d="M52.8971 42.7667H52.324C52.3419 42.0293 52.8971 42.063 52.8971 42.063V42.7667ZM54.0359 38.7393C53.5181 39.1522 52.9721 39.5285 52.4019 39.8654C52.5378 40.0213 52.6832 40.1815 52.8233 40.3321C52.8233 40.5091 52.8233 40.6893 52.8233 40.8694C52.3577 41.0432 51.7972 41.1559 51.5254 41.6163C51.2641 42.2786 51.169 42.9947 51.2484 43.7022C52.1775 43.7022 53.1035 43.7096 54.0327 43.7022C54.0253 42.0472 54.0042 40.3943 54.0327 38.7414" fill="#226842"/>
<path d="M67.3604 42.8858C67.2581 42.8858 67.1581 42.8554 67.0731 42.7986C66.988 42.7418 66.9217 42.661 66.8825 42.5664C66.8434 42.4719 66.8331 42.3679 66.8531 42.2676C66.873 42.1673 66.9223 42.0751 66.9947 42.0027C67.067 41.9304 67.1591 41.8811 67.2595 41.8612C67.3598 41.8412 67.4638 41.8515 67.5583 41.8906C67.6528 41.9298 67.7337 41.9961 67.7905 42.0811C67.8474 42.1662 67.8776 42.2662 67.8776 42.3685C67.8776 42.5057 67.8232 42.6373 67.7262 42.7343C67.6291 42.8313 67.4976 42.8858 67.3604 42.8858ZM68.8996 41.9734C68.6098 41.4277 68.1621 40.8083 67.4763 40.822C67.2235 40.831 66.9766 40.9007 66.7565 41.0254C66.5364 41.1502 66.3497 41.3261 66.2121 41.5384C65.837 42.1948 65.6993 42.9604 65.8223 43.7064C66.3564 43.8329 66.9475 43.6885 67.5079 43.7707C67.3088 44.6662 66.2837 44.7957 65.521 44.6956L65.5642 45.0117C65.9783 45.1943 66.4142 45.3228 66.8611 45.3941C67.2519 45.3676 67.6306 45.2467 67.9645 45.0417C68.2984 44.8368 68.5776 44.554 68.7782 44.2174C68.9788 43.8809 69.0949 43.5008 69.1164 43.1096C69.1379 42.7184 69.0642 42.3278 68.9017 41.9713" fill="#226842"/>
<path d="M61.5788 39.7106H60.4126L63.0147 42.555H60.697V42.5297C60.6984 42.4272 60.6892 42.3248 60.6696 42.2242C60.6696 42.2516 60.6759 42.28 60.6759 42.3074L60.6602 42.1968C60.6602 42.2052 60.6665 42.2147 60.6696 42.2242C60.6623 42.1842 60.6623 42.1473 60.6559 42.1094C60.6094 41.7804 60.4471 41.4788 60.1982 41.2587C59.9494 41.0386 59.6302 40.9144 59.298 40.9084C59.2897 40.9064 59.281 40.9064 59.2727 40.9084H56.3545C56.2007 40.7672 56.0385 40.6229 55.8879 40.487C55.5512 41.057 55.1749 41.6026 54.7617 42.1199L55.7436 42.1115C55.9437 42.1115 56.1512 42.1115 56.3756 42.1115H59.3064V42.5624H54.7638V43.7117H55.6066C58.135 43.7265 61.4577 43.7117 64.0756 43.7117L64.4306 44.1047H65.5894L62.0782 39.9476C62.017 39.8765 61.9411 39.8193 61.8559 39.78C61.7706 39.7408 61.6779 39.7203 61.584 39.7201" fill="#226842"/>
<path d="M67.4985 27.1973H66.6019V26.6073L66.8495 26.2987H67.253L67.5005 26.6073L67.4985 27.1973ZM68.6373 26.285C68.5248 26.0605 68.3888 25.8486 68.2317 25.6529C68.3655 25.3453 68.711 25.1261 68.6699 24.7479C68.6699 24.5572 68.6699 24.3666 68.6699 24.1769C68.6773 23.5038 68.6636 22.8306 68.6699 22.1574C68.6699 21.972 68.6699 21.7866 68.6773 21.6033L68.8764 21.4979L69.0165 21.4284L69.0481 21.4115L69.1376 21.3673C68.9772 21.2436 68.8242 21.1106 68.6794 20.9691C68.5519 20.8469 68.4297 20.7194 68.3096 20.5898L68.0526 20.3128C67.9904 20.2432 67.9261 20.1737 67.8619 20.1021C67.7376 19.9683 67.6122 19.8355 67.4805 19.7091C67.4742 20.2218 67.4696 20.7352 67.4668 21.2493C67.4668 21.5485 67.4668 21.8484 67.4668 22.149C67.4668 22.5504 67.4668 22.9528 67.4668 23.3542C67.4584 23.6302 67.4784 23.9367 67.4668 24.2359C67.4641 24.4665 67.4232 24.6951 67.3457 24.9123C67.3088 24.9123 67.2625 24.9123 67.214 24.9123H67.2077H67.0518C66.9074 24.9123 66.7863 24.9123 66.7579 24.9123C66.6806 24.695 66.64 24.4665 66.6377 24.2359C66.6262 23.9367 66.6462 23.6302 66.6377 23.3542C66.6377 22.9528 66.6377 22.5504 66.6377 22.149C66.6377 21.8484 66.6377 21.5485 66.6377 21.2493C66.6342 20.7352 66.6297 20.2218 66.624 19.7091C66.4924 19.8355 66.367 19.9683 66.2427 20.1021C66.1784 20.1695 66.1152 20.238 66.052 20.3128L65.795 20.5898C65.6749 20.7194 65.5526 20.8469 65.4241 20.9691C65.2793 21.1107 65.1263 21.2437 64.9658 21.3673L65.0554 21.4115L65.087 21.4284L65.2271 21.4979L65.4262 21.6033C65.4262 21.7866 65.4325 21.9709 65.4336 22.1574C65.4336 22.8306 65.4252 23.5038 65.4336 24.1769C65.4336 24.3666 65.4336 24.5572 65.4336 24.7479C65.3925 25.1219 65.736 25.3453 65.8719 25.6529C65.7147 25.8486 65.5787 26.0605 65.4663 26.285C65.4115 26.9487 65.4663 27.6145 65.4326 28.2771H68.6762C68.6404 27.6134 68.6952 26.9476 68.6425 26.285" fill="#226842"/>
<path d="M63.4501 22.2891C63.3943 21.8677 63.7893 21.6339 64.0179 21.3494C63.5711 21.1546 63.1855 20.8422 62.9023 20.4455C62.7362 20.1527 62.5091 19.8991 62.2364 19.7018C62.248 22.5588 62.2122 25.418 62.2554 28.274H63.4606C63.4606 26.2787 63.4427 24.2834 63.4501 22.2891Z" fill="#226842"/>
<path d="M52.3389 27.1193L52.3463 27.1004C52.4105 26.4683 52.912 26.4978 52.912 26.4978V27.2015H52.3389C52.3389 27.1731 52.3389 27.1467 52.3452 27.1193H52.3389ZM61.1313 28.2782C61.1745 26.266 61.107 23.9957 61.1207 22.0078C61.0638 21.6317 61.3809 21.4084 61.6127 21.1766C60.9026 20.8269 60.5592 20.0757 59.9377 19.6238C59.9493 22.0984 59.9545 24.5752 59.9303 27.054C57.9638 27.0435 55.9973 27.0526 54.0308 27.0814C54.0571 25.7888 54.0139 24.4951 54.0455 23.1993C53.5156 23.6064 52.9595 23.9784 52.381 24.3128C52.5376 24.4674 52.6988 24.6194 52.8646 24.769C52.8561 24.9702 52.8435 25.1735 52.8235 25.3758C52.3546 25.5 51.927 25.7465 51.5846 26.0901C51.2744 26.7745 51.168 27.5338 51.278 28.2771" fill="#226842"/>
<path d="M65.2964 36.7651H64.3967V36.1741L64.6443 35.8654H65.0499L65.2974 36.1741L65.2964 36.7651ZM66.4352 35.8517C66.3216 35.6279 66.1857 35.4161 66.0296 35.2196C66.1634 34.912 66.509 34.6929 66.4658 34.3147C66.4658 34.124 66.4658 33.9333 66.4658 33.7426C66.4742 33.0694 66.4658 32.3963 66.4658 31.7231C66.4658 31.5387 66.4658 31.3544 66.4732 31.169L66.6722 31.0636L66.8123 30.9941L66.845 30.9772L66.9346 30.933C66.7738 30.8094 66.6204 30.6764 66.4753 30.5348C66.3489 30.4126 66.2256 30.2851 66.1065 30.1555C66.0194 30.0628 65.9337 29.9701 65.8494 29.8774L65.6578 29.6667C65.5335 29.5339 65.4081 29.4012 65.2764 29.2748C65.2715 29.7875 65.2669 30.3005 65.2627 30.8139C65.2627 31.1145 65.2627 31.4144 65.2627 31.7136C65.2627 32.115 65.2627 32.5185 65.2627 32.9198C65.2543 33.1959 65.2733 33.5024 65.2627 33.8006C65.2604 34.0314 65.2198 34.2603 65.1426 34.4779H65.0046H64.8487C64.7044 34.4779 64.5832 34.4779 64.5558 34.4779C64.4774 34.2606 64.436 34.0316 64.4336 33.8006C64.423 33.5024 64.442 33.1959 64.4336 32.9198C64.4336 32.5185 64.4336 32.115 64.4336 31.7136C64.4336 31.4144 64.4336 31.1142 64.4336 30.8139C64.4287 30.3012 64.4241 29.7882 64.4199 29.2748C64.2882 29.4012 64.1629 29.5339 64.0375 29.6667L63.8468 29.8774C63.7626 29.9701 63.6769 30.0628 63.5898 30.1555C63.4686 30.2851 63.3474 30.4126 63.221 30.5348C63.0758 30.6764 62.9225 30.8093 62.7617 30.933L62.8513 30.9772L62.884 30.9941L63.023 31.0636L63.2231 31.169C63.2231 31.3533 63.2231 31.5377 63.2294 31.7231C63.2294 32.3963 63.221 33.0694 63.2294 33.7426C63.2294 33.9333 63.2294 34.124 63.2294 34.3147C63.1873 34.6886 63.5318 34.912 63.6667 35.2196C63.5101 35.4158 63.3742 35.6276 63.2611 35.8517C63.2084 36.5164 63.2611 37.1822 63.2274 37.8459H66.4721C66.4341 37.1822 66.491 36.5164 66.4384 35.8517" fill="#226842"/>
<path d="M61.2204 31.8263C61.1793 31.4818 61.488 31.288 61.7155 31.0963C61.7419 31.0467 61.7956 30.9467 61.8209 30.8972C60.9665 30.6696 60.72 29.7267 60.0068 29.3264C60.0237 32.1708 60.1122 35.0036 60.0427 37.8449H61.2457C61.2626 35.8433 61.2668 33.8322 61.2204 31.8263Z" fill="#226842"/>
<path d="M68.5423 31.8601C68.4864 31.4387 68.8815 31.2048 69.1101 30.9204C68.6632 30.7252 68.2776 30.4124 67.9944 30.0154C67.8284 29.7229 67.6014 29.4696 67.3287 29.2727C67.3413 32.1298 67.3044 34.9889 67.3487 37.8449H68.5528C68.5528 35.8496 68.5349 33.8543 68.5423 31.8601Z" fill="#226842"/>
<path d="M52.9255 36.8461H52.3524C52.3703 36.1087 52.9255 36.1445 52.9255 36.1445V36.8461ZM58.4247 30.0206C58.2558 29.7105 58.0369 29.4304 57.7768 29.1915C57.7457 29.4643 57.7344 29.7389 57.743 30.0132C57.7999 32.2445 57.7093 34.4758 57.7589 36.7081C57.2448 36.7081 56.7296 36.725 56.2197 36.7187C56.2345 35.0447 56.205 33.3707 56.2197 31.6957C56.1649 31.3322 56.502 31.1141 56.7032 30.8655C56.0877 30.3925 55.5228 29.8569 55.0177 29.2674C55.0672 31.7494 55.0567 34.2346 55.0177 36.7166L54.0517 36.7282C54.0622 35.4253 54.0601 34.1236 54.0453 32.8229C53.5326 33.2394 52.9896 33.6172 52.4209 33.9533C52.5909 34.0715 52.7235 34.2359 52.8032 34.427C52.8829 34.6181 52.9064 34.8281 52.8707 35.032C52.3698 35.1305 51.9146 35.3894 51.5738 35.7695C51.2863 36.4205 51.1877 37.1394 51.2894 37.8438H58.9166C58.8798 36.2636 58.8229 34.677 58.8988 33.0926C58.8479 32.5404 58.8624 31.9842 58.9419 31.4354C59.0846 31.2155 59.2581 31.0172 59.4571 30.8466C59.0496 30.6609 58.6945 30.3772 58.4236 30.0206" fill="#226842"/>
<path d="M34.8825 21.0291C36.0281 18.3229 37.6034 15.8195 39.5474 13.6157C39.876 13.7886 40.1669 14.0253 40.4028 14.3121C39.9244 14.8398 39.4833 15.4002 39.0828 15.9892C38.3939 16.9158 37.7607 17.8825 37.1865 18.8842C36.8789 19.4657 36.5934 20.0609 36.3142 20.6593C36.6777 20.8426 37.2961 21.1028 37.5289 20.6003C38.3064 18.9533 39.2825 17.4076 40.4354 15.9977C40.6311 15.6475 40.8994 15.3432 41.2224 15.1054C41.3623 15.7366 41.5941 16.3439 41.9103 16.9079C41.5722 16.9542 41.1518 16.792 40.8821 17.0553C39.8476 18.427 38.9473 19.8949 38.1936 21.4389C38.0906 21.646 37.9182 21.8105 37.7066 21.9038C37.4949 21.9972 37.2572 22.0134 37.0348 21.9498C36.2737 21.7494 35.5456 21.44 34.873 21.0312" fill="#226842"/>
<path d="M50.1747 6.16029C50.7256 5.92123 51.2881 5.71026 51.8603 5.5282C52.4187 6.46369 51.8456 7.46766 51.4874 8.35154C52.3628 9.12058 53.6386 9.53039 54.059 10.7229C54.4803 11.7912 53.5322 12.6687 53.2709 13.6411C51.8951 12.537 50.396 11.6058 48.9717 10.5639C48.6556 10.2899 48.3195 10.7503 47.9982 10.8146C47.726 10.6381 47.4814 10.4222 47.2724 10.1741L47.0986 10.2636C47.6729 9.84636 48.2848 9.48345 48.9264 9.17958C49.5764 9.40186 49.9556 10.0508 50.5624 10.3584C51.3631 10.8072 52.0247 11.6953 53.0192 11.6679C52.9816 11.2478 52.8219 10.8479 52.5598 10.5175C51.7631 9.84284 50.8977 9.25386 49.9777 8.76029C50.1621 8.23355 50.5919 7.79635 50.6172 7.20218C49.4368 7.68901 48.2947 8.26409 47.2008 8.92253C46.2431 9.4124 45.4235 10.1119 44.5186 10.6829C44.1625 10.9336 43.8865 11.275 43.5325 11.5257C42.8162 12.0166 42.2915 12.7298 41.5857 13.2313C41.455 12.8731 41.021 12.4854 41.1769 12.1062C43.0116 10.2977 45.0881 8.75228 47.3472 7.51402C48.2612 7.00743 49.2039 6.55437 50.1705 6.15713" fill="#226842"/>
<path d="M48.6843 49.4701C49.0161 49.0929 49.0919 48.4619 49.5755 48.248C49.8009 49.0234 49.8989 49.8283 50.1528 50.6015C49.8337 50.6667 49.5268 50.7819 49.2436 50.9429C48.2955 52.4673 47.3242 53.9811 46.3992 55.5171C46.0653 55.6161 45.7366 55.318 45.4427 55.1842C45.1487 55.0504 45.3763 54.7491 45.4901 54.5827C46.0184 53.8267 46.5021 53.0405 46.9386 52.2281C47.5644 51.3358 48.0037 50.3255 48.6874 49.4711" fill="#226842"/>
<path d="M35.1889 24.3245C35.3402 24.3245 35.4881 24.3693 35.6139 24.4534C35.7396 24.5374 35.8377 24.6569 35.8956 24.7966C35.9535 24.9364 35.9686 25.0902 35.9391 25.2385C35.9096 25.3869 35.8367 25.5232 35.7298 25.6301C35.6228 25.7371 35.4865 25.8099 35.3382 25.8394C35.1898 25.8689 35.036 25.8538 34.8963 25.7959C34.7565 25.738 34.6371 25.64 34.553 25.5142C34.469 25.3884 34.4241 25.2406 34.4241 25.0893C34.4241 24.8865 34.5047 24.6919 34.6482 24.5485C34.7916 24.4051 34.9861 24.3245 35.1889 24.3245ZM47.343 46.3318L47.1429 46.3665C45.9619 48.3186 44.6461 50.1865 43.4767 52.147C43.2028 52.1955 43.0206 51.97 42.8383 51.813C42.0237 51.0965 41.2533 50.3313 40.5312 49.5217C41.266 48.8758 42.0358 48.2709 42.8373 47.7097C42.4296 47.4095 41.9692 47.1925 41.5604 46.8975C41.236 47.6992 40.4016 48.0784 39.7959 48.6421C39.1158 47.8786 38.5222 47.0423 38.026 46.1485C38.8593 45.7271 39.5767 45.1266 40.4248 44.7368C40.4248 44.6904 40.4248 44.5967 40.4185 44.5514C40.0866 44.2353 39.7337 43.9509 39.4082 43.6338C38.8678 44.3037 38.155 44.8136 37.3465 45.1087C36.8324 44.3712 36.5975 43.4884 36.0823 42.7573C36.1234 42.7088 36.2045 42.6172 36.2467 42.5708C37.1464 42.2548 37.9954 41.8229 38.8646 41.4289C38.4628 41.1183 38.115 40.7434 37.8353 40.3195C37.238 40.9373 36.4773 41.3725 35.642 41.5742C34.8169 39.5409 34.2797 37.4025 34.0459 35.2207C35.0145 35.5238 35.9488 35.9274 36.8334 36.4248C36.7776 35.9507 36.7587 35.4767 36.6723 35.0047C36.076 34.7203 35.4081 34.5612 34.776 34.3357C35.3587 34.0089 35.9676 33.7313 36.5964 33.5056C36.5806 32.9862 36.5553 32.4669 36.4995 31.9496C36.0086 32.1887 35.6683 32.6333 35.1995 32.8977C34.757 33.1537 34.3156 33.4034 33.8742 33.6552C33.7748 32.7486 33.7477 31.8355 33.7931 30.9246C33.8808 29.5612 34.0405 28.2035 34.2714 26.8571C35.0117 26.9596 35.7639 26.7872 36.3857 26.3724C36.7966 26.0006 37.278 25.7214 37.691 25.3506C37.4725 25.3232 37.2556 25.3003 37.0399 25.2821C36.8663 24.6589 36.5011 24.106 35.9959 23.7019C35.6173 23.4365 35.1537 23.3212 34.6949 23.3784C34.4848 23.4109 34.2899 23.5073 34.1365 23.6545C33.7355 24.0323 33.4889 24.5454 33.4444 25.0946L33.3664 25.0588C33.0073 24.9485 32.6996 24.713 32.4994 24.3951C32.157 23.7925 32.4014 23.0887 32.3941 22.4419C32.036 22.7402 31.7741 23.1376 31.641 23.5842C31.5079 24.0308 31.5097 24.5067 31.6461 24.9524C31.8568 25.6466 32.4952 26.0259 33.0504 26.4272C32.0018 31.559 32.4456 36.8837 34.3293 41.7711C36.2129 46.6584 39.4576 50.9037 43.679 54.0043L43.8117 53.7936C43.8357 53.765 43.8559 53.7335 43.8718 53.6998C43.9487 53.5755 44.0277 53.4533 44.1046 53.329C45.0464 51.8236 46.0261 50.3413 46.969 48.8359C47.1513 48.5567 47.5253 48.5588 47.8066 48.4314C47.677 47.7192 47.5095 47.0186 47.342 46.317" fill="#226842"/>
<path d="M84.5566 41.6026C84.1973 42.0872 84.662 42.596 85.0739 42.8478C85.3594 42.7582 85.7239 42.7972 85.9462 42.556C86.2327 42.3379 86.1874 41.9239 86.1115 41.6152C86.038 41.473 85.9271 41.3536 85.7907 41.2699C85.6543 41.1861 85.4976 41.1412 85.3376 41.14C85.1775 41.1389 85.0202 41.1814 84.8825 41.2631C84.7449 41.3448 84.6322 41.4615 84.5566 41.6026ZM79.0258 36.7523C79.5135 36.2477 80.0214 35.7631 80.5197 35.2659C80.9147 35.4344 81.2392 35.8031 81.7111 35.7631C83.6453 35.7631 85.5711 36.0149 87.5053 36.0075C87.3326 37.5295 86.9789 39.0255 86.4518 40.4638C86.7794 40.8135 87.2103 41.1654 87.2103 41.69C87.261 42.0158 87.2272 42.3491 87.1118 42.6579C86.9965 42.9668 86.8037 43.2408 86.5519 43.4536C86.1172 43.7545 85.6054 43.9245 85.077 43.9434C84.6921 44.7567 84.2623 45.5481 83.7897 46.3138C84.3364 46.8057 85.1033 47.2124 85.2203 48.0099C85.2742 48.3442 85.214 48.687 85.0495 48.983C84.885 49.279 84.6256 49.511 84.3132 49.6417C84.289 49.2456 84.3069 48.8484 84.3016 48.4513C83.6667 47.8436 82.9253 47.3579 82.1146 47.0185C81.7393 46.8562 81.3293 46.7903 80.922 46.8268C80.9501 46.1765 80.9202 45.525 80.8325 44.88C81.4171 45.2392 82.0249 45.5591 82.6519 45.8376C83.1809 45.1161 83.6378 44.3444 84.0161 43.5336C83.6658 43.1855 83.4488 42.7254 83.4032 42.2336C83.3575 41.7418 83.4861 41.2496 83.7665 40.843C83.9649 40.5836 84.2166 40.3698 84.5046 40.2159C84.7927 40.062 85.1104 39.9715 85.4363 39.9507C85.7393 39.0483 85.9856 38.1279 86.1737 37.1948C84.9997 37.0163 83.8165 36.9045 82.6298 36.8598C81.428 36.7427 80.2197 36.7075 79.0132 36.7544" fill="#226842"/>
<path d="M51.4972 51.8214C51.9575 50.8732 53.1374 50.9059 53.9328 50.3907C54.0364 51.0683 54.1896 51.7373 54.391 52.3924C54.7577 53.4838 54.9094 54.6342 55.2665 55.7288C55.5109 55.8109 55.906 55.6708 56.0651 55.9394C56.164 56.2664 56.2369 56.6007 56.2831 56.9392C55.5857 56.8623 54.9073 56.6874 54.2162 56.5789C53.999 55.0361 53.6103 53.5224 53.0573 52.0658L52.7087 52.0932C52.3762 52.9669 52.4039 53.9368 52.7856 54.7901C52.9257 55.2916 53.0563 55.7972 53.227 56.2892C52.7642 56.3899 52.3138 56.5407 51.8838 56.739C51.8838 56.8023 51.8838 56.9297 51.8838 56.994C53.5446 57.5654 55.264 57.9499 57.01 58.1402C58.8539 58.3467 60.7137 58.3682 62.5619 58.2044C62.4776 58.6037 62.3649 58.9956 62.2458 59.3854C60.1605 59.543 58.064 59.4603 55.9976 59.1389C53.849 58.8156 51.7442 58.2484 49.7241 57.448C49.899 56.3851 50.9756 55.9732 51.7742 55.458C51.5814 54.2676 50.9725 53.0034 51.4992 51.8161" fill="#226842"/>
<path d="M79.3721 34.3515C79.9767 33.7416 80.6158 33.1669 81.2863 32.6301C81.5897 32.8029 81.8014 33.1569 82.167 33.2043C84.0295 33.2843 85.9026 33.2443 87.7589 33.4318C87.7441 33.8048 87.7241 34.1756 87.703 34.5475C84.925 34.5138 82.1469 34.4052 79.3721 34.3515Z" fill="#226842"/>
<path d="M78.8583 47.9235C79.1284 47.7761 79.4377 47.7161 79.7433 47.7517C80.049 47.7874 80.336 47.917 80.565 48.1226C81.0245 48.4113 81.4131 48.7998 81.7017 49.2593C80.8035 50.3956 79.8141 51.4568 78.7435 52.4324C76.9924 53.9779 75.0666 55.3133 73.0052 56.4114C71.8236 57.0096 70.6009 57.5229 69.3464 57.9474C68.2169 58.3499 67.0586 58.6669 65.8815 58.8955C65.93 59.5392 66.1596 60.2767 65.7551 60.854C65.5691 61.0169 65.3472 61.1335 65.1076 61.1945C64.868 61.2554 64.6173 61.259 64.3761 61.2048C64.5675 61.0254 64.7296 60.8171 64.8565 60.5874C64.8937 59.875 64.8041 59.1616 64.592 58.4805C64.4422 57.9637 64.1571 57.4964 63.7661 57.1267C64.2777 56.7568 64.7366 56.3191 65.1304 55.8257C65.3137 56.4862 65.5138 57.1457 65.6434 57.8199C67.2192 57.4548 68.7679 56.9817 70.2788 56.4041C73.6463 55.0032 76.696 52.9363 79.245 50.3275C79.5722 49.94 79.9383 49.587 80.3374 49.2741C80.0561 49.0412 79.7138 48.6831 79.3134 48.8727C78.9929 49.1116 78.6924 49.3762 78.4148 49.6638C76.6961 51.4239 74.7326 52.9269 72.5849 54.1264C71.9254 54.4425 71.2701 54.7733 70.618 55.1019C69.8037 55.5044 68.9019 55.674 68.0896 56.068C67.875 56.1405 67.6543 56.1933 67.4302 56.226C68.0033 55.478 68.3403 54.5931 68.8471 53.803C69.2063 53.2004 69.4454 52.5283 69.83 51.9373C69.7151 52.8479 69.4732 53.738 69.1115 54.5815C72.0689 53.4462 74.7689 51.7297 77.0516 49.5332C77.7037 49.0518 78.0767 48.2438 78.8626 47.934" fill="#226842"/>
<path d="M64.4653 53.9853C64.4655 53.8516 64.4261 53.7209 64.3519 53.6097C64.2778 53.4985 64.1724 53.4118 64.049 53.3606C63.9255 53.3093 63.7896 53.2959 63.6585 53.3219C63.5274 53.3479 63.407 53.4122 63.3125 53.5067C63.218 53.6012 63.1537 53.7217 63.1277 53.8528C63.1017 53.9838 63.1151 54.1197 63.1663 54.2431C63.2176 54.3666 63.3043 54.472 63.4155 54.5462C63.5268 54.6203 63.6574 54.6597 63.7911 54.6595C63.9699 54.6595 64.1414 54.5885 64.2678 54.4621C64.3943 54.3356 64.4653 54.1641 64.4653 53.9853Z" fill="#226842"/>
<path d="M68.4726 5.54395C68.875 5.64929 69.2712 5.7873 69.6704 5.91056C69.249 7.51291 68.6391 9.04994 68.2209 10.6512C67.9838 11.6921 67.4697 12.6402 67.2474 13.6853C66.8439 12.9478 66.4584 12.2041 66.0791 11.4603C66.3625 11.2264 66.7291 11.0558 66.8745 10.6913C67.14 10.0834 67.2463 9.41655 67.4718 8.795C67.8729 7.73423 68.2075 6.64949 68.4737 5.5471" fill="#226842"/>
<path d="M70.9706 6.48364C71.768 6.75239 72.5343 7.10556 73.2566 7.53713C77.1942 9.63007 80.5611 12.653 83.0646 16.3432C83.7135 17.1249 84.0875 18.0825 84.6554 18.9169C85.4541 20.4506 86.1076 22.0558 86.6074 23.7113C87.375 26.0703 87.7747 28.5334 87.7926 31.014C87.2501 31.0246 86.7097 31.0541 86.1692 31.0604C86.4047 30.7018 86.5319 30.2831 86.5358 29.8541C86.4868 28.1406 86.2296 26.4394 85.7699 24.7879C85.4307 23.9146 85.1947 23.0065 84.8555 22.1332C83.9468 19.8762 82.7469 17.7476 81.2863 15.8017L81.1009 15.7248C80.9238 15.9513 80.7663 16.1923 80.63 16.4454C80.63 16.8268 80.9187 17.1049 81.1241 17.3935C83.6405 21.0333 85.1654 25.2657 85.5487 29.674C84.8607 29.2136 84.3361 28.5615 83.6851 28.059C83.1889 27.6798 82.7222 27.2636 82.2102 26.916C82.0759 26.7902 81.9498 26.6558 81.8331 26.5135C82.7244 26.8137 83.5591 27.2614 84.3024 27.8378C84.0221 26.2164 83.5705 24.6294 82.955 23.1034C82.5175 21.92 81.9786 20.7766 81.3443 19.6859C80.8596 18.7904 80.1633 18.0204 79.7398 17.0954C79.6074 16.6962 79.6173 16.2634 79.7679 15.8706C79.9185 15.4779 80.2003 15.1494 80.5657 14.941C80.0706 14.267 79.5025 13.6497 78.8717 13.1006C78.4029 13.8443 77.3347 14.2889 77.46 15.3129C76.923 15.0913 76.3655 14.923 75.7955 14.8104C76.514 13.936 77.3052 13.1248 78.0247 12.2483C77.1791 11.502 76.2853 10.8122 75.3489 10.1835C74.8106 10.9072 74.0509 11.6173 74.1468 12.6065C73.655 12.3763 73.1305 12.2238 72.5919 12.1545C73.1187 11.2222 73.8234 10.4068 74.3976 9.50504C73.5395 8.96454 72.6454 8.48338 71.7217 8.06492C71.4457 9.34069 70.9421 10.5469 70.6314 11.8143C70.4059 12.8614 69.9992 13.8591 69.7601 14.8999L69.5168 14.8789C69.2998 14.1867 68.7372 13.6705 68.5381 12.9826C68.7351 12.9278 68.9289 12.8646 69.1249 12.7909C69.4012 12.1385 69.6078 11.4587 69.7412 10.7629C70.2416 9.36492 70.584 7.91849 70.9716 6.4868" fill="#226842"/>
<path d="M77.2358 7.68151C77.2358 7.54795 77.1962 7.41739 77.122 7.30634C77.0478 7.19529 76.9424 7.10874 76.819 7.05763C76.6956 7.00652 76.5598 6.99314 76.4288 7.0192C76.2978 7.04526 76.1775 7.10957 76.0831 7.20401C75.9886 7.29845 75.9243 7.41878 75.8982 7.54977C75.8722 7.68076 75.8856 7.81654 75.9367 7.93993C75.9878 8.06332 76.0743 8.16879 76.1854 8.24299C76.2964 8.31719 76.427 8.35679 76.5606 8.35679C76.7397 8.35679 76.9114 8.28565 77.0381 8.15901C77.1647 8.03237 77.2358 7.86061 77.2358 7.68151Z" fill="#226842"/>
<path d="M76.1109 16.6224C76.1111 16.4887 76.0716 16.358 75.9975 16.2468C75.9234 16.1356 75.8179 16.0489 75.6945 15.9976C75.571 15.9464 75.4352 15.9329 75.3041 15.959C75.173 15.985 75.0525 16.0493 74.958 16.1438C74.8635 16.2383 74.7992 16.3588 74.7732 16.4898C74.7471 16.6209 74.7606 16.7568 74.8119 16.8802C74.8631 17.0037 74.9498 17.1091 75.061 17.1832C75.1723 17.2574 75.303 17.2968 75.4366 17.2966C75.6154 17.2966 75.7869 17.2256 75.9133 17.0991C76.0398 16.9727 76.1109 16.8012 76.1109 16.6224Z" fill="#226842"/>
<mask id="mask0_2_431" style="mask-type:luminance" maskUnits="userSpaceOnUse" x="27" y="-1" width="66" height="66">
<path d="M27.4038 -0.0100098H92.6967V64.99H27.4038V-0.0100098Z" fill="white"/>
</mask>
<g mask="url(#mask0_2_431)">
<path d="M60.1977 64.064C52.169 64.0699 44.4397 61.017 38.5819 55.5265C32.7242 50.0359 29.1781 42.52 28.665 34.5078C28.1519 26.4955 30.7104 18.5887 35.82 12.3958C40.9295 6.20292 48.2064 2.18913 56.1702 1.17093C56.256 1.82362 56.4991 2.44568 56.8786 2.98357C57.2581 3.52146 57.7627 3.95906 58.3489 4.2587C57.6826 4.59836 57.1232 5.11562 56.7325 5.75331C56.3418 6.391 56.1351 7.12429 56.1351 7.87215C56.1351 8.62 56.3418 9.3533 56.7325 9.99099C57.1232 10.6287 57.6826 11.1459 58.3489 11.4856C57.683 11.8257 57.124 12.343 56.7337 12.9807C56.3433 13.6183 56.1366 14.3514 56.1365 15.0991C56.1365 15.1096 56.1365 15.1191 56.1365 15.1307C51.8771 16.127 48.1327 18.6546 45.6157 22.2324C43.0988 25.8101 41.9851 30.1884 42.4866 34.534C42.9881 38.8795 45.0697 42.8891 48.3354 45.7996C51.601 48.71 55.8228 50.3183 60.1972 50.3183C64.5716 50.3183 68.7933 48.71 72.059 45.7996C75.3246 42.8891 77.4063 38.8795 77.9078 34.534C78.4092 30.1884 77.2955 25.8101 74.7786 22.2324C72.2617 18.6546 68.5173 16.127 64.2578 15.1307C64.2578 15.1201 64.2578 15.1106 64.2578 15.0991C64.2576 14.3514 64.0509 13.6184 63.6606 12.9808C63.2702 12.3432 62.7113 11.8257 62.0455 11.4856C62.7115 11.1457 63.2705 10.6283 63.661 9.99066C64.0514 9.353 64.2581 8.61985 64.2581 7.87215C64.2581 7.12445 64.0514 6.3913 63.661 5.75364C63.2705 5.11598 62.7115 4.59863 62.0455 4.2587C62.6314 3.95886 63.1357 3.52118 63.515 2.98331C63.8944 2.44545 64.1373 1.82349 64.2231 1.17093C72.1868 2.18912 79.4636 6.20283 84.5732 12.3956C89.6828 18.5884 92.2413 26.495 91.7284 34.5072C91.2154 42.5194 87.6695 50.0353 81.812 55.5259C75.9544 61.0166 68.2263 64.0696 60.1977 64.064ZM57.0446 7.87426C57.0446 7.2511 57.2294 6.64193 57.5756 6.12378C57.9218 5.60563 58.4138 5.20176 58.9895 4.96324C59.5652 4.72472 60.1987 4.66226 60.8099 4.78375C61.4211 4.90525 61.9826 5.20524 62.4233 5.64581C62.864 6.08638 63.1642 6.64773 63.2859 7.25889C63.4076 7.87004 63.3454 8.50357 63.107 9.07935C62.8687 9.65513 62.465 10.1473 61.947 10.4937C61.4289 10.84 60.8198 11.025 60.1967 11.0252C59.3611 11.0244 58.56 10.6922 57.9691 10.1015C57.3782 9.51076 57.0458 8.70979 57.0446 7.87426ZM60.1967 14.6629C59.1426 14.6644 58.0907 14.7585 57.0531 14.9442C57.0894 14.1348 57.4364 13.3707 58.022 12.8108C58.6076 12.2509 59.3865 11.9384 60.1967 11.9384C61.0068 11.9384 61.7858 12.2509 62.3713 12.8108C62.9569 13.3707 63.3039 14.1348 63.3402 14.9442C62.3026 14.7586 61.2507 14.6645 60.1967 14.6629ZM57.1415 15.8702C59.1593 15.4954 61.2288 15.4954 63.2465 15.8702C63.5471 15.9243 63.8442 15.9864 64.1378 16.0567C68.1621 17.0224 71.6922 19.4311 74.0589 22.8262C76.4256 26.2214 77.4642 30.3668 76.978 34.4768C76.4918 38.5867 74.5145 42.3754 71.4209 45.1245C68.3274 47.8737 64.3326 49.3922 60.194 49.3922C56.0554 49.3922 52.0607 47.8737 48.9671 45.1245C45.8736 42.3754 43.8962 38.5867 43.41 34.4768C42.9238 30.3668 43.9625 26.2214 46.3291 22.8262C48.6958 19.4311 52.226 17.0224 56.2503 16.0567C56.5446 15.9864 56.8416 15.9243 57.1415 15.8702ZM60.1977 0.917043C61.2512 0.917043 62.291 0.968664 63.3171 1.07191C63.2149 1.82674 62.8425 2.51892 62.2689 3.02011C61.6953 3.5213 60.9594 3.7975 60.1977 3.7975C59.436 3.7975 58.7001 3.5213 58.1265 3.02011C57.5529 2.51892 57.1805 1.82674 57.0783 1.07191C58.1044 0.970771 59.1442 0.91915 60.1977 0.917043ZM64.2389 0.240706C63.9291 0.201727 63.6163 0.168016 63.3044 0.135358C62.2804 0.0426511 61.2438 -0.0131836 60.1977 -0.0131836C59.1516 -0.0131836 58.1129 0.0384372 57.091 0.135358C56.775 0.163802 56.4663 0.198567 56.1565 0.240706C47.9519 1.26891 40.4478 5.38587 35.1723 11.7532C29.8968 18.1204 27.2468 26.2592 27.7619 34.5119C28.277 42.7647 31.9185 50.5107 37.9448 56.1726C43.9711 61.8345 51.9289 64.9864 60.1977 64.9864C68.4665 64.9864 76.4244 61.8345 82.4507 56.1726C88.477 50.5107 92.1184 42.7647 92.6335 34.5119C93.1486 26.2592 90.4986 18.1204 85.2231 11.7532C79.9477 5.38587 72.4435 1.26891 64.2389 0.240706Z" fill="#226842"/>
</g>
</g>
</g>
</g>
<defs>
<clipPath id="clip0_2_431">
<rect width="120" height="65" fill="white" transform="translate(0.0500488 -0.0100098)"/>
</clipPath>
<clipPath id="clip1_2_431">
<rect width="120" height="65" fill="white" transform="translate(0.0500488 -0.0100098)"/>
</clipPath>
<clipPath id="clip2_2_431">
<rect width="65.2929" height="65" fill="white" transform="translate(27.4038 -0.0100098)"/>
</clipPath>
</defs>
</svg>
