<svg width="146" height="51" viewBox="0 0 146 51" fill="none" xmlns="http://www.w3.org/2000/svg">
<g clip-path="url(#clip0_2_1739)">
<g clip-path="url(#clip1_2_1739)">
<g clip-path="url(#clip2_2_1739)">
<path d="M23.9114 17.4363L16.5229 21.6989V30.224L23.9114 34.4945L31.2999 30.2319V21.6989L23.9114 17.4363Z" fill="#33CC99"/>
<path d="M46.7714 13.8052V18.9282L42.3352 16.3706L46.7714 13.8052Z" fill="url(#paint0_linear_2_1739)"/>
<path d="M46.5426 31.937V37.0521L42.1143 34.4946L46.5426 31.937Z" fill="url(#paint1_linear_2_1739)"/>
<path d="M44.6008 30.2319L40.1646 32.7895V27.6665L44.6008 30.2319Z" fill="url(#paint2_linear_2_1739)"/>
<path d="M47.3715 23.1355V28.2585L42.9353 25.7009L47.3715 23.1355Z" fill="url(#paint3_linear_2_1739)"/>
<path d="M37.2124 36.9968V42.1119L32.7761 39.5544L37.2124 36.9968Z" fill="url(#paint4_linear_2_1739)"/>
<path d="M37.9465 33.642L32.042 30.2319L37.9465 26.814V33.642Z" fill="url(#paint5_linear_2_1739)"/>
<path d="M37.9465 34.4945L32.042 37.9046V31.0845L37.9465 34.4945Z" fill="url(#paint6_linear_2_1739)"/>
<path d="M37.9465 25.9615L32.042 29.3715V22.5514L37.9465 25.9615Z" fill="url(#paint7_linear_2_1739)"/>
<path d="M38.4042 45.6877L33.9758 48.2452V43.1301L38.4042 45.6877Z" fill="url(#paint8_linear_2_1739)"/>
<path d="M31.2998 30.2319L23.9114 25.9614L31.2998 21.6989V30.2319Z" fill="url(#paint9_linear_2_1739)"/>
<path d="M30.558 39.728L24.6536 43.1381V36.3101L30.558 39.728Z" fill="url(#paint10_linear_2_1739)"/>
<path d="M29.8239 48.0875L25.3877 50.645V45.5299L29.8239 48.0875Z" fill="url(#paint11_linear_2_1739)"/>
<path d="M45.84 40.1779L41.4038 42.7355V37.6204L45.84 40.1779Z" fill="url(#paint12_linear_2_1739)"/>
<path d="M44.6008 21.6989L40.1646 24.2565V19.1414L44.6008 21.6989Z" fill="url(#paint13_linear_2_1739)"/>
<path d="M37.9465 18.2888V25.1089L32.042 21.6989L37.9465 18.2888Z" fill="url(#paint14_linear_2_1739)"/>
<path d="M29.8239 40.8962V46.0113L25.3955 43.4538L29.8239 40.8962Z" fill="url(#paint15_linear_2_1739)"/>
<path d="M30.558 38.8755L24.6536 35.4575L30.558 32.0475V38.8755Z" fill="url(#paint16_linear_2_1739)"/>
<path d="M23.9114 25.9614L31.2998 30.2319L23.9114 34.4945V25.9614Z" fill="url(#paint17_linear_2_1739)"/>
<path d="M45.3979 11.3029L40.9617 13.8605V8.74536L45.3979 11.3029Z" fill="url(#paint18_linear_2_1739)"/>
<path d="M38.1359 3.8355L33.6997 6.40094V1.27795L38.1359 3.8355Z" fill="url(#paint19_linear_2_1739)"/>
<path d="M37.9465 17.4363L32.042 20.8463V14.0183L37.9465 17.4363Z" fill="url(#paint20_linear_2_1739)"/>
<path d="M29.8239 9.70054L25.3877 7.143L29.8239 4.58545V9.70054Z" fill="url(#paint21_linear_2_1739)"/>
<path d="M30.558 13.0553V19.8833L24.6536 16.4654L30.558 13.0553Z" fill="url(#paint22_linear_2_1739)"/>
<path d="M23.9114 17.4363V25.9614L16.5229 21.6989L23.9114 17.4363Z" fill="url(#paint23_linear_2_1739)"/>
<path d="M23.1772 15.6128L17.2649 12.2027L23.1772 8.78479V15.6128Z" fill="url(#paint24_linear_2_1739)"/>
<path d="M22.4353 5.43004L17.999 2.87249L22.4353 0.314941V5.43004Z" fill="url(#paint25_linear_2_1739)"/>
<path d="M15.7809 20.8463L9.87646 17.4284L15.7809 14.0183V20.8463Z" fill="url(#paint26_linear_2_1739)"/>
<path d="M13.4049 4.20654V9.32953L8.97656 6.77198L13.4049 4.20654Z" fill="url(#paint27_linear_2_1739)"/>
<path d="M37.2124 14.934L32.7761 12.3686L37.2124 9.81104V14.934Z" fill="url(#paint28_linear_2_1739)"/>
<path d="M29.8239 2.87249L25.3877 5.43004V0.314941L29.8239 2.87249Z" fill="url(#paint29_linear_2_1739)"/>
<path d="M30.558 12.2028L24.6536 15.6128V8.79272L30.558 12.2028Z" fill="url(#paint30_linear_2_1739)"/>
<path d="M31.2998 21.6989L23.9114 25.9614V17.4363L31.2998 21.6989Z" fill="url(#paint31_linear_2_1739)"/>
<path d="M22.4353 8.57964L17.999 11.1451V6.02209L22.4353 8.57964Z" fill="url(#paint32_linear_2_1739)"/>
<path d="M23.1694 16.4654L17.2649 19.8833V13.0553L23.1694 16.4654Z" fill="url(#paint33_linear_2_1739)"/>
<path d="M15.0468 12.3686L10.6106 14.9261V9.81104L15.0468 12.3686Z" fill="url(#paint34_linear_2_1739)"/>
<path d="M5.53512 16.2128L1.09888 13.6553L5.53512 11.0898V16.2128Z" fill="url(#paint35_linear_2_1739)"/>
<path d="M22.4353 50.645L17.999 48.0875L22.4353 45.5299V50.645Z" fill="url(#paint36_linear_2_1739)"/>
<path d="M23.9114 25.9614V34.4945L16.5229 30.224L23.9114 25.9614Z" fill="url(#paint37_linear_2_1739)"/>
<path d="M15.0468 43.3906V48.5136L10.6106 45.9561L15.0468 43.3906Z" fill="url(#paint38_linear_2_1739)"/>
<path d="M15.7809 30.2319L9.87646 33.642V26.814L15.7809 30.2319Z" fill="url(#paint39_linear_2_1739)"/>
<path d="M15.7809 21.6989L9.87646 25.1089V18.2888L15.7809 21.6989Z" fill="url(#paint40_linear_2_1739)"/>
<path d="M6.86104 38.6466V43.7617L2.4248 41.2042L6.86104 38.6466Z" fill="url(#paint41_linear_2_1739)"/>
<path d="M7.65841 18.9597V24.0827L3.22217 21.5252L7.65841 18.9597Z" fill="url(#paint42_linear_2_1739)"/>
<path d="M5.09298 26.1824L0.656738 28.74V23.6249L5.09298 26.1824Z" fill="url(#paint43_linear_2_1739)"/>
<path d="M23.1694 43.1381L17.2649 39.728L23.1694 36.3101V43.1381Z" fill="url(#paint44_linear_2_1739)"/>
<path d="M23.9114 25.9614L16.5229 30.224V21.6989L23.9114 25.9614Z" fill="url(#paint45_linear_2_1739)"/>
<path d="M22.4353 43.8248L17.999 46.3824V41.2594L22.4353 43.8248Z" fill="url(#paint46_linear_2_1739)"/>
<path d="M23.1694 35.4575L17.2649 38.8755V32.0475L23.1694 35.4575Z" fill="url(#paint47_linear_2_1739)"/>
<path d="M15.0468 39.5544L10.6106 42.1119V36.9968L15.0468 39.5544Z" fill="url(#paint48_linear_2_1739)"/>
<path d="M15.7809 31.0845V37.9046L9.87646 34.4945L15.7809 31.0845Z" fill="url(#paint49_linear_2_1739)"/>
<path d="M15.7809 22.5514V29.3715L9.87646 25.9615L15.7809 22.5514Z" fill="url(#paint50_linear_2_1739)"/>
<path d="M7.65841 32.7895L3.22217 30.232L7.65841 27.6744V32.7895Z" fill="url(#paint51_linear_2_1739)"/>
<path d="M5.26656 17.4363L0.838216 19.9938L0.830322 14.8708L5.26656 17.4363Z" fill="url(#paint52_linear_2_1739)"/>
<path d="M5.53512 34.8024L1.09888 37.3679V32.2449L5.53512 34.8024Z" fill="url(#paint53_linear_2_1739)"/>
<path d="M60.5618 45.4667C60.3861 45.3399 60.1917 45.2414 59.9856 45.1746C59.7653 45.1021 59.5414 45.0415 59.3146 44.993L58.6515 44.8431C58.4546 44.8027 58.2617 44.7446 58.0753 44.6694C57.9195 44.617 57.7786 44.5276 57.6648 44.4089C57.5591 44.2926 57.5025 44.1398 57.507 43.9826C57.5032 43.823 57.5414 43.6652 57.6175 43.5248C57.6864 43.4032 57.784 43.3003 57.9016 43.2249C58.0261 43.1502 58.1622 43.0968 58.3042 43.067C58.4575 43.0359 58.6135 43.02 58.77 43.0196C59.1124 43.0047 59.4505 43.1017 59.733 43.2959C59.865 43.4019 59.9728 43.5349 60.0491 43.686C60.1253 43.8372 60.1683 44.0029 60.175 44.1721H60.8855C60.879 43.8994 60.8173 43.6308 60.7039 43.3827C60.5994 43.1658 60.4485 42.9744 60.2619 42.8223C60.0657 42.6742 59.8434 42.5644 59.6067 42.4986C59.3488 42.4318 59.0837 42.3973 58.8173 42.396C58.5506 42.3908 58.2845 42.4254 58.0279 42.4986C57.7931 42.5579 57.5711 42.6596 57.3728 42.7986C57.1696 42.9357 57.0045 43.1219 56.8927 43.34C56.7809 43.558 56.7261 43.8009 56.7334 44.0458C56.7253 44.2695 56.78 44.491 56.8913 44.6852C56.9919 44.8581 57.1327 45.0043 57.3017 45.1114C57.4798 45.2263 57.674 45.3141 57.878 45.3719L58.541 45.5456L59.2041 45.6877C59.4051 45.7294 59.601 45.7929 59.7882 45.8771C59.9434 45.9454 60.081 46.0479 60.1908 46.1771C60.2996 46.3103 60.3558 46.4788 60.3487 46.6507C60.353 46.8274 60.3093 47.002 60.2224 47.1559C60.1381 47.2836 60.0244 47.3892 59.8909 47.4638C59.746 47.5447 59.5885 47.6007 59.4251 47.6295C59.2559 47.6609 59.0842 47.6768 58.912 47.6769C58.7042 47.6788 58.497 47.6523 58.2963 47.5979C58.1091 47.549 57.9325 47.466 57.7753 47.3532C57.6222 47.242 57.4977 47.0959 57.4122 46.927C57.3128 46.7402 57.2638 46.5307 57.2702 46.3192H56.5597C56.5518 46.6247 56.6168 46.9278 56.7492 47.2033C56.8653 47.4485 57.0385 47.6624 57.2544 47.8269C57.4752 47.9958 57.7274 48.1193 57.9964 48.19C58.2868 48.2707 58.587 48.3105 58.8884 48.3084C59.1543 48.3087 59.4194 48.2769 59.6777 48.2137C59.9293 48.1532 60.1693 48.0518 60.3882 47.9137C60.5948 47.7792 60.7699 47.6014 60.9012 47.3927C61.0462 47.1557 61.1176 46.881 61.1065 46.6033C61.113 46.3622 61.0587 46.1233 60.9486 45.9087C60.8541 45.7344 60.722 45.5834 60.5618 45.4667ZM65.148 47.5585C65.1323 47.4432 65.1323 47.3264 65.148 47.2112V45.1114C65.1552 44.9083 65.1089 44.7069 65.0138 44.5273C64.9286 44.3839 64.8057 44.2666 64.6586 44.1879C64.5054 44.1069 64.3401 44.0509 64.1692 44.0221C63.9852 44.0106 63.8007 44.0106 63.6167 44.0221C63.3989 44.0211 63.1817 44.0449 62.9694 44.0932C62.7745 44.1369 62.5897 44.2173 62.4247 44.33C62.2671 44.4375 62.1373 44.5809 62.0458 44.7483C61.9446 44.9492 61.8906 45.1706 61.8879 45.3956H62.5589C62.5523 45.2751 62.5772 45.1549 62.6312 45.0469C62.6852 44.939 62.7664 44.8469 62.8668 44.7799C63.0846 44.6624 63.3298 44.6051 63.5772 44.6141C63.6823 44.6063 63.7878 44.6063 63.8929 44.6141C63.9977 44.6277 64.0993 44.6598 64.1929 44.7089C64.2823 44.7588 64.3561 44.8326 64.406 44.922C64.4654 45.0306 64.4927 45.1537 64.485 45.2772C64.4882 45.3298 64.4801 45.3824 64.461 45.4315C64.4419 45.4805 64.4124 45.5249 64.3745 45.5614C64.2879 45.6346 64.185 45.686 64.0745 45.7114C63.9293 45.7487 63.7816 45.7751 63.6324 45.7903C63.4572 45.809 63.2833 45.838 63.1115 45.8771C62.9378 45.8771 62.7641 45.9482 62.5984 45.9955C62.4399 46.0407 62.2904 46.1128 62.1563 46.2087C62.0262 46.3001 61.9205 46.422 61.8485 46.5639C61.7618 46.7403 61.7211 46.9358 61.7301 47.1322C61.7236 47.3115 61.7587 47.4898 61.8327 47.6532C61.8964 47.7957 61.9972 47.9184 62.1248 48.0084C62.2498 48.1077 62.3954 48.1778 62.551 48.2137C62.7243 48.255 62.9018 48.2762 63.0799 48.2768C63.3504 48.2806 63.619 48.2296 63.8693 48.1268C64.1231 48.0251 64.3461 47.8592 64.5165 47.6453C64.5096 47.732 64.5199 47.8193 64.547 47.9019C64.5741 47.9846 64.6174 48.0611 64.6744 48.1268C64.7288 48.1788 64.7933 48.219 64.8639 48.2448C64.9346 48.2706 65.0098 48.2815 65.0849 48.2768C65.2523 48.2832 65.4185 48.2451 65.5664 48.1663V47.6453C65.5005 47.6691 65.4312 47.6824 65.3612 47.6848C65.227 47.6769 65.1638 47.6295 65.148 47.5585ZM64.4455 46.7691C64.4436 46.873 64.4193 46.9753 64.3745 47.0691C64.3258 47.1853 64.25 47.2881 64.1534 47.369C64.0417 47.4712 63.91 47.5491 63.7666 47.5979C63.5849 47.6652 63.392 47.6973 63.1983 47.6927C63.0987 47.7047 62.998 47.7047 62.8983 47.6927C62.8088 47.6734 62.7233 47.6386 62.6457 47.5901C62.5693 47.5396 62.5073 47.4701 62.4658 47.3885C62.4243 47.3068 62.4047 47.2158 62.4089 47.1243C62.4061 47.0157 62.4277 46.9078 62.4721 46.8086C62.5147 46.724 62.5769 46.651 62.6536 46.5955C62.7319 46.5377 62.8203 46.4948 62.9141 46.4692C63.0171 46.4345 63.1227 46.4081 63.2299 46.3902L63.5693 46.335C63.6835 46.328 63.797 46.3122 63.9087 46.2876L64.2087 46.2244C64.2932 46.201 64.3732 46.1637 64.4455 46.1139V46.7691ZM68.8738 46.3902C68.8732 46.5616 68.8466 46.732 68.7949 46.8954C68.7486 47.0453 68.6735 47.1847 68.5739 47.3059C68.4682 47.4213 68.339 47.5129 68.195 47.5743C68.0241 47.641 67.8416 47.6732 67.6582 47.669C67.547 47.6772 67.4354 47.6617 67.3306 47.6236C67.2259 47.5855 67.1304 47.5256 67.0504 47.448C66.9002 47.2851 66.8207 47.0694 66.8294 46.848V44.0774H66.1742V46.7691C66.1722 46.9713 66.1961 47.1729 66.2452 47.369C66.2823 47.543 66.3608 47.7055 66.4742 47.8426C66.5912 47.9796 66.7404 48.0854 66.9083 48.1505C67.1231 48.2289 67.3507 48.2664 67.5793 48.261C67.8535 48.2677 68.1249 48.2053 68.3686 48.0795C68.6027 47.9494 68.7945 47.7549 68.9212 47.519V48.1663H69.5527V44.0774H68.8817L68.8738 46.3902ZM73.5311 44.622C73.4611 44.5062 73.37 44.4045 73.2627 44.3221C73.1551 44.2429 73.0385 44.1767 72.9154 44.1247C72.7979 44.0771 72.6764 44.0401 72.5523 44.0142C72.4393 44.0071 72.3259 44.0071 72.2129 44.0142C71.9404 44.0159 71.6714 44.075 71.4235 44.1879C71.1983 44.297 70.9992 44.4531 70.8394 44.6457C70.6851 44.8502 70.5676 45.0799 70.492 45.3246C70.4206 45.5817 70.3835 45.8471 70.3815 46.1139C70.3835 46.3813 70.4233 46.6471 70.4999 46.9033C70.5755 47.148 70.693 47.3777 70.8473 47.5822C71.0064 47.7794 71.2055 47.9408 71.4314 48.0558C71.6903 48.1776 71.9742 48.2371 72.2602 48.2294C72.5315 48.2323 72.8003 48.1785 73.0496 48.0716C73.2783 47.9793 73.4642 47.8047 73.5706 47.5822V48.1347H74.2415V42.5223H73.5706L73.5311 44.622ZM73.5311 46.6902C73.4885 46.8656 73.4135 47.0316 73.3101 47.1796C73.2092 47.3253 73.077 47.4466 72.9233 47.5348C72.7458 47.6279 72.5474 47.6741 72.3471 47.669C72.1501 47.6739 71.955 47.6305 71.7787 47.5427C71.6234 47.4604 71.4886 47.3445 71.384 47.2033C71.2812 47.0539 71.2039 46.8885 71.1551 46.7139C71.1077 46.5335 71.0838 46.3478 71.0841 46.1613C71.0808 45.9647 71.102 45.7685 71.1472 45.5772C71.1829 45.3973 71.2526 45.2258 71.3524 45.072C71.4471 44.9245 71.5739 44.8003 71.7235 44.7089C71.9038 44.6158 72.1047 44.5696 72.3076 44.5747C72.5129 44.5706 72.7161 44.6167 72.8996 44.7089C73.059 44.7917 73.1969 44.9106 73.3022 45.0562C73.407 45.2034 73.4821 45.3696 73.5232 45.5456C73.5711 45.7366 73.5949 45.9328 73.5943 46.1297C73.5799 46.3196 73.5455 46.5075 73.4916 46.6902H73.5311ZM75.2756 44.0774H75.9466V48.1584H75.2756V44.0774ZM81.2353 42.5223H79.3014V48.1663H81.2353C81.6493 48.1768 82.0616 48.1099 82.4509 47.9689C82.7758 47.8497 83.066 47.6517 83.2956 47.3927C83.5289 47.1275 83.6966 46.8112 83.785 46.4692C83.8987 46.0608 83.9519 45.6379 83.9428 45.2141C83.9736 44.8456 83.927 44.4748 83.806 44.1255C83.685 43.7761 83.4923 43.4559 83.2403 43.1854C82.684 42.7114 81.9645 42.4734 81.2353 42.5223ZM83.0903 46.2008C83.0301 46.4189 82.9369 46.6265 82.8141 46.8165C82.7133 46.9656 82.5879 47.0964 82.443 47.2033C82.3111 47.293 82.1677 47.3646 82.0168 47.4164C81.8883 47.4685 81.7525 47.5004 81.6142 47.5111H80.0513V43.1538H81.3143C81.6132 43.148 81.9105 43.1989 82.1905 43.3038C82.407 43.4019 82.5986 43.5476 82.7509 43.73C82.9052 43.9311 83.0154 44.1624 83.0745 44.4089C83.1411 44.7068 83.1729 45.0114 83.1693 45.3167C83.1842 45.6136 83.1576 45.9112 83.0903 46.2008ZM87.9765 47.5585C87.9657 47.443 87.9657 47.3267 87.9765 47.2112V45.1114C87.9837 44.9083 87.9374 44.7069 87.8423 44.5273C87.7527 44.3875 87.6309 44.2711 87.4871 44.1879C87.331 44.107 87.1632 44.051 86.9898 44.0221C86.8084 44.0104 86.6265 44.0104 86.4451 44.0221C86.2274 44.0211 86.0102 44.0449 85.7979 44.0932C85.6002 44.136 85.4126 44.2164 85.2453 44.33C85.0877 44.4375 84.9579 44.5809 84.8664 44.7483C84.7683 44.9504 84.7145 45.1711 84.7085 45.3956H85.3795C85.3745 45.2745 85.401 45.1541 85.4563 45.0462C85.5116 44.9383 85.594 44.8466 85.6952 44.7799C85.9131 44.6624 86.1583 44.6051 86.4057 44.6141H86.7214C86.8237 44.6276 86.9227 44.6597 87.0135 44.7089C87.1029 44.7588 87.1767 44.8326 87.2266 44.922C87.2887 45.0298 87.3188 45.153 87.3134 45.2772C87.3167 45.3298 87.3085 45.3824 87.2895 45.4315C87.2704 45.4805 87.2408 45.5249 87.2029 45.5614C87.1148 45.6323 87.0125 45.6834 86.903 45.7114C86.7578 45.7487 86.61 45.7751 86.4609 45.7903C86.2857 45.809 86.1117 45.838 85.9399 45.8771C85.7663 45.8771 85.5926 45.9482 85.4269 45.9955C85.2677 46.039 85.1179 46.1112 84.9848 46.2087C84.8522 46.2996 84.7438 46.4215 84.6691 46.5639C84.5824 46.7403 84.5417 46.9358 84.5507 47.1322C84.5463 47.3121 84.5842 47.4906 84.6612 47.6532C84.7245 47.7936 84.8222 47.9158 84.9453 48.0084C85.0742 48.1064 85.222 48.1763 85.3795 48.2137C85.5527 48.2555 85.7302 48.2767 85.9084 48.2768C86.1789 48.2806 86.4474 48.2296 86.6977 48.1268C86.9486 48.0199 87.1705 47.8548 87.345 47.6453C87.337 47.7315 87.3461 47.8184 87.3718 47.9011C87.3976 47.9837 87.4394 48.0604 87.495 48.1268C87.5511 48.1786 87.617 48.2186 87.6889 48.2444C87.7608 48.2702 87.8371 48.2812 87.9134 48.2768C88.0807 48.2825 88.2467 48.2444 88.3949 48.1663V47.6453C88.3287 47.6684 88.2596 47.6817 88.1896 47.6848C88.0554 47.6769 88.0002 47.6295 87.9765 47.5585ZM87.2819 46.7691C87.2799 46.873 87.2557 46.9753 87.2108 47.0691C87.1589 47.1834 87.0836 47.2856 86.9898 47.369C86.878 47.4712 86.7463 47.5491 86.603 47.5979C86.4213 47.6652 86.2284 47.6973 86.0347 47.6927C85.9351 47.7051 85.8343 47.7051 85.7347 47.6927C85.6452 47.6734 85.5597 47.6386 85.4821 47.5901C85.4107 47.5408 85.3513 47.476 85.3084 47.4006C85.2583 47.3174 85.2336 47.2214 85.2374 47.1243C85.2329 47.0147 85.2574 46.9057 85.3084 46.8086C85.3511 46.724 85.4133 46.651 85.49 46.5955C85.5683 46.5377 85.6566 46.4948 85.7505 46.4692C85.8532 46.4336 85.9589 46.4072 86.0662 46.3902L86.4057 46.335C86.5198 46.3274 86.6332 46.3116 86.7451 46.2876L87.0451 46.2244C87.1296 46.201 87.2096 46.1637 87.2819 46.1139V46.7691ZM89.9262 42.8539H89.2553V44.0774H88.5606V44.6694H89.2553V47.2743C89.2496 47.4289 89.2682 47.5834 89.3105 47.7321C89.3409 47.8348 89.3981 47.9274 89.4763 48.0005C89.567 48.0672 89.6727 48.1106 89.7842 48.1268C89.9312 48.1411 90.0792 48.1411 90.2262 48.1268H90.7393V47.5348H90.1788C90.1233 47.531 90.0694 47.5149 90.021 47.4874C89.9837 47.4613 89.9582 47.4216 89.9499 47.3769C89.9402 47.3142 89.9402 47.2502 89.9499 47.1875V44.6694H90.7393V44.0774H89.9499L89.9262 42.8539ZM94.7098 47.5585C94.699 47.443 94.699 47.3267 94.7098 47.2112V45.1114C94.7233 44.9071 94.6824 44.7029 94.5914 44.5194C94.5017 44.3796 94.38 44.2632 94.2362 44.18C94.0801 44.0991 93.9123 44.0431 93.7389 44.0142C93.5549 44.0022 93.3703 44.0022 93.1863 44.0142C92.9686 44.0136 92.7515 44.0374 92.539 44.0853C92.3441 44.129 92.1593 44.2094 91.9944 44.3221C91.8368 44.4296 91.707 44.573 91.6155 44.7404C91.5174 44.9425 91.4636 45.1632 91.4576 45.3877H92.1286C92.122 45.2672 92.1469 45.147 92.2009 45.039C92.2549 44.9311 92.336 44.839 92.4364 44.772C92.6542 44.6545 92.8995 44.5972 93.1469 44.6062C93.2546 44.5984 93.3628 44.5984 93.4705 44.6062C93.5728 44.6197 93.6718 44.6518 93.7626 44.701C93.852 44.7509 93.9258 44.8247 93.9757 44.9141C94.035 45.0227 94.0624 45.1458 94.0546 45.2693C94.0596 45.322 94.0523 45.3752 94.0331 45.4245C94.0139 45.4739 93.9834 45.518 93.9441 45.5535C93.8575 45.6267 93.7547 45.6781 93.6442 45.7035C93.5017 45.7409 93.3565 45.7673 93.21 45.7824C93.0323 45.8017 92.8557 45.8307 92.6811 45.8692C92.5075 45.8692 92.3417 45.9403 92.1759 45.9876C92.0168 46.0311 91.867 46.1033 91.7339 46.2008C91.5995 46.2896 91.4906 46.4121 91.4181 46.556C91.3315 46.7325 91.2908 46.9279 91.2997 47.1243C91.2954 47.3042 91.3332 47.4827 91.4102 47.6453C91.4736 47.7857 91.5713 47.9079 91.6944 48.0005C91.8232 48.0985 91.9711 48.1684 92.1286 48.2058C92.2992 48.2471 92.474 48.2683 92.6496 48.2689C92.92 48.2716 93.1883 48.2206 93.4389 48.1189C93.6887 48.0139 93.9084 47.8484 94.0783 47.6374C94.0713 47.7241 94.0817 47.8114 94.1088 47.8941C94.1359 47.9767 94.1792 48.0532 94.2362 48.1189C94.2923 48.1708 94.3582 48.2107 94.4301 48.2365C94.502 48.2623 94.5783 48.2733 94.6545 48.2689C94.8219 48.2746 94.9879 48.2365 95.1361 48.1584V47.6374C95.0699 47.6605 95.0008 47.6738 94.9308 47.6769C94.7887 47.6769 94.7256 47.6295 94.7098 47.5585ZM94.0073 46.7691C94.0053 46.873 93.9811 46.9753 93.9362 47.0691C93.8875 47.1853 93.8118 47.2881 93.7152 47.369C93.6048 47.473 93.4727 47.5512 93.3284 47.5979C93.1467 47.6652 92.9538 47.6973 92.7601 47.6927C92.6604 47.7047 92.5597 47.7047 92.4601 47.6927C92.3733 47.6725 92.2906 47.6378 92.2154 47.5901C92.1422 47.5429 92.0823 47.4777 92.0417 47.4006C91.9916 47.3174 91.9669 47.2214 91.9707 47.1243C91.9662 47.0147 91.9907 46.9057 92.0417 46.8086C92.0816 46.7246 92.1412 46.6514 92.2154 46.5955C92.2956 46.5409 92.3834 46.4983 92.4759 46.4692C92.5789 46.4345 92.6845 46.4081 92.7916 46.3902L93.139 46.335C93.2506 46.3281 93.3614 46.3122 93.4705 46.2876L93.7705 46.2244C93.855 46.201 93.935 46.1637 94.0073 46.1139V46.7691ZM101.562 46.556C101.605 46.4614 101.642 46.3638 101.672 46.2639C101.705 46.1556 101.729 46.0447 101.743 45.9324C101.743 45.8113 101.759 45.6693 101.79 45.5061H101.151C101.138 45.806 101.077 46.1019 100.969 46.3823L99.9512 45.143C100.089 45.0627 100.221 44.9731 100.346 44.8746C100.474 44.7806 100.588 44.669 100.685 44.5431C100.786 44.4261 100.866 44.2926 100.922 44.1484C100.984 43.9984 101.014 43.837 101.009 43.6748C101.012 43.5027 100.974 43.3323 100.898 43.1775C100.825 43.0348 100.719 42.9107 100.591 42.8144C100.463 42.7116 100.315 42.6364 100.156 42.5934C99.9895 42.546 99.8168 42.5221 99.6433 42.5223C99.4574 42.5189 99.2725 42.5511 99.0987 42.617C98.9495 42.6737 98.8147 42.7626 98.704 42.8775C98.5953 42.981 98.5116 43.1079 98.4593 43.2485C98.3727 43.5045 98.3727 43.7819 98.4593 44.0379C98.4887 44.1528 98.5367 44.2621 98.6014 44.3615C98.6597 44.4662 98.7257 44.5665 98.7987 44.6615L99.0276 44.9851C98.8529 45.074 98.6841 45.1742 98.5224 45.2851C98.3652 45.3871 98.2219 45.5092 98.0962 45.6482C97.9759 45.7834 97.8798 45.9383 97.812 46.106C97.7388 46.2919 97.7039 46.4905 97.7094 46.6902C97.7121 46.8365 97.7306 46.982 97.7646 47.1243C97.8116 47.3089 97.8977 47.4812 98.0172 47.6295C98.1636 47.8063 98.3468 47.9491 98.554 48.0479C98.8407 48.1796 99.1544 48.2418 99.4697 48.2294C99.6266 48.2301 99.783 48.2115 99.9354 48.1742C100.089 48.1433 100.237 48.0929 100.377 48.0242C100.517 47.9606 100.647 47.8783 100.764 47.7795C100.883 47.6811 100.984 47.5637 101.064 47.4322L101.664 48.1347H102.485L101.412 46.8875C101.475 46.7691 101.522 46.6586 101.562 46.556ZM99.2408 43.2643C99.3718 43.1694 99.5289 43.117 99.6907 43.1143C99.7779 43.1107 99.8648 43.1249 99.9463 43.1561C100.028 43.1874 100.102 43.2349 100.164 43.2959C100.22 43.3503 100.264 43.4154 100.294 43.4873C100.324 43.5592 100.339 43.6364 100.338 43.7143C100.34 43.8288 100.316 43.9423 100.267 44.0458C100.218 44.1404 100.157 44.228 100.085 44.3063C100.011 44.3855 99.9294 44.457 99.8407 44.5194L99.5881 44.6931L99.3907 44.4563L99.2171 44.2195C99.1672 44.1394 99.1249 44.0548 99.0908 43.9669C99.0529 43.8881 99.034 43.8016 99.0355 43.7143C99.0291 43.628 99.0445 43.5416 99.0804 43.4629C99.1162 43.3843 99.1714 43.316 99.2408 43.2643ZM100.156 47.4874C99.9454 47.6092 99.7054 47.6719 99.4618 47.669C99.327 47.6691 99.1934 47.645 99.0671 47.5979C98.94 47.5545 98.8222 47.4875 98.7198 47.4006C98.6184 47.3167 98.5363 47.2119 98.4791 47.0934C98.4219 46.9749 98.3909 46.8454 98.3882 46.7139C98.3833 46.5626 98.4102 46.412 98.4672 46.2718C98.5213 46.1513 98.5932 46.0396 98.6803 45.9403C98.7726 45.8366 98.8788 45.7462 98.9961 45.6719C99.1157 45.5892 99.2395 45.5128 99.3671 45.443L100.662 47.0217C100.528 47.2105 100.356 47.3692 100.156 47.4874ZM106.74 42.5223L104.537 48.1663H105.327L105.958 46.4692H108.326L108.942 48.1663H109.731L107.529 42.5223H106.74ZM106.179 45.8377L107.134 43.2012L108.074 45.8377H106.179ZM110.355 42.5223H111.105V48.1663H110.355V42.5223ZM116.102 42.5223L113.899 48.1663H114.689L115.32 46.4692H117.688L118.304 48.1663H119.133L116.93 42.5223H116.102ZM115.541 45.8377L116.496 43.2012L117.483 45.8377H115.541ZM122.29 46.3902C122.294 46.5619 122.267 46.7329 122.211 46.8954C122.165 47.0453 122.09 47.1847 121.99 47.3059C121.885 47.4213 121.755 47.5129 121.611 47.5743C121.443 47.641 121.263 47.6732 121.083 47.669C120.976 47.6743 120.869 47.6579 120.768 47.6206C120.668 47.5834 120.576 47.5261 120.499 47.4522C120.421 47.3784 120.359 47.2895 120.317 47.1911C120.275 47.0927 120.254 46.9867 120.254 46.8796V44.0774H119.575V46.7691C119.573 46.9713 119.597 47.1729 119.646 47.369C119.689 47.5424 119.77 47.7041 119.883 47.8426C119.998 47.9814 120.148 48.0875 120.317 48.1505C120.531 48.2295 120.759 48.267 120.988 48.261C121.262 48.268 121.534 48.2056 121.777 48.0795C122.013 47.9517 122.205 47.7566 122.33 47.519V48.1663H122.961V44.0774H122.29V46.3902ZM124.903 42.8539H124.232V44.0774H123.537V44.6694H124.232V47.2743C124.226 47.4289 124.245 47.5834 124.287 47.7321C124.318 47.8368 124.378 47.9301 124.461 48.0005C124.548 48.0688 124.651 48.1124 124.761 48.1268C124.908 48.1411 125.056 48.1411 125.203 48.1268H125.716V47.5348H125.124C125.069 47.531 125.015 47.5149 124.966 47.4874C124.929 47.4613 124.903 47.4216 124.895 47.3769C124.885 47.3142 124.885 47.2502 124.895 47.1875V44.6694H125.685V44.0774H124.895L124.903 42.8539ZM129.545 44.401C129.423 44.2689 129.275 44.164 129.11 44.0932C128.896 44.0148 128.668 43.9773 128.439 43.9826C128.18 43.981 127.924 44.0376 127.69 44.1484C127.575 44.2046 127.469 44.2763 127.374 44.3615C127.279 44.4525 127.202 44.5594 127.145 44.6773V42.5223H126.474V48.1663H127.145V45.8613C127.145 45.6873 127.172 45.5144 127.224 45.3483C127.268 45.2001 127.344 45.0629 127.445 44.9457C127.548 44.8256 127.678 44.731 127.824 44.6694C127.994 44.6019 128.177 44.5696 128.36 44.5747C128.467 44.5693 128.574 44.5858 128.675 44.623C128.775 44.6603 128.867 44.7176 128.944 44.7914C129.022 44.8653 129.084 44.9541 129.126 45.0526C129.168 45.151 129.189 45.257 129.189 45.364V48.1268H129.86V45.443C129.862 45.2382 129.839 45.034 129.789 44.8352C129.742 44.6737 129.658 44.5252 129.545 44.401ZM134.06 44.6062C133.887 44.411 133.674 44.2549 133.436 44.1484C133.167 44.033 132.876 43.9765 132.584 43.9826C132.288 43.9765 131.995 44.033 131.723 44.1484C131.487 44.255 131.277 44.4112 131.107 44.6062C130.932 44.801 130.802 45.0331 130.729 45.2851C130.641 45.558 130.599 45.8432 130.602 46.1297C130.599 46.4136 130.641 46.6962 130.729 46.9665C130.804 47.2152 130.933 47.4443 131.107 47.6374C131.275 47.8348 131.486 47.9914 131.723 48.0952C131.995 48.2106 132.288 48.2671 132.584 48.261C132.876 48.2672 133.167 48.2107 133.436 48.0952C133.672 48.0032 133.885 47.8603 134.06 47.6769C134.234 47.4838 134.363 47.2547 134.439 47.0059C134.526 46.7357 134.568 46.4531 134.565 46.1692C134.568 45.8827 134.526 45.5975 134.439 45.3246C134.371 45.0585 134.241 44.8124 134.06 44.6062ZM133.76 46.7849C133.702 46.9627 133.608 47.1266 133.483 47.2664C133.371 47.3931 133.234 47.4953 133.081 47.5664C132.924 47.6341 132.755 47.6691 132.584 47.6691C132.413 47.6691 132.243 47.6341 132.086 47.5664C131.933 47.4953 131.796 47.3931 131.684 47.2664C131.559 47.1266 131.465 46.9627 131.407 46.7849C131.283 46.3543 131.283 45.8972 131.407 45.4667C131.467 45.2896 131.561 45.126 131.684 44.9851C131.795 44.8561 131.932 44.7513 132.086 44.6773C132.243 44.6095 132.413 44.5746 132.584 44.5746C132.755 44.5746 132.924 44.6095 133.081 44.6773C133.235 44.7513 133.372 44.8561 133.483 44.9851C133.606 45.126 133.7 45.2896 133.76 45.4667C133.885 45.8972 133.885 46.3543 133.76 46.7849ZM136.009 44.9457V44.0774H135.378V48.1663H136.049V46.3507C136.049 46.1169 136.075 45.8839 136.128 45.6561C136.176 45.4673 136.262 45.2902 136.38 45.1351C136.503 44.9869 136.664 44.875 136.846 44.8115C137.065 44.7273 137.298 44.687 137.533 44.6931V43.9826C137.215 43.963 136.899 44.0401 136.625 44.2037C136.357 44.391 136.144 44.6474 136.009 44.9457ZM138.062 44.0774H138.733V48.1584H138.062V44.0774ZM140.706 42.8539H140.035V44.0774H139.341V44.6694H140.035V47.2743C140.03 47.4289 140.048 47.5834 140.09 47.7321C140.121 47.8348 140.178 47.9274 140.256 48.0005C140.345 48.0658 140.448 48.1091 140.556 48.1268C140.706 48.1406 140.856 48.1406 141.006 48.1268H141.519V47.5348H140.951C140.898 47.5299 140.847 47.5138 140.801 47.4874C140.764 47.4598 140.736 47.4211 140.722 47.3769C140.717 47.3139 140.717 47.2505 140.722 47.1875V44.6694H141.511V44.0774H140.722L140.706 42.8539ZM144.929 44.0774L143.785 47.4243L142.593 44.0774H141.803L143.382 48.1426L143.106 48.8373C143.054 48.9449 142.978 49.0393 142.885 49.1135C142.788 49.1818 142.671 49.2152 142.553 49.2083C142.488 49.2203 142.421 49.2203 142.356 49.2083L142.159 49.1451V49.7608C142.233 49.7875 142.309 49.806 142.388 49.8161H142.624C142.758 49.8199 142.892 49.8012 143.019 49.7608C143.135 49.7223 143.24 49.6575 143.327 49.5714C143.427 49.4711 143.512 49.3567 143.579 49.2319C143.664 49.0676 143.741 48.8989 143.808 48.7267L145.592 44.0932L144.929 44.0774Z" fill="#231F20"/>
<path d="M75.9466 42.5223H75.2756V43.3433L75.9466 42.9565V42.5223Z" fill="#231F20"/>
<path d="M138.732 42.5223H138.062V43.3433L138.732 42.9565V42.5223Z" fill="#231F20"/>
<path d="M56.6385 28.8111C56.7829 28.9177 56.9507 28.988 57.1279 29.0163C57.3883 29.0634 57.6527 29.0845 57.9173 29.0794H62.7087V26.0404H62.0615V28.4085H57.5858C57.4512 28.4011 57.3195 28.3661 57.199 28.3059C57.1532 28.2838 57.1122 28.2529 57.0783 28.215C57.0444 28.1771 57.0184 28.1328 57.0016 28.0848C56.9563 27.9611 56.9349 27.8298 56.9385 27.6981V26.7035H56.2912V27.9428C56.2854 28.1224 56.3122 28.3015 56.3701 28.4716C56.4226 28.6097 56.5163 28.7282 56.6385 28.8111ZM64.098 28.8505C64.1998 28.9376 64.322 28.9974 64.4532 29.0242C64.6025 29.0639 64.7566 29.0824 64.9111 29.0794H68.1475V26.0404H67.5002V28.4085H64.99C64.7532 28.4085 64.6032 28.3611 64.5322 28.2664C64.4508 28.1255 64.4149 27.9628 64.4296 27.8007V23.4355H63.806V27.9901C63.7996 28.1672 63.8263 28.3439 63.8849 28.5111C63.9256 28.6407 63.999 28.7576 64.098 28.8505ZM69.5604 28.8505C69.6622 28.9376 69.7844 28.9974 69.9157 29.0242C70.0676 29.0639 70.2243 29.0825 70.3814 29.0794H72.4022C72.6686 29.0887 72.9349 29.0567 73.1915 28.9847C73.2913 28.9516 73.3827 28.897 73.4591 28.8247C73.5354 28.7524 73.595 28.6642 73.6336 28.5664C73.6731 28.713 73.7624 28.8414 73.8862 28.9295C74.0303 29.0341 74.2055 29.087 74.3835 29.0794H75.0308C75.2972 29.0893 75.5636 29.0574 75.8201 28.9847C75.9205 28.9526 76.0123 28.8983 76.0888 28.8259C76.1653 28.7535 76.2246 28.6648 76.2622 28.5664C76.3045 28.7117 76.3932 28.8392 76.5148 28.9295C76.6589 29.0341 76.8341 29.087 77.0121 29.0794H77.5804C77.8467 29.0858 78.1125 29.0539 78.3698 28.9847C78.4727 28.9541 78.5675 28.9006 78.6468 28.8281C78.7261 28.7557 78.7879 28.6662 78.8276 28.5664C78.8668 28.7111 78.9529 28.8388 79.0723 28.9295C79.2164 29.0341 79.3917 29.087 79.5696 29.0794H81.4483V23.4355H80.801V28.4243H79.4986C79.3988 28.4321 79.2987 28.4144 79.2076 28.373C79.1165 28.3316 79.0373 28.2678 78.9776 28.1875C78.8632 27.9974 78.8082 27.7775 78.8197 27.556V23.4355H78.1724V27.848C78.1772 27.9528 78.1611 28.0574 78.1251 28.1559C78.1037 28.2218 78.0642 28.2804 78.0112 28.3251C77.9582 28.3697 77.8937 28.3986 77.8251 28.4085H76.941C76.8222 28.411 76.704 28.3895 76.5937 28.3453C76.5113 28.303 76.4387 28.2438 76.3806 28.1717C76.3332 28.102 76.2985 28.0245 76.278 27.9428C76.2691 27.8245 76.2691 27.7058 76.278 27.5875V26.0404H75.6307V27.848C75.6459 27.9501 75.6459 28.0538 75.6307 28.1559C75.6041 28.2257 75.5574 28.2862 75.4965 28.3296C75.4263 28.3711 75.3484 28.398 75.2676 28.4085H74.4151C74.2988 28.4104 74.1834 28.3889 74.0756 28.3453C73.9932 28.303 73.9206 28.2438 73.8625 28.1717C73.8061 28.0894 73.7709 27.9945 73.7599 27.8954C73.7471 27.7773 73.7471 27.6582 73.7599 27.5402V26.0404H73.1126V27.848C73.1278 27.9501 73.1278 28.0538 73.1126 28.1559C73.086 28.2257 73.0393 28.2862 72.9784 28.3296C72.9077 28.3699 72.83 28.3966 72.7495 28.4085H70.4603C70.2235 28.4085 70.0656 28.3611 70.0025 28.2664C69.9211 28.1255 69.8852 27.9628 69.8999 27.8007V23.4355H69.2526V27.9901C69.2462 28.1672 69.273 28.3439 69.3315 28.5111C69.3805 28.6405 69.4589 28.7567 69.5604 28.8505ZM84.6926 28.1638C84.8364 28.261 84.997 28.3306 85.1662 28.369C85.3109 28.4049 85.4592 28.4235 85.6083 28.4243C85.7475 28.4356 85.8874 28.4356 86.0266 28.4243C86.1598 28.3967 86.2915 28.3624 86.4213 28.3217C86.4327 28.4487 86.4727 28.5715 86.5383 28.6809C86.6039 28.7902 86.6935 28.8833 86.8002 28.9531C86.9016 29.0161 87.0142 29.059 87.1317 29.0794C87.263 29.0919 87.3952 29.0919 87.5264 29.0794H90.8418V26.0404H90.1945V28.4085H87.6054C87.3686 28.4085 87.2107 28.3611 87.1475 28.2664C87.0661 28.1255 87.0303 27.9628 87.0449 27.8007V25.5747H85.7898C85.5953 25.5777 85.4018 25.6042 85.2136 25.6536C85.0231 25.7081 84.844 25.7964 84.6847 25.9141C84.5233 26.0424 84.3914 26.2039 84.2979 26.3877C84.1934 26.6096 84.1421 26.8529 84.1479 27.0981C84.1403 27.3369 84.1947 27.5735 84.3058 27.7849C84.4058 27.9377 84.5378 28.0669 84.6926 28.1638ZM85.0478 26.4035C85.2408 26.2728 85.4701 26.2065 85.703 26.214H86.3976V27.6112C86.2786 27.6522 86.1574 27.6864 86.0345 27.7138C85.9111 27.7243 85.787 27.7243 85.6635 27.7138C85.4218 27.7338 85.1817 27.6604 84.9926 27.5086C84.9184 27.4312 84.8607 27.3395 84.8232 27.239C84.7856 27.1386 84.7689 27.0315 84.7741 26.9244C84.7793 26.8173 84.8062 26.7124 84.8533 26.616C84.9003 26.5197 84.9665 26.4339 85.0478 26.364V26.4035ZM94.2834 28.8347C94.3703 28.7566 94.4387 28.6601 94.4838 28.5522C94.5288 28.4444 94.5493 28.3279 94.5439 28.2111C94.5396 28.0864 94.5128 27.9634 94.465 27.848C94.3993 27.6968 94.3255 27.5492 94.2439 27.406L93.8571 26.7745L93.3046 25.8588L92.6968 26.2377L93.3362 27.1771L93.6914 27.7138C93.7528 27.7992 93.8032 27.8921 93.8414 27.9901C93.8526 28.0448 93.8526 28.1012 93.8414 28.1559C93.8405 28.223 93.8153 28.2876 93.7703 28.3374C93.6732 28.4102 93.5511 28.4415 93.4309 28.4243H91.5996V29.0794H93.4861C93.6286 29.093 93.7723 29.0784 93.9091 29.0364C94.0459 28.9944 94.1731 28.9259 94.2834 28.8347ZM110.955 28.4243H109.716C109.599 28.4262 109.484 28.4047 109.376 28.3611C109.294 28.3188 109.221 28.2596 109.163 28.1875C109.11 28.1035 109.075 28.0094 109.06 27.9112C109.048 27.7931 109.048 27.674 109.06 27.556V26.0404H108.413V27.848C108.415 27.952 108.402 28.0558 108.374 28.1559C108.35 28.225 108.306 28.2854 108.247 28.3296C108.19 28.3685 108.126 28.3954 108.058 28.4085H107.813C107.684 28.4123 107.555 28.3908 107.434 28.3453C107.345 28.3074 107.266 28.2477 107.205 28.1717C107.146 28.09 107.109 27.9951 107.095 27.8954C107.082 27.7773 107.082 27.6582 107.095 27.5402V26.4351H106.448V27.848C106.452 27.9528 106.436 28.0574 106.4 28.1559C106.379 28.2265 106.335 28.2877 106.274 28.3296C106.21 28.3712 106.137 28.3982 106.061 28.4085H105.761C105.611 28.4129 105.461 28.3915 105.319 28.3453C105.225 28.3074 105.141 28.2479 105.074 28.1717C105.012 28.0918 104.974 27.9961 104.964 27.8954C104.955 27.7771 104.955 27.6584 104.964 27.5402V26.4351H104.316V27.848C104.321 27.9528 104.305 28.0574 104.269 28.1559C104.239 28.2307 104.183 28.2923 104.111 28.3296C104.022 28.3735 103.926 28.4003 103.827 28.4085H102.003C101.872 28.4186 101.74 28.4186 101.609 28.4085C101.874 28.2304 102.102 28.0026 102.28 27.7375C102.436 27.5035 102.521 27.2294 102.524 26.9482C102.526 26.8227 102.499 26.6986 102.445 26.585C102.385 26.4628 102.299 26.3551 102.193 26.2693C102.067 26.1678 101.922 26.0927 101.767 26.0483C101.569 25.9907 101.364 25.9641 101.159 25.9693C100.888 25.9635 100.619 26.0146 100.369 26.1193C100.138 26.208 99.9278 26.3453 99.7537 26.5219C99.7186 26.5564 99.6893 26.5964 99.6669 26.6403C99.6315 26.6919 99.6023 26.7476 99.58 26.8061C99.5504 26.8678 99.524 26.931 99.5011 26.9955C99.4766 27.0548 99.4555 27.1154 99.438 27.1771L100.425 28.298C100.241 28.3538 100.054 28.396 99.8642 28.4243C99.6671 28.436 99.4694 28.436 99.2722 28.4243H98.3565V28.0533C98.3606 27.7697 98.3342 27.4865 98.2776 27.2086C98.2325 26.9784 98.1441 26.7587 98.0171 26.5614C97.905 26.3832 97.7468 26.2387 97.5593 26.143C97.3415 26.0436 97.104 25.995 96.8646 26.0009C96.6356 25.9968 96.4087 26.0454 96.2016 26.143C96.0143 26.2381 95.8479 26.3696 95.7122 26.5298C95.5764 26.6905 95.4719 26.8752 95.4043 27.0745C95.3345 27.2776 95.2998 27.4912 95.3017 27.706C95.2927 27.9271 95.3304 28.1476 95.4122 28.3532C95.481 28.5168 95.5895 28.6606 95.7279 28.7716C95.8665 28.8844 96.0282 28.9652 96.2016 29.0084C96.3977 29.0576 96.5993 29.0815 96.8015 29.0794H97.6935C97.694 29.2603 97.6449 29.4378 97.5514 29.5925C97.4658 29.7259 97.342 29.8304 97.1962 29.8925C97.0308 29.975 96.8514 30.0259 96.6673 30.0425C96.4412 30.0552 96.2145 30.0552 95.9884 30.0425H95.7437V30.6976H96.0753C96.3771 30.7016 96.6786 30.6752 96.9751 30.6187C97.2241 30.5744 97.4625 30.4833 97.6777 30.3503C97.8729 30.2262 98.0311 30.0516 98.1355 29.8451C98.2602 29.5999 98.3302 29.3306 98.3407 29.0558H99.3038C99.5691 29.0526 99.8335 29.0235 100.093 28.9689C100.363 28.9188 100.628 28.8421 100.883 28.74C101.009 28.8557 101.16 28.9419 101.325 28.9926C101.466 29.0338 101.612 29.055 101.759 29.0558H103.337C103.569 29.0558 103.766 29.0558 103.929 29.0558C104.072 29.05 104.213 29.0234 104.348 28.9768C104.451 28.9471 104.546 28.893 104.624 28.819C104.703 28.7466 104.765 28.6576 104.806 28.5585C104.817 28.6174 104.833 28.6755 104.853 28.7321C104.905 28.7991 104.969 28.8554 105.042 28.8979C105.133 28.9576 105.235 28.9979 105.342 29.0163C105.495 29.0506 105.652 29.0665 105.808 29.0637C106.046 29.0688 106.283 29.0368 106.511 28.9689C106.611 28.9358 106.702 28.8812 106.778 28.8089C106.855 28.7366 106.914 28.6484 106.953 28.5506C106.981 28.6135 107.018 28.672 107.063 28.7242C107.11 28.793 107.172 28.8498 107.245 28.89C107.337 28.949 107.438 28.9917 107.545 29.0163C107.687 29.0507 107.833 29.0666 107.979 29.0637H108.208C108.303 29.0539 108.396 29.03 108.484 28.9926C108.582 28.9556 108.673 28.9022 108.752 28.8347C108.841 28.7678 108.909 28.6777 108.95 28.5743C108.992 28.7196 109.081 28.8471 109.202 28.9374C109.347 29.042 109.522 29.0949 109.7 29.0873H111.594V23.4355H110.939L110.955 28.4243ZM97.6224 28.4243H96.7778C96.534 28.4405 96.292 28.3737 96.091 28.2348C96.011 28.1596 95.9489 28.0673 95.9093 27.9648C95.8697 27.8624 95.8536 27.7523 95.8621 27.6428C95.8606 27.5196 95.8793 27.3969 95.9174 27.2797C95.9488 27.1603 96.0024 27.0478 96.0753 26.9482C96.1503 26.8512 96.2443 26.7706 96.3515 26.7113C96.4733 26.6486 96.6094 26.6187 96.7462 26.6245C96.8807 26.6119 97.016 26.6379 97.1362 26.6994C97.2564 26.7609 97.3566 26.8554 97.4251 26.9718C97.5715 27.2596 97.6395 27.5809 97.6224 27.9033V28.4243ZM100.946 28.0217L99.9826 27.0034C100.101 26.8554 100.256 26.7411 100.433 26.6719C100.618 26.5863 100.82 26.5431 101.025 26.5456C101.229 26.5294 101.434 26.5792 101.609 26.6877C101.664 26.7238 101.709 26.773 101.741 26.8308C101.772 26.8886 101.789 26.9533 101.79 27.0192C101.789 27.2263 101.707 27.4247 101.561 27.5718C101.386 27.7585 101.177 27.911 100.946 28.0217ZM112.715 23.4355H113.362V29.0794H112.715V23.4355ZM123.364 24.6985H122.819C122.747 24.7068 122.675 24.6992 122.607 24.6763C122.539 24.6534 122.476 24.6157 122.424 24.566C122.372 24.5162 122.332 24.4556 122.306 24.3885C122.28 24.3213 122.269 24.2493 122.274 24.1775C122.276 24.063 122.315 23.9523 122.385 23.8617C122.43 23.8083 122.487 23.7667 122.552 23.7405C122.616 23.7144 122.686 23.7045 122.756 23.7118C122.896 23.7096 123.035 23.7337 123.166 23.7828V23.3565L122.993 23.3171C122.898 23.3079 122.803 23.3079 122.708 23.3171C122.601 23.3187 122.494 23.3374 122.393 23.3723C122.294 23.4104 122.203 23.4666 122.124 23.5381C122.043 23.6133 121.979 23.7047 121.935 23.8065C121.885 23.9264 121.861 24.0555 121.864 24.1854C121.856 24.3806 121.921 24.5719 122.045 24.7221H121.643V25.1405H123.364V24.6985ZM132.134 23.4355H131.486V28.4243H129.118C129.273 28.2895 129.404 28.1293 129.505 27.9507C129.625 27.7307 129.685 27.4829 129.679 27.2323C129.676 27.0933 129.654 26.9553 129.615 26.8219C129.568 26.6739 129.496 26.535 129.402 26.4114C129.302 26.278 129.173 26.1698 129.023 26.0956C128.84 26.0043 128.636 25.9608 128.431 25.9693C128.223 25.9612 128.015 26.0052 127.828 26.0976C127.64 26.1899 127.479 26.3277 127.358 26.4982C127.081 26.9281 126.941 27.4317 126.955 27.9428V28.4006H126.166C126.05 28.4025 125.934 28.381 125.826 28.3374C125.744 28.2951 125.671 28.2359 125.613 28.1638C125.557 28.0815 125.522 27.9866 125.511 27.8875C125.498 27.7694 125.498 27.6503 125.511 27.5323V26.0404H124.863V27.848C124.879 27.9501 124.879 28.0538 124.863 28.1559C124.837 28.2257 124.79 28.2862 124.729 28.3296C124.659 28.3699 124.581 28.3966 124.5 28.4085H123.648C123.532 28.4113 123.416 28.3898 123.308 28.3453C123.226 28.303 123.153 28.2438 123.095 28.1717C123.04 28.0882 123.002 27.9941 122.985 27.8954C122.976 27.7771 122.976 27.6584 122.985 27.5402V26.0404H122.219V27.848C122.224 27.9528 122.208 28.0574 122.172 28.1559C122.151 28.2286 122.103 28.2907 122.038 28.3296C121.97 28.3712 121.895 28.3981 121.817 28.4085H119.598C119.362 28.4085 119.212 28.3611 119.141 28.2664C119.059 28.1255 119.023 27.9628 119.038 27.8007V25.5747H117.783C117.591 25.5778 117.4 25.6043 117.214 25.6536C117.023 25.7064 116.844 25.7948 116.686 25.9141C116.524 26.0424 116.392 26.2039 116.299 26.3877C116.19 26.6083 116.139 26.8525 116.149 27.0981C116.141 27.3369 116.196 27.5735 116.307 27.7849C116.402 27.948 116.534 28.086 116.694 28.1875C116.837 28.2847 116.998 28.3543 117.167 28.3927C117.309 28.4281 117.455 28.4467 117.601 28.448C117.743 28.4593 117.886 28.4593 118.028 28.448C118.158 28.4214 118.288 28.3871 118.414 28.3453C118.432 28.4821 118.478 28.6137 118.549 28.7321C118.616 28.829 118.702 28.912 118.801 28.9768C118.902 29.0411 119.015 29.0841 119.133 29.1031C119.261 29.1152 119.391 29.1152 119.519 29.1031H121.611C121.862 29.109 122.112 29.0771 122.353 29.0084C122.455 28.9768 122.548 28.9228 122.626 28.8504C122.704 28.778 122.764 28.689 122.803 28.59C122.843 28.7367 122.932 28.8651 123.056 28.9531C123.2 29.0578 123.375 29.1107 123.553 29.1031H124.2C124.454 29.1084 124.706 29.0765 124.95 29.0084C125.05 28.9753 125.141 28.9206 125.218 28.8484C125.294 28.7761 125.354 28.6879 125.392 28.59C125.432 28.7367 125.521 28.8651 125.645 28.9531C125.789 29.0578 125.964 29.1107 126.142 29.1031H126.955V29.19C126.952 29.4548 126.976 29.7193 127.026 29.9793C127.069 30.1881 127.152 30.3866 127.271 30.5635C127.384 30.7233 127.536 30.8512 127.713 30.9345C127.93 31.0253 128.164 31.0684 128.4 31.0608C128.586 31.0649 128.771 31.0328 128.944 30.966C129.089 30.9092 129.221 30.8232 129.331 30.7134C129.435 30.6076 129.516 30.4812 129.568 30.3424C129.618 30.2003 129.645 30.051 129.647 29.9004C129.642 29.7803 129.623 29.6612 129.592 29.5452C129.548 29.3937 129.463 29.2571 129.347 29.1505H132.118L132.134 23.4355ZM118.375 27.6112C118.259 27.6533 118.14 27.6876 118.02 27.7138C117.894 27.7247 117.767 27.7247 117.641 27.7138C117.401 27.7342 117.164 27.6606 116.978 27.5086C116.907 27.439 116.851 27.3553 116.814 27.2629C116.777 27.1704 116.761 27.0712 116.765 26.9718C116.754 26.8561 116.773 26.7396 116.82 26.6333C116.867 26.527 116.94 26.4344 117.033 26.364C117.223 26.2345 117.45 26.1682 117.68 26.1746H118.375V27.6112ZM127.618 27.9033C127.598 27.5611 127.672 27.22 127.831 26.9166C127.89 26.8117 127.976 26.7246 128.08 26.6649C128.185 26.6051 128.303 26.5748 128.423 26.5772C128.591 26.5732 128.752 26.6357 128.873 26.7508C128.942 26.8262 128.994 26.9149 129.026 27.0113C129.059 27.1078 129.071 27.2099 129.063 27.3113C129.058 27.4288 129.04 27.5454 129.008 27.6586C128.968 27.789 128.907 27.9118 128.826 28.0217C128.738 28.1425 128.621 28.2401 128.487 28.3059C128.329 28.3893 128.152 28.4301 127.974 28.4243H127.618V27.9033ZM128.905 30.2714C128.838 30.3314 128.759 30.377 128.673 30.4055C128.588 30.434 128.498 30.4448 128.408 30.4372C128.268 30.4419 128.13 30.412 128.005 30.3503C127.906 30.2856 127.822 30.1993 127.76 30.0977C127.7 29.9822 127.663 29.8563 127.65 29.7267C127.641 29.5716 127.641 29.4161 127.65 29.261V29.111H128.234C128.393 29.1024 128.552 29.1294 128.7 29.19C128.798 29.2387 128.887 29.3056 128.96 29.3873C129.019 29.4517 129.06 29.5307 129.079 29.6162C129.084 29.6819 129.084 29.7479 129.079 29.8136C129.078 29.9728 129.016 30.1255 128.905 30.2398V30.2714ZM133.239 23.4355H133.886V29.0794H133.239V23.4355ZM61.3589 38.6229H65.3847V37.9677H64.2243C64.0818 37.9823 63.9379 37.9666 63.8019 37.9217C63.6658 37.8768 63.5408 37.8037 63.435 37.7072C63.3507 37.6208 63.2849 37.5182 63.2415 37.4055C63.1981 37.2929 63.178 37.1727 63.1824 37.052C63.1733 36.9249 63.1951 36.7975 63.2459 36.6807C63.2968 36.5638 63.3752 36.461 63.4744 36.3811C63.6996 36.2074 63.9798 36.1205 64.2638 36.1364C64.4056 36.1228 64.5483 36.1228 64.6901 36.1364C64.7994 36.1596 64.9074 36.1886 65.0137 36.2232V35.5207C64.9213 35.48 64.8224 35.456 64.7216 35.4496C64.5614 35.4363 64.4003 35.4363 64.2401 35.4496C64.0313 35.4502 63.8237 35.4821 63.6244 35.5444C63.4237 35.6065 63.2363 35.7055 63.0719 35.8364C62.901 35.9688 62.7632 36.1391 62.6693 36.3337C62.5628 36.555 62.5113 36.7987 62.5193 37.0442C62.5165 37.2275 62.5487 37.4096 62.614 37.5809C62.6685 37.7233 62.7488 37.8544 62.8508 37.9677H61.1142C60.4607 37.9565 59.8142 37.831 59.204 37.5967V38.2045L59.7565 38.3624C59.9519 38.4149 60.1443 38.4781 60.3328 38.5518C60.4957 38.6123 60.6498 38.6946 60.7906 38.7965C60.8456 38.8316 60.8915 38.8792 60.9244 38.9355C60.9574 38.9918 60.9764 39.0551 60.98 39.1202C60.9782 39.1778 60.963 39.2342 60.9356 39.2849C60.9082 39.3356 60.8694 39.3792 60.8222 39.4123C60.6919 39.5096 60.5447 39.5819 60.388 39.6254C60.1812 39.6842 59.97 39.7264 59.7565 39.7517H58.9672C58.421 39.7931 57.8742 39.681 57.3884 39.428C57.2253 39.3123 57.0952 39.1561 57.0108 38.9748C56.9263 38.7935 56.8905 38.5933 56.9069 38.394V37.4152H56.2596V38.6308C56.2572 38.883 56.2972 39.1338 56.378 39.3728C56.4583 39.6102 56.6065 39.8188 56.8043 39.9727C57.0385 40.1574 57.3067 40.2942 57.5936 40.3753C58.0223 40.48 58.4629 40.5278 58.904 40.5174C59.3117 40.5251 59.719 40.4907 60.1196 40.4147C60.3955 40.3603 60.6617 40.2645 60.909 40.1306C61.0893 40.0342 61.2416 39.8928 61.351 39.7201C61.4418 39.5816 61.4911 39.42 61.4931 39.2544C61.4898 39.1412 61.4685 39.0293 61.43 38.9228C61.4222 38.8198 61.3982 38.7185 61.3589 38.6229ZM82.7508 35.4812C82.4015 35.4766 82.0558 35.5522 81.7404 35.7022C81.4336 35.8537 81.1515 36.0506 80.9036 36.2864C80.6602 36.5213 80.4479 36.7866 80.2721 37.0757C80.1065 37.3534 79.969 37.6469 79.8617 37.9519C79.758 37.9558 79.655 37.9341 79.5617 37.8888C79.4891 37.8478 79.429 37.7877 79.3881 37.7151C79.3459 37.6288 79.3218 37.5348 79.317 37.4388C79.3086 37.3206 79.3086 37.2019 79.317 37.0836V35.9785H78.6697V37.4152C78.6746 37.5199 78.6584 37.6246 78.6224 37.723C78.5921 37.7978 78.5361 37.8594 78.4645 37.8967C78.3756 37.9406 78.2792 37.9674 78.1803 37.9756H76.8779V37.2968C76.9035 36.8099 76.7458 36.3311 76.4358 35.9548C76.2823 35.7934 76.0954 35.6673 75.8882 35.5855C75.681 35.5037 75.4584 35.4681 75.236 35.4812C74.7942 35.4732 74.3601 35.5969 73.9888 35.8364C73.6013 36.1012 73.2777 36.4491 73.0415 36.8547V32.9789H72.3943V37.9677H71.5023C71.386 37.9705 71.2704 37.949 71.1629 37.9046C71.0777 37.8665 71.0042 37.8066 70.9497 37.7309C70.8942 37.6474 70.8566 37.5534 70.8392 37.4546C70.8306 37.3364 70.8306 37.2177 70.8392 37.0994V35.5838H70.1919V37.4152C70.1968 37.5199 70.1807 37.6246 70.1446 37.723C70.1234 37.7958 70.0754 37.8578 70.0104 37.8967C69.9431 37.9383 69.8678 37.9652 69.7894 37.9756H67.6107C67.3739 37.9756 67.2239 37.9282 67.1529 37.8335C67.0715 37.6926 67.0356 37.5299 67.0503 37.3678V32.9789H66.403V37.5336C66.3987 37.7112 66.4282 37.8879 66.4898 38.0545C66.5346 38.1832 66.612 38.2981 66.7143 38.388C66.8167 38.4779 66.9406 38.5398 67.0739 38.5676C67.2233 38.6068 67.3774 38.6254 67.5318 38.6229H69.5604C69.8111 38.6288 70.0613 38.5969 70.3025 38.5282C70.404 38.4965 70.4971 38.4425 70.575 38.3701C70.6529 38.2977 70.7135 38.2088 70.7524 38.1098C70.792 38.2565 70.8812 38.3848 71.005 38.4729C71.1491 38.5776 71.3243 38.6304 71.5023 38.6229H78.3382C78.488 38.6185 78.6366 38.5946 78.7802 38.5518C78.89 38.5202 78.992 38.4665 79.0802 38.394C79.164 38.3243 79.2292 38.2347 79.2696 38.1335C79.2696 38.1966 79.3328 38.2598 79.3723 38.3229C79.4144 38.3873 79.4679 38.4435 79.5301 38.4887C79.6088 38.5424 79.6973 38.58 79.7906 38.5992C79.9218 38.6344 80.0574 38.6503 80.1932 38.6466H84.4558V37.2889C84.4875 36.8025 84.3322 36.3225 84.0216 35.9469C83.8557 35.7826 83.6563 35.6559 83.437 35.5756C83.2177 35.4952 82.9836 35.463 82.7508 35.4812ZM76.2227 37.9677H73.0652C73.1497 37.7474 73.2554 37.5359 73.381 37.3362C73.5059 37.121 73.657 36.9222 73.8309 36.7442C74.0021 36.5702 74.1991 36.4238 74.4151 36.31C74.6307 36.1935 74.8725 36.1337 75.1176 36.1364C75.3019 36.13 75.4854 36.165 75.6544 36.239C75.7923 36.2991 75.9121 36.3944 76.0017 36.5153C76.0987 36.6338 76.1639 36.775 76.1911 36.9258C76.2298 37.094 76.2484 37.2662 76.2464 37.4388L76.2227 37.9677ZM83.8085 37.9677H80.5879C80.6705 37.7391 80.7763 37.5196 80.9036 37.3125C81.037 37.0992 81.1961 36.903 81.3773 36.7284C81.5545 36.5568 81.7568 36.4131 81.9772 36.3021C82.1945 36.1908 82.4356 36.1339 82.6797 36.1364C82.8606 36.1322 83.0404 36.1644 83.2086 36.2311C83.346 36.2884 83.4658 36.381 83.5559 36.4995C83.6526 36.6192 83.7201 36.7597 83.7533 36.91C83.7924 37.0835 83.8109 37.261 83.8085 37.4388V37.9677ZM87.0212 34.1314V37.9677H85.2452V38.6229H89.7288V32.9789H89.0815V37.9677H87.6685V34.1314H87.0212ZM90.8339 32.9789H91.4811V38.6229H90.8339V32.9789ZM95.499 37.8414C95.3748 37.7032 95.3096 37.5219 95.3175 37.3362C95.3056 37.2577 95.3056 37.1779 95.3175 37.0994C95.3429 37.0238 95.3832 36.954 95.4359 36.8942C95.4943 36.8338 95.564 36.7855 95.6411 36.7521C95.7384 36.7113 95.8435 36.6924 95.949 36.6968C96.1409 36.6913 96.3319 36.7262 96.5094 36.7995V36.1837L96.2805 36.1364C96.1491 36.1277 96.0172 36.1277 95.8858 36.1364C95.7382 36.1362 95.5915 36.1602 95.4517 36.2074C95.3147 36.256 95.1886 36.3311 95.0807 36.4284C94.9662 36.5302 94.877 36.6572 94.8202 36.7995C94.7535 36.9676 94.7213 37.1475 94.7254 37.3283C94.7198 37.599 94.8123 37.8626 94.9859 38.0703H94.4097V38.6387H96.7778V38.0703H96.0358C95.9351 38.0729 95.8351 38.0537 95.7425 38.0142C95.6499 37.9747 95.5669 37.9158 95.499 37.8414ZM100.63 34.9208C100.591 34.9675 100.557 35.0177 100.527 35.0707C100.527 35.126 100.472 35.1891 100.44 35.2523C100.417 35.3161 100.401 35.3823 100.393 35.4496C100.687 35.5886 100.972 35.7468 101.246 35.9233C101.503 36.0843 101.748 36.2637 101.98 36.46C102.171 36.6185 102.343 36.7986 102.493 36.9968C102.605 37.1312 102.674 37.2963 102.69 37.4704C102.697 37.5481 102.683 37.6261 102.648 37.6959C102.613 37.7656 102.559 37.8242 102.493 37.8651C102.34 37.9365 102.172 37.9716 102.003 37.9677H98.8459C98.6091 37.9677 98.4591 37.9204 98.3881 37.8256C98.3067 37.6847 98.2709 37.522 98.2855 37.3599V32.9789H97.6382V37.5336C97.6318 37.7106 97.6586 37.8873 97.7171 38.0545C97.7661 38.1839 97.8445 38.3001 97.9461 38.394C98.0487 38.4797 98.1706 38.5392 98.3013 38.5676C98.4533 38.6068 98.61 38.6254 98.767 38.6229H102.011C102.243 38.6289 102.473 38.5914 102.69 38.5124C102.844 38.4535 102.982 38.3588 103.093 38.2361C103.185 38.1324 103.25 38.0077 103.282 37.873C103.314 37.7544 103.333 37.6326 103.337 37.5099C103.332 37.3361 103.295 37.1647 103.227 37.0047C103.139 36.8067 103.022 36.623 102.88 36.46C102.685 36.2436 102.471 36.0455 102.24 35.868C101.943 35.6329 101.629 35.4192 101.301 35.2286L103.629 34.2024V33.563L100.733 34.8339L100.63 34.9208ZM106.077 37.8809C105.916 37.9456 105.744 37.9753 105.571 37.9677H104.158V38.6229H105.737C105.859 38.6134 105.978 38.5869 106.092 38.544C106.207 38.5078 106.313 38.4457 106.4 38.3624C106.502 38.2685 106.58 38.1523 106.629 38.023C106.739 38.2145 106.89 38.379 107.071 38.5045C107.238 38.5967 107.426 38.643 107.616 38.6387H109.494V32.9789H108.847V37.9677H107.616C107.543 37.966 107.472 37.9442 107.411 37.9046C107.333 37.8588 107.263 37.8001 107.205 37.7309C107.12 37.6351 107.044 37.5321 106.976 37.423L106.7 36.9731L105.753 35.3944L105.145 35.7733L105.982 37.0126C106.054 37.1162 106.12 37.2243 106.179 37.3362C106.232 37.4274 106.259 37.531 106.258 37.6362C106.257 37.6909 106.239 37.7439 106.207 37.7878C106.174 37.8318 106.129 37.8643 106.077 37.8809ZM110.6 32.9789H111.247V38.6229H110.6V32.9789ZM115.004 39.3017C115.119 38.994 115.173 38.6669 115.162 38.3387V37.5967C115.163 37.3316 115.136 37.0671 115.083 36.8073C115.045 36.5775 114.962 36.3575 114.838 36.1601C114.724 35.9794 114.563 35.8324 114.373 35.7338C114.155 35.6264 113.913 35.5749 113.67 35.5838C113.439 35.5787 113.209 35.6274 112.999 35.7259C112.81 35.8136 112.642 35.9431 112.51 36.1048C112.374 36.2611 112.272 36.4439 112.21 36.6416C112.141 36.8422 112.106 37.053 112.107 37.2652C112.099 37.4914 112.136 37.717 112.218 37.9282C112.285 38.093 112.39 38.2393 112.526 38.3545C112.658 38.467 112.815 38.548 112.983 38.5913C113.172 38.6397 113.365 38.6636 113.56 38.6624C113.752 38.6661 113.943 38.6422 114.128 38.5913C114.257 38.5523 114.381 38.4993 114.499 38.4334V38.5834C114.51 38.7834 114.467 38.9827 114.373 39.1597C114.291 39.3018 114.167 39.415 114.018 39.4833C113.848 39.5604 113.666 39.6084 113.481 39.6254C113.252 39.6383 113.023 39.6383 112.794 39.6254H112.549V40.2806H112.881C113.201 40.2844 113.521 40.258 113.836 40.2016C114.094 40.1579 114.339 40.0582 114.554 39.9096C114.758 39.7525 114.913 39.5421 115.004 39.3017ZM114.499 37.723C114.393 37.7981 114.276 37.8567 114.152 37.8967C113.98 37.9489 113.802 37.9755 113.623 37.9756C113.393 37.9891 113.166 37.919 112.983 37.7783C112.897 37.6969 112.831 37.5972 112.788 37.4865C112.746 37.3758 112.729 37.257 112.739 37.1389C112.739 37.0241 112.755 36.9099 112.786 36.7995C112.821 36.6862 112.874 36.5795 112.944 36.4837C113.019 36.3868 113.113 36.3062 113.22 36.2469C113.35 36.1805 113.493 36.1479 113.639 36.1522C113.773 36.1445 113.907 36.1744 114.026 36.2385C114.144 36.3026 114.242 36.3985 114.31 36.5153C114.384 36.6413 114.432 36.7808 114.452 36.9258C114.484 37.0922 114.5 37.2614 114.499 37.4309V37.723Z" fill="#231F20"/>
<path d="M125.945 29.861H125.274V30.6819L125.945 30.2951V29.861Z" fill="#231F20"/>
<path d="M124.919 29.861H124.24V30.6819L124.919 30.2951V29.861Z" fill="#231F20"/>
<path d="M118.722 23.9249H118.051V24.7459L118.722 24.3591V23.9249Z" fill="#231F20"/>
<path d="M117.696 23.9249H117.025V24.7459L117.696 24.3591V23.9249Z" fill="#231F20"/>
<path d="M86.7371 23.9249H86.0662V24.7459L86.7371 24.3591V23.9249Z" fill="#231F20"/>
<path d="M85.711 23.9249H85.04V24.7459L85.711 24.3591V23.9249Z" fill="#231F20"/>
<path d="M91.0628 29.853H90.3918V30.674L91.0628 30.2872V29.853Z" fill="#231F20"/>
<path d="M90.0289 29.853H89.3579V30.674L90.0289 30.2872V29.853Z" fill="#231F20"/>
<path d="M74.1624 29.853H73.4915V30.674L74.1624 30.2872V29.853Z" fill="#231F20"/>
<path d="M73.1363 29.853H72.4653V30.674L73.1363 30.2872V29.853Z" fill="#231F20"/>
<path d="M76.1202 29.853H75.4492V30.674L76.1202 30.2872V29.853Z" fill="#231F20"/>
<path d="M105.808 33.8314H105.137V34.6524L105.808 34.2656V33.8314Z" fill="#231F20"/>
<path d="M70.8472 33.8314H70.1763V34.6524L70.8472 34.2656V33.8314Z" fill="#231F20"/>
<path d="M60.3802 24.7538H59.7093V25.5826L60.3802 25.1879V24.7538ZM59.3541 24.7538H58.6831V25.5826L59.3541 25.1879V24.7538Z" fill="#231F20"/>
<path d="M59.7249 40.9832H59.054V41.8041L59.7249 41.4173V40.9832Z" fill="#231F20"/>
<path d="M58.6988 40.9832H58.0278V41.8041L58.6988 41.4173V40.9832Z" fill="#231F20"/>
<path d="M68.1397 24.288H67.4688V25.1089L68.1397 24.7221V24.288Z" fill="#231F20"/>
<path d="M82.2298 0.938541H74.8572V18.7309H82.214C88.3316 18.7309 92.4048 15.1787 92.4048 9.8347C92.4048 4.49069 88.3474 0.938541 82.2298 0.938541ZM82.2298 14.7051H80.0906V4.96431H82.2298C82.8754 4.92921 83.5211 5.03173 84.1241 5.26505C84.727 5.49838 85.2735 5.85719 85.7273 6.31771C86.1811 6.77823 86.5319 7.32993 86.7563 7.93626C86.9807 8.54259 87.0738 9.1897 87.0292 9.8347C87.0738 10.4797 86.9807 11.1268 86.7563 11.7331C86.5319 12.3395 86.1811 12.8912 85.7273 13.3517C85.2735 13.8122 84.727 14.171 84.1241 14.4043C83.5211 14.6377 82.8754 14.7402 82.2298 14.7051ZM106.266 0.938541H98.4118L92.8863 18.7309H98.5302L99.5406 15.2576L104.49 12.3922H100.291L102.382 5.48529L104.49 12.3922L106.234 18.7072H111.878L106.266 0.938541ZM134.596 0.938541H126.703L121.13 18.7309H126.782L127.792 15.2576L132.741 12.3922H128.542L130.634 5.48529L132.741 12.3922L134.486 18.7072H140.13L134.596 0.938541ZM113.804 4.04864V18.7309H119.196V0.938541L113.804 4.04864ZM64.9506 7.49818C63.0167 7.27715 61.4932 7.07981 61.4932 5.84051C61.4932 4.89327 62.543 4.19862 64.0586 4.19862C65.8189 4.19862 67.1372 5.19323 67.1135 6.56672L71.1313 4.24599C70.0499 1.89367 67.3424 0.314941 63.885 0.314941C59.4329 0.314941 56.2755 2.75408 56.2755 6.40885C56.2755 10.6083 59.7092 11.5239 63.3798 11.9344C65.2663 12.1791 66.8293 12.3844 66.8293 13.671C66.8293 14.7446 65.7873 15.4866 64.2244 15.4866C62.2825 15.4866 60.8696 14.3736 60.8459 12.8659H56.1729C56.1737 13.7098 56.3539 14.5439 56.7017 15.3129C57.7911 17.7678 60.5617 19.386 64.0823 19.386C68.8185 19.386 72.0865 16.8048 72.0865 13.0237C72.0628 8.79274 68.5422 7.87707 64.9506 7.49818Z" fill="#231F20"/>
</g>
</g>
</g>
<defs>
<linearGradient id="paint0_linear_2_1739" x1="33.8653" y1="9.50313" x2="55.565" y2="21.0437" gradientUnits="userSpaceOnUse">
<stop stop-color="#99D633"/>
<stop offset="0.5" stop-color="#33CC99"/>
<stop offset="1" stop-color="#273470"/>
</linearGradient>
<linearGradient id="paint1_linear_2_1739" x1="26.2954" y1="23.7276" x2="48.0029" y2="35.2681" gradientUnits="userSpaceOnUse">
<stop stop-color="#99D633"/>
<stop offset="0.5" stop-color="#33CC99"/>
<stop offset="1" stop-color="#273470"/>
</linearGradient>
<linearGradient id="paint2_linear_2_1739" x1="26.6585" y1="23.0487" x2="48.3582" y2="34.5892" gradientUnits="userSpaceOnUse">
<stop stop-color="#99D633"/>
<stop offset="0.5" stop-color="#33CC99"/>
<stop offset="1" stop-color="#273470"/>
</linearGradient>
<linearGradient id="paint3_linear_2_1739" x1="30.1239" y1="16.5285" x2="51.8315" y2="28.069" gradientUnits="userSpaceOnUse">
<stop stop-color="#99D633"/>
<stop offset="0.5" stop-color="#33CC99"/>
<stop offset="1" stop-color="#273470"/>
</linearGradient>
<linearGradient id="paint4_linear_2_1739" x1="22.1434" y1="31.5423" x2="43.843" y2="43.0829" gradientUnits="userSpaceOnUse">
<stop stop-color="#99D633"/>
<stop offset="0.5" stop-color="#33CC99"/>
<stop offset="1" stop-color="#273470"/>
</linearGradient>
<linearGradient id="paint5_linear_2_1739" x1="26.177" y1="23.9644" x2="47.8688" y2="35.5049" gradientUnits="userSpaceOnUse">
<stop stop-color="#99D633"/>
<stop offset="0.5" stop-color="#33CC99"/>
<stop offset="1" stop-color="#273470"/>
</linearGradient>
<linearGradient id="paint6_linear_2_1739" x1="23.0985" y1="29.7425" x2="44.7982" y2="41.2831" gradientUnits="userSpaceOnUse">
<stop stop-color="#99D633"/>
<stop offset="0.5" stop-color="#33CC99"/>
<stop offset="1" stop-color="#273470"/>
</linearGradient>
<linearGradient id="paint7_linear_2_1739" x1="26.6348" y1="23.0882" x2="48.3424" y2="34.6366" gradientUnits="userSpaceOnUse">
<stop stop-color="#99D633"/>
<stop offset="0.5" stop-color="#33CC99"/>
<stop offset="1" stop-color="#273470"/>
</linearGradient>
<linearGradient id="paint8_linear_2_1739" x1="18.8831" y1="37.6677" x2="40.5907" y2="49.2083" gradientUnits="userSpaceOnUse">
<stop stop-color="#99D633"/>
<stop offset="0.5" stop-color="#33CC99"/>
<stop offset="1" stop-color="#273470"/>
</linearGradient>
<linearGradient id="paint9_linear_2_1739" x1="26.4689" y1="23.396" x2="48.1765" y2="34.9444" gradientUnits="userSpaceOnUse">
<stop stop-color="#99D633"/>
<stop offset="0.5" stop-color="#33CC99"/>
<stop offset="1" stop-color="#273470"/>
</linearGradient>
<linearGradient id="paint10_linear_2_1739" x1="19.3017" y1="36.8784" x2="41.0013" y2="48.4268" gradientUnits="userSpaceOnUse">
<stop stop-color="#99D633"/>
<stop offset="0.5" stop-color="#33CC99"/>
<stop offset="1" stop-color="#273470"/>
</linearGradient>
<linearGradient id="paint11_linear_2_1739" x1="16.0021" y1="43.0908" x2="37.7018" y2="54.6313" gradientUnits="userSpaceOnUse">
<stop stop-color="#99D633"/>
<stop offset="0.5" stop-color="#33CC99"/>
<stop offset="1" stop-color="#273470"/>
</linearGradient>
<linearGradient id="paint12_linear_2_1739" x1="16.3967" y1="22.2751" x2="43.5588" y2="41.4093" gradientUnits="userSpaceOnUse">
<stop stop-color="#99D633"/>
<stop offset="0.5" stop-color="#33CC99"/>
<stop offset="1" stop-color="#273470"/>
</linearGradient>
<linearGradient id="paint13_linear_2_1739" x1="24.6772" y1="10.5057" x2="51.8472" y2="29.6478" gradientUnits="userSpaceOnUse">
<stop stop-color="#99D633"/>
<stop offset="0.5" stop-color="#33CC99"/>
<stop offset="1" stop-color="#273470"/>
</linearGradient>
<linearGradient id="paint14_linear_2_1739" x1="23.6352" y1="11.9897" x2="50.8052" y2="31.1318" gradientUnits="userSpaceOnUse">
<stop stop-color="#99D633"/>
<stop offset="0.5" stop-color="#33CC99"/>
<stop offset="1" stop-color="#273470"/>
</linearGradient>
<linearGradient id="paint15_linear_2_1739" x1="10.737" y1="30.2951" x2="37.907" y2="49.4293" gradientUnits="userSpaceOnUse">
<stop stop-color="#99D633"/>
<stop offset="0.5" stop-color="#33CC99"/>
<stop offset="1" stop-color="#273470"/>
</linearGradient>
<linearGradient id="paint16_linear_2_1739" x1="14.7075" y1="24.6669" x2="41.8696" y2="43.8012" gradientUnits="userSpaceOnUse">
<stop stop-color="#99D633"/>
<stop offset="0.5" stop-color="#33CC99"/>
<stop offset="1" stop-color="#273470"/>
</linearGradient>
<linearGradient id="paint17_linear_2_1739" x1="15.3546" y1="23.7354" x2="42.5325" y2="42.8776" gradientUnits="userSpaceOnUse">
<stop stop-color="#99D633"/>
<stop offset="0.5" stop-color="#33CC99"/>
<stop offset="1" stop-color="#273470"/>
</linearGradient>
<linearGradient id="paint18_linear_2_1739" x1="42.122" y1="26.9639" x2="43.7323" y2="1.23059" gradientUnits="userSpaceOnUse">
<stop stop-color="#66CCFF"/>
<stop offset="0.5" stop-color="#6258A6"/>
<stop offset="1" stop-color="#273470"/>
</linearGradient>
<linearGradient id="paint19_linear_2_1739" x1="34.4259" y1="26.4824" x2="36.0283" y2="0.749079" gradientUnits="userSpaceOnUse">
<stop stop-color="#66CCFF"/>
<stop offset="0.5" stop-color="#6258A6"/>
<stop offset="1" stop-color="#273470"/>
</linearGradient>
<linearGradient id="paint20_linear_2_1739" x1="34.3233" y1="26.4745" x2="35.9336" y2="0.741169" gradientUnits="userSpaceOnUse">
<stop stop-color="#66CCFF"/>
<stop offset="0.5" stop-color="#6258A6"/>
<stop offset="1" stop-color="#273470"/>
</linearGradient>
<linearGradient id="paint21_linear_2_1739" x1="26.5086" y1="25.9852" x2="28.1189" y2="0.259722" gradientUnits="userSpaceOnUse">
<stop stop-color="#66CCFF"/>
<stop offset="0.5" stop-color="#6258A6"/>
<stop offset="1" stop-color="#273470"/>
</linearGradient>
<linearGradient id="paint22_linear_2_1739" x1="27.1164" y1="26.0246" x2="28.7267" y2="0.291241" gradientUnits="userSpaceOnUse">
<stop stop-color="#66CCFF"/>
<stop offset="0.5" stop-color="#6258A6"/>
<stop offset="1" stop-color="#273470"/>
</linearGradient>
<linearGradient id="paint23_linear_2_1739" x1="20.1067" y1="25.5825" x2="21.717" y2="-0.142912" gradientUnits="userSpaceOnUse">
<stop stop-color="#66CCFF"/>
<stop offset="0.5" stop-color="#6258A6"/>
<stop offset="1" stop-color="#273470"/>
</linearGradient>
<linearGradient id="paint24_linear_2_1739" x1="19.4909" y1="25.543" x2="21.1012" y2="-0.182412" gradientUnits="userSpaceOnUse">
<stop stop-color="#66CCFF"/>
<stop offset="0.5" stop-color="#6258A6"/>
<stop offset="1" stop-color="#273470"/>
</linearGradient>
<linearGradient id="paint25_linear_2_1739" x1="18.8831" y1="25.5115" x2="20.4934" y2="-0.221828" gradientUnits="userSpaceOnUse">
<stop stop-color="#66CCFF"/>
<stop offset="0.5" stop-color="#6258A6"/>
<stop offset="1" stop-color="#273470"/>
</linearGradient>
<linearGradient id="paint26_linear_2_1739" x1="12.4577" y1="25.1089" x2="14.068" y2="-0.624435" gradientUnits="userSpaceOnUse">
<stop stop-color="#66CCFF"/>
<stop offset="0.5" stop-color="#6258A6"/>
<stop offset="1" stop-color="#273470"/>
</linearGradient>
<linearGradient id="paint27_linear_2_1739" x1="10.1369" y1="24.959" x2="11.7393" y2="-0.766466" gradientUnits="userSpaceOnUse">
<stop stop-color="#66CCFF"/>
<stop offset="0.5" stop-color="#6258A6"/>
<stop offset="1" stop-color="#273470"/>
</linearGradient>
<linearGradient id="paint28_linear_2_1739" x1="34.9942" y1="25.401" x2="34.9942" y2="-0.0560462" gradientUnits="userSpaceOnUse">
<stop stop-color="#66CCFF"/>
<stop offset="0.5" stop-color="#6258A6"/>
<stop offset="1" stop-color="#273470"/>
</linearGradient>
<linearGradient id="paint29_linear_2_1739" x1="0.656843" y1="47.6927" x2="1.44621" y2="22.2356" gradientUnits="userSpaceOnUse">
<stop stop-color="#66CCFF"/>
<stop offset="0.5" stop-color="#6258A6"/>
<stop offset="1" stop-color="#273470"/>
</linearGradient>
<linearGradient id="paint30_linear_2_1739" x1="-6.73166" y1="25.401" x2="-5.94229" y2="-0.0560719" gradientUnits="userSpaceOnUse">
<stop stop-color="#66CCFF"/>
<stop offset="0.5" stop-color="#6258A6"/>
<stop offset="1" stop-color="#273470"/>
</linearGradient>
<linearGradient id="paint31_linear_2_1739" x1="27.6056" y1="0.31492" x2="27.6056" y2="0.31492" gradientUnits="userSpaceOnUse">
<stop stop-color="#66CCFF"/>
<stop offset="0.5" stop-color="#6258A6"/>
<stop offset="1" stop-color="#273470"/>
</linearGradient>
<linearGradient id="paint32_linear_2_1739" x1="20.2171" y1="0.314975" x2="20.2171" y2="0.314975" gradientUnits="userSpaceOnUse">
<stop stop-color="#66CCFF"/>
<stop offset="0.5" stop-color="#6258A6"/>
<stop offset="1" stop-color="#273470"/>
</linearGradient>
<linearGradient id="paint33_linear_2_1739" x1="20.2171" y1="0.314922" x2="20.2171" y2="0.314922" gradientUnits="userSpaceOnUse">
<stop stop-color="#66CCFF"/>
<stop offset="0.5" stop-color="#6258A6"/>
<stop offset="1" stop-color="#273470"/>
</linearGradient>
<linearGradient id="paint34_linear_2_1739" x1="12.8287" y1="25.401" x2="12.8287" y2="-0.0560437" gradientUnits="userSpaceOnUse">
<stop stop-color="#66CCFF"/>
<stop offset="0.5" stop-color="#6258A6"/>
<stop offset="1" stop-color="#273470"/>
</linearGradient>
<linearGradient id="paint35_linear_2_1739" x1="3.317" y1="25.3932" x2="3.317" y2="-0.0481156" gradientUnits="userSpaceOnUse">
<stop stop-color="#66CCFF"/>
<stop offset="0.5" stop-color="#6258A6"/>
<stop offset="1" stop-color="#273470"/>
</linearGradient>
<linearGradient id="paint36_linear_2_1739" x1="40.2118" y1="38.4493" x2="7.90303" y2="55.9574" gradientUnits="userSpaceOnUse">
<stop stop-color="#FDBD4D"/>
<stop offset="0.5" stop-color="#FF6633"/>
<stop offset="1" stop-color="#273470"/>
</linearGradient>
<linearGradient id="paint37_linear_2_1739" x1="33.0681" y1="25.2668" x2="0.759305" y2="42.7749" gradientUnits="userSpaceOnUse">
<stop stop-color="#FDBD4D"/>
<stop offset="0.5" stop-color="#FF6633"/>
<stop offset="1" stop-color="#273470"/>
</linearGradient>
<linearGradient id="paint38_linear_2_1739" x1="37.6385" y1="33.7051" x2="5.33762" y2="51.2132" gradientUnits="userSpaceOnUse">
<stop stop-color="#FDBD4D"/>
<stop offset="0.5" stop-color="#FF6633"/>
<stop offset="1" stop-color="#273470"/>
</linearGradient>
<linearGradient id="paint39_linear_2_1739" x1="29.8711" y1="19.386" x2="-2.42187" y2="36.8942" gradientUnits="userSpaceOnUse">
<stop stop-color="#FDBD4D"/>
<stop offset="0.5" stop-color="#FF6633"/>
<stop offset="1" stop-color="#273470"/>
</linearGradient>
<linearGradient id="paint40_linear_2_1739" x1="26.3032" y1="12.7948" x2="-5.99769" y2="30.303" gradientUnits="userSpaceOnUse">
<stop stop-color="#FDBD4D"/>
<stop offset="0.5" stop-color="#FF6633"/>
<stop offset="1" stop-color="#273470"/>
</linearGradient>
<linearGradient id="paint41_linear_2_1739" x1="33.7942" y1="26.6009" x2="1.48546" y2="44.1169" gradientUnits="userSpaceOnUse">
<stop stop-color="#FDBD4D"/>
<stop offset="0.5" stop-color="#FF6633"/>
<stop offset="1" stop-color="#273470"/>
</linearGradient>
<linearGradient id="paint42_linear_2_1739" x1="25.727" y1="11.7291" x2="-6.58176" y2="29.2373" gradientUnits="userSpaceOnUse">
<stop stop-color="#FDBD4D"/>
<stop offset="0.5" stop-color="#FF6633"/>
<stop offset="1" stop-color="#273470"/>
</linearGradient>
<linearGradient id="paint43_linear_2_1739" x1="26.0901" y1="12.4001" x2="-6.21074" y2="29.9082" gradientUnits="userSpaceOnUse">
<stop stop-color="#FDBD4D"/>
<stop offset="0.5" stop-color="#FF6633"/>
<stop offset="1" stop-color="#273470"/>
</linearGradient>
<linearGradient id="paint44_linear_2_1739" x1="29.5632" y1="35.9943" x2="6.73474" y2="49.2793" gradientUnits="userSpaceOnUse">
<stop stop-color="#FDBD4D"/>
<stop offset="0.5" stop-color="#FF6633"/>
<stop offset="1" stop-color="#273470"/>
</linearGradient>
<linearGradient id="paint45_linear_2_1739" x1="21.9143" y1="22.8434" x2="-0.914153" y2="36.1285" gradientUnits="userSpaceOnUse">
<stop stop-color="#FDBD4D"/>
<stop offset="0.5" stop-color="#FF6633"/>
<stop offset="1" stop-color="#273470"/>
</linearGradient>
<linearGradient id="paint46_linear_2_1739" x1="30.0448" y1="36.8232" x2="7.21628" y2="50.1082" gradientUnits="userSpaceOnUse">
<stop stop-color="#FDBD4D"/>
<stop offset="0.5" stop-color="#FF6633"/>
<stop offset="1" stop-color="#273470"/>
</linearGradient>
<linearGradient id="paint47_linear_2_1739" x1="26.2242" y1="30.2556" x2="3.39573" y2="43.5407" gradientUnits="userSpaceOnUse">
<stop stop-color="#FDBD4D"/>
<stop offset="0.5" stop-color="#FF6633"/>
<stop offset="1" stop-color="#273470"/>
</linearGradient>
<linearGradient id="paint48_linear_2_1739" x1="26.319" y1="30.4293" x2="3.49051" y2="43.7064" gradientUnits="userSpaceOnUse">
<stop stop-color="#FDBD4D"/>
<stop offset="0.5" stop-color="#FF6633"/>
<stop offset="1" stop-color="#273470"/>
</linearGradient>
<linearGradient id="paint49_linear_2_1739" x1="25.4191" y1="28.8742" x2="2.59061" y2="42.1593" gradientUnits="userSpaceOnUse">
<stop stop-color="#FDBD4D"/>
<stop offset="0.5" stop-color="#FF6633"/>
<stop offset="1" stop-color="#273470"/>
</linearGradient>
<linearGradient id="paint50_linear_2_1739" x1="21.7091" y1="22.4961" x2="-1.11941" y2="35.7812" gradientUnits="userSpaceOnUse">
<stop stop-color="#FDBD4D"/>
<stop offset="0.5" stop-color="#FF6633"/>
<stop offset="1" stop-color="#273470"/>
</linearGradient>
<linearGradient id="paint51_linear_2_1739" x1="21.5118" y1="22.1568" x2="-1.31669" y2="35.4418" gradientUnits="userSpaceOnUse">
<stop stop-color="#FDBD4D"/>
<stop offset="0.5" stop-color="#FF6633"/>
<stop offset="1" stop-color="#273470"/>
</linearGradient>
<linearGradient id="paint52_linear_2_1739" x1="14.2338" y1="9.64524" x2="-8.59471" y2="22.9303" gradientUnits="userSpaceOnUse">
<stop stop-color="#FDBD4D"/>
<stop offset="0.5" stop-color="#FF6633"/>
<stop offset="1" stop-color="#273470"/>
</linearGradient>
<linearGradient id="paint53_linear_2_1739" x1="21.8513" y1="22.7409" x2="-0.977153" y2="36.0259" gradientUnits="userSpaceOnUse">
<stop stop-color="#FDBD4D"/>
<stop offset="0.5" stop-color="#FF6633"/>
<stop offset="1" stop-color="#273470"/>
</linearGradient>
<clipPath id="clip0_2_1739">
<rect width="145" height="50.33" fill="white" transform="translate(0.6521 0.314941)"/>
</clipPath>
<clipPath id="clip1_2_1739">
<rect width="145" height="50.33" fill="white" transform="translate(0.6521 0.314941)"/>
</clipPath>
<clipPath id="clip2_2_1739">
<rect width="144.991" height="50.33" fill="white" transform="translate(0.656738 0.314941)"/>
</clipPath>
</defs>
</svg>
